<?xml version="1.0" encoding="UTF-8" standalone="no"?>
<!DOCTYPE svg PUBLIC "-//W3C//DTD SVG 1.1//EN"
 "http://www.w3.org/Graphics/SVG/1.1/DTD/svg11.dtd">
<!-- Generated by graphviz version 2.40.1 (20161225.0304)
 -->
<!-- Title: InheritanceGraph Pages: 1 -->
<svg width="300pt" height="102pt"
 viewBox="0.00 0.00 300.50 102.00" xmlns="http://www.w3.org/2000/svg" xmlns:xlink="http://www.w3.org/1999/xlink">
<g id="graph0" class="graph" transform="scale(1 1) rotate(0) translate(4 98)">
<title>InheritanceGraph</title>
<g id="clust1" class="cluster">
<title>cluster_abjad.tools.abctools</title>
<path fill="transparent" stroke="#bcd2ee" stroke-width="2" stroke-dasharray="5,2" d="M90.6846,-8C90.6846,-8 192.4873,-8 192.4873,-8 198.4873,-8 204.4873,-14 204.4873,-20 204.4873,-20 204.4873,-74 204.4873,-74 204.4873,-80 198.4873,-86 192.4873,-86 192.4873,-86 90.6846,-86 90.6846,-86 84.6846,-86 78.6846,-80 78.6846,-74 78.6846,-74 78.6846,-20 78.6846,-20 78.6846,-14 84.6846,-8 90.6846,-8"/>
<text text-anchor="middle" x="141.5859" y="-74" font-family="Arial" font-size="10.00" fill="#000000">abjad.tools.abctools</text>
</g>
<g id="clust2" class="cluster">
<title>cluster_baca.tools</title>
<path fill="transparent" stroke="#bcd2ee" stroke-width="2" stroke-dasharray="5,2" d="M236.4873,-14C236.4873,-14 273.4971,-14 273.4971,-14 279.4971,-14 285.4971,-20 285.4971,-26 285.4971,-26 285.4971,-68 285.4971,-68 285.4971,-74 279.4971,-80 273.4971,-80 273.4971,-80 236.4873,-80 236.4873,-80 230.4873,-80 224.4873,-74 224.4873,-68 224.4873,-68 224.4873,-26 224.4873,-26 224.4873,-20 230.4873,-14 236.4873,-14"/>
<text text-anchor="middle" x="254.9922" y="-68" font-family="Arial" font-size="10.00" fill="#000000">baca.tools</text>
</g>
<g id="clust3" class="cluster">
<title>cluster_builtins</title>
<path fill="transparent" stroke="#bcd2ee" stroke-width="2" stroke-dasharray="5,2" d="M20,-19C20,-19 46.6846,-19 46.6846,-19 52.6846,-19 58.6846,-25 58.6846,-31 58.6846,-31 58.6846,-62 58.6846,-62 58.6846,-68 52.6846,-74 46.6846,-74 46.6846,-74 20,-74 20,-74 14,-74 8,-68 8,-62 8,-62 8,-31 8,-31 8,-25 14,-19 20,-19"/>
<text text-anchor="middle" x="33.3423" y="-62" font-family="Arial" font-size="10.00" fill="#000000">builtins</text>
</g>
<!-- abjad.tools.abctools.AbjadObject.AbjadObject&#45;&gt;abjad.tools.abctools.AbjadValueObject.AbjadValueObject -->
<g id="edge1" class="edge">
<title>abjad.tools.abctools.AbjadObject.AbjadObject&#45;&gt;abjad.tools.abctools.AbjadValueObject.AbjadValueObject</title>
<path fill="none" stroke="#778899" d="M123.9092,-37C131.7073,-37 140.9297,-37 149.5315,-37"/>
<polygon fill="#778899" stroke="#778899" points="149.5787,-40.5001 159.5787,-37 149.5787,-33.5001 149.5787,-40.5001"/>
</g>
<!-- abjad.tools.abctools.AbjadValueObject.AbjadValueObject&#45;&gt;baca.tools.DivisionMaker.DivisionMaker -->
<g id="edge2" class="edge">
<title>abjad.tools.abctools.AbjadValueObject.AbjadValueObject&#45;&gt;baca.tools.DivisionMaker.DivisionMaker</title>
<path fill="none" stroke="#778899" d="M196.6654,-37C204.5945,-37 214.0721,-37 223.059,-37"/>
<polygon fill="#778899" stroke="#778899" points="223.2612,-40.5001 233.2612,-37 223.2612,-33.5001 223.2612,-40.5001"/>
</g>
<!-- builtins.object&#45;&gt;abjad.tools.abctools.AbjadObject.AbjadObject -->
<g id="edge3" class="edge">
<title>builtins.object&#45;&gt;abjad.tools.abctools.AbjadObject.AbjadObject</title>
<path fill="none" stroke="#778899" d="M50.7214,-37C58.4511,-37 67.7584,-37 76.4724,-37"/>
<polygon fill="#778899" stroke="#778899" points="76.6614,-40.5001 86.6614,-37 76.6613,-33.5001 76.6614,-40.5001"/>
</g>
<!-- abjad.tools.abctools.AbjadObject.AbjadObject -->
<g id="node1" class="node">
<title>abjad.tools.abctools.AbjadObject.AbjadObject</title>
<path fill="#fbb4ae" stroke="#fbb4ae" stroke-width="2" d="M113.2047,-52.498C113.2047,-52.498 97.0658,-52.498 97.0658,-52.498 91.8998,-52.498 86.7338,-47.332 86.7338,-42.166 86.7338,-42.166 86.7338,-31.834 86.7338,-31.834 86.7338,-26.668 91.8998,-21.502 97.0658,-21.502 97.0658,-21.502 113.2047,-21.502 113.2047,-21.502 118.3707,-21.502 123.5368,-26.668 123.5368,-31.834 123.5368,-31.834 123.5368,-42.166 123.5368,-42.166 123.5368,-47.332 118.3707,-52.498 113.2047,-52.498"/>
<text text-anchor="middle" x="105.1353" y="-40.499" font-family="Arial" font-size="10.00" fill="#000000">Abjad</text>
<text text-anchor="middle" x="105.1353" y="-29" font-family="Arial" font-size="10.00" fill="#000000">Object</text>
</g>
<!-- abjad.tools.abctools.AbjadValueObject.AbjadValueObject -->
<g id="node2" class="node">
<title>abjad.tools.abctools.AbjadValueObject.AbjadValueObject</title>
<path fill="#fbb4ae" stroke="#fbb4ae" stroke-width="2" d="M184.4381,-58.5C184.4381,-58.5 171.6351,-58.5 171.6351,-58.5 165.6351,-58.5 159.6351,-52.5 159.6351,-46.5 159.6351,-46.5 159.6351,-27.5 159.6351,-27.5 159.6351,-21.5 165.6351,-15.5 171.6351,-15.5 171.6351,-15.5 184.4381,-15.5 184.4381,-15.5 190.4381,-15.5 196.4381,-21.5 196.4381,-27.5 196.4381,-27.5 196.4381,-46.5 196.4381,-46.5 196.4381,-52.5 190.4381,-58.5 184.4381,-58.5"/>
<text text-anchor="middle" x="178.0366" y="-46.2485" font-family="Arial" font-size="10.00" fill="#000000">Abjad</text>
<text text-anchor="middle" x="178.0366" y="-34.7495" font-family="Arial" font-size="10.00" fill="#000000">Value</text>
<text text-anchor="middle" x="178.0366" y="-23.2505" font-family="Arial" font-size="10.00" fill="#000000">Object</text>
</g>
<!-- baca.tools.DivisionMaker.DivisionMaker -->
<g id="node3" class="node">
<title>baca.tools.DivisionMaker.DivisionMaker</title>
<g id="a_node3"><a xlink:href="../api/baca/tools/DivisionMaker.html#baca.tools.DivisionMaker.DivisionMaker" xlink:title="Division\nMaker" target="_top">
<path fill="#000000" stroke="#000000" stroke-width="2" d="M266.1699,-52.498C266.1699,-52.498 243.8145,-52.498 243.8145,-52.498 238.6484,-52.498 233.4824,-47.332 233.4824,-42.166 233.4824,-42.166 233.4824,-31.834 233.4824,-31.834 233.4824,-26.668 238.6484,-21.502 243.8145,-21.502 243.8145,-21.502 266.1699,-21.502 266.1699,-21.502 271.3359,-21.502 276.502,-26.668 276.502,-31.834 276.502,-31.834 276.502,-42.166 276.502,-42.166 276.502,-47.332 271.3359,-52.498 266.1699,-52.498"/>
<text text-anchor="middle" x="254.9922" y="-40.499" font-family="Arial" font-size="10.00" fill="#ffffff">Division</text>
<text text-anchor="middle" x="254.9922" y="-29" font-family="Arial" font-size="10.00" fill="#ffffff">Maker</text>
</a>
</g>
</g>
<!-- builtins.object -->
<g id="node4" class="node">
<title>builtins.object</title>
<g id="a_node4"><a xlink:href="https://docs.python.org/3.6/library/functions.html#object" xlink:title="object" target="_top">
<path fill="#ccebc5" stroke="#ccebc5" stroke-width="2" d="M43.8579,-47.0056C43.8579,-47.0056 22.8267,-47.0056 22.8267,-47.0056 19.4915,-47.0056 16.1563,-43.6704 16.1563,-40.3352 16.1563,-40.3352 16.1563,-33.6648 16.1563,-33.6648 16.1563,-30.3296 19.4915,-26.9944 22.8267,-26.9944 22.8267,-26.9944 43.8579,-26.9944 43.8579,-26.9944 47.1931,-26.9944 50.5283,-30.3296 50.5283,-33.6648 50.5283,-33.6648 50.5283,-40.3352 50.5283,-40.3352 50.5283,-43.6704 47.1931,-47.0056 43.8579,-47.0056"/>
<text text-anchor="middle" x="33.3423" y="-34.7495" font-family="Arial" font-size="10.00" fill="#000000">object</text>
</a>
</g>
</g>
</g>
</svg>
