<?xml version="1.0" encoding="UTF-8" standalone="no"?>
<!DOCTYPE svg PUBLIC "-//W3C//DTD SVG 1.1//EN"
 "http://www.w3.org/Graphics/SVG/1.1/DTD/svg11.dtd">
<!-- Generated by graphviz version 2.40.1 (20161225.0304)
 -->
<!-- Title: InheritanceGraph Pages: 1 -->
<svg width="424pt" height="102pt"
 viewBox="0.00 0.00 424.20 102.00" xmlns="http://www.w3.org/2000/svg" xmlns:xlink="http://www.w3.org/1999/xlink">
<g id="graph0" class="graph" transform="scale(1 1) rotate(0) translate(4 98)">
<title>InheritanceGraph</title>
<g id="clust1" class="cluster">
<title>cluster_abjad.tools.abctools</title>
<path fill="transparent" stroke="#bcd2ee" stroke-width="2" stroke-dasharray="5,2" d="M90.6846,-14C90.6846,-14 170.5859,-14 170.5859,-14 176.5859,-14 182.5859,-20 182.5859,-26 182.5859,-26 182.5859,-68 182.5859,-68 182.5859,-74 176.5859,-80 170.5859,-80 170.5859,-80 90.6846,-80 90.6846,-80 84.6846,-80 78.6846,-74 78.6846,-68 78.6846,-68 78.6846,-26 78.6846,-26 78.6846,-20 84.6846,-14 90.6846,-14"/>
<text text-anchor="middle" x="130.6353" y="-68" font-family="Arial" font-size="10.00" fill="#000000">abjad.tools.abctools</text>
</g>
<g id="clust2" class="cluster">
<title>cluster_abjad.tools.spannertools</title>
<path fill="transparent" stroke="#bcd2ee" stroke-width="2" stroke-dasharray="5,2" d="M214.5859,-19C214.5859,-19 314.3936,-19 314.3936,-19 320.3936,-19 326.3936,-25 326.3936,-31 326.3936,-31 326.3936,-62 326.3936,-62 326.3936,-68 320.3936,-74 314.3936,-74 314.3936,-74 214.5859,-74 214.5859,-74 208.5859,-74 202.5859,-68 202.5859,-62 202.5859,-62 202.5859,-31 202.5859,-31 202.5859,-25 208.5859,-19 214.5859,-19"/>
<text text-anchor="middle" x="264.4897" y="-62" font-family="Arial" font-size="10.00" fill="#000000">abjad.tools.spannertools</text>
</g>
<g id="clust3" class="cluster">
<title>cluster_baca.tools</title>
<path fill="transparent" stroke="#bcd2ee" stroke-width="2" stroke-dasharray="5,2" d="M358.3936,-8C358.3936,-8 396.2012,-8 396.2012,-8 402.2012,-8 408.2012,-14 408.2012,-20 408.2012,-20 408.2012,-74 408.2012,-74 408.2012,-80 402.2012,-86 396.2012,-86 396.2012,-86 358.3936,-86 358.3936,-86 352.3936,-86 346.3936,-80 346.3936,-74 346.3936,-74 346.3936,-20 346.3936,-20 346.3936,-14 352.3936,-8 358.3936,-8"/>
<text text-anchor="middle" x="377.2974" y="-74" font-family="Arial" font-size="10.00" fill="#000000">baca.tools</text>
</g>
<g id="clust4" class="cluster">
<title>cluster_builtins</title>
<path fill="transparent" stroke="#bcd2ee" stroke-width="2" stroke-dasharray="5,2" d="M20,-19C20,-19 46.6846,-19 46.6846,-19 52.6846,-19 58.6846,-25 58.6846,-31 58.6846,-31 58.6846,-62 58.6846,-62 58.6846,-68 52.6846,-74 46.6846,-74 46.6846,-74 20,-74 20,-74 14,-74 8,-68 8,-62 8,-62 8,-31 8,-31 8,-25 14,-19 20,-19"/>
<text text-anchor="middle" x="33.3423" y="-62" font-family="Arial" font-size="10.00" fill="#000000">builtins</text>
</g>
<!-- abjad.tools.abctools.AbjadObject.AbjadObject&#45;&gt;abjad.tools.spannertools.Spanner.Spanner -->
<g id="edge1" class="edge">
<title>abjad.tools.abctools.AbjadObject.AbjadObject&#45;&gt;abjad.tools.spannertools.Spanner.Spanner</title>
<path fill="none" stroke="#778899" d="M148.8167,-37C170.1097,-37 205.3217,-37 231.3125,-37"/>
<polygon fill="#778899" stroke="#778899" points="231.4698,-40.5001 241.4698,-37 231.4697,-33.5001 231.4698,-40.5001"/>
</g>
<!-- abjad.tools.spannertools.Spanner.Spanner&#45;&gt;baca.tools.PitchTreeSpanner.PitchTreeSpanner -->
<g id="edge2" class="edge">
<title>abjad.tools.spannertools.Spanner.Spanner&#45;&gt;baca.tools.PitchTreeSpanner.PitchTreeSpanner</title>
<path fill="none" stroke="#778899" d="M287.3181,-37C303.5711,-37 325.6721,-37 343.9026,-37"/>
<polygon fill="#778899" stroke="#778899" points="344.1159,-40.5001 354.1158,-37 344.1158,-33.5001 344.1159,-40.5001"/>
</g>
<!-- builtins.object&#45;&gt;abjad.tools.abctools.AbjadObject.AbjadObject -->
<g id="edge3" class="edge">
<title>builtins.object&#45;&gt;abjad.tools.abctools.AbjadObject.AbjadObject</title>
<path fill="none" stroke="#778899" d="M50.6469,-37C64.7425,-37 84.9402,-37 101.4481,-37"/>
<polygon fill="#778899" stroke="#778899" points="101.6622,-40.5001 111.6621,-37 101.6621,-33.5001 101.6622,-40.5001"/>
</g>
<!-- abjad.tools.abctools.AbjadObject.AbjadObject -->
<g id="node1" class="node">
<title>abjad.tools.abctools.AbjadObject.AbjadObject</title>
<path fill="#fbb4ae" stroke="#fbb4ae" stroke-width="2" d="M138.2047,-52.498C138.2047,-52.498 122.0658,-52.498 122.0658,-52.498 116.8998,-52.498 111.7338,-47.332 111.7338,-42.166 111.7338,-42.166 111.7338,-31.834 111.7338,-31.834 111.7338,-26.668 116.8998,-21.502 122.0658,-21.502 122.0658,-21.502 138.2047,-21.502 138.2047,-21.502 143.3707,-21.502 148.5368,-26.668 148.5368,-31.834 148.5368,-31.834 148.5368,-42.166 148.5368,-42.166 148.5368,-47.332 143.3707,-52.498 138.2047,-52.498"/>
<text text-anchor="middle" x="130.1353" y="-40.499" font-family="Arial" font-size="10.00" fill="#000000">Abjad</text>
<text text-anchor="middle" x="130.1353" y="-29" font-family="Arial" font-size="10.00" fill="#000000">Object</text>
</g>
<!-- abjad.tools.spannertools.Spanner.Spanner -->
<g id="node2" class="node">
<title>abjad.tools.spannertools.Spanner.Spanner</title>
<path fill="#b3cde3" stroke="#b3cde3" stroke-width="2" d="M280.6274,-47.0056C280.6274,-47.0056 248.3521,-47.0056 248.3521,-47.0056 245.0169,-47.0056 241.6817,-43.6704 241.6817,-40.3352 241.6817,-40.3352 241.6817,-33.6648 241.6817,-33.6648 241.6817,-30.3296 245.0169,-26.9944 248.3521,-26.9944 248.3521,-26.9944 280.6274,-26.9944 280.6274,-26.9944 283.9626,-26.9944 287.2978,-30.3296 287.2978,-33.6648 287.2978,-33.6648 287.2978,-40.3352 287.2978,-40.3352 287.2978,-43.6704 283.9626,-47.0056 280.6274,-47.0056"/>
<text text-anchor="middle" x="264.4897" y="-34.7495" font-family="Arial" font-size="10.00" fill="#000000">Spanner</text>
</g>
<!-- baca.tools.PitchTreeSpanner.PitchTreeSpanner -->
<g id="node3" class="node">
<title>baca.tools.PitchTreeSpanner.PitchTreeSpanner</title>
<g id="a_node3"><a xlink:href="../api/baca/tools/PitchTreeSpanner.html#baca.tools.PitchTreeSpanner.PitchTreeSpanner" xlink:title="Pitch\nTree\nSpanner" target="_top">
<path fill="#000000" stroke="#000000" stroke-width="2" d="M388.1054,-58.5C388.1054,-58.5 366.4893,-58.5 366.4893,-58.5 360.4893,-58.5 354.4893,-52.5 354.4893,-46.5 354.4893,-46.5 354.4893,-27.5 354.4893,-27.5 354.4893,-21.5 360.4893,-15.5 366.4893,-15.5 366.4893,-15.5 388.1054,-15.5 388.1054,-15.5 394.1054,-15.5 400.1054,-21.5 400.1054,-27.5 400.1054,-27.5 400.1054,-46.5 400.1054,-46.5 400.1054,-52.5 394.1054,-58.5 388.1054,-58.5"/>
<text text-anchor="middle" x="377.2974" y="-46.2485" font-family="Arial" font-size="10.00" fill="#ffffff">Pitch</text>
<text text-anchor="middle" x="377.2974" y="-34.7495" font-family="Arial" font-size="10.00" fill="#ffffff">Tree</text>
<text text-anchor="middle" x="377.2974" y="-23.2505" font-family="Arial" font-size="10.00" fill="#ffffff">Spanner</text>
</a>
</g>
</g>
<!-- builtins.object -->
<g id="node4" class="node">
<title>builtins.object</title>
<g id="a_node4"><a xlink:href="https://docs.python.org/3.6/library/functions.html#object" xlink:title="object" target="_top">
<path fill="#decbe4" stroke="#decbe4" stroke-width="2" d="M43.8579,-47.0056C43.8579,-47.0056 22.8267,-47.0056 22.8267,-47.0056 19.4915,-47.0056 16.1563,-43.6704 16.1563,-40.3352 16.1563,-40.3352 16.1563,-33.6648 16.1563,-33.6648 16.1563,-30.3296 19.4915,-26.9944 22.8267,-26.9944 22.8267,-26.9944 43.8579,-26.9944 43.8579,-26.9944 47.1931,-26.9944 50.5283,-30.3296 50.5283,-33.6648 50.5283,-33.6648 50.5283,-40.3352 50.5283,-40.3352 50.5283,-43.6704 47.1931,-47.0056 43.8579,-47.0056"/>
<text text-anchor="middle" x="33.3423" y="-34.7495" font-family="Arial" font-size="10.00" fill="#000000">object</text>
</a>
</g>
</g>
</g>
</svg>
