<?xml version="1.0" encoding="UTF-8" standalone="no"?>
<!DOCTYPE svg PUBLIC "-//W3C//DTD SVG 1.1//EN"
 "http://www.w3.org/Graphics/SVG/1.1/DTD/svg11.dtd">
<!-- Generated by graphviz version 2.40.1 (20161225.0304)
 -->
<!-- Title: InheritanceGraph Pages: 1 -->
<svg width="682pt" height="266pt"
 viewBox="0.00 0.00 681.59 266.00" xmlns="http://www.w3.org/2000/svg" xmlns:xlink="http://www.w3.org/1999/xlink">
<g id="graph0" class="graph" transform="scale(1 1) rotate(0) translate(4 262)">
<title>InheritanceGraph</title>
<g id="clust1" class="cluster">
<title>cluster_abjad.tools.abctools</title>
<path fill="transparent" stroke="#bcd2ee" stroke-width="2" stroke-dasharray="5,2" d="M90.5504,-18C90.5504,-18 170.4518,-18 170.4518,-18 176.4518,-18 182.4518,-24 182.4518,-30 182.4518,-30 182.4518,-72 182.4518,-72 182.4518,-78 176.4518,-84 170.4518,-84 170.4518,-84 90.5504,-84 90.5504,-84 84.5504,-84 78.5504,-78 78.5504,-72 78.5504,-72 78.5504,-30 78.5504,-30 78.5504,-24 84.5504,-18 90.5504,-18"/>
<text text-anchor="middle" x="130.5011" y="-72" font-family="Arial" font-size="10.00" fill="#000000">abjad.tools.abctools</text>
</g>
<g id="clust2" class="cluster">
<title>cluster_abjad.tools.datastructuretools</title>
<path fill="transparent" stroke="#bcd2ee" stroke-width="2" stroke-dasharray="5,2" d="M448.2467,-8C448.2467,-8 585.6989,-8 585.6989,-8 591.6989,-8 597.6989,-14 597.6989,-20 597.6989,-20 597.6989,-75 597.6989,-75 597.6989,-81 591.6989,-87 585.6989,-87 585.6989,-87 448.2467,-87 448.2467,-87 442.2467,-87 436.2467,-81 436.2467,-75 436.2467,-75 436.2467,-20 436.2467,-20 436.2467,-14 442.2467,-8 448.2467,-8"/>
<text text-anchor="middle" x="516.9728" y="-75" font-family="Arial" font-size="10.00" fill="#000000">abjad.tools.datastructuretools</text>
</g>
<g id="clust3" class="cluster">
<title>cluster_baca</title>
<path fill="transparent" stroke="#bcd2ee" stroke-width="2" stroke-dasharray="5,2" d="M629.6989,-12C629.6989,-12 653.5905,-12 653.5905,-12 659.5905,-12 665.5905,-18 665.5905,-24 665.5905,-24 665.5905,-78 665.5905,-78 665.5905,-84 659.5905,-90 653.5905,-90 653.5905,-90 629.6989,-90 629.6989,-90 623.6989,-90 617.6989,-84 617.6989,-78 617.6989,-78 617.6989,-24 617.6989,-24 617.6989,-18 623.6989,-12 629.6989,-12"/>
<text text-anchor="middle" x="641.6447" y="-78" font-family="Arial" font-size="10.00" fill="#000000">baca</text>
</g>
<g id="clust4" class="cluster">
<title>cluster_builtins</title>
<path fill="transparent" stroke="#bcd2ee" stroke-width="2" stroke-dasharray="5,2" d="M20,-122C20,-122 46.6846,-122 46.6846,-122 52.6846,-122 58.6846,-128 58.6846,-134 58.6846,-134 58.6846,-165 58.6846,-165 58.6846,-171 52.6846,-177 46.6846,-177 46.6846,-177 20,-177 20,-177 14,-177 8,-171 8,-165 8,-165 8,-134 8,-134 8,-128 14,-122 20,-122"/>
<text text-anchor="middle" x="33.3423" y="-165" font-family="Arial" font-size="10.00" fill="#000000">builtins</text>
</g>
<g id="clust5" class="cluster">
<title>cluster_collections.abc</title>
<path fill="transparent" stroke="#bcd2ee" stroke-width="2" stroke-dasharray="5,2" d="M97.6846,-95C97.6846,-95 514.4577,-95 514.4577,-95 520.4577,-95 526.4577,-101 526.4577,-107 526.4577,-107 526.4577,-238 526.4577,-238 526.4577,-244 520.4577,-250 514.4577,-250 514.4577,-250 97.6846,-250 97.6846,-250 91.6846,-250 85.6846,-244 85.6846,-238 85.6846,-238 85.6846,-107 85.6846,-107 85.6846,-101 91.6846,-95 97.6846,-95"/>
<text text-anchor="middle" x="306.0711" y="-238" font-family="Arial" font-size="10.00" fill="#000000">collections.abc</text>
</g>
<!-- abjad.tools.abctools.AbjadObject.AbjadObject&#45;&gt;abjad.tools.datastructuretools.TypedCollection.TypedCollection -->
<g id="edge9" class="edge">
<title>abjad.tools.abctools.AbjadObject.AbjadObject&#45;&gt;abjad.tools.datastructuretools.TypedCollection.TypedCollection</title>
<path fill="none" stroke="#778899" d="M148.8699,-40.8387C202.283,-40.3821 355.7136,-39.0706 433.9138,-38.4021"/>
<polygon fill="#778899" stroke="#778899" points="434.0063,-41.9015 443.976,-38.3161 433.9464,-34.9018 434.0063,-41.9015"/>
</g>
<!-- abjad.tools.datastructuretools.TypedCollection.TypedCollection&#45;&gt;abjad.tools.datastructuretools.TypedList.TypedList -->
<g id="edge1" class="edge">
<title>abjad.tools.datastructuretools.TypedCollection.TypedCollection&#45;&gt;abjad.tools.datastructuretools.TypedList.TypedList</title>
<path fill="none" stroke="#778899" d="M517.7547,-39.2116C526.6459,-39.5043 535.9997,-39.8122 544.3918,-40.0885"/>
<polygon fill="#778899" stroke="#778899" points="544.2907,-43.587 554.4005,-40.418 544.5211,-36.5908 544.2907,-43.587"/>
</g>
<!-- abjad.tools.datastructuretools.TypedList.TypedList&#45;&gt;baca.PitchArrayList.PitchArrayList -->
<g id="edge10" class="edge">
<title>abjad.tools.datastructuretools.TypedList.TypedList&#45;&gt;baca.PitchArrayList.PitchArrayList</title>
<path fill="none" stroke="#778899" d="M589.9934,-41C597.6927,-41 606.8469,-41 615.2948,-41"/>
<polygon fill="#778899" stroke="#778899" points="615.4552,-44.5001 625.4552,-41 615.4551,-37.5001 615.4552,-44.5001"/>
</g>
<!-- builtins.object&#45;&gt;abjad.tools.abctools.AbjadObject.AbjadObject -->
<g id="edge11" class="edge">
<title>builtins.object&#45;&gt;abjad.tools.abctools.AbjadObject.AbjadObject</title>
<path fill="none" stroke="#778899" d="M42.194,-130.0917C51.1979,-120.0884 65.6263,-104.2637 78.5504,-91 87.4249,-81.8924 97.404,-72.0969 106.1952,-63.6106"/>
<polygon fill="#778899" stroke="#778899" points="108.7691,-65.9914 113.5574,-56.5402 103.9204,-60.9425 108.7691,-65.9914"/>
</g>
<!-- builtins.object&#45;&gt;collections.abc.Container -->
<g id="edge12" class="edge">
<title>builtins.object&#45;&gt;collections.abc.Container</title>
<path fill="none" stroke="#778899" d="M50.623,-144.1119C61.3543,-146.6655 75.6276,-150.0618 89.1096,-153.2699"/>
<polygon fill="#778899" stroke="#778899" points="88.6549,-156.7593 99.1935,-155.6693 90.2753,-149.9494 88.6549,-156.7593"/>
</g>
<!-- builtins.object&#45;&gt;collections.abc.Iterable -->
<g id="edge13" class="edge">
<title>builtins.object&#45;&gt;collections.abc.Iterable</title>
<path fill="none" stroke="#778899" d="M41.1264,-149.8649C49.5069,-159.9782 63.6536,-175.6496 78.5504,-186 84.273,-189.9761 90.7935,-193.5199 97.2252,-196.5643"/>
<polygon fill="#778899" stroke="#778899" points="95.9202,-199.8142 106.4813,-200.6595 98.7525,-193.4127 95.9202,-199.8142"/>
</g>
<!-- builtins.object&#45;&gt;collections.abc.Sized -->
<g id="edge14" class="edge">
<title>builtins.object&#45;&gt;collections.abc.Sized</title>
<path fill="none" stroke="#778899" d="M50.623,-135.8881C63.8081,-132.7507 82.34,-128.341 98.1819,-124.5714"/>
<polygon fill="#778899" stroke="#778899" points="99.2024,-127.9264 108.1206,-122.2065 97.582,-121.1165 99.2024,-127.9264"/>
</g>
<!-- collections.abc.Collection&#45;&gt;collections.abc.Sequence -->
<g id="edge2" class="edge">
<title>collections.abc.Collection&#45;&gt;collections.abc.Sequence</title>
<path fill="none" stroke="#778899" d="M294.2374,-163C303.0888,-163 312.6708,-163 321.9459,-163"/>
<polygon fill="#778899" stroke="#778899" points="322.2322,-166.5001 332.2322,-163 322.2321,-159.5001 322.2322,-166.5001"/>
</g>
<!-- collections.abc.Container&#45;&gt;collections.abc.Collection -->
<g id="edge3" class="edge">
<title>collections.abc.Container&#45;&gt;collections.abc.Collection</title>
<path fill="none" stroke="#778899" d="M166.5026,-163C180.1087,-163 195.7528,-163 210.1836,-163"/>
<polygon fill="#778899" stroke="#778899" points="210.4306,-166.5001 220.4306,-163 210.4305,-159.5001 210.4306,-166.5001"/>
</g>
<!-- collections.abc.Iterable&#45;&gt;collections.abc.Collection -->
<g id="edge4" class="edge">
<title>collections.abc.Iterable&#45;&gt;collections.abc.Collection</title>
<path fill="none" stroke="#778899" d="M153.3642,-200.5629C172.2983,-193.7252 199.3102,-183.9704 221.0618,-176.1153"/>
<polygon fill="#778899" stroke="#778899" points="222.4211,-179.3457 230.6377,-172.6571 220.0434,-172.7619 222.4211,-179.3457"/>
</g>
<!-- collections.abc.Iterable&#45;&gt;collections.abc.Reversible -->
<g id="edge5" class="edge">
<title>collections.abc.Iterable&#45;&gt;collections.abc.Reversible</title>
<path fill="none" stroke="#778899" d="M159.5444,-209C173.7723,-209 191.228,-209 207.4365,-209"/>
<polygon fill="#778899" stroke="#778899" points="207.8613,-212.5001 217.8612,-209 207.8612,-205.5001 207.8613,-212.5001"/>
</g>
<!-- collections.abc.MutableSequence&#45;&gt;abjad.tools.datastructuretools.TypedList.TypedList -->
<g id="edge15" class="edge">
<title>collections.abc.MutableSequence&#45;&gt;abjad.tools.datastructuretools.TypedList.TypedList</title>
<path fill="none" stroke="#778899" d="M498.5232,-124.1406C513.5927,-107.1073 535.3323,-82.5347 551.2697,-64.5203"/>
<polygon fill="#778899" stroke="#778899" points="554.1344,-66.5644 558.1392,-56.7556 548.8917,-61.9261 554.1344,-66.5644"/>
</g>
<!-- collections.abc.Reversible&#45;&gt;collections.abc.Sequence -->
<g id="edge6" class="edge">
<title>collections.abc.Reversible&#45;&gt;collections.abc.Sequence</title>
<path fill="none" stroke="#778899" d="M282.922,-198.5619C298.3217,-192.2688 318.1504,-184.1658 334.9898,-177.2844"/>
<polygon fill="#778899" stroke="#778899" points="336.5701,-180.4196 344.503,-173.3968 333.9221,-173.9398 336.5701,-180.4196"/>
</g>
<!-- collections.abc.Sequence&#45;&gt;collections.abc.MutableSequence -->
<g id="edge7" class="edge">
<title>collections.abc.Sequence&#45;&gt;collections.abc.MutableSequence</title>
<path fill="none" stroke="#778899" d="M404.1569,-157.1443C413.8082,-155.4924 424.4719,-153.6673 434.7038,-151.916"/>
<polygon fill="#778899" stroke="#778899" points="435.4721,-155.3355 444.7383,-150.1985 434.2911,-148.4358 435.4721,-155.3355"/>
</g>
<!-- collections.abc.Sized&#45;&gt;collections.abc.Collection -->
<g id="edge8" class="edge">
<title>collections.abc.Sized&#45;&gt;collections.abc.Collection</title>
<path fill="none" stroke="#778899" d="M150.1846,-124.2888C169.2129,-131.1605 198.1659,-141.6164 221.187,-149.9299"/>
<polygon fill="#778899" stroke="#778899" points="220.0495,-153.2403 230.6438,-153.3451 222.4271,-146.6565 220.0495,-153.2403"/>
</g>
<!-- abjad.tools.abctools.AbjadObject.AbjadObject -->
<g id="node1" class="node">
<title>abjad.tools.abctools.AbjadObject.AbjadObject</title>
<path fill="#fbb4ae" stroke="#fbb4ae" stroke-width="2" d="M138.0706,-56.498C138.0706,-56.498 121.9317,-56.498 121.9317,-56.498 116.7656,-56.498 111.5996,-51.332 111.5996,-46.166 111.5996,-46.166 111.5996,-35.834 111.5996,-35.834 111.5996,-30.668 116.7656,-25.502 121.9317,-25.502 121.9317,-25.502 138.0706,-25.502 138.0706,-25.502 143.2366,-25.502 148.4026,-30.668 148.4026,-35.834 148.4026,-35.834 148.4026,-46.166 148.4026,-46.166 148.4026,-51.332 143.2366,-56.498 138.0706,-56.498"/>
<text text-anchor="middle" x="130.0011" y="-44.499" font-family="Arial" font-size="10.00" fill="#000000">Abjad</text>
<text text-anchor="middle" x="130.0011" y="-33" font-family="Arial" font-size="10.00" fill="#000000">Object</text>
</g>
<!-- abjad.tools.datastructuretools.TypedCollection.TypedCollection -->
<g id="node2" class="node">
<title>abjad.tools.datastructuretools.TypedCollection.TypedCollection</title>
<ellipse fill="none" stroke="#b3cde3" stroke-width="2" cx="480.9534" cy="-38" rx="36.9146" ry="21.8382"/>
<text text-anchor="middle" x="480.9534" y="-41.499" font-family="Arial" font-size="10.00" fill="#000000">Typed</text>
<text text-anchor="middle" x="480.9534" y="-30" font-family="Arial" font-size="10.00" fill="#000000">Collection</text>
</g>
<!-- abjad.tools.datastructuretools.TypedList.TypedList -->
<g id="node3" class="node">
<title>abjad.tools.datastructuretools.TypedList.TypedList</title>
<path fill="#b3cde3" stroke="#b3cde3" stroke-width="2" d="M579.4883,-56.498C579.4883,-56.498 564.6683,-56.498 564.6683,-56.498 559.5023,-56.498 554.3363,-51.332 554.3363,-46.166 554.3363,-46.166 554.3363,-35.834 554.3363,-35.834 554.3363,-30.668 559.5023,-25.502 564.6683,-25.502 564.6683,-25.502 579.4883,-25.502 579.4883,-25.502 584.6543,-25.502 589.8203,-30.668 589.8203,-35.834 589.8203,-35.834 589.8203,-46.166 589.8203,-46.166 589.8203,-51.332 584.6543,-56.498 579.4883,-56.498"/>
<text text-anchor="middle" x="572.0783" y="-44.499" font-family="Arial" font-size="10.00" fill="#000000">Typed</text>
<text text-anchor="middle" x="572.0783" y="-33" font-family="Arial" font-size="10.00" fill="#000000">List</text>
</g>
<!-- baca.PitchArrayList.PitchArrayList -->
<g id="node4" class="node">
<title>baca.PitchArrayList.PitchArrayList</title>
<g id="a_node4"><a xlink:href="../api/baca/PitchArrayList.html#baca.PitchArrayList.PitchArrayList" xlink:title="Pitch\nArray\nList" target="_top">
<path fill="#000000" stroke="#000000" stroke-width="2" d="M646.942,-62.5C646.942,-62.5 636.3474,-62.5 636.3474,-62.5 631.0502,-62.5 625.7529,-57.2028 625.7529,-51.9055 625.7529,-51.9055 625.7529,-30.0945 625.7529,-30.0945 625.7529,-24.7972 631.0502,-19.5 636.3474,-19.5 636.3474,-19.5 646.942,-19.5 646.942,-19.5 652.2392,-19.5 657.5365,-24.7972 657.5365,-30.0945 657.5365,-30.0945 657.5365,-51.9055 657.5365,-51.9055 657.5365,-57.2028 652.2392,-62.5 646.942,-62.5"/>
<text text-anchor="middle" x="641.6447" y="-50.2485" font-family="Arial" font-size="10.00" fill="#ffffff">Pitch</text>
<text text-anchor="middle" x="641.6447" y="-38.7495" font-family="Arial" font-size="10.00" fill="#ffffff">Array</text>
<text text-anchor="middle" x="641.6447" y="-27.2505" font-family="Arial" font-size="10.00" fill="#ffffff">List</text>
</a>
</g>
</g>
<!-- builtins.object -->
<g id="node5" class="node">
<title>builtins.object</title>
<g id="a_node5"><a xlink:href="https://docs.python.org/3.6/library/functions.html#object" xlink:title="object" target="_top">
<path fill="#decbe4" stroke="#decbe4" stroke-width="2" d="M43.8579,-150.0056C43.8579,-150.0056 22.8267,-150.0056 22.8267,-150.0056 19.4915,-150.0056 16.1563,-146.6704 16.1563,-143.3352 16.1563,-143.3352 16.1563,-136.6648 16.1563,-136.6648 16.1563,-133.3296 19.4915,-129.9944 22.8267,-129.9944 22.8267,-129.9944 43.8579,-129.9944 43.8579,-129.9944 47.1931,-129.9944 50.5283,-133.3296 50.5283,-136.6648 50.5283,-136.6648 50.5283,-143.3352 50.5283,-143.3352 50.5283,-146.6704 47.1931,-150.0056 43.8579,-150.0056"/>
<text text-anchor="middle" x="33.3423" y="-137.7495" font-family="Arial" font-size="10.00" fill="#000000">object</text>
</a>
</g>
</g>
<!-- collections.abc.Collection -->
<g id="node6" class="node">
<title>collections.abc.Collection</title>
<g id="a_node6"><a xlink:href="https://docs.python.org/3.6/library/collections.abc.html#collections.abc.Collection" xlink:title="Collection" target="_top">
<ellipse fill="none" stroke="#fed9a6" stroke-width="2" cx="257.3791" cy="-163" rx="36.9146" ry="13.579"/>
<text text-anchor="middle" x="257.3791" y="-160.7495" font-family="Arial" font-size="10.00" fill="#000000">Collection</text>
</a>
</g>
</g>
<!-- collections.abc.Container -->
<g id="node7" class="node">
<title>collections.abc.Container</title>
<g id="a_node7"><a xlink:href="https://docs.python.org/3.6/library/collections.abc.html#collections.abc.Container" xlink:title="Container" target="_top">
<ellipse fill="none" stroke="#fed9a6" stroke-width="2" cx="130.0011" cy="-163" rx="36.134" ry="13.579"/>
<text text-anchor="middle" x="130.0011" y="-160.7495" font-family="Arial" font-size="10.00" fill="#000000">Container</text>
</a>
</g>
</g>
<!-- collections.abc.Iterable -->
<g id="node8" class="node">
<title>collections.abc.Iterable</title>
<g id="a_node8"><a xlink:href="https://docs.python.org/3.6/library/collections.abc.html#collections.abc.Iterable" xlink:title="Iterable" target="_top">
<ellipse fill="none" stroke="#fed9a6" stroke-width="2" cx="130.0011" cy="-209" rx="29.4861" ry="13.579"/>
<text text-anchor="middle" x="130.0011" y="-206.7495" font-family="Arial" font-size="10.00" fill="#000000">Iterable</text>
</a>
</g>
</g>
<!-- collections.abc.MutableSequence -->
<g id="node9" class="node">
<title>collections.abc.MutableSequence</title>
<g id="a_node9"><a xlink:href="https://docs.python.org/3.6/library/collections.abc.html#collections.abc.MutableSequence" xlink:title="Mutable\nSequence" target="_top">
<ellipse fill="none" stroke="#fed9a6" stroke-width="2" cx="480.9534" cy="-144" rx="37.5086" ry="21.8382"/>
<text text-anchor="middle" x="480.9534" y="-147.499" font-family="Arial" font-size="10.00" fill="#000000">Mutable</text>
<text text-anchor="middle" x="480.9534" y="-136" font-family="Arial" font-size="10.00" fill="#000000">Sequence</text>
</a>
</g>
</g>
<!-- collections.abc.Reversible -->
<g id="node10" class="node">
<title>collections.abc.Reversible</title>
<g id="a_node10"><a xlink:href="https://docs.python.org/3.6/library/collections.abc.html#collections.abc.Reversible" xlink:title="Reversible" target="_top">
<ellipse fill="none" stroke="#fed9a6" stroke-width="2" cx="257.3791" cy="-209" rx="39.123" ry="13.579"/>
<text text-anchor="middle" x="257.3791" y="-206.7495" font-family="Arial" font-size="10.00" fill="#000000">Reversible</text>
</a>
</g>
</g>
<!-- collections.abc.Sequence -->
<g id="node11" class="node">
<title>collections.abc.Sequence</title>
<g id="a_node11"><a xlink:href="https://docs.python.org/3.6/library/collections.abc.html#collections.abc.Sequence" xlink:title="Sequence" target="_top">
<ellipse fill="none" stroke="#fed9a6" stroke-width="2" cx="369.9448" cy="-163" rx="37.5086" ry="13.579"/>
<text text-anchor="middle" x="369.9448" y="-160.7495" font-family="Arial" font-size="10.00" fill="#000000">Sequence</text>
</a>
</g>
</g>
<!-- collections.abc.Sized -->
<g id="node12" class="node">
<title>collections.abc.Sized</title>
<g id="a_node12"><a xlink:href="https://docs.python.org/3.6/library/collections.abc.html#collections.abc.Sized" xlink:title="Sized" target="_top">
<ellipse fill="none" stroke="#fed9a6" stroke-width="2" cx="130.0011" cy="-117" rx="23.1908" ry="13.579"/>
<text text-anchor="middle" x="130.0011" y="-114.7495" font-family="Arial" font-size="10.00" fill="#000000">Sized</text>
</a>
</g>
</g>
</g>
</svg>
