<?xml version="1.0" encoding="UTF-8" standalone="no"?>
<!DOCTYPE svg PUBLIC "-//W3C//DTD SVG 1.1//EN"
 "http://www.w3.org/Graphics/SVG/1.1/DTD/svg11.dtd">
<!-- Generated by graphviz version 2.40.1 (20161225.0304)
 -->
<!-- Title: InheritanceGraph Pages: 1 -->
<svg width="321pt" height="102pt"
 viewBox="0.00 0.00 320.64 102.00" xmlns="http://www.w3.org/2000/svg" xmlns:xlink="http://www.w3.org/1999/xlink">
<g id="graph0" class="graph" transform="scale(1 1) rotate(0) translate(4 98)">
<title>InheritanceGraph</title>
<g id="clust1" class="cluster">
<title>cluster_abjad.tools.abctools</title>
<path fill="transparent" stroke="#bcd2ee" stroke-width="2" stroke-dasharray="5,2" d="M90.6846,-8C90.6846,-8 192.4873,-8 192.4873,-8 198.4873,-8 204.4873,-14 204.4873,-20 204.4873,-20 204.4873,-74 204.4873,-74 204.4873,-80 198.4873,-86 192.4873,-86 192.4873,-86 90.6846,-86 90.6846,-86 84.6846,-86 78.6846,-80 78.6846,-74 78.6846,-74 78.6846,-20 78.6846,-20 78.6846,-14 84.6846,-8 90.6846,-8"/>
<text text-anchor="middle" x="141.5859" y="-74" font-family="Arial" font-size="10.00" fill="#000000">abjad.tools.abctools</text>
</g>
<g id="clust2" class="cluster">
<title>cluster_baca.tools</title>
<path fill="transparent" stroke="#bcd2ee" stroke-width="2" stroke-dasharray="5,2" d="M236.4873,-8C236.4873,-8 292.6396,-8 292.6396,-8 298.6396,-8 304.6396,-14 304.6396,-20 304.6396,-20 304.6396,-74 304.6396,-74 304.6396,-80 298.6396,-86 292.6396,-86 292.6396,-86 236.4873,-86 236.4873,-86 230.4873,-86 224.4873,-80 224.4873,-74 224.4873,-74 224.4873,-20 224.4873,-20 224.4873,-14 230.4873,-8 236.4873,-8"/>
<text text-anchor="middle" x="264.5635" y="-74" font-family="Arial" font-size="10.00" fill="#000000">baca.tools</text>
</g>
<g id="clust3" class="cluster">
<title>cluster_builtins</title>
<path fill="transparent" stroke="#bcd2ee" stroke-width="2" stroke-dasharray="5,2" d="M20,-19C20,-19 46.6846,-19 46.6846,-19 52.6846,-19 58.6846,-25 58.6846,-31 58.6846,-31 58.6846,-62 58.6846,-62 58.6846,-68 52.6846,-74 46.6846,-74 46.6846,-74 20,-74 20,-74 14,-74 8,-68 8,-62 8,-62 8,-31 8,-31 8,-25 14,-19 20,-19"/>
<text text-anchor="middle" x="33.3423" y="-62" font-family="Arial" font-size="10.00" fill="#000000">builtins</text>
</g>
<!-- abjad.tools.abctools.AbjadObject.AbjadObject&#45;&gt;abjad.tools.abctools.AbjadValueObject.AbjadValueObject -->
<g id="edge1" class="edge">
<title>abjad.tools.abctools.AbjadObject.AbjadObject&#45;&gt;abjad.tools.abctools.AbjadValueObject.AbjadValueObject</title>
<path fill="none" stroke="#778899" d="M123.9092,-37C131.7073,-37 140.9297,-37 149.5315,-37"/>
<polygon fill="#778899" stroke="#778899" points="149.5787,-40.5001 159.5787,-37 149.5787,-33.5001 149.5787,-40.5001"/>
</g>
<!-- abjad.tools.abctools.AbjadValueObject.AbjadValueObject&#45;&gt;baca.tools.ArpeggiationSpacingSpecifier.ArpeggiationSpacingSpecifier -->
<g id="edge2" class="edge">
<title>abjad.tools.abctools.AbjadValueObject.AbjadValueObject&#45;&gt;baca.tools.ArpeggiationSpacingSpecifier.ArpeggiationSpacingSpecifier</title>
<path fill="none" stroke="#778899" d="M196.8117,-37C204.2423,-37 213.1101,-37 221.9422,-37"/>
<polygon fill="#778899" stroke="#778899" points="222.2057,-40.5001 232.2056,-37 222.2056,-33.5001 222.2057,-40.5001"/>
</g>
<!-- builtins.object&#45;&gt;abjad.tools.abctools.AbjadObject.AbjadObject -->
<g id="edge3" class="edge">
<title>builtins.object&#45;&gt;abjad.tools.abctools.AbjadObject.AbjadObject</title>
<path fill="none" stroke="#778899" d="M50.7214,-37C58.4511,-37 67.7584,-37 76.4724,-37"/>
<polygon fill="#778899" stroke="#778899" points="76.6614,-40.5001 86.6614,-37 76.6613,-33.5001 76.6614,-40.5001"/>
</g>
<!-- abjad.tools.abctools.AbjadObject.AbjadObject -->
<g id="node1" class="node">
<title>abjad.tools.abctools.AbjadObject.AbjadObject</title>
<path fill="#fbb4ae" stroke="#fbb4ae" stroke-width="2" d="M113.2047,-52.498C113.2047,-52.498 97.0658,-52.498 97.0658,-52.498 91.8998,-52.498 86.7338,-47.332 86.7338,-42.166 86.7338,-42.166 86.7338,-31.834 86.7338,-31.834 86.7338,-26.668 91.8998,-21.502 97.0658,-21.502 97.0658,-21.502 113.2047,-21.502 113.2047,-21.502 118.3707,-21.502 123.5368,-26.668 123.5368,-31.834 123.5368,-31.834 123.5368,-42.166 123.5368,-42.166 123.5368,-47.332 118.3707,-52.498 113.2047,-52.498"/>
<text text-anchor="middle" x="105.1353" y="-40.499" font-family="Arial" font-size="10.00" fill="#000000">Abjad</text>
<text text-anchor="middle" x="105.1353" y="-29" font-family="Arial" font-size="10.00" fill="#000000">Object</text>
</g>
<!-- abjad.tools.abctools.AbjadValueObject.AbjadValueObject -->
<g id="node2" class="node">
<title>abjad.tools.abctools.AbjadValueObject.AbjadValueObject</title>
<path fill="#fbb4ae" stroke="#fbb4ae" stroke-width="2" d="M184.4381,-58.5C184.4381,-58.5 171.6351,-58.5 171.6351,-58.5 165.6351,-58.5 159.6351,-52.5 159.6351,-46.5 159.6351,-46.5 159.6351,-27.5 159.6351,-27.5 159.6351,-21.5 165.6351,-15.5 171.6351,-15.5 171.6351,-15.5 184.4381,-15.5 184.4381,-15.5 190.4381,-15.5 196.4381,-21.5 196.4381,-27.5 196.4381,-27.5 196.4381,-46.5 196.4381,-46.5 196.4381,-52.5 190.4381,-58.5 184.4381,-58.5"/>
<text text-anchor="middle" x="178.0366" y="-46.2485" font-family="Arial" font-size="10.00" fill="#000000">Abjad</text>
<text text-anchor="middle" x="178.0366" y="-34.7495" font-family="Arial" font-size="10.00" fill="#000000">Value</text>
<text text-anchor="middle" x="178.0366" y="-23.2505" font-family="Arial" font-size="10.00" fill="#000000">Object</text>
</g>
<!-- baca.tools.ArpeggiationSpacingSpecifier.ArpeggiationSpacingSpecifier -->
<g id="node3" class="node">
<title>baca.tools.ArpeggiationSpacingSpecifier.ArpeggiationSpacingSpecifier</title>
<g id="a_node3"><a xlink:href="../api/baca/tools/ArpeggiationSpacingSpecifier.html#baca.tools.ArpeggiationSpacingSpecifier.ArpeggiationSpacingSpecifier" xlink:title="Arpeggiation\nSpacing\nSpecifier" target="_top">
<path fill="#000000" stroke="#000000" stroke-width="2" d="M284.716,-58.5C284.716,-58.5 244.411,-58.5 244.411,-58.5 238.411,-58.5 232.411,-52.5 232.411,-46.5 232.411,-46.5 232.411,-27.5 232.411,-27.5 232.411,-21.5 238.411,-15.5 244.411,-15.5 244.411,-15.5 284.716,-15.5 284.716,-15.5 290.716,-15.5 296.716,-21.5 296.716,-27.5 296.716,-27.5 296.716,-46.5 296.716,-46.5 296.716,-52.5 290.716,-58.5 284.716,-58.5"/>
<text text-anchor="middle" x="264.5635" y="-46.2485" font-family="Arial" font-size="10.00" fill="#ffffff">Arpeggiation</text>
<text text-anchor="middle" x="264.5635" y="-34.7495" font-family="Arial" font-size="10.00" fill="#ffffff">Spacing</text>
<text text-anchor="middle" x="264.5635" y="-23.2505" font-family="Arial" font-size="10.00" fill="#ffffff">Specifier</text>
</a>
</g>
</g>
<!-- builtins.object -->
<g id="node4" class="node">
<title>builtins.object</title>
<g id="a_node4"><a xlink:href="https://docs.python.org/3.6/library/functions.html#object" xlink:title="object" target="_top">
<path fill="#ccebc5" stroke="#ccebc5" stroke-width="2" d="M43.8579,-47.0056C43.8579,-47.0056 22.8267,-47.0056 22.8267,-47.0056 19.4915,-47.0056 16.1563,-43.6704 16.1563,-40.3352 16.1563,-40.3352 16.1563,-33.6648 16.1563,-33.6648 16.1563,-30.3296 19.4915,-26.9944 22.8267,-26.9944 22.8267,-26.9944 43.8579,-26.9944 43.8579,-26.9944 47.1931,-26.9944 50.5283,-30.3296 50.5283,-33.6648 50.5283,-33.6648 50.5283,-40.3352 50.5283,-40.3352 50.5283,-43.6704 47.1931,-47.0056 43.8579,-47.0056"/>
<text text-anchor="middle" x="33.3423" y="-34.7495" font-family="Arial" font-size="10.00" fill="#000000">object</text>
</a>
</g>
</g>
</g>
</svg>
