<?xml version="1.0" encoding="UTF-8" standalone="no"?>
<!DOCTYPE svg PUBLIC "-//W3C//DTD SVG 1.1//EN"
 "http://www.w3.org/Graphics/SVG/1.1/DTD/svg11.dtd">
<!-- Generated by graphviz version 2.40.1 (20161225.0304)
 -->
<!-- Title: InheritanceGraph Pages: 1 -->
<svg width="264pt" height="90pt"
 viewBox="0.00 0.00 263.71 90.00" xmlns="http://www.w3.org/2000/svg" xmlns:xlink="http://www.w3.org/1999/xlink">
<g id="graph0" class="graph" transform="scale(1 1) rotate(0) translate(4 86)">
<title>InheritanceGraph</title>
<g id="clust1" class="cluster">
<title>cluster_abjad.tools.abctools</title>
<path fill="transparent" stroke="#bcd2ee" stroke-width="2" stroke-dasharray="5,2" d="M90.6846,-8C90.6846,-8 170.5859,-8 170.5859,-8 176.5859,-8 182.5859,-14 182.5859,-20 182.5859,-20 182.5859,-62 182.5859,-62 182.5859,-68 176.5859,-74 170.5859,-74 170.5859,-74 90.6846,-74 90.6846,-74 84.6846,-74 78.6846,-68 78.6846,-62 78.6846,-62 78.6846,-20 78.6846,-20 78.6846,-14 84.6846,-8 90.6846,-8"/>
<text text-anchor="middle" x="130.6353" y="-62" font-family="Arial" font-size="10.00" fill="#000000">abjad.tools.abctools</text>
</g>
<g id="clust2" class="cluster">
<title>cluster_baca</title>
<path fill="transparent" stroke="#bcd2ee" stroke-width="2" stroke-dasharray="5,2" d="M214.5859,-13C214.5859,-13 235.709,-13 235.709,-13 241.709,-13 247.709,-19 247.709,-25 247.709,-25 247.709,-56 247.709,-56 247.709,-62 241.709,-68 235.709,-68 235.709,-68 214.5859,-68 214.5859,-68 208.5859,-68 202.5859,-62 202.5859,-56 202.5859,-56 202.5859,-25 202.5859,-25 202.5859,-19 208.5859,-13 214.5859,-13"/>
<text text-anchor="middle" x="225.1475" y="-56" font-family="Arial" font-size="10.00" fill="#000000">baca</text>
</g>
<g id="clust3" class="cluster">
<title>cluster_builtins</title>
<path fill="transparent" stroke="#bcd2ee" stroke-width="2" stroke-dasharray="5,2" d="M20,-13C20,-13 46.6846,-13 46.6846,-13 52.6846,-13 58.6846,-19 58.6846,-25 58.6846,-25 58.6846,-56 58.6846,-56 58.6846,-62 52.6846,-68 46.6846,-68 46.6846,-68 20,-68 20,-68 14,-68 8,-62 8,-56 8,-56 8,-25 8,-25 8,-19 14,-13 20,-13"/>
<text text-anchor="middle" x="33.3423" y="-56" font-family="Arial" font-size="10.00" fill="#000000">builtins</text>
</g>
<!-- abjad.tools.abctools.AbjadObject.AbjadObject&#45;&gt;baca.Coat.Coat -->
<g id="edge1" class="edge">
<title>abjad.tools.abctools.AbjadObject.AbjadObject&#45;&gt;baca.Coat.Coat</title>
<path fill="none" stroke="#778899" d="M148.9066,-31C163.5828,-31 184.1198,-31 200.1818,-31"/>
<polygon fill="#778899" stroke="#778899" points="200.4597,-34.5001 210.4597,-31 200.4597,-27.5001 200.4597,-34.5001"/>
</g>
<!-- builtins.object&#45;&gt;abjad.tools.abctools.AbjadObject.AbjadObject -->
<g id="edge2" class="edge">
<title>builtins.object&#45;&gt;abjad.tools.abctools.AbjadObject.AbjadObject</title>
<path fill="none" stroke="#778899" d="M50.6469,-31C64.7425,-31 84.9402,-31 101.4481,-31"/>
<polygon fill="#778899" stroke="#778899" points="101.6622,-34.5001 111.6621,-31 101.6621,-27.5001 101.6622,-34.5001"/>
</g>
<!-- abjad.tools.abctools.AbjadObject.AbjadObject -->
<g id="node1" class="node">
<title>abjad.tools.abctools.AbjadObject.AbjadObject</title>
<path fill="#fbb4ae" stroke="#fbb4ae" stroke-width="2" d="M138.2047,-46.498C138.2047,-46.498 122.0658,-46.498 122.0658,-46.498 116.8998,-46.498 111.7338,-41.332 111.7338,-36.166 111.7338,-36.166 111.7338,-25.834 111.7338,-25.834 111.7338,-20.668 116.8998,-15.502 122.0658,-15.502 122.0658,-15.502 138.2047,-15.502 138.2047,-15.502 143.3707,-15.502 148.5368,-20.668 148.5368,-25.834 148.5368,-25.834 148.5368,-36.166 148.5368,-36.166 148.5368,-41.332 143.3707,-46.498 138.2047,-46.498"/>
<text text-anchor="middle" x="130.1353" y="-34.499" font-family="Arial" font-size="10.00" fill="#000000">Abjad</text>
<text text-anchor="middle" x="130.1353" y="-23" font-family="Arial" font-size="10.00" fill="#000000">Object</text>
</g>
<!-- baca.Coat.Coat -->
<g id="node2" class="node">
<title>baca.Coat.Coat</title>
<g id="a_node2"><a xlink:href="../api/baca/Coat.html#baca.Coat.Coat" xlink:title="Coat" target="_top">
<path fill="#000000" stroke="#000000" stroke-width="2" d="M233.1004,-41.0056C233.1004,-41.0056 217.1945,-41.0056 217.1945,-41.0056 213.8593,-41.0056 210.5242,-37.6704 210.5242,-34.3352 210.5242,-34.3352 210.5242,-27.6648 210.5242,-27.6648 210.5242,-24.3296 213.8593,-20.9944 217.1945,-20.9944 217.1945,-20.9944 233.1004,-20.9944 233.1004,-20.9944 236.4356,-20.9944 239.7708,-24.3296 239.7708,-27.6648 239.7708,-27.6648 239.7708,-34.3352 239.7708,-34.3352 239.7708,-37.6704 236.4356,-41.0056 233.1004,-41.0056"/>
<text text-anchor="middle" x="225.1475" y="-28.7495" font-family="Arial" font-size="10.00" fill="#ffffff">Coat</text>
</a>
</g>
</g>
<!-- builtins.object -->
<g id="node3" class="node">
<title>builtins.object</title>
<g id="a_node3"><a xlink:href="https://docs.python.org/3.6/library/functions.html#object" xlink:title="object" target="_top">
<path fill="#ccebc5" stroke="#ccebc5" stroke-width="2" d="M43.8579,-41.0056C43.8579,-41.0056 22.8267,-41.0056 22.8267,-41.0056 19.4915,-41.0056 16.1563,-37.6704 16.1563,-34.3352 16.1563,-34.3352 16.1563,-27.6648 16.1563,-27.6648 16.1563,-24.3296 19.4915,-20.9944 22.8267,-20.9944 22.8267,-20.9944 43.8579,-20.9944 43.8579,-20.9944 47.1931,-20.9944 50.5283,-24.3296 50.5283,-27.6648 50.5283,-27.6648 50.5283,-34.3352 50.5283,-34.3352 50.5283,-37.6704 47.1931,-41.0056 43.8579,-41.0056"/>
<text text-anchor="middle" x="33.3423" y="-28.7495" font-family="Arial" font-size="10.00" fill="#000000">object</text>
</a>
</g>
</g>
</g>
</svg>
