<?xml version="1.0" encoding="UTF-8" standalone="no"?>
<!DOCTYPE svg PUBLIC "-//W3C//DTD SVG 1.1//EN"
 "http://www.w3.org/Graphics/SVG/1.1/DTD/svg11.dtd">
<!-- Generated by graphviz version 2.40.1 (20161225.0304)
 -->
<!-- Title: InheritanceGraph Pages: 1 -->
<svg width="272pt" height="102pt"
 viewBox="0.00 0.00 272.48 102.00" xmlns="http://www.w3.org/2000/svg" xmlns:xlink="http://www.w3.org/1999/xlink">
<g id="graph0" class="graph" transform="scale(1 1) rotate(0) translate(4 98)">
<title>InheritanceGraph</title>
<g id="clust1" class="cluster">
<title>cluster_abjad.tools.abctools</title>
<path fill="transparent" stroke="#bcd2ee" stroke-width="2" stroke-dasharray="5,2" d="M90.6846,-14C90.6846,-14 170.5859,-14 170.5859,-14 176.5859,-14 182.5859,-20 182.5859,-26 182.5859,-26 182.5859,-68 182.5859,-68 182.5859,-74 176.5859,-80 170.5859,-80 170.5859,-80 90.6846,-80 90.6846,-80 84.6846,-80 78.6846,-74 78.6846,-68 78.6846,-68 78.6846,-26 78.6846,-26 78.6846,-20 84.6846,-14 90.6846,-14"/>
<text text-anchor="middle" x="130.6353" y="-68" font-family="Arial" font-size="10.00" fill="#000000">abjad.tools.abctools</text>
</g>
<g id="clust2" class="cluster">
<title>cluster_baca.tools</title>
<path fill="transparent" stroke="#bcd2ee" stroke-width="2" stroke-dasharray="5,2" d="M214.5859,-8C214.5859,-8 251.4775,-8 251.4775,-8 257.4775,-8 263.4775,-14 263.4775,-20 263.4775,-20 263.4775,-74 263.4775,-74 263.4775,-80 257.4775,-86 251.4775,-86 251.4775,-86 214.5859,-86 214.5859,-86 208.5859,-86 202.5859,-80 202.5859,-74 202.5859,-74 202.5859,-20 202.5859,-20 202.5859,-14 208.5859,-8 214.5859,-8"/>
<text text-anchor="middle" x="233.0317" y="-74" font-family="Arial" font-size="10.00" fill="#000000">baca.tools</text>
</g>
<g id="clust3" class="cluster">
<title>cluster_builtins</title>
<path fill="transparent" stroke="#bcd2ee" stroke-width="2" stroke-dasharray="5,2" d="M20,-19C20,-19 46.6846,-19 46.6846,-19 52.6846,-19 58.6846,-25 58.6846,-31 58.6846,-31 58.6846,-62 58.6846,-62 58.6846,-68 52.6846,-74 46.6846,-74 46.6846,-74 20,-74 20,-74 14,-74 8,-68 8,-62 8,-62 8,-31 8,-31 8,-25 14,-19 20,-19"/>
<text text-anchor="middle" x="33.3423" y="-62" font-family="Arial" font-size="10.00" fill="#000000">builtins</text>
</g>
<!-- abjad.tools.abctools.AbjadObject.AbjadObject&#45;&gt;baca.tools.PitchArrayCell.PitchArrayCell -->
<g id="edge1" class="edge">
<title>abjad.tools.abctools.AbjadObject.AbjadObject&#45;&gt;baca.tools.PitchArrayCell.PitchArrayCell</title>
<path fill="none" stroke="#778899" d="M148.9163,-37C165.0573,-37 188.5006,-37 206.4596,-37"/>
<polygon fill="#778899" stroke="#778899" points="206.5604,-40.5001 216.5604,-37 206.5604,-33.5001 206.5604,-40.5001"/>
</g>
<!-- builtins.object&#45;&gt;abjad.tools.abctools.AbjadObject.AbjadObject -->
<g id="edge2" class="edge">
<title>builtins.object&#45;&gt;abjad.tools.abctools.AbjadObject.AbjadObject</title>
<path fill="none" stroke="#778899" d="M50.6469,-37C64.7425,-37 84.9402,-37 101.4481,-37"/>
<polygon fill="#778899" stroke="#778899" points="101.6622,-40.5001 111.6621,-37 101.6621,-33.5001 101.6622,-40.5001"/>
</g>
<!-- abjad.tools.abctools.AbjadObject.AbjadObject -->
<g id="node1" class="node">
<title>abjad.tools.abctools.AbjadObject.AbjadObject</title>
<path fill="#fbb4ae" stroke="#fbb4ae" stroke-width="2" d="M138.2047,-52.498C138.2047,-52.498 122.0658,-52.498 122.0658,-52.498 116.8998,-52.498 111.7338,-47.332 111.7338,-42.166 111.7338,-42.166 111.7338,-31.834 111.7338,-31.834 111.7338,-26.668 116.8998,-21.502 122.0658,-21.502 122.0658,-21.502 138.2047,-21.502 138.2047,-21.502 143.3707,-21.502 148.5368,-26.668 148.5368,-31.834 148.5368,-31.834 148.5368,-42.166 148.5368,-42.166 148.5368,-47.332 143.3707,-52.498 138.2047,-52.498"/>
<text text-anchor="middle" x="130.1353" y="-40.499" font-family="Arial" font-size="10.00" fill="#000000">Abjad</text>
<text text-anchor="middle" x="130.1353" y="-29" font-family="Arial" font-size="10.00" fill="#000000">Object</text>
</g>
<!-- baca.tools.PitchArrayCell.PitchArrayCell -->
<g id="node2" class="node">
<title>baca.tools.PitchArrayCell.PitchArrayCell</title>
<g id="a_node2"><a xlink:href="../api/baca/tools/PitchArrayCell.html#baca.tools.PitchArrayCell.PitchArrayCell" xlink:title="Pitch\nArray\nCell" target="_top">
<path fill="#000000" stroke="#000000" stroke-width="2" d="M237.829,-58.5C237.829,-58.5 227.2345,-58.5 227.2345,-58.5 221.9372,-58.5 216.64,-53.2028 216.64,-47.9055 216.64,-47.9055 216.64,-26.0945 216.64,-26.0945 216.64,-20.7972 221.9372,-15.5 227.2345,-15.5 227.2345,-15.5 237.829,-15.5 237.829,-15.5 243.1263,-15.5 248.4235,-20.7972 248.4235,-26.0945 248.4235,-26.0945 248.4235,-47.9055 248.4235,-47.9055 248.4235,-53.2028 243.1263,-58.5 237.829,-58.5"/>
<text text-anchor="middle" x="232.5317" y="-46.2485" font-family="Arial" font-size="10.00" fill="#ffffff">Pitch</text>
<text text-anchor="middle" x="232.5317" y="-34.7495" font-family="Arial" font-size="10.00" fill="#ffffff">Array</text>
<text text-anchor="middle" x="232.5317" y="-23.2505" font-family="Arial" font-size="10.00" fill="#ffffff">Cell</text>
</a>
</g>
</g>
<!-- builtins.object -->
<g id="node3" class="node">
<title>builtins.object</title>
<g id="a_node3"><a xlink:href="https://docs.python.org/3.6/library/functions.html#object" xlink:title="object" target="_top">
<path fill="#ccebc5" stroke="#ccebc5" stroke-width="2" d="M43.8579,-47.0056C43.8579,-47.0056 22.8267,-47.0056 22.8267,-47.0056 19.4915,-47.0056 16.1563,-43.6704 16.1563,-40.3352 16.1563,-40.3352 16.1563,-33.6648 16.1563,-33.6648 16.1563,-30.3296 19.4915,-26.9944 22.8267,-26.9944 22.8267,-26.9944 43.8579,-26.9944 43.8579,-26.9944 47.1931,-26.9944 50.5283,-30.3296 50.5283,-33.6648 50.5283,-33.6648 50.5283,-40.3352 50.5283,-40.3352 50.5283,-43.6704 47.1931,-47.0056 43.8579,-47.0056"/>
<text text-anchor="middle" x="33.3423" y="-34.7495" font-family="Arial" font-size="10.00" fill="#000000">object</text>
</a>
</g>
</g>
</g>
</svg>
