<?xml version="1.0" encoding="UTF-8" standalone="no"?>
<!DOCTYPE svg PUBLIC "-//W3C//DTD SVG 1.1//EN"
 "http://www.w3.org/Graphics/SVG/1.1/DTD/svg11.dtd">
<!-- Generated by graphviz version 2.40.1 (20161225.0304)
 -->
<!-- Title: InheritanceGraph Pages: 1 -->
<svg width="720pt" height="266pt"
 viewBox="0.00 0.00 720.16 266.00" xmlns="http://www.w3.org/2000/svg" xmlns:xlink="http://www.w3.org/1999/xlink">
<g id="graph0" class="graph" transform="scale(1 1) rotate(0) translate(4 262)">
<title>InheritanceGraph</title>
<g id="clust1" class="cluster">
<title>cluster_abjad.tools.abctools</title>
<path fill="transparent" stroke="#bcd2ee" stroke-width="2" stroke-dasharray="5,2" d="M90.5504,-18C90.5504,-18 170.4518,-18 170.4518,-18 176.4518,-18 182.4518,-24 182.4518,-30 182.4518,-30 182.4518,-72 182.4518,-72 182.4518,-78 176.4518,-84 170.4518,-84 170.4518,-84 90.5504,-84 90.5504,-84 84.5504,-84 78.5504,-78 78.5504,-72 78.5504,-72 78.5504,-30 78.5504,-30 78.5504,-24 84.5504,-18 90.5504,-18"/>
<text text-anchor="middle" x="130.5011" y="-72" font-family="Arial" font-size="10.00" fill="#000000">abjad.tools.abctools</text>
</g>
<g id="clust2" class="cluster">
<title>cluster_abjad.tools.datastructuretools</title>
<path fill="transparent" stroke="#bcd2ee" stroke-width="2" stroke-dasharray="5,2" d="M331.7311,-8C331.7311,-8 485.6074,-8 485.6074,-8 491.6074,-8 497.6074,-14 497.6074,-20 497.6074,-20 497.6074,-75 497.6074,-75 497.6074,-81 491.6074,-87 485.6074,-87 485.6074,-87 331.7311,-87 331.7311,-87 325.7311,-87 319.7311,-81 319.7311,-75 319.7311,-75 319.7311,-20 319.7311,-20 319.7311,-14 325.7311,-8 331.7311,-8"/>
<text text-anchor="middle" x="408.6693" y="-75" font-family="Arial" font-size="10.00" fill="#000000">abjad.tools.datastructuretools</text>
</g>
<g id="clust3" class="cluster">
<title>cluster_abjad.tools.pitchtools</title>
<path fill="transparent" stroke="#bcd2ee" stroke-width="2" stroke-dasharray="5,2" d="M529.6074,-12C529.6074,-12 623.153,-12 623.153,-12 629.153,-12 635.153,-18 635.153,-24 635.153,-24 635.153,-78 635.153,-78 635.153,-84 629.153,-90 623.153,-90 623.153,-90 529.6074,-90 529.6074,-90 523.6074,-90 517.6074,-84 517.6074,-78 517.6074,-78 517.6074,-24 517.6074,-24 517.6074,-18 523.6074,-12 529.6074,-12"/>
<text text-anchor="middle" x="576.3802" y="-78" font-family="Arial" font-size="10.00" fill="#000000">abjad.tools.pitchtools</text>
</g>
<g id="clust4" class="cluster">
<title>cluster_baca</title>
<path fill="transparent" stroke="#bcd2ee" stroke-width="2" stroke-dasharray="5,2" d="M667.153,-12C667.153,-12 692.1579,-12 692.1579,-12 698.1579,-12 704.1579,-18 704.1579,-24 704.1579,-24 704.1579,-78 704.1579,-78 704.1579,-84 698.1579,-90 692.1579,-90 692.1579,-90 667.153,-90 667.153,-90 661.153,-90 655.153,-84 655.153,-78 655.153,-78 655.153,-24 655.153,-24 655.153,-18 661.153,-12 667.153,-12"/>
<text text-anchor="middle" x="679.6555" y="-78" font-family="Arial" font-size="10.00" fill="#000000">baca</text>
</g>
<g id="clust5" class="cluster">
<title>cluster_builtins</title>
<path fill="transparent" stroke="#bcd2ee" stroke-width="2" stroke-dasharray="5,2" d="M20,-122C20,-122 46.6846,-122 46.6846,-122 52.6846,-122 58.6846,-128 58.6846,-134 58.6846,-134 58.6846,-165 58.6846,-165 58.6846,-171 52.6846,-177 46.6846,-177 46.6846,-177 20,-177 20,-177 14,-177 8,-171 8,-165 8,-165 8,-134 8,-134 8,-128 14,-122 20,-122"/>
<text text-anchor="middle" x="33.3423" y="-165" font-family="Arial" font-size="10.00" fill="#000000">builtins</text>
</g>
<g id="clust6" class="cluster">
<title>cluster_collections.abc</title>
<path fill="transparent" stroke="#bcd2ee" stroke-width="2" stroke-dasharray="5,2" d="M97.6846,-95C97.6846,-95 376.7082,-95 376.7082,-95 382.7082,-95 388.7082,-101 388.7082,-107 388.7082,-107 388.7082,-238 388.7082,-238 388.7082,-244 382.7082,-250 376.7082,-250 376.7082,-250 97.6846,-250 97.6846,-250 91.6846,-250 85.6846,-244 85.6846,-238 85.6846,-238 85.6846,-107 85.6846,-107 85.6846,-101 91.6846,-95 97.6846,-95"/>
<text text-anchor="middle" x="237.1964" y="-238" font-family="Arial" font-size="10.00" fill="#000000">collections.abc</text>
</g>
<!-- abjad.tools.abctools.AbjadObject.AbjadObject&#45;&gt;abjad.tools.datastructuretools.TypedCollection.TypedCollection -->
<g id="edge7" class="edge">
<title>abjad.tools.abctools.AbjadObject.AbjadObject&#45;&gt;abjad.tools.datastructuretools.TypedCollection.TypedCollection</title>
<path fill="none" stroke="#778899" d="M148.7898,-40.7596C184.9776,-40.2965 265.336,-39.2682 317.0866,-38.6059"/>
<polygon fill="#778899" stroke="#778899" points="317.3969,-42.1023 327.3513,-38.4746 317.3073,-35.1029 317.3969,-42.1023"/>
</g>
<!-- abjad.tools.datastructuretools.TypedCollection.TypedCollection&#45;&gt;abjad.tools.datastructuretools.TypedFrozenset.TypedFrozenset -->
<g id="edge1" class="edge">
<title>abjad.tools.datastructuretools.TypedCollection.TypedCollection&#45;&gt;abjad.tools.datastructuretools.TypedFrozenset.TypedFrozenset</title>
<path fill="none" stroke="#778899" d="M401.2788,-39.1171C409.6228,-39.3701 418.4806,-39.6387 426.8132,-39.8913"/>
<polygon fill="#778899" stroke="#778899" points="426.9071,-43.3957 437.0086,-40.2005 427.1193,-36.3989 426.9071,-43.3957"/>
</g>
<!-- abjad.tools.datastructuretools.TypedFrozenset.TypedFrozenset&#45;&gt;abjad.tools.pitchtools.Set.Set -->
<g id="edge8" class="edge">
<title>abjad.tools.datastructuretools.TypedFrozenset.TypedFrozenset&#45;&gt;abjad.tools.pitchtools.Set.Set</title>
<path fill="none" stroke="#778899" d="M489.9531,-41C498.1181,-41 507.1026,-41 515.2697,-41"/>
<polygon fill="#778899" stroke="#778899" points="515.3974,-44.5001 525.3973,-41 515.3973,-37.5001 515.3974,-44.5001"/>
</g>
<!-- abjad.tools.pitchtools.PitchClassSet.PitchClassSet&#45;&gt;baca.PitchClassSet.PitchClassSet -->
<g id="edge9" class="edge">
<title>abjad.tools.pitchtools.PitchClassSet.PitchClassSet&#45;&gt;baca.PitchClassSet.PitchClassSet</title>
<path fill="none" stroke="#778899" d="M627.3548,-41C635.0679,-41 644.4153,-41 653.0622,-41"/>
<polygon fill="#778899" stroke="#778899" points="653.1052,-44.5001 663.1052,-41 653.1051,-37.5001 653.1052,-44.5001"/>
</g>
<!-- abjad.tools.pitchtools.Set.Set&#45;&gt;abjad.tools.pitchtools.PitchClassSet.PitchClassSet -->
<g id="edge2" class="edge">
<title>abjad.tools.pitchtools.Set.Set&#45;&gt;abjad.tools.pitchtools.PitchClassSet.PitchClassSet</title>
<path fill="none" stroke="#778899" d="M558.176,-41C565.857,-41 575.2213,-41 583.9017,-41"/>
<polygon fill="#778899" stroke="#778899" points="583.9917,-44.5001 593.9917,-41 583.9916,-37.5001 583.9917,-44.5001"/>
</g>
<!-- builtins.object&#45;&gt;abjad.tools.abctools.AbjadObject.AbjadObject -->
<g id="edge10" class="edge">
<title>builtins.object&#45;&gt;abjad.tools.abctools.AbjadObject.AbjadObject</title>
<path fill="none" stroke="#778899" d="M42.194,-130.0917C51.1979,-120.0884 65.6263,-104.2637 78.5504,-91 87.4249,-81.8924 97.404,-72.0969 106.1952,-63.6106"/>
<polygon fill="#778899" stroke="#778899" points="108.7691,-65.9914 113.5574,-56.5402 103.9204,-60.9425 108.7691,-65.9914"/>
</g>
<!-- builtins.object&#45;&gt;collections.abc.Container -->
<g id="edge11" class="edge">
<title>builtins.object&#45;&gt;collections.abc.Container</title>
<path fill="none" stroke="#778899" d="M41.1264,-149.8649C49.5069,-159.9782 63.6536,-175.6496 78.5504,-186 83.4406,-189.3977 88.9135,-192.4798 94.4156,-195.2043"/>
<polygon fill="#778899" stroke="#778899" points="93.0589,-198.4329 103.6053,-199.4445 95.9916,-192.0768 93.0589,-198.4329"/>
</g>
<!-- builtins.object&#45;&gt;collections.abc.Iterable -->
<g id="edge12" class="edge">
<title>builtins.object&#45;&gt;collections.abc.Iterable</title>
<path fill="none" stroke="#778899" d="M50.623,-144.1119C62.6236,-146.9675 79.0536,-150.877 93.8532,-154.3986"/>
<polygon fill="#778899" stroke="#778899" points="93.2256,-157.8469 103.7642,-156.7569 94.846,-151.037 93.2256,-157.8469"/>
</g>
<!-- builtins.object&#45;&gt;collections.abc.Sized -->
<g id="edge13" class="edge">
<title>builtins.object&#45;&gt;collections.abc.Sized</title>
<path fill="none" stroke="#778899" d="M50.623,-135.8881C63.8081,-132.7507 82.34,-128.341 98.1819,-124.5714"/>
<polygon fill="#778899" stroke="#778899" points="99.2024,-127.9264 108.1206,-122.2065 97.582,-121.1165 99.2024,-127.9264"/>
</g>
<!-- collections.abc.Collection&#45;&gt;collections.abc.Set -->
<g id="edge3" class="edge">
<title>collections.abc.Collection&#45;&gt;collections.abc.Set</title>
<path fill="none" stroke="#778899" d="M290.5478,-147.4286C305.9622,-145.8789 323.7031,-144.0953 337.9371,-142.6643"/>
<polygon fill="#778899" stroke="#778899" points="338.4421,-146.1312 348.0418,-141.6484 337.7418,-139.1664 338.4421,-146.1312"/>
</g>
<!-- collections.abc.Container&#45;&gt;collections.abc.Collection -->
<g id="edge4" class="edge">
<title>collections.abc.Container&#45;&gt;collections.abc.Collection</title>
<path fill="none" stroke="#778899" d="M154.1051,-198.6473C163.0406,-194.7525 173.2387,-190.24 182.4518,-186 195.9193,-179.8021 210.6744,-172.7372 223.3427,-166.5855"/>
<polygon fill="#778899" stroke="#778899" points="225.1123,-169.6166 232.5676,-162.0887 222.045,-163.3244 225.1123,-169.6166"/>
</g>
<!-- collections.abc.Iterable&#45;&gt;collections.abc.Collection -->
<g id="edge5" class="edge">
<title>collections.abc.Iterable&#45;&gt;collections.abc.Collection</title>
<path fill="none" stroke="#778899" d="M158.684,-160.247C173.6093,-158.8144 192.2165,-157.0284 209.0875,-155.4091"/>
<polygon fill="#778899" stroke="#778899" points="209.6995,-158.8666 219.3193,-154.427 209.0307,-151.8986 209.6995,-158.8666"/>
</g>
<!-- collections.abc.Set&#45;&gt;abjad.tools.datastructuretools.TypedFrozenset.TypedFrozenset -->
<g id="edge14" class="edge">
<title>collections.abc.Set&#45;&gt;abjad.tools.datastructuretools.TypedFrozenset.TypedFrozenset</title>
<path fill="none" stroke="#778899" d="M375.026,-129.4053C390.5652,-113.8563 419.9317,-84.4715 440.5287,-63.8616"/>
<polygon fill="#778899" stroke="#778899" points="443.0852,-66.2548 447.6785,-56.7073 438.1339,-61.3065 443.0852,-66.2548"/>
</g>
<!-- collections.abc.Sized&#45;&gt;collections.abc.Collection -->
<g id="edge6" class="edge">
<title>collections.abc.Sized&#45;&gt;collections.abc.Collection</title>
<path fill="none" stroke="#778899" d="M151.2096,-122.7676C168.7712,-127.5435 194.2049,-134.4602 215.5022,-140.252"/>
<polygon fill="#778899" stroke="#778899" points="214.6938,-143.6592 225.2619,-142.9061 216.5308,-136.9045 214.6938,-143.6592"/>
</g>
<!-- abjad.tools.abctools.AbjadObject.AbjadObject -->
<g id="node1" class="node">
<title>abjad.tools.abctools.AbjadObject.AbjadObject</title>
<path fill="#fbb4ae" stroke="#fbb4ae" stroke-width="2" d="M138.0706,-56.498C138.0706,-56.498 121.9317,-56.498 121.9317,-56.498 116.7656,-56.498 111.5996,-51.332 111.5996,-46.166 111.5996,-46.166 111.5996,-35.834 111.5996,-35.834 111.5996,-30.668 116.7656,-25.502 121.9317,-25.502 121.9317,-25.502 138.0706,-25.502 138.0706,-25.502 143.2366,-25.502 148.4026,-30.668 148.4026,-35.834 148.4026,-35.834 148.4026,-46.166 148.4026,-46.166 148.4026,-51.332 143.2366,-56.498 138.0706,-56.498"/>
<text text-anchor="middle" x="130.0011" y="-44.499" font-family="Arial" font-size="10.00" fill="#000000">Abjad</text>
<text text-anchor="middle" x="130.0011" y="-33" font-family="Arial" font-size="10.00" fill="#000000">Object</text>
</g>
<!-- abjad.tools.datastructuretools.TypedCollection.TypedCollection -->
<g id="node2" class="node">
<title>abjad.tools.datastructuretools.TypedCollection.TypedCollection</title>
<ellipse fill="none" stroke="#b3cde3" stroke-width="2" cx="364.4378" cy="-38" rx="36.9146" ry="21.8382"/>
<text text-anchor="middle" x="364.4378" y="-41.499" font-family="Arial" font-size="10.00" fill="#000000">Typed</text>
<text text-anchor="middle" x="364.4378" y="-30" font-family="Arial" font-size="10.00" fill="#000000">Collection</text>
</g>
<!-- abjad.tools.datastructuretools.TypedFrozenset.TypedFrozenset -->
<g id="node3" class="node">
<title>abjad.tools.datastructuretools.TypedFrozenset.TypedFrozenset</title>
<path fill="#b3cde3" stroke="#b3cde3" stroke-width="2" d="M479.5089,-56.498C479.5089,-56.498 447.2431,-56.498 447.2431,-56.498 442.0771,-56.498 436.911,-51.332 436.911,-46.166 436.911,-46.166 436.911,-35.834 436.911,-35.834 436.911,-30.668 442.0771,-25.502 447.2431,-25.502 447.2431,-25.502 479.5089,-25.502 479.5089,-25.502 484.6749,-25.502 489.8409,-30.668 489.8409,-35.834 489.8409,-35.834 489.8409,-46.166 489.8409,-46.166 489.8409,-51.332 484.6749,-56.498 479.5089,-56.498"/>
<text text-anchor="middle" x="463.376" y="-44.499" font-family="Arial" font-size="10.00" fill="#000000">Typed</text>
<text text-anchor="middle" x="463.376" y="-33" font-family="Arial" font-size="10.00" fill="#000000">Frozenset</text>
</g>
<!-- abjad.tools.pitchtools.PitchClassSet.PitchClassSet -->
<g id="node4" class="node">
<title>abjad.tools.pitchtools.PitchClassSet.PitchClassSet</title>
<path fill="#ccebc5" stroke="#ccebc5" stroke-width="2" d="M616.1522,-62.5C616.1522,-62.5 605.149,-62.5 605.149,-62.5 599.6474,-62.5 594.1457,-56.9984 594.1457,-51.4968 594.1457,-51.4968 594.1457,-30.5032 594.1457,-30.5032 594.1457,-25.0016 599.6474,-19.5 605.149,-19.5 605.149,-19.5 616.1522,-19.5 616.1522,-19.5 621.6539,-19.5 627.1555,-25.0016 627.1555,-30.5032 627.1555,-30.5032 627.1555,-51.4968 627.1555,-51.4968 627.1555,-56.9984 621.6539,-62.5 616.1522,-62.5"/>
<text text-anchor="middle" x="610.6506" y="-50.2485" font-family="Arial" font-size="10.00" fill="#000000">Pitch</text>
<text text-anchor="middle" x="610.6506" y="-38.7495" font-family="Arial" font-size="10.00" fill="#000000">Class</text>
<text text-anchor="middle" x="610.6506" y="-27.2505" font-family="Arial" font-size="10.00" fill="#000000">Set</text>
</g>
<!-- abjad.tools.pitchtools.Set.Set -->
<g id="node5" class="node">
<title>abjad.tools.pitchtools.Set.Set</title>
<ellipse fill="none" stroke="#ccebc5" stroke-width="2" cx="541.8778" cy="-41" rx="16.0439" ry="13.579"/>
<text text-anchor="middle" x="541.8778" y="-38.7495" font-family="Arial" font-size="10.00" fill="#000000">Set</text>
</g>
<!-- baca.PitchClassSet.PitchClassSet -->
<g id="node6" class="node">
<title>baca.PitchClassSet.PitchClassSet</title>
<g id="a_node6"><a xlink:href="../api/baca/PitchClassSet.html#baca.PitchClassSet.PitchClassSet" xlink:title="Pitch\nClass\nSet" target="_top">
<path fill="#000000" stroke="#000000" stroke-width="2" d="M685.1571,-62.5C685.1571,-62.5 674.1539,-62.5 674.1539,-62.5 668.6522,-62.5 663.1506,-56.9984 663.1506,-51.4968 663.1506,-51.4968 663.1506,-30.5032 663.1506,-30.5032 663.1506,-25.0016 668.6522,-19.5 674.1539,-19.5 674.1539,-19.5 685.1571,-19.5 685.1571,-19.5 690.6587,-19.5 696.1604,-25.0016 696.1604,-30.5032 696.1604,-30.5032 696.1604,-51.4968 696.1604,-51.4968 696.1604,-56.9984 690.6587,-62.5 685.1571,-62.5"/>
<text text-anchor="middle" x="679.6555" y="-50.2485" font-family="Arial" font-size="10.00" fill="#ffffff">Pitch</text>
<text text-anchor="middle" x="679.6555" y="-38.7495" font-family="Arial" font-size="10.00" fill="#ffffff">Class</text>
<text text-anchor="middle" x="679.6555" y="-27.2505" font-family="Arial" font-size="10.00" fill="#ffffff">Set</text>
</a>
</g>
</g>
<!-- builtins.object -->
<g id="node7" class="node">
<title>builtins.object</title>
<g id="a_node7"><a xlink:href="https://docs.python.org/3.6/library/functions.html#object" xlink:title="object" target="_top">
<path fill="#fed9a6" stroke="#fed9a6" stroke-width="2" d="M43.8579,-150.0056C43.8579,-150.0056 22.8267,-150.0056 22.8267,-150.0056 19.4915,-150.0056 16.1563,-146.6704 16.1563,-143.3352 16.1563,-143.3352 16.1563,-136.6648 16.1563,-136.6648 16.1563,-133.3296 19.4915,-129.9944 22.8267,-129.9944 22.8267,-129.9944 43.8579,-129.9944 43.8579,-129.9944 47.1931,-129.9944 50.5283,-133.3296 50.5283,-136.6648 50.5283,-136.6648 50.5283,-143.3352 50.5283,-143.3352 50.5283,-146.6704 47.1931,-150.0056 43.8579,-150.0056"/>
<text text-anchor="middle" x="33.3423" y="-137.7495" font-family="Arial" font-size="10.00" fill="#000000">object</text>
</a>
</g>
</g>
<!-- collections.abc.Collection -->
<g id="node8" class="node">
<title>collections.abc.Collection</title>
<g id="a_node8"><a xlink:href="https://docs.python.org/3.6/library/collections.abc.html#collections.abc.Collection" xlink:title="Collection" target="_top">
<ellipse fill="none" stroke="#ffffcc" stroke-width="2" cx="255.0244" cy="-151" rx="36.9146" ry="13.579"/>
<text text-anchor="middle" x="255.0244" y="-148.7495" font-family="Arial" font-size="10.00" fill="#000000">Collection</text>
</a>
</g>
</g>
<!-- collections.abc.Container -->
<g id="node9" class="node">
<title>collections.abc.Container</title>
<g id="a_node9"><a xlink:href="https://docs.python.org/3.6/library/collections.abc.html#collections.abc.Container" xlink:title="Container" target="_top">
<ellipse fill="none" stroke="#ffffcc" stroke-width="2" cx="130.0011" cy="-209" rx="36.134" ry="13.579"/>
<text text-anchor="middle" x="130.0011" y="-206.7495" font-family="Arial" font-size="10.00" fill="#000000">Container</text>
</a>
</g>
</g>
<!-- collections.abc.Iterable -->
<g id="node10" class="node">
<title>collections.abc.Iterable</title>
<g id="a_node10"><a xlink:href="https://docs.python.org/3.6/library/collections.abc.html#collections.abc.Iterable" xlink:title="Iterable" target="_top">
<ellipse fill="none" stroke="#ffffcc" stroke-width="2" cx="130.0011" cy="-163" rx="29.4861" ry="13.579"/>
<text text-anchor="middle" x="130.0011" y="-160.7495" font-family="Arial" font-size="10.00" fill="#000000">Iterable</text>
</a>
</g>
</g>
<!-- collections.abc.Set -->
<g id="node11" class="node">
<title>collections.abc.Set</title>
<g id="a_node11"><a xlink:href="https://docs.python.org/3.6/library/collections.abc.html#collections.abc.Set" xlink:title="Set" target="_top">
<ellipse fill="none" stroke="#ffffcc" stroke-width="2" cx="364.4378" cy="-140" rx="16.0439" ry="13.579"/>
<text text-anchor="middle" x="364.4378" y="-137.7495" font-family="Arial" font-size="10.00" fill="#000000">Set</text>
</a>
</g>
</g>
<!-- collections.abc.Sized -->
<g id="node12" class="node">
<title>collections.abc.Sized</title>
<g id="a_node12"><a xlink:href="https://docs.python.org/3.6/library/collections.abc.html#collections.abc.Sized" xlink:title="Sized" target="_top">
<ellipse fill="none" stroke="#ffffcc" stroke-width="2" cx="130.0011" cy="-117" rx="23.1908" ry="13.579"/>
<text text-anchor="middle" x="130.0011" y="-114.7495" font-family="Arial" font-size="10.00" fill="#000000">Sized</text>
</a>
</g>
</g>
</g>
</svg>
