<?xml version="1.0" encoding="UTF-8" standalone="no"?>
<!DOCTYPE svg PUBLIC "-//W3C//DTD SVG 1.1//EN"
 "http://www.w3.org/Graphics/SVG/1.1/DTD/svg11.dtd">
<!-- Generated by graphviz version 2.40.1 (20161225.0304)
 -->
<!-- Title: InheritanceGraph Pages: 1 -->
<svg width="555pt" height="113pt"
 viewBox="0.00 0.00 555.46 113.00" xmlns="http://www.w3.org/2000/svg" xmlns:xlink="http://www.w3.org/1999/xlink">
<g id="graph0" class="graph" transform="scale(1 1) rotate(0) translate(4 109)">
<title>InheritanceGraph</title>
<g id="clust1" class="cluster">
<title>cluster_abjad.tools.abctools</title>
<path fill="transparent" stroke="#bcd2ee" stroke-width="2" stroke-dasharray="5,2" d="M90.6846,-14C90.6846,-14 192.4873,-14 192.4873,-14 198.4873,-14 204.4873,-20 204.4873,-26 204.4873,-26 204.4873,-80 204.4873,-80 204.4873,-86 198.4873,-92 192.4873,-92 192.4873,-92 90.6846,-92 90.6846,-92 84.6846,-92 78.6846,-86 78.6846,-80 78.6846,-80 78.6846,-26 78.6846,-26 78.6846,-20 84.6846,-14 90.6846,-14"/>
<text text-anchor="middle" x="141.5859" y="-80" font-family="Arial" font-size="10.00" fill="#000000">abjad.tools.abctools</text>
</g>
<g id="clust2" class="cluster">
<title>cluster_abjad.tools.segmenttools</title>
<path fill="transparent" stroke="#bcd2ee" stroke-width="2" stroke-dasharray="5,2" d="M236.4873,-13C236.4873,-13 338.1844,-13 338.1844,-13 344.1844,-13 350.1844,-19 350.1844,-25 350.1844,-25 350.1844,-80 350.1844,-80 350.1844,-86 344.1844,-92 338.1844,-92 338.1844,-92 236.4873,-92 236.4873,-92 230.4873,-92 224.4873,-86 224.4873,-80 224.4873,-80 224.4873,-25 224.4873,-25 224.4873,-19 230.4873,-13 236.4873,-13"/>
<text text-anchor="middle" x="287.3358" y="-80" font-family="Arial" font-size="10.00" fill="#000000">abjad.tools.segmenttools</text>
</g>
<g id="clust3" class="cluster">
<title>cluster_baca.tools</title>
<path fill="transparent" stroke="#bcd2ee" stroke-width="2" stroke-dasharray="5,2" d="M382.1844,-8C382.1844,-8 527.4576,-8 527.4576,-8 533.4576,-8 539.4576,-14 539.4576,-20 539.4576,-20 539.4576,-85 539.4576,-85 539.4576,-91 533.4576,-97 527.4576,-97 527.4576,-97 382.1844,-97 382.1844,-97 376.1844,-97 370.1844,-91 370.1844,-85 370.1844,-85 370.1844,-20 370.1844,-20 370.1844,-14 376.1844,-8 382.1844,-8"/>
<text text-anchor="middle" x="454.821" y="-85" font-family="Arial" font-size="10.00" fill="#000000">baca.tools</text>
</g>
<g id="clust4" class="cluster">
<title>cluster_builtins</title>
<path fill="transparent" stroke="#bcd2ee" stroke-width="2" stroke-dasharray="5,2" d="M20,-25C20,-25 46.6846,-25 46.6846,-25 52.6846,-25 58.6846,-31 58.6846,-37 58.6846,-37 58.6846,-68 58.6846,-68 58.6846,-74 52.6846,-80 46.6846,-80 46.6846,-80 20,-80 20,-80 14,-80 8,-74 8,-68 8,-68 8,-37 8,-37 8,-31 14,-25 20,-25"/>
<text text-anchor="middle" x="33.3423" y="-68" font-family="Arial" font-size="10.00" fill="#000000">builtins</text>
</g>
<!-- abjad.tools.abctools.AbjadObject.AbjadObject&#45;&gt;abjad.tools.abctools.AbjadValueObject.AbjadValueObject -->
<g id="edge1" class="edge">
<title>abjad.tools.abctools.AbjadObject.AbjadObject&#45;&gt;abjad.tools.abctools.AbjadValueObject.AbjadValueObject</title>
<path fill="none" stroke="#778899" d="M123.9092,-43C131.7073,-43 140.9297,-43 149.5315,-43"/>
<polygon fill="#778899" stroke="#778899" points="149.5787,-46.5001 159.5787,-43 149.5787,-39.5001 149.5787,-46.5001"/>
</g>
<!-- abjad.tools.abctools.AbjadValueObject.AbjadValueObject&#45;&gt;abjad.tools.segmenttools.ScoreTemplate.ScoreTemplate -->
<g id="edge3" class="edge">
<title>abjad.tools.abctools.AbjadValueObject.AbjadValueObject&#45;&gt;abjad.tools.segmenttools.ScoreTemplate.ScoreTemplate</title>
<path fill="none" stroke="#778899" d="M196.4929,-43C209.0256,-43 226.1652,-43 242.1487,-43"/>
<polygon fill="#778899" stroke="#778899" points="242.4251,-46.5001 252.4251,-43 242.4251,-39.5001 242.4251,-46.5001"/>
</g>
<!-- abjad.tools.segmenttools.ScoreTemplate.ScoreTemplate&#45;&gt;baca.tools.ScoreTemplate.ScoreTemplate -->
<g id="edge4" class="edge">
<title>abjad.tools.segmenttools.ScoreTemplate.ScoreTemplate&#45;&gt;baca.tools.ScoreTemplate.ScoreTemplate</title>
<path fill="none" stroke="#778899" d="M321.5159,-43C335.804,-43 352.5413,-43 367.7393,-43"/>
<polygon fill="#778899" stroke="#778899" points="367.9661,-46.5001 377.9661,-43 367.9661,-39.5001 367.9661,-46.5001"/>
</g>
<!-- baca.tools.ScoreTemplate.ScoreTemplate&#45;&gt;baca.tools.StringTrioScoreTemplate.StringTrioScoreTemplate -->
<g id="edge2" class="edge">
<title>baca.tools.ScoreTemplate.ScoreTemplate&#45;&gt;baca.tools.StringTrioScoreTemplate.StringTrioScoreTemplate</title>
<path fill="none" stroke="#778899" d="M446.9666,-43C455.3647,-43 464.349,-43 472.7466,-43"/>
<polygon fill="#778899" stroke="#778899" points="472.9816,-46.5001 482.9816,-43 472.9815,-39.5001 472.9816,-46.5001"/>
</g>
<!-- builtins.object&#45;&gt;abjad.tools.abctools.AbjadObject.AbjadObject -->
<g id="edge5" class="edge">
<title>builtins.object&#45;&gt;abjad.tools.abctools.AbjadObject.AbjadObject</title>
<path fill="none" stroke="#778899" d="M50.7214,-43C58.4511,-43 67.7584,-43 76.4724,-43"/>
<polygon fill="#778899" stroke="#778899" points="76.6614,-46.5001 86.6614,-43 76.6613,-39.5001 76.6614,-46.5001"/>
</g>
<!-- abjad.tools.abctools.AbjadObject.AbjadObject -->
<g id="node1" class="node">
<title>abjad.tools.abctools.AbjadObject.AbjadObject</title>
<path fill="#fbb4ae" stroke="#fbb4ae" stroke-width="2" d="M113.2047,-58.498C113.2047,-58.498 97.0658,-58.498 97.0658,-58.498 91.8998,-58.498 86.7338,-53.332 86.7338,-48.166 86.7338,-48.166 86.7338,-37.834 86.7338,-37.834 86.7338,-32.668 91.8998,-27.502 97.0658,-27.502 97.0658,-27.502 113.2047,-27.502 113.2047,-27.502 118.3707,-27.502 123.5368,-32.668 123.5368,-37.834 123.5368,-37.834 123.5368,-48.166 123.5368,-48.166 123.5368,-53.332 118.3707,-58.498 113.2047,-58.498"/>
<text text-anchor="middle" x="105.1353" y="-46.499" font-family="Arial" font-size="10.00" fill="#000000">Abjad</text>
<text text-anchor="middle" x="105.1353" y="-35" font-family="Arial" font-size="10.00" fill="#000000">Object</text>
</g>
<!-- abjad.tools.abctools.AbjadValueObject.AbjadValueObject -->
<g id="node2" class="node">
<title>abjad.tools.abctools.AbjadValueObject.AbjadValueObject</title>
<path fill="#fbb4ae" stroke="#fbb4ae" stroke-width="2" d="M184.4381,-64.5C184.4381,-64.5 171.6351,-64.5 171.6351,-64.5 165.6351,-64.5 159.6351,-58.5 159.6351,-52.5 159.6351,-52.5 159.6351,-33.5 159.6351,-33.5 159.6351,-27.5 165.6351,-21.5 171.6351,-21.5 171.6351,-21.5 184.4381,-21.5 184.4381,-21.5 190.4381,-21.5 196.4381,-27.5 196.4381,-33.5 196.4381,-33.5 196.4381,-52.5 196.4381,-52.5 196.4381,-58.5 190.4381,-64.5 184.4381,-64.5"/>
<text text-anchor="middle" x="178.0366" y="-52.2485" font-family="Arial" font-size="10.00" fill="#000000">Abjad</text>
<text text-anchor="middle" x="178.0366" y="-40.7495" font-family="Arial" font-size="10.00" fill="#000000">Value</text>
<text text-anchor="middle" x="178.0366" y="-29.2505" font-family="Arial" font-size="10.00" fill="#000000">Object</text>
</g>
<!-- abjad.tools.segmenttools.ScoreTemplate.ScoreTemplate -->
<g id="node3" class="node">
<title>abjad.tools.segmenttools.ScoreTemplate.ScoreTemplate</title>
<ellipse fill="none" stroke="#b3cde3" stroke-width="2" cx="286.8358" cy="-43" rx="34.1977" ry="21.8382"/>
<text text-anchor="middle" x="286.8358" y="-46.499" font-family="Arial" font-size="10.00" fill="#000000">Score</text>
<text text-anchor="middle" x="286.8358" y="-35" font-family="Arial" font-size="10.00" fill="#000000">Template</text>
</g>
<!-- baca.tools.ScoreTemplate.ScoreTemplate -->
<g id="node4" class="node">
<title>baca.tools.ScoreTemplate.ScoreTemplate</title>
<g id="a_node4"><a xlink:href="../api/baca/tools/ScoreTemplate.html#baca.tools.ScoreTemplate.ScoreTemplate" xlink:title="Score\nTemplate" target="_top">
<ellipse fill="none" stroke="#ccebc5" stroke-width="2" cx="412.5329" cy="-43" rx="34.1977" ry="21.8382"/>
<text text-anchor="middle" x="412.5329" y="-46.499" font-family="Arial" font-size="10.00" fill="#000000">Score</text>
<text text-anchor="middle" x="412.5329" y="-35" font-family="Arial" font-size="10.00" fill="#000000">Template</text>
</a>
</g>
</g>
<!-- baca.tools.StringTrioScoreTemplate.StringTrioScoreTemplate -->
<g id="node5" class="node">
<title>baca.tools.StringTrioScoreTemplate.StringTrioScoreTemplate</title>
<g id="a_node5"><a xlink:href="../api/baca/tools/StringTrioScoreTemplate.html#baca.tools.StringTrioScoreTemplate.StringTrioScoreTemplate" xlink:title="String\nTrio\nScore\nTemplate" target="_top">
<path fill="#000000" stroke="#000000" stroke-width="2" d="M519.2476,-69.9961C519.2476,-69.9961 495.0915,-69.9961 495.0915,-69.9961 489.0915,-69.9961 483.0915,-63.9961 483.0915,-57.9961 483.0915,-57.9961 483.0915,-28.0039 483.0915,-28.0039 483.0915,-22.0039 489.0915,-16.0039 495.0915,-16.0039 495.0915,-16.0039 519.2476,-16.0039 519.2476,-16.0039 525.2476,-16.0039 531.2476,-22.0039 531.2476,-28.0039 531.2476,-28.0039 531.2476,-57.9961 531.2476,-57.9961 531.2476,-63.9961 525.2476,-69.9961 519.2476,-69.9961"/>
<text text-anchor="middle" x="507.1696" y="-57.998" font-family="Arial" font-size="10.00" fill="#ffffff">String</text>
<text text-anchor="middle" x="507.1696" y="-46.499" font-family="Arial" font-size="10.00" fill="#ffffff">Trio</text>
<text text-anchor="middle" x="507.1696" y="-35" font-family="Arial" font-size="10.00" fill="#ffffff">Score</text>
<text text-anchor="middle" x="507.1696" y="-23.501" font-family="Arial" font-size="10.00" fill="#ffffff">Template</text>
</a>
</g>
</g>
<!-- builtins.object -->
<g id="node6" class="node">
<title>builtins.object</title>
<g id="a_node6"><a xlink:href="https://docs.python.org/3.6/library/functions.html#object" xlink:title="object" target="_top">
<path fill="#decbe4" stroke="#decbe4" stroke-width="2" d="M43.8579,-53.0056C43.8579,-53.0056 22.8267,-53.0056 22.8267,-53.0056 19.4915,-53.0056 16.1563,-49.6704 16.1563,-46.3352 16.1563,-46.3352 16.1563,-39.6648 16.1563,-39.6648 16.1563,-36.3296 19.4915,-32.9944 22.8267,-32.9944 22.8267,-32.9944 43.8579,-32.9944 43.8579,-32.9944 47.1931,-32.9944 50.5283,-36.3296 50.5283,-39.6648 50.5283,-39.6648 50.5283,-46.3352 50.5283,-46.3352 50.5283,-49.6704 47.1931,-53.0056 43.8579,-53.0056"/>
<text text-anchor="middle" x="33.3423" y="-40.7495" font-family="Arial" font-size="10.00" fill="#000000">object</text>
</a>
</g>
</g>
</g>
</svg>
