<?xml version="1.0" encoding="UTF-8" standalone="no"?>
<!DOCTYPE svg PUBLIC "-//W3C//DTD SVG 1.1//EN"
 "http://www.w3.org/Graphics/SVG/1.1/DTD/svg11.dtd">
<!-- Generated by graphviz version 2.40.1 (20161225.0304)
 -->
<!-- Title: InheritanceGraph Pages: 1 -->
<svg width="307pt" height="125pt"
 viewBox="0.00 0.00 307.29 125.00" xmlns="http://www.w3.org/2000/svg" xmlns:xlink="http://www.w3.org/1999/xlink">
<g id="graph0" class="graph" transform="scale(1 1) rotate(0) translate(4 121)">
<title>InheritanceGraph</title>
<g id="clust1" class="cluster">
<title>cluster_abjad.tools.abctools</title>
<path fill="transparent" stroke="#bcd2ee" stroke-width="2" stroke-dasharray="5,2" d="M90.6846,-20C90.6846,-20 192.4873,-20 192.4873,-20 198.4873,-20 204.4873,-26 204.4873,-32 204.4873,-32 204.4873,-86 204.4873,-86 204.4873,-92 198.4873,-98 192.4873,-98 192.4873,-98 90.6846,-98 90.6846,-98 84.6846,-98 78.6846,-92 78.6846,-86 78.6846,-86 78.6846,-32 78.6846,-32 78.6846,-26 84.6846,-20 90.6846,-20"/>
<text text-anchor="middle" x="141.5859" y="-86" font-family="Arial" font-size="10.00" fill="#000000">abjad.tools.abctools</text>
</g>
<g id="clust2" class="cluster">
<title>cluster_baca</title>
<path fill="transparent" stroke="#bcd2ee" stroke-width="2" stroke-dasharray="5,2" d="M236.4873,-8C236.4873,-8 279.2852,-8 279.2852,-8 285.2852,-8 291.2852,-14 291.2852,-20 291.2852,-20 291.2852,-97 291.2852,-97 291.2852,-103 285.2852,-109 279.2852,-109 279.2852,-109 236.4873,-109 236.4873,-109 230.4873,-109 224.4873,-103 224.4873,-97 224.4873,-97 224.4873,-20 224.4873,-20 224.4873,-14 230.4873,-8 236.4873,-8"/>
<text text-anchor="middle" x="257.8862" y="-97" font-family="Arial" font-size="10.00" fill="#000000">baca</text>
</g>
<g id="clust3" class="cluster">
<title>cluster_builtins</title>
<path fill="transparent" stroke="#bcd2ee" stroke-width="2" stroke-dasharray="5,2" d="M20,-31C20,-31 46.6846,-31 46.6846,-31 52.6846,-31 58.6846,-37 58.6846,-43 58.6846,-43 58.6846,-74 58.6846,-74 58.6846,-80 52.6846,-86 46.6846,-86 46.6846,-86 20,-86 20,-86 14,-86 8,-80 8,-74 8,-74 8,-43 8,-43 8,-37 14,-31 20,-31"/>
<text text-anchor="middle" x="33.3423" y="-74" font-family="Arial" font-size="10.00" fill="#000000">builtins</text>
</g>
<!-- abjad.tools.abctools.AbjadObject.AbjadObject&#45;&gt;abjad.tools.abctools.AbjadValueObject.AbjadValueObject -->
<g id="edge1" class="edge">
<title>abjad.tools.abctools.AbjadObject.AbjadObject&#45;&gt;abjad.tools.abctools.AbjadValueObject.AbjadValueObject</title>
<path fill="none" stroke="#778899" d="M123.9092,-49C131.7073,-49 140.9297,-49 149.5315,-49"/>
<polygon fill="#778899" stroke="#778899" points="149.5787,-52.5001 159.5787,-49 149.5787,-45.5001 149.5787,-52.5001"/>
</g>
<!-- abjad.tools.abctools.AbjadValueObject.AbjadValueObject&#45;&gt;baca.SplitByDurationsDivisionCallback.SplitByDurationsDivisionCallback -->
<g id="edge2" class="edge">
<title>abjad.tools.abctools.AbjadValueObject.AbjadValueObject&#45;&gt;baca.SplitByDurationsDivisionCallback.SplitByDurationsDivisionCallback</title>
<path fill="none" stroke="#778899" d="M196.5564,-49C204.2388,-49 213.4223,-49 222.3144,-49"/>
<polygon fill="#778899" stroke="#778899" points="222.5116,-52.5001 232.5116,-49 222.5116,-45.5001 222.5116,-52.5001"/>
</g>
<!-- builtins.object&#45;&gt;abjad.tools.abctools.AbjadObject.AbjadObject -->
<g id="edge3" class="edge">
<title>builtins.object&#45;&gt;abjad.tools.abctools.AbjadObject.AbjadObject</title>
<path fill="none" stroke="#778899" d="M50.7214,-49C58.4511,-49 67.7584,-49 76.4724,-49"/>
<polygon fill="#778899" stroke="#778899" points="76.6614,-52.5001 86.6614,-49 76.6613,-45.5001 76.6614,-52.5001"/>
</g>
<!-- abjad.tools.abctools.AbjadObject.AbjadObject -->
<g id="node1" class="node">
<title>abjad.tools.abctools.AbjadObject.AbjadObject</title>
<path fill="#fbb4ae" stroke="#fbb4ae" stroke-width="2" d="M113.2047,-64.498C113.2047,-64.498 97.0658,-64.498 97.0658,-64.498 91.8998,-64.498 86.7338,-59.332 86.7338,-54.166 86.7338,-54.166 86.7338,-43.834 86.7338,-43.834 86.7338,-38.668 91.8998,-33.502 97.0658,-33.502 97.0658,-33.502 113.2047,-33.502 113.2047,-33.502 118.3707,-33.502 123.5368,-38.668 123.5368,-43.834 123.5368,-43.834 123.5368,-54.166 123.5368,-54.166 123.5368,-59.332 118.3707,-64.498 113.2047,-64.498"/>
<text text-anchor="middle" x="105.1353" y="-52.499" font-family="Arial" font-size="10.00" fill="#000000">Abjad</text>
<text text-anchor="middle" x="105.1353" y="-41" font-family="Arial" font-size="10.00" fill="#000000">Object</text>
</g>
<!-- abjad.tools.abctools.AbjadValueObject.AbjadValueObject -->
<g id="node2" class="node">
<title>abjad.tools.abctools.AbjadValueObject.AbjadValueObject</title>
<path fill="#fbb4ae" stroke="#fbb4ae" stroke-width="2" d="M184.4381,-70.5C184.4381,-70.5 171.6351,-70.5 171.6351,-70.5 165.6351,-70.5 159.6351,-64.5 159.6351,-58.5 159.6351,-58.5 159.6351,-39.5 159.6351,-39.5 159.6351,-33.5 165.6351,-27.5 171.6351,-27.5 171.6351,-27.5 184.4381,-27.5 184.4381,-27.5 190.4381,-27.5 196.4381,-33.5 196.4381,-39.5 196.4381,-39.5 196.4381,-58.5 196.4381,-58.5 196.4381,-64.5 190.4381,-70.5 184.4381,-70.5"/>
<text text-anchor="middle" x="178.0366" y="-58.2485" font-family="Arial" font-size="10.00" fill="#000000">Abjad</text>
<text text-anchor="middle" x="178.0366" y="-46.7495" font-family="Arial" font-size="10.00" fill="#000000">Value</text>
<text text-anchor="middle" x="178.0366" y="-35.2505" font-family="Arial" font-size="10.00" fill="#000000">Object</text>
</g>
<!-- baca.SplitByDurationsDivisionCallback.SplitByDurationsDivisionCallback -->
<g id="node3" class="node">
<title>baca.SplitByDurationsDivisionCallback.SplitByDurationsDivisionCallback</title>
<g id="a_node3"><a xlink:href="../api/baca/SplitByDurationsDivisionCallback.html#baca.SplitByDurationsDivisionCallback.SplitByDurationsDivisionCallback" xlink:title="Split\nBy\nDurations\nDivision\nCallback" target="_top">
<path fill="#000000" stroke="#000000" stroke-width="2" d="M271.1845,-81.997C271.1845,-81.997 244.588,-81.997 244.588,-81.997 238.588,-81.997 232.588,-75.997 232.588,-69.997 232.588,-69.997 232.588,-28.003 232.588,-28.003 232.588,-22.003 238.588,-16.003 244.588,-16.003 244.588,-16.003 271.1845,-16.003 271.1845,-16.003 277.1845,-16.003 283.1845,-22.003 283.1845,-28.003 283.1845,-28.003 283.1845,-69.997 283.1845,-69.997 283.1845,-75.997 277.1845,-81.997 271.1845,-81.997"/>
<text text-anchor="middle" x="257.8862" y="-69.7476" font-family="Arial" font-size="10.00" fill="#ffffff">Split</text>
<text text-anchor="middle" x="257.8862" y="-58.2485" font-family="Arial" font-size="10.00" fill="#ffffff">By</text>
<text text-anchor="middle" x="257.8862" y="-46.7495" font-family="Arial" font-size="10.00" fill="#ffffff">Durations</text>
<text text-anchor="middle" x="257.8862" y="-35.2505" font-family="Arial" font-size="10.00" fill="#ffffff">Division</text>
<text text-anchor="middle" x="257.8862" y="-23.7515" font-family="Arial" font-size="10.00" fill="#ffffff">Callback</text>
</a>
</g>
</g>
<!-- builtins.object -->
<g id="node4" class="node">
<title>builtins.object</title>
<g id="a_node4"><a xlink:href="https://docs.python.org/3.6/library/functions.html#object" xlink:title="object" target="_top">
<path fill="#ccebc5" stroke="#ccebc5" stroke-width="2" d="M43.8579,-59.0056C43.8579,-59.0056 22.8267,-59.0056 22.8267,-59.0056 19.4915,-59.0056 16.1563,-55.6704 16.1563,-52.3352 16.1563,-52.3352 16.1563,-45.6648 16.1563,-45.6648 16.1563,-42.3296 19.4915,-38.9944 22.8267,-38.9944 22.8267,-38.9944 43.8579,-38.9944 43.8579,-38.9944 47.1931,-38.9944 50.5283,-42.3296 50.5283,-45.6648 50.5283,-45.6648 50.5283,-52.3352 50.5283,-52.3352 50.5283,-55.6704 47.1931,-59.0056 43.8579,-59.0056"/>
<text text-anchor="middle" x="33.3423" y="-46.7495" font-family="Arial" font-size="10.00" fill="#000000">object</text>
</a>
</g>
</g>
</g>
</svg>
