<?xml version="1.0" encoding="UTF-8" standalone="no"?>
<!DOCTYPE svg PUBLIC "-//W3C//DTD SVG 1.1//EN"
 "http://www.w3.org/Graphics/SVG/1.1/DTD/svg11.dtd">
<!-- Generated by graphviz version 2.40.1 (20161225.0304)
 -->
<!-- Title: InheritanceGraph Pages: 1 -->
<svg width="271pt" height="90pt"
 viewBox="0.00 0.00 270.94 90.00" xmlns="http://www.w3.org/2000/svg" xmlns:xlink="http://www.w3.org/1999/xlink">
<g id="graph0" class="graph" transform="scale(1 1) rotate(0) translate(4 86)">
<title>InheritanceGraph</title>
<g id="clust1" class="cluster">
<title>cluster_abjad.tools.abctools</title>
<path fill="transparent" stroke="#bcd2ee" stroke-width="2" stroke-dasharray="5,2" d="M90.6846,-8C90.6846,-8 170.5859,-8 170.5859,-8 176.5859,-8 182.5859,-14 182.5859,-20 182.5859,-20 182.5859,-62 182.5859,-62 182.5859,-68 176.5859,-74 170.5859,-74 170.5859,-74 90.6846,-74 90.6846,-74 84.6846,-74 78.6846,-68 78.6846,-62 78.6846,-62 78.6846,-20 78.6846,-20 78.6846,-14 84.6846,-8 90.6846,-8"/>
<text text-anchor="middle" x="130.6353" y="-62" font-family="Arial" font-size="10.00" fill="#000000">abjad.tools.abctools</text>
</g>
<g id="clust2" class="cluster">
<title>cluster_baca</title>
<path fill="transparent" stroke="#bcd2ee" stroke-width="2" stroke-dasharray="5,2" d="M214.5859,-13C214.5859,-13 242.9404,-13 242.9404,-13 248.9404,-13 254.9404,-19 254.9404,-25 254.9404,-25 254.9404,-56 254.9404,-56 254.9404,-62 248.9404,-68 242.9404,-68 242.9404,-68 214.5859,-68 214.5859,-68 208.5859,-68 202.5859,-62 202.5859,-56 202.5859,-56 202.5859,-25 202.5859,-25 202.5859,-19 208.5859,-13 214.5859,-13"/>
<text text-anchor="middle" x="228.7632" y="-56" font-family="Arial" font-size="10.00" fill="#000000">baca</text>
</g>
<g id="clust3" class="cluster">
<title>cluster_builtins</title>
<path fill="transparent" stroke="#bcd2ee" stroke-width="2" stroke-dasharray="5,2" d="M20,-13C20,-13 46.6846,-13 46.6846,-13 52.6846,-13 58.6846,-19 58.6846,-25 58.6846,-25 58.6846,-56 58.6846,-56 58.6846,-62 52.6846,-68 46.6846,-68 46.6846,-68 20,-68 20,-68 14,-68 8,-62 8,-56 8,-56 8,-25 8,-25 8,-19 14,-13 20,-13"/>
<text text-anchor="middle" x="33.3423" y="-56" font-family="Arial" font-size="10.00" fill="#000000">builtins</text>
</g>
<!-- abjad.tools.abctools.AbjadObject.AbjadObject&#45;&gt;baca.Scope.Scope -->
<g id="edge1" class="edge">
<title>abjad.tools.abctools.AbjadObject.AbjadObject&#45;&gt;baca.Scope.Scope</title>
<path fill="none" stroke="#778899" d="M148.6864,-31C163.1511,-31 183.495,-31 200.0573,-31"/>
<polygon fill="#778899" stroke="#778899" points="200.2952,-34.5001 210.2952,-31 200.2952,-27.5001 200.2952,-34.5001"/>
</g>
<!-- builtins.object&#45;&gt;abjad.tools.abctools.AbjadObject.AbjadObject -->
<g id="edge2" class="edge">
<title>builtins.object&#45;&gt;abjad.tools.abctools.AbjadObject.AbjadObject</title>
<path fill="none" stroke="#778899" d="M50.6469,-31C64.7425,-31 84.9402,-31 101.4481,-31"/>
<polygon fill="#778899" stroke="#778899" points="101.6622,-34.5001 111.6621,-31 101.6621,-27.5001 101.6622,-34.5001"/>
</g>
<!-- abjad.tools.abctools.AbjadObject.AbjadObject -->
<g id="node1" class="node">
<title>abjad.tools.abctools.AbjadObject.AbjadObject</title>
<path fill="#fbb4ae" stroke="#fbb4ae" stroke-width="2" d="M138.2047,-46.498C138.2047,-46.498 122.0658,-46.498 122.0658,-46.498 116.8998,-46.498 111.7338,-41.332 111.7338,-36.166 111.7338,-36.166 111.7338,-25.834 111.7338,-25.834 111.7338,-20.668 116.8998,-15.502 122.0658,-15.502 122.0658,-15.502 138.2047,-15.502 138.2047,-15.502 143.3707,-15.502 148.5368,-20.668 148.5368,-25.834 148.5368,-25.834 148.5368,-36.166 148.5368,-36.166 148.5368,-41.332 143.3707,-46.498 138.2047,-46.498"/>
<text text-anchor="middle" x="130.1353" y="-34.499" font-family="Arial" font-size="10.00" fill="#000000">Abjad</text>
<text text-anchor="middle" x="130.1353" y="-23" font-family="Arial" font-size="10.00" fill="#000000">Object</text>
</g>
<!-- baca.Scope.Scope -->
<g id="node2" class="node">
<title>baca.Scope.Scope</title>
<g id="a_node2"><a xlink:href="../api/baca/Scope.html#baca.Scope.Scope" xlink:title="Scope" target="_top">
<path fill="#000000" stroke="#000000" stroke-width="2" d="M240.449,-41.0056C240.449,-41.0056 217.0773,-41.0056 217.0773,-41.0056 213.7421,-41.0056 210.4069,-37.6704 210.4069,-34.3352 210.4069,-34.3352 210.4069,-27.6648 210.4069,-27.6648 210.4069,-24.3296 213.7421,-20.9944 217.0773,-20.9944 217.0773,-20.9944 240.449,-20.9944 240.449,-20.9944 243.7842,-20.9944 247.1194,-24.3296 247.1194,-27.6648 247.1194,-27.6648 247.1194,-34.3352 247.1194,-34.3352 247.1194,-37.6704 243.7842,-41.0056 240.449,-41.0056"/>
<text text-anchor="middle" x="228.7632" y="-28.7495" font-family="Arial" font-size="10.00" fill="#ffffff">Scope</text>
</a>
</g>
</g>
<!-- builtins.object -->
<g id="node3" class="node">
<title>builtins.object</title>
<g id="a_node3"><a xlink:href="https://docs.python.org/3.6/library/functions.html#object" xlink:title="object" target="_top">
<path fill="#ccebc5" stroke="#ccebc5" stroke-width="2" d="M43.8579,-41.0056C43.8579,-41.0056 22.8267,-41.0056 22.8267,-41.0056 19.4915,-41.0056 16.1563,-37.6704 16.1563,-34.3352 16.1563,-34.3352 16.1563,-27.6648 16.1563,-27.6648 16.1563,-24.3296 19.4915,-20.9944 22.8267,-20.9944 22.8267,-20.9944 43.8579,-20.9944 43.8579,-20.9944 47.1931,-20.9944 50.5283,-24.3296 50.5283,-27.6648 50.5283,-27.6648 50.5283,-34.3352 50.5283,-34.3352 50.5283,-37.6704 47.1931,-41.0056 43.8579,-41.0056"/>
<text text-anchor="middle" x="33.3423" y="-28.7495" font-family="Arial" font-size="10.00" fill="#000000">object</text>
</a>
</g>
</g>
</g>
</svg>
