<?xml version="1.0" encoding="UTF-8" standalone="no"?>
<!DOCTYPE svg PUBLIC "-//W3C//DTD SVG 1.1//EN"
 "http://www.w3.org/Graphics/SVG/1.1/DTD/svg11.dtd">
<!-- Generated by graphviz version 2.40.1 (20161225.0304)
 -->
<!-- Title: InheritanceGraph Pages: 1 -->
<svg width="480pt" height="102pt"
 viewBox="0.00 0.00 480.42 102.00" xmlns="http://www.w3.org/2000/svg" xmlns:xlink="http://www.w3.org/1999/xlink">
<g id="graph0" class="graph" transform="scale(1 1) rotate(0) translate(4 98)">
<title>InheritanceGraph</title>
<g id="clust1" class="cluster">
<title>cluster_abjad.tools.abctools</title>
<path fill="transparent" stroke="#bcd2ee" stroke-width="2" stroke-dasharray="5,2" d="M90.6846,-8C90.6846,-8 192.4873,-8 192.4873,-8 198.4873,-8 204.4873,-14 204.4873,-20 204.4873,-20 204.4873,-74 204.4873,-74 204.4873,-80 198.4873,-86 192.4873,-86 192.4873,-86 90.6846,-86 90.6846,-86 84.6846,-86 78.6846,-80 78.6846,-74 78.6846,-74 78.6846,-20 78.6846,-20 78.6846,-14 84.6846,-8 90.6846,-8"/>
<text text-anchor="middle" x="141.5859" y="-74" font-family="Arial" font-size="10.00" fill="#000000">abjad.tools.abctools</text>
</g>
<g id="clust2" class="cluster">
<title>cluster_abjad.tools.datastructuretools</title>
<path fill="transparent" stroke="#bcd2ee" stroke-width="2" stroke-dasharray="5,2" d="M236.4873,-19C236.4873,-19 358.9551,-19 358.9551,-19 364.9551,-19 370.9551,-25 370.9551,-31 370.9551,-31 370.9551,-62 370.9551,-62 370.9551,-68 364.9551,-74 358.9551,-74 358.9551,-74 236.4873,-74 236.4873,-74 230.4873,-74 224.4873,-68 224.4873,-62 224.4873,-62 224.4873,-31 224.4873,-31 224.4873,-25 230.4873,-19 236.4873,-19"/>
<text text-anchor="middle" x="297.7212" y="-62" font-family="Arial" font-size="10.00" fill="#000000">abjad.tools.datastructuretools</text>
</g>
<g id="clust3" class="cluster">
<title>cluster_baca.tools</title>
<path fill="transparent" stroke="#bcd2ee" stroke-width="2" stroke-dasharray="5,2" d="M402.9551,-19C402.9551,-19 452.4229,-19 452.4229,-19 458.4229,-19 464.4229,-25 464.4229,-31 464.4229,-31 464.4229,-62 464.4229,-62 464.4229,-68 458.4229,-74 452.4229,-74 452.4229,-74 402.9551,-74 402.9551,-74 396.9551,-74 390.9551,-68 390.9551,-62 390.9551,-62 390.9551,-31 390.9551,-31 390.9551,-25 396.9551,-19 402.9551,-19"/>
<text text-anchor="middle" x="427.689" y="-62" font-family="Arial" font-size="10.00" fill="#000000">baca.tools</text>
</g>
<g id="clust4" class="cluster">
<title>cluster_builtins</title>
<path fill="transparent" stroke="#bcd2ee" stroke-width="2" stroke-dasharray="5,2" d="M20,-19C20,-19 46.6846,-19 46.6846,-19 52.6846,-19 58.6846,-25 58.6846,-31 58.6846,-31 58.6846,-62 58.6846,-62 58.6846,-68 52.6846,-74 46.6846,-74 46.6846,-74 20,-74 20,-74 14,-74 8,-68 8,-62 8,-62 8,-31 8,-31 8,-25 14,-19 20,-19"/>
<text text-anchor="middle" x="33.3423" y="-62" font-family="Arial" font-size="10.00" fill="#000000">builtins</text>
</g>
<!-- abjad.tools.abctools.AbjadObject.AbjadObject&#45;&gt;abjad.tools.abctools.AbjadValueObject.AbjadValueObject -->
<g id="edge1" class="edge">
<title>abjad.tools.abctools.AbjadObject.AbjadObject&#45;&gt;abjad.tools.abctools.AbjadValueObject.AbjadValueObject</title>
<path fill="none" stroke="#778899" d="M123.9092,-37C131.7073,-37 140.9297,-37 149.5315,-37"/>
<polygon fill="#778899" stroke="#778899" points="149.5787,-40.5001 159.5787,-37 149.5787,-33.5001 149.5787,-40.5001"/>
</g>
<!-- abjad.tools.abctools.AbjadValueObject.AbjadValueObject&#45;&gt;abjad.tools.datastructuretools.Expression.Expression -->
<g id="edge2" class="edge">
<title>abjad.tools.abctools.AbjadValueObject.AbjadValueObject&#45;&gt;abjad.tools.datastructuretools.Expression.Expression</title>
<path fill="none" stroke="#778899" d="M196.6592,-37C213.0134,-37 237.3466,-37 257.9803,-37"/>
<polygon fill="#778899" stroke="#778899" points="258.0654,-40.5001 268.0654,-37 258.0653,-33.5001 258.0654,-40.5001"/>
</g>
<!-- abjad.tools.datastructuretools.Expression.Expression&#45;&gt;baca.tools.Expression.Expression -->
<g id="edge3" class="edge">
<title>abjad.tools.datastructuretools.Expression.Expression&#45;&gt;baca.tools.Expression.Expression</title>
<path fill="none" stroke="#778899" d="M326.1762,-37C344.5876,-37 368.6523,-37 388.73,-37"/>
<polygon fill="#778899" stroke="#778899" points="388.8149,-40.5001 398.8149,-37 388.8148,-33.5001 388.8149,-40.5001"/>
</g>
<!-- builtins.object&#45;&gt;abjad.tools.abctools.AbjadObject.AbjadObject -->
<g id="edge4" class="edge">
<title>builtins.object&#45;&gt;abjad.tools.abctools.AbjadObject.AbjadObject</title>
<path fill="none" stroke="#778899" d="M50.7214,-37C58.4511,-37 67.7584,-37 76.4724,-37"/>
<polygon fill="#778899" stroke="#778899" points="76.6614,-40.5001 86.6614,-37 76.6613,-33.5001 76.6614,-40.5001"/>
</g>
<!-- abjad.tools.abctools.AbjadObject.AbjadObject -->
<g id="node1" class="node">
<title>abjad.tools.abctools.AbjadObject.AbjadObject</title>
<path fill="#fbb4ae" stroke="#fbb4ae" stroke-width="2" d="M113.2047,-52.498C113.2047,-52.498 97.0658,-52.498 97.0658,-52.498 91.8998,-52.498 86.7338,-47.332 86.7338,-42.166 86.7338,-42.166 86.7338,-31.834 86.7338,-31.834 86.7338,-26.668 91.8998,-21.502 97.0658,-21.502 97.0658,-21.502 113.2047,-21.502 113.2047,-21.502 118.3707,-21.502 123.5368,-26.668 123.5368,-31.834 123.5368,-31.834 123.5368,-42.166 123.5368,-42.166 123.5368,-47.332 118.3707,-52.498 113.2047,-52.498"/>
<text text-anchor="middle" x="105.1353" y="-40.499" font-family="Arial" font-size="10.00" fill="#000000">Abjad</text>
<text text-anchor="middle" x="105.1353" y="-29" font-family="Arial" font-size="10.00" fill="#000000">Object</text>
</g>
<!-- abjad.tools.abctools.AbjadValueObject.AbjadValueObject -->
<g id="node2" class="node">
<title>abjad.tools.abctools.AbjadValueObject.AbjadValueObject</title>
<path fill="#fbb4ae" stroke="#fbb4ae" stroke-width="2" d="M184.4381,-58.5C184.4381,-58.5 171.6351,-58.5 171.6351,-58.5 165.6351,-58.5 159.6351,-52.5 159.6351,-46.5 159.6351,-46.5 159.6351,-27.5 159.6351,-27.5 159.6351,-21.5 165.6351,-15.5 171.6351,-15.5 171.6351,-15.5 184.4381,-15.5 184.4381,-15.5 190.4381,-15.5 196.4381,-21.5 196.4381,-27.5 196.4381,-27.5 196.4381,-46.5 196.4381,-46.5 196.4381,-52.5 190.4381,-58.5 184.4381,-58.5"/>
<text text-anchor="middle" x="178.0366" y="-46.2485" font-family="Arial" font-size="10.00" fill="#000000">Abjad</text>
<text text-anchor="middle" x="178.0366" y="-34.7495" font-family="Arial" font-size="10.00" fill="#000000">Value</text>
<text text-anchor="middle" x="178.0366" y="-23.2505" font-family="Arial" font-size="10.00" fill="#000000">Object</text>
</g>
<!-- abjad.tools.datastructuretools.Expression.Expression -->
<g id="node3" class="node">
<title>abjad.tools.datastructuretools.Expression.Expression</title>
<path fill="#b3cde3" stroke="#b3cde3" stroke-width="2" d="M319.5205,-47.0056C319.5205,-47.0056 274.9219,-47.0056 274.9219,-47.0056 271.5867,-47.0056 268.2515,-43.6704 268.2515,-40.3352 268.2515,-40.3352 268.2515,-33.6648 268.2515,-33.6648 268.2515,-30.3296 271.5867,-26.9944 274.9219,-26.9944 274.9219,-26.9944 319.5205,-26.9944 319.5205,-26.9944 322.8557,-26.9944 326.1909,-30.3296 326.1909,-33.6648 326.1909,-33.6648 326.1909,-40.3352 326.1909,-40.3352 326.1909,-43.6704 322.8557,-47.0056 319.5205,-47.0056"/>
<text text-anchor="middle" x="297.2212" y="-34.7495" font-family="Arial" font-size="10.00" fill="#000000">Expression</text>
</g>
<!-- baca.tools.Expression.Expression -->
<g id="node4" class="node">
<title>baca.tools.Expression.Expression</title>
<g id="a_node4"><a xlink:href="../api/baca/tools/Expression.html#baca.tools.Expression.Expression" xlink:title="Expression" target="_top">
<path fill="#000000" stroke="#000000" stroke-width="2" d="M449.9883,-47.0056C449.9883,-47.0056 405.3897,-47.0056 405.3897,-47.0056 402.0545,-47.0056 398.7193,-43.6704 398.7193,-40.3352 398.7193,-40.3352 398.7193,-33.6648 398.7193,-33.6648 398.7193,-30.3296 402.0545,-26.9944 405.3897,-26.9944 405.3897,-26.9944 449.9883,-26.9944 449.9883,-26.9944 453.3235,-26.9944 456.6587,-30.3296 456.6587,-33.6648 456.6587,-33.6648 456.6587,-40.3352 456.6587,-40.3352 456.6587,-43.6704 453.3235,-47.0056 449.9883,-47.0056"/>
<text text-anchor="middle" x="427.689" y="-34.7495" font-family="Arial" font-size="10.00" fill="#ffffff">Expression</text>
</a>
</g>
</g>
<!-- builtins.object -->
<g id="node5" class="node">
<title>builtins.object</title>
<g id="a_node5"><a xlink:href="https://docs.python.org/3.6/library/functions.html#object" xlink:title="object" target="_top">
<path fill="#decbe4" stroke="#decbe4" stroke-width="2" d="M43.8579,-47.0056C43.8579,-47.0056 22.8267,-47.0056 22.8267,-47.0056 19.4915,-47.0056 16.1563,-43.6704 16.1563,-40.3352 16.1563,-40.3352 16.1563,-33.6648 16.1563,-33.6648 16.1563,-30.3296 19.4915,-26.9944 22.8267,-26.9944 22.8267,-26.9944 43.8579,-26.9944 43.8579,-26.9944 47.1931,-26.9944 50.5283,-30.3296 50.5283,-33.6648 50.5283,-33.6648 50.5283,-40.3352 50.5283,-40.3352 50.5283,-43.6704 47.1931,-47.0056 43.8579,-47.0056"/>
<text text-anchor="middle" x="33.3423" y="-34.7495" font-family="Arial" font-size="10.00" fill="#000000">object</text>
</a>
</g>
</g>
</g>
</svg>
