<?xml version="1.0" encoding="UTF-8" standalone="no"?>
<!DOCTYPE svg PUBLIC "-//W3C//DTD SVG 1.1//EN"
 "http://www.w3.org/Graphics/SVG/1.1/DTD/svg11.dtd">
<!-- Generated by graphviz version 2.40.1 (20161225.0304)
 -->
<!-- Title: InheritanceGraph Pages: 1 -->
<svg width="401pt" height="90pt"
 viewBox="0.00 0.00 401.26 90.00" xmlns="http://www.w3.org/2000/svg" xmlns:xlink="http://www.w3.org/1999/xlink">
<g id="graph0" class="graph" transform="scale(1 1) rotate(0) translate(4 86)">
<title>InheritanceGraph</title>
<g id="clust1" class="cluster">
<title>cluster_abjad.tools.abctools</title>
<path fill="transparent" stroke="#bcd2ee" stroke-width="2" stroke-dasharray="5,2" d="M90.6846,-8C90.6846,-8 170.5859,-8 170.5859,-8 176.5859,-8 182.5859,-14 182.5859,-20 182.5859,-20 182.5859,-62 182.5859,-62 182.5859,-68 176.5859,-74 170.5859,-74 170.5859,-74 90.6846,-74 90.6846,-74 84.6846,-74 78.6846,-68 78.6846,-62 78.6846,-62 78.6846,-20 78.6846,-20 78.6846,-14 84.6846,-8 90.6846,-8"/>
<text text-anchor="middle" x="130.6353" y="-62" font-family="Arial" font-size="10.00" fill="#000000">abjad.tools.abctools</text>
</g>
<g id="clust2" class="cluster">
<title>cluster_baca</title>
<path fill="transparent" stroke="#bcd2ee" stroke-width="2" stroke-dasharray="5,2" d="M214.5859,-8C214.5859,-8 373.2623,-8 373.2623,-8 379.2623,-8 385.2623,-14 385.2623,-20 385.2623,-20 385.2623,-62 385.2623,-62 385.2623,-68 379.2623,-74 373.2623,-74 373.2623,-74 214.5859,-74 214.5859,-74 208.5859,-74 202.5859,-68 202.5859,-62 202.5859,-62 202.5859,-20 202.5859,-20 202.5859,-14 208.5859,-8 214.5859,-8"/>
<text text-anchor="middle" x="293.9241" y="-62" font-family="Arial" font-size="10.00" fill="#000000">baca</text>
</g>
<g id="clust3" class="cluster">
<title>cluster_builtins</title>
<path fill="transparent" stroke="#bcd2ee" stroke-width="2" stroke-dasharray="5,2" d="M20,-13C20,-13 46.6846,-13 46.6846,-13 52.6846,-13 58.6846,-19 58.6846,-25 58.6846,-25 58.6846,-56 58.6846,-56 58.6846,-62 52.6846,-68 46.6846,-68 46.6846,-68 20,-68 20,-68 14,-68 8,-62 8,-56 8,-56 8,-25 8,-25 8,-19 14,-13 20,-13"/>
<text text-anchor="middle" x="33.3423" y="-56" font-family="Arial" font-size="10.00" fill="#000000">builtins</text>
</g>
<!-- abjad.tools.abctools.AbjadObject.AbjadObject&#45;&gt;baca.Command.Command -->
<g id="edge2" class="edge">
<title>abjad.tools.abctools.AbjadObject.AbjadObject&#45;&gt;baca.Command.Command</title>
<path fill="none" stroke="#778899" d="M148.686,-31C162.4887,-31 181.9969,-31 200.1353,-31"/>
<polygon fill="#778899" stroke="#778899" points="200.3136,-34.5001 210.3136,-31 200.3136,-27.5001 200.3136,-34.5001"/>
</g>
<!-- baca.Command.Command&#45;&gt;baca.OverrideCommand.OverrideCommand -->
<g id="edge1" class="edge">
<title>baca.Command.Command&#45;&gt;baca.OverrideCommand.OverrideCommand</title>
<path fill="none" stroke="#778899" d="M287.1718,-31C295.5266,-31 304.3589,-31 312.6823,-31"/>
<polygon fill="#778899" stroke="#778899" points="312.8791,-34.5001 322.8791,-31 312.8791,-27.5001 312.8791,-34.5001"/>
</g>
<!-- builtins.object&#45;&gt;abjad.tools.abctools.AbjadObject.AbjadObject -->
<g id="edge3" class="edge">
<title>builtins.object&#45;&gt;abjad.tools.abctools.AbjadObject.AbjadObject</title>
<path fill="none" stroke="#778899" d="M50.6469,-31C64.7425,-31 84.9402,-31 101.4481,-31"/>
<polygon fill="#778899" stroke="#778899" points="101.6622,-34.5001 111.6621,-31 101.6621,-27.5001 101.6622,-34.5001"/>
</g>
<!-- abjad.tools.abctools.AbjadObject.AbjadObject -->
<g id="node1" class="node">
<title>abjad.tools.abctools.AbjadObject.AbjadObject</title>
<path fill="#fbb4ae" stroke="#fbb4ae" stroke-width="2" d="M138.2047,-46.498C138.2047,-46.498 122.0658,-46.498 122.0658,-46.498 116.8998,-46.498 111.7338,-41.332 111.7338,-36.166 111.7338,-36.166 111.7338,-25.834 111.7338,-25.834 111.7338,-20.668 116.8998,-15.502 122.0658,-15.502 122.0658,-15.502 138.2047,-15.502 138.2047,-15.502 143.3707,-15.502 148.5368,-20.668 148.5368,-25.834 148.5368,-25.834 148.5368,-36.166 148.5368,-36.166 148.5368,-41.332 143.3707,-46.498 138.2047,-46.498"/>
<text text-anchor="middle" x="130.1353" y="-34.499" font-family="Arial" font-size="10.00" fill="#000000">Abjad</text>
<text text-anchor="middle" x="130.1353" y="-23" font-family="Arial" font-size="10.00" fill="#000000">Object</text>
</g>
<!-- baca.Command.Command -->
<g id="node2" class="node">
<title>baca.Command.Command</title>
<g id="a_node2"><a xlink:href="../api/baca/Command.html#baca.Command.Command" xlink:title="Command" target="_top">
<ellipse fill="none" stroke="#b3cde3" stroke-width="2" cx="248.8602" cy="-31" rx="38.0498" ry="13.579"/>
<text text-anchor="middle" x="248.8602" y="-28.7495" font-family="Arial" font-size="10.00" fill="#000000">Command</text>
</a>
</g>
</g>
<!-- baca.OverrideCommand.OverrideCommand -->
<g id="node3" class="node">
<title>baca.OverrideCommand.OverrideCommand</title>
<g id="a_node3"><a xlink:href="../api/baca/OverrideCommand.html#baca.OverrideCommand.OverrideCommand" xlink:title="Override\nCommand" target="_top">
<path fill="#000000" stroke="#000000" stroke-width="2" d="M366.9944,-46.498C366.9944,-46.498 333.4023,-46.498 333.4023,-46.498 328.2363,-46.498 323.0703,-41.332 323.0703,-36.166 323.0703,-36.166 323.0703,-25.834 323.0703,-25.834 323.0703,-20.668 328.2363,-15.502 333.4023,-15.502 333.4023,-15.502 366.9944,-15.502 366.9944,-15.502 372.1604,-15.502 377.3264,-20.668 377.3264,-25.834 377.3264,-25.834 377.3264,-36.166 377.3264,-36.166 377.3264,-41.332 372.1604,-46.498 366.9944,-46.498"/>
<text text-anchor="middle" x="350.1984" y="-34.499" font-family="Arial" font-size="10.00" fill="#ffffff">Override</text>
<text text-anchor="middle" x="350.1984" y="-23" font-family="Arial" font-size="10.00" fill="#ffffff">Command</text>
</a>
</g>
</g>
<!-- builtins.object -->
<g id="node4" class="node">
<title>builtins.object</title>
<g id="a_node4"><a xlink:href="https://docs.python.org/3.6/library/functions.html#object" xlink:title="object" target="_top">
<path fill="#ccebc5" stroke="#ccebc5" stroke-width="2" d="M43.8579,-41.0056C43.8579,-41.0056 22.8267,-41.0056 22.8267,-41.0056 19.4915,-41.0056 16.1563,-37.6704 16.1563,-34.3352 16.1563,-34.3352 16.1563,-27.6648 16.1563,-27.6648 16.1563,-24.3296 19.4915,-20.9944 22.8267,-20.9944 22.8267,-20.9944 43.8579,-20.9944 43.8579,-20.9944 47.1931,-20.9944 50.5283,-24.3296 50.5283,-27.6648 50.5283,-27.6648 50.5283,-34.3352 50.5283,-34.3352 50.5283,-37.6704 47.1931,-41.0056 43.8579,-41.0056"/>
<text text-anchor="middle" x="33.3423" y="-28.7495" font-family="Arial" font-size="10.00" fill="#000000">object</text>
</a>
</g>
</g>
</g>
</svg>
