<?xml version="1.0" encoding="UTF-8" standalone="no"?>
<!DOCTYPE svg PUBLIC "-//W3C//DTD SVG 1.1//EN"
 "http://www.w3.org/Graphics/SVG/1.1/DTD/svg11.dtd">
<!-- Generated by graphviz version 2.40.1 (20161225.0304)
 -->
<!-- Title: InheritanceGraph Pages: 1 -->
<svg width="305pt" height="136pt"
 viewBox="0.00 0.00 305.08 136.00" xmlns="http://www.w3.org/2000/svg" xmlns:xlink="http://www.w3.org/1999/xlink">
<g id="graph0" class="graph" transform="scale(1 1) rotate(0) translate(4 132)">
<title>InheritanceGraph</title>
<g id="clust1" class="cluster">
<title>cluster_abjad.tools.abctools</title>
<path fill="transparent" stroke="#bcd2ee" stroke-width="2" stroke-dasharray="5,2" d="M90.6846,-25C90.6846,-25 192.4873,-25 192.4873,-25 198.4873,-25 204.4873,-31 204.4873,-37 204.4873,-37 204.4873,-91 204.4873,-91 204.4873,-97 198.4873,-103 192.4873,-103 192.4873,-103 90.6846,-103 90.6846,-103 84.6846,-103 78.6846,-97 78.6846,-91 78.6846,-91 78.6846,-37 78.6846,-37 78.6846,-31 84.6846,-25 90.6846,-25"/>
<text text-anchor="middle" x="141.5859" y="-91" font-family="Arial" font-size="10.00" fill="#000000">abjad.tools.abctools</text>
</g>
<g id="clust2" class="cluster">
<title>cluster_baca</title>
<path fill="transparent" stroke="#bcd2ee" stroke-width="2" stroke-dasharray="5,2" d="M236.4873,-8C236.4873,-8 277.0781,-8 277.0781,-8 283.0781,-8 289.0781,-14 289.0781,-20 289.0781,-20 289.0781,-108 289.0781,-108 289.0781,-114 283.0781,-120 277.0781,-120 277.0781,-120 236.4873,-120 236.4873,-120 230.4873,-120 224.4873,-114 224.4873,-108 224.4873,-108 224.4873,-20 224.4873,-20 224.4873,-14 230.4873,-8 236.4873,-8"/>
<text text-anchor="middle" x="256.7827" y="-108" font-family="Arial" font-size="10.00" fill="#000000">baca</text>
</g>
<g id="clust3" class="cluster">
<title>cluster_builtins</title>
<path fill="transparent" stroke="#bcd2ee" stroke-width="2" stroke-dasharray="5,2" d="M20,-36C20,-36 46.6846,-36 46.6846,-36 52.6846,-36 58.6846,-42 58.6846,-48 58.6846,-48 58.6846,-79 58.6846,-79 58.6846,-85 52.6846,-91 46.6846,-91 46.6846,-91 20,-91 20,-91 14,-91 8,-85 8,-79 8,-79 8,-48 8,-48 8,-42 14,-36 20,-36"/>
<text text-anchor="middle" x="33.3423" y="-79" font-family="Arial" font-size="10.00" fill="#000000">builtins</text>
</g>
<!-- abjad.tools.abctools.AbjadObject.AbjadObject&#45;&gt;abjad.tools.abctools.AbjadValueObject.AbjadValueObject -->
<g id="edge1" class="edge">
<title>abjad.tools.abctools.AbjadObject.AbjadObject&#45;&gt;abjad.tools.abctools.AbjadValueObject.AbjadValueObject</title>
<path fill="none" stroke="#778899" d="M123.9092,-54C131.7073,-54 140.9297,-54 149.5315,-54"/>
<polygon fill="#778899" stroke="#778899" points="149.5787,-57.5001 159.5787,-54 149.5787,-50.5001 149.5787,-57.5001"/>
</g>
<!-- abjad.tools.abctools.AbjadValueObject.AbjadValueObject&#45;&gt;baca.SplitByRoundedRatiosDivisionCallback.SplitByRoundedRatiosDivisionCallback -->
<g id="edge2" class="edge">
<title>abjad.tools.abctools.AbjadValueObject.AbjadValueObject&#45;&gt;baca.SplitByRoundedRatiosDivisionCallback.SplitByRoundedRatiosDivisionCallback</title>
<path fill="none" stroke="#778899" d="M196.6983,-54C204.4131,-54 213.6108,-54 222.4622,-54"/>
<polygon fill="#778899" stroke="#778899" points="222.5843,-57.5001 232.5842,-54 222.5842,-50.5001 222.5843,-57.5001"/>
</g>
<!-- builtins.object&#45;&gt;abjad.tools.abctools.AbjadObject.AbjadObject -->
<g id="edge3" class="edge">
<title>builtins.object&#45;&gt;abjad.tools.abctools.AbjadObject.AbjadObject</title>
<path fill="none" stroke="#778899" d="M50.7214,-54C58.4511,-54 67.7584,-54 76.4724,-54"/>
<polygon fill="#778899" stroke="#778899" points="76.6614,-57.5001 86.6614,-54 76.6613,-50.5001 76.6614,-57.5001"/>
</g>
<!-- abjad.tools.abctools.AbjadObject.AbjadObject -->
<g id="node1" class="node">
<title>abjad.tools.abctools.AbjadObject.AbjadObject</title>
<path fill="#fbb4ae" stroke="#fbb4ae" stroke-width="2" d="M113.2047,-69.498C113.2047,-69.498 97.0658,-69.498 97.0658,-69.498 91.8998,-69.498 86.7338,-64.332 86.7338,-59.166 86.7338,-59.166 86.7338,-48.834 86.7338,-48.834 86.7338,-43.668 91.8998,-38.502 97.0658,-38.502 97.0658,-38.502 113.2047,-38.502 113.2047,-38.502 118.3707,-38.502 123.5368,-43.668 123.5368,-48.834 123.5368,-48.834 123.5368,-59.166 123.5368,-59.166 123.5368,-64.332 118.3707,-69.498 113.2047,-69.498"/>
<text text-anchor="middle" x="105.1353" y="-57.499" font-family="Arial" font-size="10.00" fill="#000000">Abjad</text>
<text text-anchor="middle" x="105.1353" y="-46" font-family="Arial" font-size="10.00" fill="#000000">Object</text>
</g>
<!-- abjad.tools.abctools.AbjadValueObject.AbjadValueObject -->
<g id="node2" class="node">
<title>abjad.tools.abctools.AbjadValueObject.AbjadValueObject</title>
<path fill="#fbb4ae" stroke="#fbb4ae" stroke-width="2" d="M184.4381,-75.5C184.4381,-75.5 171.6351,-75.5 171.6351,-75.5 165.6351,-75.5 159.6351,-69.5 159.6351,-63.5 159.6351,-63.5 159.6351,-44.5 159.6351,-44.5 159.6351,-38.5 165.6351,-32.5 171.6351,-32.5 171.6351,-32.5 184.4381,-32.5 184.4381,-32.5 190.4381,-32.5 196.4381,-38.5 196.4381,-44.5 196.4381,-44.5 196.4381,-63.5 196.4381,-63.5 196.4381,-69.5 190.4381,-75.5 184.4381,-75.5"/>
<text text-anchor="middle" x="178.0366" y="-63.2485" font-family="Arial" font-size="10.00" fill="#000000">Abjad</text>
<text text-anchor="middle" x="178.0366" y="-51.7495" font-family="Arial" font-size="10.00" fill="#000000">Value</text>
<text text-anchor="middle" x="178.0366" y="-40.2505" font-family="Arial" font-size="10.00" fill="#000000">Object</text>
</g>
<!-- baca.SplitByRoundedRatiosDivisionCallback.SplitByRoundedRatiosDivisionCallback -->
<g id="node3" class="node">
<title>baca.SplitByRoundedRatiosDivisionCallback.SplitByRoundedRatiosDivisionCallback</title>
<g id="a_node3"><a xlink:href="../api/baca/SplitByRoundedRatiosDivisionCallback.html#baca.SplitByRoundedRatiosDivisionCallback.SplitByRoundedRatiosDivisionCallback" xlink:title="Split\nBy\nRounded\nRatios\nDivision\nCallback" target="_top">
<path fill="#000000" stroke="#000000" stroke-width="2" d="M268.8752,-92.4941C268.8752,-92.4941 244.6902,-92.4941 244.6902,-92.4941 238.6902,-92.4941 232.6902,-86.4941 232.6902,-80.4941 232.6902,-80.4941 232.6902,-27.5059 232.6902,-27.5059 232.6902,-21.5059 238.6902,-15.5059 244.6902,-15.5059 244.6902,-15.5059 268.8752,-15.5059 268.8752,-15.5059 274.8752,-15.5059 280.8752,-21.5059 280.8752,-27.5059 280.8752,-27.5059 280.8752,-80.4941 280.8752,-80.4941 280.8752,-86.4941 274.8752,-92.4941 268.8752,-92.4941"/>
<text text-anchor="middle" x="256.7827" y="-80.4971" font-family="Arial" font-size="10.00" fill="#ffffff">Split</text>
<text text-anchor="middle" x="256.7827" y="-68.998" font-family="Arial" font-size="10.00" fill="#ffffff">By</text>
<text text-anchor="middle" x="256.7827" y="-57.499" font-family="Arial" font-size="10.00" fill="#ffffff">Rounded</text>
<text text-anchor="middle" x="256.7827" y="-46" font-family="Arial" font-size="10.00" fill="#ffffff">Ratios</text>
<text text-anchor="middle" x="256.7827" y="-34.501" font-family="Arial" font-size="10.00" fill="#ffffff">Division</text>
<text text-anchor="middle" x="256.7827" y="-23.002" font-family="Arial" font-size="10.00" fill="#ffffff">Callback</text>
</a>
</g>
</g>
<!-- builtins.object -->
<g id="node4" class="node">
<title>builtins.object</title>
<g id="a_node4"><a xlink:href="https://docs.python.org/3.6/library/functions.html#object" xlink:title="object" target="_top">
<path fill="#ccebc5" stroke="#ccebc5" stroke-width="2" d="M43.8579,-64.0056C43.8579,-64.0056 22.8267,-64.0056 22.8267,-64.0056 19.4915,-64.0056 16.1563,-60.6704 16.1563,-57.3352 16.1563,-57.3352 16.1563,-50.6648 16.1563,-50.6648 16.1563,-47.3296 19.4915,-43.9944 22.8267,-43.9944 22.8267,-43.9944 43.8579,-43.9944 43.8579,-43.9944 47.1931,-43.9944 50.5283,-47.3296 50.5283,-50.6648 50.5283,-50.6648 50.5283,-57.3352 50.5283,-57.3352 50.5283,-60.6704 47.1931,-64.0056 43.8579,-64.0056"/>
<text text-anchor="middle" x="33.3423" y="-51.7495" font-family="Arial" font-size="10.00" fill="#000000">object</text>
</a>
</g>
</g>
</g>
</svg>
