<?xml version="1.0" encoding="UTF-8" standalone="no"?>
<!DOCTYPE svg PUBLIC "-//W3C//DTD SVG 1.1//EN"
 "http://www.w3.org/Graphics/SVG/1.1/DTD/svg11.dtd">
<!-- Generated by graphviz version 2.40.1 (20161225.0304)
 -->
<!-- Title: InheritanceGraph Pages: 1 -->
<svg width="611pt" height="1142pt"
 viewBox="0.00 0.00 611.00 1142.00" xmlns="http://www.w3.org/2000/svg" xmlns:xlink="http://www.w3.org/1999/xlink">
<g id="graph0" class="graph" transform="scale(1 1) rotate(0) translate(4 1138)">
<title>InheritanceGraph</title>
<g id="clust1" class="cluster">
<title>cluster_abjad.tools.abctools</title>
<path fill="transparent" stroke="#bcd2ee" stroke-width="2" stroke-dasharray="5,2" d="M90.6846,-516C90.6846,-516 170.5859,-516 170.5859,-516 176.5859,-516 182.5859,-522 182.5859,-528 182.5859,-528 182.5859,-570 182.5859,-570 182.5859,-576 176.5859,-582 170.5859,-582 170.5859,-582 90.6846,-582 90.6846,-582 84.6846,-582 78.6846,-576 78.6846,-570 78.6846,-570 78.6846,-528 78.6846,-528 78.6846,-522 84.6846,-516 90.6846,-516"/>
<text text-anchor="middle" x="130.6353" y="-570" font-family="Arial" font-size="10.00" fill="#000000">abjad.tools.abctools</text>
</g>
<g id="clust2" class="cluster">
<title>cluster_baca.tools</title>
<path fill="transparent" stroke="#bcd2ee" stroke-width="2" stroke-dasharray="5,2" d="M214.5859,-8C214.5859,-8 583.0006,-8 583.0006,-8 589.0006,-8 595.0006,-14 595.0006,-20 595.0006,-20 595.0006,-1114 595.0006,-1114 595.0006,-1120 589.0006,-1126 583.0006,-1126 583.0006,-1126 214.5859,-1126 214.5859,-1126 208.5859,-1126 202.5859,-1120 202.5859,-1114 202.5859,-1114 202.5859,-20 202.5859,-20 202.5859,-14 208.5859,-8 214.5859,-8"/>
<text text-anchor="middle" x="398.7933" y="-1114" font-family="Arial" font-size="10.00" fill="#000000">baca.tools</text>
</g>
<g id="clust3" class="cluster">
<title>cluster_builtins</title>
<path fill="transparent" stroke="#bcd2ee" stroke-width="2" stroke-dasharray="5,2" d="M20,-521C20,-521 46.6846,-521 46.6846,-521 52.6846,-521 58.6846,-527 58.6846,-533 58.6846,-533 58.6846,-564 58.6846,-564 58.6846,-570 52.6846,-576 46.6846,-576 46.6846,-576 20,-576 20,-576 14,-576 8,-570 8,-564 8,-564 8,-533 8,-533 8,-527 14,-521 20,-521"/>
<text text-anchor="middle" x="33.3423" y="-564" font-family="Arial" font-size="10.00" fill="#000000">builtins</text>
</g>
<!-- abjad.tools.abctools.AbjadObject.AbjadObject&#45;&gt;baca.tools.Command.Command -->
<g id="edge36" class="edge">
<title>abjad.tools.abctools.AbjadObject.AbjadObject&#45;&gt;baca.tools.Command.Command</title>
<path fill="none" stroke="#778899" d="M148.686,-539C162.4887,-539 181.9969,-539 200.1353,-539"/>
<polygon fill="#778899" stroke="#778899" points="200.3136,-542.5001 210.3136,-539 200.3136,-535.5001 200.3136,-542.5001"/>
</g>
<!-- baca.tools.Command.Command&#45;&gt;baca.tools.AccidentalAdjustmentCommand.AccidentalAdjustmentCommand -->
<g id="edge1" class="edge">
<title>baca.tools.Command.Command&#45;&gt;baca.tools.AccidentalAdjustmentCommand.AccidentalAdjustmentCommand</title>
<path fill="none" stroke="#778899" d="M250.0336,-525.1855C255.9778,-457.0116 284.0231,-156.3463 323.1344,-72 323.9691,-70.1999 324.924,-68.4207 325.9679,-66.6753"/>
<polygon fill="#778899" stroke="#778899" points="328.9623,-68.4993 331.7869,-58.2879 323.2109,-64.5091 328.9623,-68.4993"/>
</g>
<!-- baca.tools.Command.Command&#45;&gt;baca.tools.BowContactPointCommand.BowContactPointCommand -->
<g id="edge2" class="edge">
<title>baca.tools.Command.Command&#45;&gt;baca.tools.BowContactPointCommand.BowContactPointCommand</title>
<path fill="none" stroke="#778899" d="M249.2784,-524.787C251.5797,-456.0975 264.8156,-159.0913 323.1344,-92 329.4554,-84.7282 380.1968,-70.2053 416.5146,-60.5433"/>
<polygon fill="#778899" stroke="#778899" points="417.5491,-63.8903 426.3267,-57.9571 415.7649,-57.1214 417.5491,-63.8903"/>
</g>
<!-- baca.tools.Command.Command&#45;&gt;baca.tools.ClusterCommand.ClusterCommand -->
<g id="edge3" class="edge">
<title>baca.tools.Command.Command&#45;&gt;baca.tools.ClusterCommand.ClusterCommand</title>
<path fill="none" stroke="#778899" d="M249.0217,-524.9334C250.1193,-456.9992 258.5845,-163.8172 323.1344,-107 351.0951,-82.3888 459.454,-88.0603 517.7892,-93.1467"/>
<polygon fill="#778899" stroke="#778899" points="517.7928,-96.6614 528.0688,-94.0822 518.4272,-89.6902 517.7928,-96.6614"/>
</g>
<!-- baca.tools.Command.Command&#45;&gt;baca.tools.ColorCommand.ColorCommand -->
<g id="edge4" class="edge">
<title>baca.tools.Command.Command&#45;&gt;baca.tools.ColorCommand.ColorCommand</title>
<path fill="none" stroke="#778899" d="M250.4612,-525.0028C257.5518,-464.5113 287.3605,-225.6463 323.1344,-160 324.2069,-158.0319 325.4588,-156.1168 326.8314,-154.2704"/>
<polygon fill="#778899" stroke="#778899" points="329.5225,-156.5094 333.4382,-146.6647 324.2379,-151.9188 329.5225,-156.5094"/>
</g>
<!-- baca.tools.Command.Command&#45;&gt;baca.tools.ColorFingeringCommand.ColorFingeringCommand -->
<g id="edge5" class="edge">
<title>baca.tools.Command.Command&#45;&gt;baca.tools.ColorFingeringCommand.ColorFingeringCommand</title>
<path fill="none" stroke="#778899" d="M249.8166,-525.2146C254.2179,-465.7172 274.4289,-231.613 323.1344,-180 335.8308,-166.5456 382.4137,-156.3866 416.3199,-150.5681"/>
<polygon fill="#778899" stroke="#778899" points="417.0895,-153.9884 426.384,-148.9029 415.9467,-147.0823 417.0895,-153.9884"/>
</g>
<!-- baca.tools.Command.Command&#45;&gt;baca.tools.ContainerCommand.ContainerCommand -->
<g id="edge6" class="edge">
<title>baca.tools.Command.Command&#45;&gt;baca.tools.ContainerCommand.ContainerCommand</title>
<path fill="none" stroke="#778899" d="M249.6735,-525.1207C253.4277,-466.3277 271.1719,-238.8189 323.1344,-195 351.6104,-170.9868 459.7417,-176.3943 517.9097,-181.2866"/>
<polygon fill="#778899" stroke="#778899" points="517.8911,-184.7984 528.159,-182.1869 518.5037,-177.8252 517.8911,-184.7984"/>
</g>
<!-- baca.tools.Command.Command&#45;&gt;baca.tools.DiatonicClusterCommand.DiatonicClusterCommand -->
<g id="edge7" class="edge">
<title>baca.tools.Command.Command&#45;&gt;baca.tools.DiatonicClusterCommand.DiatonicClusterCommand</title>
<path fill="none" stroke="#778899" d="M250.329,-525.1397C255.2416,-483.0329 273.6711,-353.7668 323.1344,-260 324.0602,-258.245 325.0885,-256.5022 326.1909,-254.7857"/>
<polygon fill="#778899" stroke="#778899" points="329.1678,-256.6418 332.1883,-246.4867 323.4942,-252.5417 329.1678,-256.6418"/>
</g>
<!-- baca.tools.Command.Command&#45;&gt;baca.tools.GlobalFermataCommand.GlobalFermataCommand -->
<g id="edge8" class="edge">
<title>baca.tools.Command.Command&#45;&gt;baca.tools.GlobalFermataCommand.GlobalFermataCommand</title>
<path fill="none" stroke="#778899" d="M251.04,-524.9395C258.8678,-476.1937 287.0201,-315.4943 323.1344,-280 336.328,-267.0328 382.7956,-256.7608 416.5399,-250.7837"/>
<polygon fill="#778899" stroke="#778899" points="417.2874,-254.2067 426.5529,-249.0683 416.1054,-247.3072 417.2874,-254.2067"/>
</g>
<!-- baca.tools.Command.Command&#45;&gt;baca.tools.HairpinCommand.HairpinCommand -->
<g id="edge9" class="edge">
<title>baca.tools.Command.Command&#45;&gt;baca.tools.HairpinCommand.HairpinCommand</title>
<path fill="none" stroke="#778899" d="M250.9693,-525.1416C258.4634,-477.8852 285.3932,-324.3702 323.1344,-295 352.5369,-272.1189 460.2592,-276.507 518.1265,-280.7418"/>
<polygon fill="#778899" stroke="#778899" points="518.0827,-284.2486 528.3212,-281.5241 518.6184,-277.2692 518.0827,-284.2486"/>
</g>
<!-- baca.tools.Command.Command&#45;&gt;baca.tools.ImbricationCommand.ImbricationCommand -->
<g id="edge10" class="edge">
<title>baca.tools.Command.Command&#45;&gt;baca.tools.ImbricationCommand.ImbricationCommand</title>
<path fill="none" stroke="#778899" d="M252.0619,-525.074C260.0808,-492.1541 283.2908,-407.8133 323.1344,-348 324.4097,-346.0856 325.8308,-344.2007 327.342,-342.3675"/>
<polygon fill="#778899" stroke="#778899" points="330.1756,-344.4572 334.3726,-334.7291 325.0251,-339.7166 330.1756,-344.4572"/>
</g>
<!-- baca.tools.Command.Command&#45;&gt;baca.tools.IndicatorCommand.IndicatorCommand -->
<g id="edge11" class="edge">
<title>baca.tools.Command.Command&#45;&gt;baca.tools.IndicatorCommand.IndicatorCommand</title>
<path fill="none" stroke="#778899" d="M250.6484,-524.9382C255.6135,-492.0216 272.7018,-409.6086 323.1344,-368 337.2126,-356.385 383.2405,-348.0979 416.6605,-343.4324"/>
<polygon fill="#778899" stroke="#778899" points="417.1328,-346.9005 426.5782,-342.101 416.2014,-339.9627 417.1328,-346.9005"/>
</g>
<!-- baca.tools.Command.Command&#45;&gt;baca.tools.LabelCommand.LabelCommand -->
<g id="edge12" class="edge">
<title>baca.tools.Command.Command&#45;&gt;baca.tools.LabelCommand.LabelCommand</title>
<path fill="none" stroke="#778899" d="M250.6127,-524.9497C255.4411,-493.0014 272.1544,-415.1909 323.1344,-383 354.556,-363.1591 460.8873,-377.5318 518.1789,-387.179"/>
<polygon fill="#778899" stroke="#778899" points="517.8281,-390.6699 528.2767,-388.916 519.0149,-383.7713 517.8281,-390.6699"/>
</g>
<!-- baca.tools.Command.Command&#45;&gt;baca.tools.MapCommand.MapCommand -->
<g id="edge13" class="edge">
<title>baca.tools.Command.Command&#45;&gt;baca.tools.MapCommand.MapCommand</title>
<path fill="none" stroke="#778899" d="M257.5167,-525.4197C270.6837,-505.1505 296.9856,-466.1423 323.1344,-436 324.841,-434.0328 326.6608,-432.0474 328.5286,-430.0876"/>
<polygon fill="#778899" stroke="#778899" points="331.2595,-432.3053 335.8325,-422.7481 326.2977,-427.3676 331.2595,-432.3053"/>
</g>
<!-- baca.tools.Command.Command&#45;&gt;baca.tools.MetronomeMarkCommand.MetronomeMarkCommand -->
<g id="edge14" class="edge">
<title>baca.tools.Command.Command&#45;&gt;baca.tools.MetronomeMarkCommand.MetronomeMarkCommand</title>
<path fill="none" stroke="#778899" d="M257.3852,-525.2885C269.6347,-506.7439 293.9805,-473.9303 323.1344,-456 351.0461,-438.8336 387.3534,-429.9807 414.5891,-425.4795"/>
<polygon fill="#778899" stroke="#778899" points="415.1897,-428.9284 424.5469,-423.9591 414.1332,-422.0086 415.1897,-428.9284"/>
</g>
<!-- baca.tools.Command.Command&#45;&gt;baca.tools.MicrotoneDeviationCommand.MicrotoneDeviationCommand -->
<g id="edge15" class="edge">
<title>baca.tools.Command.Command&#45;&gt;baca.tools.MicrotoneDeviationCommand.MicrotoneDeviationCommand</title>
<path fill="none" stroke="#778899" d="M258.6274,-525.5529C271.3703,-509.2384 295.3469,-482.4927 323.1344,-471 357.3092,-456.8655 461.5536,-457.8395 518.0839,-459.5367"/>
<polygon fill="#778899" stroke="#778899" points="518.2798,-463.0448 528.3877,-459.87 518.5062,-456.0484 518.2798,-463.0448"/>
</g>
<!-- baca.tools.Command.Command&#45;&gt;baca.tools.NestingCommand.NestingCommand -->
<g id="edge16" class="edge">
<title>baca.tools.Command.Command&#45;&gt;baca.tools.NestingCommand.NestingCommand</title>
<path fill="none" stroke="#778899" d="M273.8659,-528.4609C286.609,-523.0901 302.3519,-516.455 316.4499,-510.5132"/>
<polygon fill="#778899" stroke="#778899" points="318.0345,-513.6436 325.8901,-506.5344 315.3157,-507.1931 318.0345,-513.6436"/>
</g>
<!-- baca.tools.Command.Command&#45;&gt;baca.tools.OctaveDisplacementCommand.OctaveDisplacementCommand -->
<g id="edge17" class="edge">
<title>baca.tools.Command.Command&#45;&gt;baca.tools.OctaveDisplacementCommand.OctaveDisplacementCommand</title>
<path fill="none" stroke="#778899" d="M284.5355,-533.7744C319.2109,-528.6953 371.9663,-520.9678 409.3253,-515.4956"/>
<polygon fill="#778899" stroke="#778899" points="410.0392,-518.9285 419.4263,-514.016 409.0246,-512.0024 410.0392,-518.9285"/>
</g>
<!-- baca.tools.Command.Command&#45;&gt;baca.tools.OverrideCommand.OverrideCommand -->
<g id="edge18" class="edge">
<title>baca.tools.Command.Command&#45;&gt;baca.tools.OverrideCommand.OverrideCommand</title>
<path fill="none" stroke="#778899" d="M287.0739,-540.2463C346.1661,-542.1735 459.0198,-545.8541 517.7919,-547.7708"/>
<polygon fill="#778899" stroke="#778899" points="518.0027,-551.2795 528.1115,-548.1074 518.2309,-544.2832 518.0027,-551.2795"/>
</g>
<!-- baca.tools.Command.Command&#45;&gt;baca.tools.PartAssignmentCommand.PartAssignmentCommand -->
<g id="edge19" class="edge">
<title>baca.tools.Command.Command&#45;&gt;baca.tools.PartAssignmentCommand.PartAssignmentCommand</title>
<path fill="none" stroke="#778899" d="M272.0293,-550.0966C284.3485,-555.9968 299.8308,-563.4119 313.9658,-570.1817"/>
<polygon fill="#778899" stroke="#778899" points="312.4824,-573.3519 323.0132,-574.5149 315.5061,-567.0386 312.4824,-573.3519"/>
</g>
<!-- baca.tools.Command.Command&#45;&gt;baca.tools.PiecewiseCommand.PiecewiseCommand -->
<g id="edge20" class="edge">
<title>baca.tools.Command.Command&#45;&gt;baca.tools.PiecewiseCommand.PiecewiseCommand</title>
<path fill="none" stroke="#778899" d="M256.537,-552.6782C268.1153,-571.7295 292.0388,-605.4387 323.1344,-619 352.62,-631.8591 389.5164,-629.2367 416.5534,-624.3429"/>
<polygon fill="#778899" stroke="#778899" points="417.2725,-627.7685 426.3968,-622.3836 415.9059,-620.9032 417.2725,-627.7685"/>
</g>
<!-- baca.tools.Command.Command&#45;&gt;baca.tools.PitchCommand.PitchCommand -->
<g id="edge21" class="edge">
<title>baca.tools.Command.Command&#45;&gt;baca.tools.PitchCommand.PitchCommand</title>
<path fill="none" stroke="#778899" d="M255.8093,-552.6524C266.9558,-572.9655 290.8956,-610.6145 323.1344,-628 385.075,-661.403 469.967,-659.1375 518.1223,-654.2338"/>
<polygon fill="#778899" stroke="#778899" points="518.5531,-657.7075 528.1055,-653.1248 517.7802,-650.7503 518.5531,-657.7075"/>
</g>
<!-- baca.tools.Command.Command&#45;&gt;baca.tools.PitchFirstRhythmCommand.PitchFirstRhythmCommand -->
<g id="edge22" class="edge">
<title>baca.tools.Command.Command&#45;&gt;baca.tools.PitchFirstRhythmCommand.PitchFirstRhythmCommand</title>
<path fill="none" stroke="#778899" d="M257.2908,-552.6288C270.8024,-574.3376 298.3134,-617.9944 323.1344,-654 324.3971,-655.8317 325.7029,-657.6998 327.0312,-659.5795"/>
<polygon fill="#778899" stroke="#778899" points="324.2644,-661.7275 332.934,-667.8175 329.9545,-657.6503 324.2644,-661.7275"/>
</g>
<!-- baca.tools.Command.Command&#45;&gt;baca.tools.RegisterCommand.RegisterCommand -->
<g id="edge23" class="edge">
<title>baca.tools.Command.Command&#45;&gt;baca.tools.RegisterCommand.RegisterCommand</title>
<path fill="none" stroke="#778899" d="M252.1244,-553.0242C261.8863,-593.6253 292.1057,-709.7338 323.1344,-731 350.2848,-749.6081 388.62,-745.8255 416.7238,-739.0627"/>
<polygon fill="#778899" stroke="#778899" points="417.7941,-742.4003 426.5752,-736.4722 416.0139,-735.6304 417.7941,-742.4003"/>
</g>
<!-- baca.tools.Command.Command&#45;&gt;baca.tools.RegisterInterpolationCommand.RegisterInterpolationCommand -->
<g id="edge24" class="edge">
<title>baca.tools.Command.Command&#45;&gt;baca.tools.RegisterInterpolationCommand.RegisterInterpolationCommand</title>
<path fill="none" stroke="#778899" d="M251.8961,-552.777C261.3671,-594.4368 291.627,-717.7161 323.1344,-742 378.0163,-784.2995 463.4092,-778.5195 513.9574,-770.0497"/>
<polygon fill="#778899" stroke="#778899" points="514.6586,-773.48 523.8872,-768.2757 513.4275,-766.5891 514.6586,-773.48"/>
</g>
<!-- baca.tools.Command.Command&#45;&gt;baca.tools.RegisterToOctaveCommand.RegisterToOctaveCommand -->
<g id="edge25" class="edge">
<title>baca.tools.Command.Command&#45;&gt;baca.tools.RegisterToOctaveCommand.RegisterToOctaveCommand</title>
<path fill="none" stroke="#778899" d="M251.7833,-552.902C259.7823,-589.3385 284.0741,-690.0345 323.1344,-766 324.0432,-767.7674 325.0249,-769.5408 326.0597,-771.3056"/>
<polygon fill="#778899" stroke="#778899" points="323.2634,-773.4308 331.5845,-779.989 329.1694,-769.6731 323.2634,-773.4308"/>
</g>
<!-- baca.tools.Command.Command&#45;&gt;baca.tools.RhythmCommand.RhythmCommand -->
<g id="edge26" class="edge">
<title>baca.tools.Command.Command&#45;&gt;baca.tools.RhythmCommand.RhythmCommand</title>
<path fill="none" stroke="#778899" d="M250.0309,-552.7825C254.9646,-607.208 276.0204,-806.0112 323.1344,-843 349.2971,-863.5401 388.3421,-859.2252 416.9129,-851.7968"/>
<polygon fill="#778899" stroke="#778899" points="417.8725,-855.1628 426.5437,-849.0751 415.9687,-848.4267 417.8725,-855.1628"/>
</g>
<!-- baca.tools.Command.Command&#45;&gt;baca.tools.SettingCommand.SettingCommand -->
<g id="edge27" class="edge">
<title>baca.tools.Command.Command&#45;&gt;baca.tools.SettingCommand.SettingCommand</title>
<path fill="none" stroke="#778899" d="M250.0006,-552.8249C254.8838,-608.3817 275.9668,-814.3402 323.1344,-855 351.4064,-879.3712 459.6278,-877.9617 517.862,-875.2742"/>
<polygon fill="#778899" stroke="#778899" points="518.3097,-878.7563 528.1233,-874.7634 517.9617,-871.765 518.3097,-878.7563"/>
</g>
<!-- baca.tools.Command.Command&#45;&gt;baca.tools.SpannerCommand.SpannerCommand -->
<g id="edge28" class="edge">
<title>baca.tools.Command.Command&#45;&gt;baca.tools.SpannerCommand.SpannerCommand</title>
<path fill="none" stroke="#778899" d="M250.8229,-553.0189C258.8935,-609.4712 290.6309,-819.897 323.1344,-878 324.2286,-879.9561 325.4971,-881.8621 326.8818,-883.7018"/>
<polygon fill="#778899" stroke="#778899" points="324.3005,-886.0669 333.5176,-891.2914 329.5703,-881.4593 324.3005,-886.0669"/>
</g>
<!-- baca.tools.Command.Command&#45;&gt;baca.tools.StaffPositionCommand.StaffPositionCommand -->
<g id="edge29" class="edge">
<title>baca.tools.Command.Command&#45;&gt;baca.tools.StaffPositionCommand.StaffPositionCommand</title>
<path fill="none" stroke="#778899" d="M249.2373,-553.0919C251.2785,-617.3279 263.2565,-881.4022 323.1344,-931 348.8916,-952.3351 388.1676,-945.8391 416.9108,-936.4578"/>
<polygon fill="#778899" stroke="#778899" points="418.3207,-939.6724 426.5989,-933.0601 416.004,-933.0669 418.3207,-939.6724"/>
</g>
<!-- baca.tools.Command.Command&#45;&gt;baca.tools.StaffPositionInterpolationCommand.StaffPositionInterpolationCommand -->
<g id="edge30" class="edge">
<title>baca.tools.Command.Command&#45;&gt;baca.tools.StaffPositionInterpolationCommand.StaffPositionInterpolationCommand</title>
<path fill="none" stroke="#778899" d="M249.2479,-552.9684C251.3577,-617.8761 263.6697,-889.1429 323.1344,-943 350.1505,-967.4685 454.2375,-966.4103 513.5217,-963.6373"/>
<polygon fill="#778899" stroke="#778899" points="513.8784,-967.1239 523.6893,-963.1245 513.5257,-960.1328 513.8784,-967.1239"/>
</g>
<!-- baca.tools.Command.Command&#45;&gt;baca.tools.SuiteCommand.SuiteCommand -->
<g id="edge31" class="edge">
<title>baca.tools.Command.Command&#45;&gt;baca.tools.SuiteCommand.SuiteCommand</title>
<path fill="none" stroke="#778899" d="M250.1168,-552.9791C256.1415,-618.0473 283.4221,-891.2425 323.1344,-966 324.1859,-967.9794 325.4219,-969.9031 326.7826,-971.7559"/>
<polygon fill="#778899" stroke="#778899" points="324.1774,-974.0942 333.3615,-979.3765 329.4761,-969.5199 324.1774,-974.0942"/>
</g>
<!-- baca.tools.Command.Command&#45;&gt;baca.tools.TextSpannerCommand.TextSpannerCommand -->
<g id="edge32" class="edge">
<title>baca.tools.Command.Command&#45;&gt;baca.tools.TextSpannerCommand.TextSpannerCommand</title>
<path fill="none" stroke="#778899" d="M249.9413,-552.8433C255.9696,-628.2834 286.4808,-987.5819 323.1344,-1019 348.5281,-1040.7666 387.8585,-1034.206 416.7136,-1024.6918"/>
<polygon fill="#778899" stroke="#778899" points="418.186,-1027.8834 426.4431,-1021.2449 415.8484,-1021.2852 418.186,-1027.8834"/>
</g>
<!-- baca.tools.Command.Command&#45;&gt;baca.tools.TieCorrectionCommand.TieCorrectionCommand -->
<g id="edge33" class="edge">
<title>baca.tools.Command.Command&#45;&gt;baca.tools.TieCorrectionCommand.TieCorrectionCommand</title>
<path fill="none" stroke="#778899" d="M249.9392,-552.8855C256.0146,-629.381 286.9749,-997.1822 323.1344,-1031 350.4657,-1056.5613 459.6186,-1054.5801 518.0729,-1051.5139"/>
<polygon fill="#778899" stroke="#778899" points="518.5787,-1054.9911 528.3664,-1050.9352 518.1857,-1048.0022 518.5787,-1054.9911"/>
</g>
<!-- baca.tools.Command.Command&#45;&gt;baca.tools.VoltaCommand.VoltaCommand -->
<g id="edge34" class="edge">
<title>baca.tools.Command.Command&#45;&gt;baca.tools.VoltaCommand.VoltaCommand</title>
<path fill="none" stroke="#778899" d="M249.645,-552.8463C253.9403,-625.4498 276.1457,-962.3633 323.1344,-1054 324.1571,-1055.9944 325.3712,-1057.9296 326.7158,-1059.7908"/>
<polygon fill="#778899" stroke="#778899" points="324.0944,-1062.1107 333.2563,-1067.4314 329.4122,-1057.5586 324.0944,-1062.1107"/>
</g>
<!-- baca.tools.IndicatorCommand.IndicatorCommand&#45;&gt;baca.tools.InstrumentChangeCommand.InstrumentChangeCommand -->
<g id="edge35" class="edge">
<title>baca.tools.IndicatorCommand.IndicatorCommand&#45;&gt;baca.tools.InstrumentChangeCommand.InstrumentChangeCommand</title>
<path fill="none" stroke="#778899" d="M480.9542,-339C492.1611,-339 505.3306,-339 517.4564,-339"/>
<polygon fill="#778899" stroke="#778899" points="517.7682,-342.5001 527.7682,-339 517.7682,-335.5001 517.7682,-342.5001"/>
</g>
<!-- builtins.object&#45;&gt;abjad.tools.abctools.AbjadObject.AbjadObject -->
<g id="edge37" class="edge">
<title>builtins.object&#45;&gt;abjad.tools.abctools.AbjadObject.AbjadObject</title>
<path fill="none" stroke="#778899" d="M50.6469,-539C64.7425,-539 84.9402,-539 101.4481,-539"/>
<polygon fill="#778899" stroke="#778899" points="101.6622,-542.5001 111.6621,-539 101.6621,-535.5001 101.6622,-542.5001"/>
</g>
<!-- abjad.tools.abctools.AbjadObject.AbjadObject -->
<g id="node1" class="node">
<title>abjad.tools.abctools.AbjadObject.AbjadObject</title>
<path fill="#fbb4ae" stroke="#fbb4ae" stroke-width="2" d="M138.2047,-554.498C138.2047,-554.498 122.0658,-554.498 122.0658,-554.498 116.8998,-554.498 111.7338,-549.332 111.7338,-544.166 111.7338,-544.166 111.7338,-533.834 111.7338,-533.834 111.7338,-528.668 116.8998,-523.502 122.0658,-523.502 122.0658,-523.502 138.2047,-523.502 138.2047,-523.502 143.3707,-523.502 148.5368,-528.668 148.5368,-533.834 148.5368,-533.834 148.5368,-544.166 148.5368,-544.166 148.5368,-549.332 143.3707,-554.498 138.2047,-554.498"/>
<text text-anchor="middle" x="130.1353" y="-542.499" font-family="Arial" font-size="10.00" fill="#000000">Abjad</text>
<text text-anchor="middle" x="130.1353" y="-531" font-family="Arial" font-size="10.00" fill="#000000">Object</text>
</g>
<!-- baca.tools.AccidentalAdjustmentCommand.AccidentalAdjustmentCommand -->
<g id="node2" class="node">
<title>baca.tools.AccidentalAdjustmentCommand.AccidentalAdjustmentCommand</title>
<g id="a_node2"><a xlink:href="../api/baca/tools/AccidentalAdjustmentCommand.html#baca.tools.AccidentalAdjustmentCommand.AccidentalAdjustmentCommand" xlink:title="Accidental\nAdjustment\nCommand" target="_top">
<path fill="#b3cde3" stroke="#b3cde3" stroke-width="2" d="M370.2819,-58.5C370.2819,-58.5 336.233,-58.5 336.233,-58.5 330.233,-58.5 324.233,-52.5 324.233,-46.5 324.233,-46.5 324.233,-27.5 324.233,-27.5 324.233,-21.5 330.233,-15.5 336.233,-15.5 336.233,-15.5 370.2819,-15.5 370.2819,-15.5 376.2819,-15.5 382.2819,-21.5 382.2819,-27.5 382.2819,-27.5 382.2819,-46.5 382.2819,-46.5 382.2819,-52.5 376.2819,-58.5 370.2819,-58.5"/>
<text text-anchor="middle" x="353.2574" y="-46.2485" font-family="Arial" font-size="10.00" fill="#000000">Accidental</text>
<text text-anchor="middle" x="353.2574" y="-34.7495" font-family="Arial" font-size="10.00" fill="#000000">Adjustment</text>
<text text-anchor="middle" x="353.2574" y="-23.2505" font-family="Arial" font-size="10.00" fill="#000000">Command</text>
</a>
</g>
</g>
<!-- baca.tools.BowContactPointCommand.BowContactPointCommand -->
<g id="node3" class="node">
<title>baca.tools.BowContactPointCommand.BowContactPointCommand</title>
<g id="a_node3"><a xlink:href="../api/baca/tools/BowContactPointCommand.html#baca.tools.BowContactPointCommand.BowContactPointCommand" xlink:title="Bow\nContact\nPoint\nCommand" target="_top">
<path fill="#b3cde3" stroke="#b3cde3" stroke-width="2" d="M468.7991,-77.9961C468.7991,-77.9961 438.5429,-77.9961 438.5429,-77.9961 432.5429,-77.9961 426.5429,-71.9961 426.5429,-65.9961 426.5429,-65.9961 426.5429,-36.0039 426.5429,-36.0039 426.5429,-30.0039 432.5429,-24.0039 438.5429,-24.0039 438.5429,-24.0039 468.7991,-24.0039 468.7991,-24.0039 474.7991,-24.0039 480.7991,-30.0039 480.7991,-36.0039 480.7991,-36.0039 480.7991,-65.9961 480.7991,-65.9961 480.7991,-71.9961 474.7991,-77.9961 468.7991,-77.9961"/>
<text text-anchor="middle" x="453.671" y="-65.998" font-family="Arial" font-size="10.00" fill="#000000">Bow</text>
<text text-anchor="middle" x="453.671" y="-54.499" font-family="Arial" font-size="10.00" fill="#000000">Contact</text>
<text text-anchor="middle" x="453.671" y="-43" font-family="Arial" font-size="10.00" fill="#000000">Point</text>
<text text-anchor="middle" x="453.671" y="-31.501" font-family="Arial" font-size="10.00" fill="#000000">Command</text>
</a>
</g>
</g>
<!-- baca.tools.ClusterCommand.ClusterCommand -->
<g id="node4" class="node">
<title>baca.tools.ClusterCommand.ClusterCommand</title>
<g id="a_node4"><a xlink:href="../api/baca/tools/ClusterCommand.html#baca.tools.ClusterCommand.ClusterCommand" xlink:title="Cluster\nCommand" target="_top">
<path fill="#b3cde3" stroke="#b3cde3" stroke-width="2" d="M572.2771,-112.498C572.2771,-112.498 538.685,-112.498 538.685,-112.498 533.519,-112.498 528.353,-107.332 528.353,-102.166 528.353,-102.166 528.353,-91.834 528.353,-91.834 528.353,-86.668 533.519,-81.502 538.685,-81.502 538.685,-81.502 572.2771,-81.502 572.2771,-81.502 577.4431,-81.502 582.6092,-86.668 582.6092,-91.834 582.6092,-91.834 582.6092,-102.166 582.6092,-102.166 582.6092,-107.332 577.4431,-112.498 572.2771,-112.498"/>
<text text-anchor="middle" x="555.4811" y="-100.499" font-family="Arial" font-size="10.00" fill="#000000">Cluster</text>
<text text-anchor="middle" x="555.4811" y="-89" font-family="Arial" font-size="10.00" fill="#000000">Command</text>
</a>
</g>
</g>
<!-- baca.tools.ColorCommand.ColorCommand -->
<g id="node5" class="node">
<title>baca.tools.ColorCommand.ColorCommand</title>
<g id="a_node5"><a xlink:href="../api/baca/tools/ColorCommand.html#baca.tools.ColorCommand.ColorCommand" xlink:title="Color\nCommand" target="_top">
<path fill="#b3cde3" stroke="#b3cde3" stroke-width="2" d="M370.0535,-146.498C370.0535,-146.498 336.4614,-146.498 336.4614,-146.498 331.2954,-146.498 326.1294,-141.332 326.1294,-136.166 326.1294,-136.166 326.1294,-125.834 326.1294,-125.834 326.1294,-120.668 331.2954,-115.502 336.4614,-115.502 336.4614,-115.502 370.0535,-115.502 370.0535,-115.502 375.2195,-115.502 380.3855,-120.668 380.3855,-125.834 380.3855,-125.834 380.3855,-136.166 380.3855,-136.166 380.3855,-141.332 375.2195,-146.498 370.0535,-146.498"/>
<text text-anchor="middle" x="353.2574" y="-134.499" font-family="Arial" font-size="10.00" fill="#000000">Color</text>
<text text-anchor="middle" x="353.2574" y="-123" font-family="Arial" font-size="10.00" fill="#000000">Command</text>
</a>
</g>
</g>
<!-- baca.tools.ColorFingeringCommand.ColorFingeringCommand -->
<g id="node6" class="node">
<title>baca.tools.ColorFingeringCommand.ColorFingeringCommand</title>
<g id="a_node6"><a xlink:href="../api/baca/tools/ColorFingeringCommand.html#baca.tools.ColorFingeringCommand.ColorFingeringCommand" xlink:title="Color\nFingering\nCommand" target="_top">
<path fill="#b3cde3" stroke="#b3cde3" stroke-width="2" d="M468.7991,-166.5C468.7991,-166.5 438.5429,-166.5 438.5429,-166.5 432.5429,-166.5 426.5429,-160.5 426.5429,-154.5 426.5429,-154.5 426.5429,-135.5 426.5429,-135.5 426.5429,-129.5 432.5429,-123.5 438.5429,-123.5 438.5429,-123.5 468.7991,-123.5 468.7991,-123.5 474.7991,-123.5 480.7991,-129.5 480.7991,-135.5 480.7991,-135.5 480.7991,-154.5 480.7991,-154.5 480.7991,-160.5 474.7991,-166.5 468.7991,-166.5"/>
<text text-anchor="middle" x="453.671" y="-154.2485" font-family="Arial" font-size="10.00" fill="#000000">Color</text>
<text text-anchor="middle" x="453.671" y="-142.7495" font-family="Arial" font-size="10.00" fill="#000000">Fingering</text>
<text text-anchor="middle" x="453.671" y="-131.2505" font-family="Arial" font-size="10.00" fill="#000000">Command</text>
</a>
</g>
</g>
<!-- baca.tools.Command.Command -->
<g id="node7" class="node">
<title>baca.tools.Command.Command</title>
<g id="a_node7"><a xlink:href="../api/baca/tools/Command.html#baca.tools.Command.Command" xlink:title="Command" target="_top">
<ellipse fill="#000000" stroke="#000000" stroke-width="2" cx="248.8602" cy="-539" rx="38.0498" ry="13.579"/>
<text text-anchor="middle" x="248.8602" y="-536.7495" font-family="Arial" font-size="10.00" fill="#ffffff">Command</text>
</a>
</g>
</g>
<!-- baca.tools.ContainerCommand.ContainerCommand -->
<g id="node8" class="node">
<title>baca.tools.ContainerCommand.ContainerCommand</title>
<g id="a_node8"><a xlink:href="../api/baca/tools/ContainerCommand.html#baca.tools.ContainerCommand.ContainerCommand" xlink:title="Container\nCommand" target="_top">
<path fill="#b3cde3" stroke="#b3cde3" stroke-width="2" d="M572.2771,-200.498C572.2771,-200.498 538.685,-200.498 538.685,-200.498 533.519,-200.498 528.353,-195.332 528.353,-190.166 528.353,-190.166 528.353,-179.834 528.353,-179.834 528.353,-174.668 533.519,-169.502 538.685,-169.502 538.685,-169.502 572.2771,-169.502 572.2771,-169.502 577.4431,-169.502 582.6092,-174.668 582.6092,-179.834 582.6092,-179.834 582.6092,-190.166 582.6092,-190.166 582.6092,-195.332 577.4431,-200.498 572.2771,-200.498"/>
<text text-anchor="middle" x="555.4811" y="-188.499" font-family="Arial" font-size="10.00" fill="#000000">Container</text>
<text text-anchor="middle" x="555.4811" y="-177" font-family="Arial" font-size="10.00" fill="#000000">Command</text>
</a>
</g>
</g>
<!-- baca.tools.DiatonicClusterCommand.DiatonicClusterCommand -->
<g id="node9" class="node">
<title>baca.tools.DiatonicClusterCommand.DiatonicClusterCommand</title>
<g id="a_node9"><a xlink:href="../api/baca/tools/DiatonicClusterCommand.html#baca.tools.DiatonicClusterCommand.DiatonicClusterCommand" xlink:title="Diatonic\nCluster\nCommand" target="_top">
<path fill="#b3cde3" stroke="#b3cde3" stroke-width="2" d="M368.3855,-246.5C368.3855,-246.5 338.1294,-246.5 338.1294,-246.5 332.1294,-246.5 326.1294,-240.5 326.1294,-234.5 326.1294,-234.5 326.1294,-215.5 326.1294,-215.5 326.1294,-209.5 332.1294,-203.5 338.1294,-203.5 338.1294,-203.5 368.3855,-203.5 368.3855,-203.5 374.3855,-203.5 380.3855,-209.5 380.3855,-215.5 380.3855,-215.5 380.3855,-234.5 380.3855,-234.5 380.3855,-240.5 374.3855,-246.5 368.3855,-246.5"/>
<text text-anchor="middle" x="353.2574" y="-234.2485" font-family="Arial" font-size="10.00" fill="#000000">Diatonic</text>
<text text-anchor="middle" x="353.2574" y="-222.7495" font-family="Arial" font-size="10.00" fill="#000000">Cluster</text>
<text text-anchor="middle" x="353.2574" y="-211.2505" font-family="Arial" font-size="10.00" fill="#000000">Command</text>
</a>
</g>
</g>
<!-- baca.tools.GlobalFermataCommand.GlobalFermataCommand -->
<g id="node10" class="node">
<title>baca.tools.GlobalFermataCommand.GlobalFermataCommand</title>
<g id="a_node10"><a xlink:href="../api/baca/tools/GlobalFermataCommand.html#baca.tools.GlobalFermataCommand.GlobalFermataCommand" xlink:title="Global\nFermata\nCommand" target="_top">
<path fill="#b3cde3" stroke="#b3cde3" stroke-width="2" d="M468.7991,-266.5C468.7991,-266.5 438.5429,-266.5 438.5429,-266.5 432.5429,-266.5 426.5429,-260.5 426.5429,-254.5 426.5429,-254.5 426.5429,-235.5 426.5429,-235.5 426.5429,-229.5 432.5429,-223.5 438.5429,-223.5 438.5429,-223.5 468.7991,-223.5 468.7991,-223.5 474.7991,-223.5 480.7991,-229.5 480.7991,-235.5 480.7991,-235.5 480.7991,-254.5 480.7991,-254.5 480.7991,-260.5 474.7991,-266.5 468.7991,-266.5"/>
<text text-anchor="middle" x="453.671" y="-254.2485" font-family="Arial" font-size="10.00" fill="#000000">Global</text>
<text text-anchor="middle" x="453.671" y="-242.7495" font-family="Arial" font-size="10.00" fill="#000000">Fermata</text>
<text text-anchor="middle" x="453.671" y="-231.2505" font-family="Arial" font-size="10.00" fill="#000000">Command</text>
</a>
</g>
</g>
<!-- baca.tools.HairpinCommand.HairpinCommand -->
<g id="node11" class="node">
<title>baca.tools.HairpinCommand.HairpinCommand</title>
<g id="a_node11"><a xlink:href="../api/baca/tools/HairpinCommand.html#baca.tools.HairpinCommand.HairpinCommand" xlink:title="Hairpin\nCommand" target="_top">
<path fill="#b3cde3" stroke="#b3cde3" stroke-width="2" d="M572.2771,-299.498C572.2771,-299.498 538.685,-299.498 538.685,-299.498 533.519,-299.498 528.353,-294.332 528.353,-289.166 528.353,-289.166 528.353,-278.834 528.353,-278.834 528.353,-273.668 533.519,-268.502 538.685,-268.502 538.685,-268.502 572.2771,-268.502 572.2771,-268.502 577.4431,-268.502 582.6092,-273.668 582.6092,-278.834 582.6092,-278.834 582.6092,-289.166 582.6092,-289.166 582.6092,-294.332 577.4431,-299.498 572.2771,-299.498"/>
<text text-anchor="middle" x="555.4811" y="-287.499" font-family="Arial" font-size="10.00" fill="#000000">Hairpin</text>
<text text-anchor="middle" x="555.4811" y="-276" font-family="Arial" font-size="10.00" fill="#000000">Command</text>
</a>
</g>
</g>
<!-- baca.tools.ImbricationCommand.ImbricationCommand -->
<g id="node12" class="node">
<title>baca.tools.ImbricationCommand.ImbricationCommand</title>
<g id="a_node12"><a xlink:href="../api/baca/tools/ImbricationCommand.html#baca.tools.ImbricationCommand.ImbricationCommand" xlink:title="Imbrication\nCommand" target="_top">
<path fill="#b3cde3" stroke="#b3cde3" stroke-width="2" d="M371.3317,-334.498C371.3317,-334.498 335.1831,-334.498 335.1831,-334.498 330.0171,-334.498 324.8511,-329.332 324.8511,-324.166 324.8511,-324.166 324.8511,-313.834 324.8511,-313.834 324.8511,-308.668 330.0171,-303.502 335.1831,-303.502 335.1831,-303.502 371.3317,-303.502 371.3317,-303.502 376.4977,-303.502 381.6638,-308.668 381.6638,-313.834 381.6638,-313.834 381.6638,-324.166 381.6638,-324.166 381.6638,-329.332 376.4977,-334.498 371.3317,-334.498"/>
<text text-anchor="middle" x="353.2574" y="-322.499" font-family="Arial" font-size="10.00" fill="#000000">Imbrication</text>
<text text-anchor="middle" x="353.2574" y="-311" font-family="Arial" font-size="10.00" fill="#000000">Command</text>
</a>
</g>
</g>
<!-- baca.tools.IndicatorCommand.IndicatorCommand -->
<g id="node13" class="node">
<title>baca.tools.IndicatorCommand.IndicatorCommand</title>
<g id="a_node13"><a xlink:href="../api/baca/tools/IndicatorCommand.html#baca.tools.IndicatorCommand.IndicatorCommand" xlink:title="Indicator\nCommand" target="_top">
<path fill="#b3cde3" stroke="#b3cde3" stroke-width="2" d="M470.4671,-354.498C470.4671,-354.498 436.875,-354.498 436.875,-354.498 431.7089,-354.498 426.5429,-349.332 426.5429,-344.166 426.5429,-344.166 426.5429,-333.834 426.5429,-333.834 426.5429,-328.668 431.7089,-323.502 436.875,-323.502 436.875,-323.502 470.4671,-323.502 470.4671,-323.502 475.6331,-323.502 480.7991,-328.668 480.7991,-333.834 480.7991,-333.834 480.7991,-344.166 480.7991,-344.166 480.7991,-349.332 475.6331,-354.498 470.4671,-354.498"/>
<text text-anchor="middle" x="453.671" y="-342.499" font-family="Arial" font-size="10.00" fill="#000000">Indicator</text>
<text text-anchor="middle" x="453.671" y="-331" font-family="Arial" font-size="10.00" fill="#000000">Command</text>
</a>
</g>
</g>
<!-- baca.tools.LabelCommand.LabelCommand -->
<g id="node14" class="node">
<title>baca.tools.LabelCommand.LabelCommand</title>
<g id="a_node14"><a xlink:href="../api/baca/tools/LabelCommand.html#baca.tools.LabelCommand.LabelCommand" xlink:title="Label\nCommand" target="_top">
<path fill="#b3cde3" stroke="#b3cde3" stroke-width="2" d="M572.2771,-409.498C572.2771,-409.498 538.685,-409.498 538.685,-409.498 533.519,-409.498 528.353,-404.332 528.353,-399.166 528.353,-399.166 528.353,-388.834 528.353,-388.834 528.353,-383.668 533.519,-378.502 538.685,-378.502 538.685,-378.502 572.2771,-378.502 572.2771,-378.502 577.4431,-378.502 582.6092,-383.668 582.6092,-388.834 582.6092,-388.834 582.6092,-399.166 582.6092,-399.166 582.6092,-404.332 577.4431,-409.498 572.2771,-409.498"/>
<text text-anchor="middle" x="555.4811" y="-397.499" font-family="Arial" font-size="10.00" fill="#000000">Label</text>
<text text-anchor="middle" x="555.4811" y="-386" font-family="Arial" font-size="10.00" fill="#000000">Command</text>
</a>
</g>
</g>
<!-- baca.tools.MapCommand.MapCommand -->
<g id="node15" class="node">
<title>baca.tools.MapCommand.MapCommand</title>
<g id="a_node15"><a xlink:href="../api/baca/tools/MapCommand.html#baca.tools.MapCommand.MapCommand" xlink:title="Map\nCommand" target="_top">
<path fill="#b3cde3" stroke="#b3cde3" stroke-width="2" d="M370.0535,-422.498C370.0535,-422.498 336.4614,-422.498 336.4614,-422.498 331.2954,-422.498 326.1294,-417.332 326.1294,-412.166 326.1294,-412.166 326.1294,-401.834 326.1294,-401.834 326.1294,-396.668 331.2954,-391.502 336.4614,-391.502 336.4614,-391.502 370.0535,-391.502 370.0535,-391.502 375.2195,-391.502 380.3855,-396.668 380.3855,-401.834 380.3855,-401.834 380.3855,-412.166 380.3855,-412.166 380.3855,-417.332 375.2195,-422.498 370.0535,-422.498"/>
<text text-anchor="middle" x="353.2574" y="-410.499" font-family="Arial" font-size="10.00" fill="#000000">Map</text>
<text text-anchor="middle" x="353.2574" y="-399" font-family="Arial" font-size="10.00" fill="#000000">Command</text>
</a>
</g>
</g>
<!-- baca.tools.MetronomeMarkCommand.MetronomeMarkCommand -->
<g id="node16" class="node">
<title>baca.tools.MetronomeMarkCommand.MetronomeMarkCommand</title>
<g id="a_node16"><a xlink:href="../api/baca/tools/MetronomeMarkCommand.html#baca.tools.MetronomeMarkCommand.MetronomeMarkCommand" xlink:title="Metronome\nMark\nCommand" target="_top">
<path fill="#b3cde3" stroke="#b3cde3" stroke-width="2" d="M470.7487,-442.5C470.7487,-442.5 436.5933,-442.5 436.5933,-442.5 430.5933,-442.5 424.5933,-436.5 424.5933,-430.5 424.5933,-430.5 424.5933,-411.5 424.5933,-411.5 424.5933,-405.5 430.5933,-399.5 436.5933,-399.5 436.5933,-399.5 470.7487,-399.5 470.7487,-399.5 476.7487,-399.5 482.7487,-405.5 482.7487,-411.5 482.7487,-411.5 482.7487,-430.5 482.7487,-430.5 482.7487,-436.5 476.7487,-442.5 470.7487,-442.5"/>
<text text-anchor="middle" x="453.671" y="-430.2485" font-family="Arial" font-size="10.00" fill="#000000">Metronome</text>
<text text-anchor="middle" x="453.671" y="-418.7495" font-family="Arial" font-size="10.00" fill="#000000">Mark</text>
<text text-anchor="middle" x="453.671" y="-407.2505" font-family="Arial" font-size="10.00" fill="#000000">Command</text>
</a>
</g>
</g>
<!-- baca.tools.MicrotoneDeviationCommand.MicrotoneDeviationCommand -->
<g id="node17" class="node">
<title>baca.tools.MicrotoneDeviationCommand.MicrotoneDeviationCommand</title>
<g id="a_node17"><a xlink:href="../api/baca/tools/MicrotoneDeviationCommand.html#baca.tools.MicrotoneDeviationCommand.MicrotoneDeviationCommand" xlink:title="Microtone\nDeviation\nCommand" target="_top">
<path fill="#b3cde3" stroke="#b3cde3" stroke-width="2" d="M570.6092,-482.5C570.6092,-482.5 540.353,-482.5 540.353,-482.5 534.353,-482.5 528.353,-476.5 528.353,-470.5 528.353,-470.5 528.353,-451.5 528.353,-451.5 528.353,-445.5 534.353,-439.5 540.353,-439.5 540.353,-439.5 570.6092,-439.5 570.6092,-439.5 576.6092,-439.5 582.6092,-445.5 582.6092,-451.5 582.6092,-451.5 582.6092,-470.5 582.6092,-470.5 582.6092,-476.5 576.6092,-482.5 570.6092,-482.5"/>
<text text-anchor="middle" x="555.4811" y="-470.2485" font-family="Arial" font-size="10.00" fill="#000000">Microtone</text>
<text text-anchor="middle" x="555.4811" y="-458.7495" font-family="Arial" font-size="10.00" fill="#000000">Deviation</text>
<text text-anchor="middle" x="555.4811" y="-447.2505" font-family="Arial" font-size="10.00" fill="#000000">Command</text>
</a>
</g>
</g>
<!-- baca.tools.NestingCommand.NestingCommand -->
<g id="node18" class="node">
<title>baca.tools.NestingCommand.NestingCommand</title>
<g id="a_node18"><a xlink:href="../api/baca/tools/NestingCommand.html#baca.tools.NestingCommand.NestingCommand" xlink:title="Nesting\nCommand" target="_top">
<path fill="#b3cde3" stroke="#b3cde3" stroke-width="2" d="M370.0535,-510.498C370.0535,-510.498 336.4614,-510.498 336.4614,-510.498 331.2954,-510.498 326.1294,-505.332 326.1294,-500.166 326.1294,-500.166 326.1294,-489.834 326.1294,-489.834 326.1294,-484.668 331.2954,-479.502 336.4614,-479.502 336.4614,-479.502 370.0535,-479.502 370.0535,-479.502 375.2195,-479.502 380.3855,-484.668 380.3855,-489.834 380.3855,-489.834 380.3855,-500.166 380.3855,-500.166 380.3855,-505.332 375.2195,-510.498 370.0535,-510.498"/>
<text text-anchor="middle" x="353.2574" y="-498.499" font-family="Arial" font-size="10.00" fill="#000000">Nesting</text>
<text text-anchor="middle" x="353.2574" y="-487" font-family="Arial" font-size="10.00" fill="#000000">Command</text>
</a>
</g>
</g>
<!-- baca.tools.OctaveDisplacementCommand.OctaveDisplacementCommand -->
<g id="node19" class="node">
<title>baca.tools.OctaveDisplacementCommand.OctaveDisplacementCommand</title>
<g id="a_node19"><a xlink:href="../api/baca/tools/OctaveDisplacementCommand.html#baca.tools.OctaveDisplacementCommand.OctaveDisplacementCommand" xlink:title="Octave\nDisplacement\nCommand" target="_top">
<path fill="#b3cde3" stroke="#b3cde3" stroke-width="2" d="M475.7533,-530.5C475.7533,-530.5 431.5887,-530.5 431.5887,-530.5 425.5887,-530.5 419.5887,-524.5 419.5887,-518.5 419.5887,-518.5 419.5887,-499.5 419.5887,-499.5 419.5887,-493.5 425.5887,-487.5 431.5887,-487.5 431.5887,-487.5 475.7533,-487.5 475.7533,-487.5 481.7533,-487.5 487.7533,-493.5 487.7533,-499.5 487.7533,-499.5 487.7533,-518.5 487.7533,-518.5 487.7533,-524.5 481.7533,-530.5 475.7533,-530.5"/>
<text text-anchor="middle" x="453.671" y="-518.2485" font-family="Arial" font-size="10.00" fill="#000000">Octave</text>
<text text-anchor="middle" x="453.671" y="-506.7495" font-family="Arial" font-size="10.00" fill="#000000">Displacement</text>
<text text-anchor="middle" x="453.671" y="-495.2505" font-family="Arial" font-size="10.00" fill="#000000">Command</text>
</a>
</g>
</g>
<!-- baca.tools.OverrideCommand.OverrideCommand -->
<g id="node20" class="node">
<title>baca.tools.OverrideCommand.OverrideCommand</title>
<g id="a_node20"><a xlink:href="../api/baca/tools/OverrideCommand.html#baca.tools.OverrideCommand.OverrideCommand" xlink:title="Override\nCommand" target="_top">
<path fill="#b3cde3" stroke="#b3cde3" stroke-width="2" d="M572.2771,-564.498C572.2771,-564.498 538.685,-564.498 538.685,-564.498 533.519,-564.498 528.353,-559.332 528.353,-554.166 528.353,-554.166 528.353,-543.834 528.353,-543.834 528.353,-538.668 533.519,-533.502 538.685,-533.502 538.685,-533.502 572.2771,-533.502 572.2771,-533.502 577.4431,-533.502 582.6092,-538.668 582.6092,-543.834 582.6092,-543.834 582.6092,-554.166 582.6092,-554.166 582.6092,-559.332 577.4431,-564.498 572.2771,-564.498"/>
<text text-anchor="middle" x="555.4811" y="-552.499" font-family="Arial" font-size="10.00" fill="#000000">Override</text>
<text text-anchor="middle" x="555.4811" y="-541" font-family="Arial" font-size="10.00" fill="#000000">Command</text>
</a>
</g>
</g>
<!-- baca.tools.PartAssignmentCommand.PartAssignmentCommand -->
<g id="node21" class="node">
<title>baca.tools.PartAssignmentCommand.PartAssignmentCommand</title>
<g id="a_node21"><a xlink:href="../api/baca/tools/PartAssignmentCommand.html#baca.tools.PartAssignmentCommand.PartAssignmentCommand" xlink:title="Part\nAssignment\nCommand" target="_top">
<path fill="#b3cde3" stroke="#b3cde3" stroke-width="2" d="M371.504,-610.5C371.504,-610.5 335.0108,-610.5 335.0108,-610.5 329.0108,-610.5 323.0108,-604.5 323.0108,-598.5 323.0108,-598.5 323.0108,-579.5 323.0108,-579.5 323.0108,-573.5 329.0108,-567.5 335.0108,-567.5 335.0108,-567.5 371.504,-567.5 371.504,-567.5 377.504,-567.5 383.504,-573.5 383.504,-579.5 383.504,-579.5 383.504,-598.5 383.504,-598.5 383.504,-604.5 377.504,-610.5 371.504,-610.5"/>
<text text-anchor="middle" x="353.2574" y="-598.2485" font-family="Arial" font-size="10.00" fill="#000000">Part</text>
<text text-anchor="middle" x="353.2574" y="-586.7495" font-family="Arial" font-size="10.00" fill="#000000">Assignment</text>
<text text-anchor="middle" x="353.2574" y="-575.2505" font-family="Arial" font-size="10.00" fill="#000000">Command</text>
</a>
</g>
</g>
<!-- baca.tools.PiecewiseCommand.PiecewiseCommand -->
<g id="node22" class="node">
<title>baca.tools.PiecewiseCommand.PiecewiseCommand</title>
<g id="a_node22"><a xlink:href="../api/baca/tools/PiecewiseCommand.html#baca.tools.PiecewiseCommand.PiecewiseCommand" xlink:title="Piecewise\nCommand" target="_top">
<path fill="#b3cde3" stroke="#b3cde3" stroke-width="2" d="M470.4671,-630.498C470.4671,-630.498 436.875,-630.498 436.875,-630.498 431.7089,-630.498 426.5429,-625.332 426.5429,-620.166 426.5429,-620.166 426.5429,-609.834 426.5429,-609.834 426.5429,-604.668 431.7089,-599.502 436.875,-599.502 436.875,-599.502 470.4671,-599.502 470.4671,-599.502 475.6331,-599.502 480.7991,-604.668 480.7991,-609.834 480.7991,-609.834 480.7991,-620.166 480.7991,-620.166 480.7991,-625.332 475.6331,-630.498 470.4671,-630.498"/>
<text text-anchor="middle" x="453.671" y="-618.499" font-family="Arial" font-size="10.00" fill="#000000">Piecewise</text>
<text text-anchor="middle" x="453.671" y="-607" font-family="Arial" font-size="10.00" fill="#000000">Command</text>
</a>
</g>
</g>
<!-- baca.tools.PitchCommand.PitchCommand -->
<g id="node23" class="node">
<title>baca.tools.PitchCommand.PitchCommand</title>
<g id="a_node23"><a xlink:href="../api/baca/tools/PitchCommand.html#baca.tools.PitchCommand.PitchCommand" xlink:title="Pitch\nCommand" target="_top">
<path fill="#b3cde3" stroke="#b3cde3" stroke-width="2" d="M572.2771,-664.498C572.2771,-664.498 538.685,-664.498 538.685,-664.498 533.519,-664.498 528.353,-659.332 528.353,-654.166 528.353,-654.166 528.353,-643.834 528.353,-643.834 528.353,-638.668 533.519,-633.502 538.685,-633.502 538.685,-633.502 572.2771,-633.502 572.2771,-633.502 577.4431,-633.502 582.6092,-638.668 582.6092,-643.834 582.6092,-643.834 582.6092,-654.166 582.6092,-654.166 582.6092,-659.332 577.4431,-664.498 572.2771,-664.498"/>
<text text-anchor="middle" x="555.4811" y="-652.499" font-family="Arial" font-size="10.00" fill="#000000">Pitch</text>
<text text-anchor="middle" x="555.4811" y="-641" font-family="Arial" font-size="10.00" fill="#000000">Command</text>
</a>
</g>
</g>
<!-- baca.tools.PitchFirstRhythmCommand.PitchFirstRhythmCommand -->
<g id="node24" class="node">
<title>baca.tools.PitchFirstRhythmCommand.PitchFirstRhythmCommand</title>
<g id="a_node24"><a xlink:href="../api/baca/tools/PitchFirstRhythmCommand.html#baca.tools.PitchFirstRhythmCommand.PitchFirstRhythmCommand" xlink:title="Pitch\nFirst\nRhythm\nCommand" target="_top">
<path fill="#b3cde3" stroke="#b3cde3" stroke-width="2" d="M368.3855,-721.9961C368.3855,-721.9961 338.1294,-721.9961 338.1294,-721.9961 332.1294,-721.9961 326.1294,-715.9961 326.1294,-709.9961 326.1294,-709.9961 326.1294,-680.0039 326.1294,-680.0039 326.1294,-674.0039 332.1294,-668.0039 338.1294,-668.0039 338.1294,-668.0039 368.3855,-668.0039 368.3855,-668.0039 374.3855,-668.0039 380.3855,-674.0039 380.3855,-680.0039 380.3855,-680.0039 380.3855,-709.9961 380.3855,-709.9961 380.3855,-715.9961 374.3855,-721.9961 368.3855,-721.9961"/>
<text text-anchor="middle" x="353.2574" y="-709.998" font-family="Arial" font-size="10.00" fill="#000000">Pitch</text>
<text text-anchor="middle" x="353.2574" y="-698.499" font-family="Arial" font-size="10.00" fill="#000000">First</text>
<text text-anchor="middle" x="353.2574" y="-687" font-family="Arial" font-size="10.00" fill="#000000">Rhythm</text>
<text text-anchor="middle" x="353.2574" y="-675.501" font-family="Arial" font-size="10.00" fill="#000000">Command</text>
</a>
</g>
</g>
<!-- baca.tools.RegisterCommand.RegisterCommand -->
<g id="node25" class="node">
<title>baca.tools.RegisterCommand.RegisterCommand</title>
<g id="a_node25"><a xlink:href="../api/baca/tools/RegisterCommand.html#baca.tools.RegisterCommand.RegisterCommand" xlink:title="Register\nCommand" target="_top">
<path fill="#b3cde3" stroke="#b3cde3" stroke-width="2" d="M470.4671,-742.498C470.4671,-742.498 436.875,-742.498 436.875,-742.498 431.7089,-742.498 426.5429,-737.332 426.5429,-732.166 426.5429,-732.166 426.5429,-721.834 426.5429,-721.834 426.5429,-716.668 431.7089,-711.502 436.875,-711.502 436.875,-711.502 470.4671,-711.502 470.4671,-711.502 475.6331,-711.502 480.7991,-716.668 480.7991,-721.834 480.7991,-721.834 480.7991,-732.166 480.7991,-732.166 480.7991,-737.332 475.6331,-742.498 470.4671,-742.498"/>
<text text-anchor="middle" x="453.671" y="-730.499" font-family="Arial" font-size="10.00" fill="#000000">Register</text>
<text text-anchor="middle" x="453.671" y="-719" font-family="Arial" font-size="10.00" fill="#000000">Command</text>
</a>
</g>
</g>
<!-- baca.tools.RegisterInterpolationCommand.RegisterInterpolationCommand -->
<g id="node26" class="node">
<title>baca.tools.RegisterInterpolationCommand.RegisterInterpolationCommand</title>
<g id="a_node26"><a xlink:href="../api/baca/tools/RegisterInterpolationCommand.html#baca.tools.RegisterInterpolationCommand.RegisterInterpolationCommand" xlink:title="Register\nInterpolation\nCommand" target="_top">
<path fill="#b3cde3" stroke="#b3cde3" stroke-width="2" d="M575.0201,-782.5C575.0201,-782.5 535.942,-782.5 535.942,-782.5 529.942,-782.5 523.942,-776.5 523.942,-770.5 523.942,-770.5 523.942,-751.5 523.942,-751.5 523.942,-745.5 529.942,-739.5 535.942,-739.5 535.942,-739.5 575.0201,-739.5 575.0201,-739.5 581.0201,-739.5 587.0201,-745.5 587.0201,-751.5 587.0201,-751.5 587.0201,-770.5 587.0201,-770.5 587.0201,-776.5 581.0201,-782.5 575.0201,-782.5"/>
<text text-anchor="middle" x="555.4811" y="-770.2485" font-family="Arial" font-size="10.00" fill="#000000">Register</text>
<text text-anchor="middle" x="555.4811" y="-758.7495" font-family="Arial" font-size="10.00" fill="#000000">Interpolation</text>
<text text-anchor="middle" x="555.4811" y="-747.2505" font-family="Arial" font-size="10.00" fill="#000000">Command</text>
</a>
</g>
</g>
<!-- baca.tools.RegisterToOctaveCommand.RegisterToOctaveCommand -->
<g id="node27" class="node">
<title>baca.tools.RegisterToOctaveCommand.RegisterToOctaveCommand</title>
<g id="a_node27"><a xlink:href="../api/baca/tools/RegisterToOctaveCommand.html#baca.tools.RegisterToOctaveCommand.RegisterToOctaveCommand" xlink:title="Register\nTo\nOctave\nCommand" target="_top">
<path fill="#b3cde3" stroke="#b3cde3" stroke-width="2" d="M368.3855,-833.9961C368.3855,-833.9961 338.1294,-833.9961 338.1294,-833.9961 332.1294,-833.9961 326.1294,-827.9961 326.1294,-821.9961 326.1294,-821.9961 326.1294,-792.0039 326.1294,-792.0039 326.1294,-786.0039 332.1294,-780.0039 338.1294,-780.0039 338.1294,-780.0039 368.3855,-780.0039 368.3855,-780.0039 374.3855,-780.0039 380.3855,-786.0039 380.3855,-792.0039 380.3855,-792.0039 380.3855,-821.9961 380.3855,-821.9961 380.3855,-827.9961 374.3855,-833.9961 368.3855,-833.9961"/>
<text text-anchor="middle" x="353.2574" y="-821.998" font-family="Arial" font-size="10.00" fill="#000000">Register</text>
<text text-anchor="middle" x="353.2574" y="-810.499" font-family="Arial" font-size="10.00" fill="#000000">To</text>
<text text-anchor="middle" x="353.2574" y="-799" font-family="Arial" font-size="10.00" fill="#000000">Octave</text>
<text text-anchor="middle" x="353.2574" y="-787.501" font-family="Arial" font-size="10.00" fill="#000000">Command</text>
</a>
</g>
</g>
<!-- baca.tools.RhythmCommand.RhythmCommand -->
<g id="node28" class="node">
<title>baca.tools.RhythmCommand.RhythmCommand</title>
<g id="a_node28"><a xlink:href="../api/baca/tools/RhythmCommand.html#baca.tools.RhythmCommand.RhythmCommand" xlink:title="Rhythm\nCommand" target="_top">
<path fill="#b3cde3" stroke="#b3cde3" stroke-width="2" d="M470.4671,-854.498C470.4671,-854.498 436.875,-854.498 436.875,-854.498 431.7089,-854.498 426.5429,-849.332 426.5429,-844.166 426.5429,-844.166 426.5429,-833.834 426.5429,-833.834 426.5429,-828.668 431.7089,-823.502 436.875,-823.502 436.875,-823.502 470.4671,-823.502 470.4671,-823.502 475.6331,-823.502 480.7991,-828.668 480.7991,-833.834 480.7991,-833.834 480.7991,-844.166 480.7991,-844.166 480.7991,-849.332 475.6331,-854.498 470.4671,-854.498"/>
<text text-anchor="middle" x="453.671" y="-842.499" font-family="Arial" font-size="10.00" fill="#000000">Rhythm</text>
<text text-anchor="middle" x="453.671" y="-831" font-family="Arial" font-size="10.00" fill="#000000">Command</text>
</a>
</g>
</g>
<!-- baca.tools.SettingCommand.SettingCommand -->
<g id="node29" class="node">
<title>baca.tools.SettingCommand.SettingCommand</title>
<g id="a_node29"><a xlink:href="../api/baca/tools/SettingCommand.html#baca.tools.SettingCommand.SettingCommand" xlink:title="Setting\nCommand" target="_top">
<path fill="#b3cde3" stroke="#b3cde3" stroke-width="2" d="M572.2771,-888.498C572.2771,-888.498 538.685,-888.498 538.685,-888.498 533.519,-888.498 528.353,-883.332 528.353,-878.166 528.353,-878.166 528.353,-867.834 528.353,-867.834 528.353,-862.668 533.519,-857.502 538.685,-857.502 538.685,-857.502 572.2771,-857.502 572.2771,-857.502 577.4431,-857.502 582.6092,-862.668 582.6092,-867.834 582.6092,-867.834 582.6092,-878.166 582.6092,-878.166 582.6092,-883.332 577.4431,-888.498 572.2771,-888.498"/>
<text text-anchor="middle" x="555.4811" y="-876.499" font-family="Arial" font-size="10.00" fill="#000000">Setting</text>
<text text-anchor="middle" x="555.4811" y="-865" font-family="Arial" font-size="10.00" fill="#000000">Command</text>
</a>
</g>
</g>
<!-- baca.tools.SpannerCommand.SpannerCommand -->
<g id="node30" class="node">
<title>baca.tools.SpannerCommand.SpannerCommand</title>
<g id="a_node30"><a xlink:href="../api/baca/tools/SpannerCommand.html#baca.tools.SpannerCommand.SpannerCommand" xlink:title="Spanner\nCommand" target="_top">
<path fill="#b3cde3" stroke="#b3cde3" stroke-width="2" d="M370.0535,-922.498C370.0535,-922.498 336.4614,-922.498 336.4614,-922.498 331.2954,-922.498 326.1294,-917.332 326.1294,-912.166 326.1294,-912.166 326.1294,-901.834 326.1294,-901.834 326.1294,-896.668 331.2954,-891.502 336.4614,-891.502 336.4614,-891.502 370.0535,-891.502 370.0535,-891.502 375.2195,-891.502 380.3855,-896.668 380.3855,-901.834 380.3855,-901.834 380.3855,-912.166 380.3855,-912.166 380.3855,-917.332 375.2195,-922.498 370.0535,-922.498"/>
<text text-anchor="middle" x="353.2574" y="-910.499" font-family="Arial" font-size="10.00" fill="#000000">Spanner</text>
<text text-anchor="middle" x="353.2574" y="-899" font-family="Arial" font-size="10.00" fill="#000000">Command</text>
</a>
</g>
</g>
<!-- baca.tools.StaffPositionCommand.StaffPositionCommand -->
<g id="node31" class="node">
<title>baca.tools.StaffPositionCommand.StaffPositionCommand</title>
<g id="a_node31"><a xlink:href="../api/baca/tools/StaffPositionCommand.html#baca.tools.StaffPositionCommand.StaffPositionCommand" xlink:title="Staff\nPosition\nCommand" target="_top">
<path fill="#b3cde3" stroke="#b3cde3" stroke-width="2" d="M468.7991,-942.5C468.7991,-942.5 438.5429,-942.5 438.5429,-942.5 432.5429,-942.5 426.5429,-936.5 426.5429,-930.5 426.5429,-930.5 426.5429,-911.5 426.5429,-911.5 426.5429,-905.5 432.5429,-899.5 438.5429,-899.5 438.5429,-899.5 468.7991,-899.5 468.7991,-899.5 474.7991,-899.5 480.7991,-905.5 480.7991,-911.5 480.7991,-911.5 480.7991,-930.5 480.7991,-930.5 480.7991,-936.5 474.7991,-942.5 468.7991,-942.5"/>
<text text-anchor="middle" x="453.671" y="-930.2485" font-family="Arial" font-size="10.00" fill="#000000">Staff</text>
<text text-anchor="middle" x="453.671" y="-918.7495" font-family="Arial" font-size="10.00" fill="#000000">Position</text>
<text text-anchor="middle" x="453.671" y="-907.2505" font-family="Arial" font-size="10.00" fill="#000000">Command</text>
</a>
</g>
</g>
<!-- baca.tools.StaffPositionInterpolationCommand.StaffPositionInterpolationCommand -->
<g id="node32" class="node">
<title>baca.tools.StaffPositionInterpolationCommand.StaffPositionInterpolationCommand</title>
<g id="a_node32"><a xlink:href="../api/baca/tools/StaffPositionInterpolationCommand.html#baca.tools.StaffPositionInterpolationCommand.StaffPositionInterpolationCommand" xlink:title="Staff\nPosition\nInterpolation\nCommand" target="_top">
<path fill="#b3cde3" stroke="#b3cde3" stroke-width="2" d="M575.0201,-987.9961C575.0201,-987.9961 535.942,-987.9961 535.942,-987.9961 529.942,-987.9961 523.942,-981.9961 523.942,-975.9961 523.942,-975.9961 523.942,-946.0039 523.942,-946.0039 523.942,-940.0039 529.942,-934.0039 535.942,-934.0039 535.942,-934.0039 575.0201,-934.0039 575.0201,-934.0039 581.0201,-934.0039 587.0201,-940.0039 587.0201,-946.0039 587.0201,-946.0039 587.0201,-975.9961 587.0201,-975.9961 587.0201,-981.9961 581.0201,-987.9961 575.0201,-987.9961"/>
<text text-anchor="middle" x="555.4811" y="-975.998" font-family="Arial" font-size="10.00" fill="#000000">Staff</text>
<text text-anchor="middle" x="555.4811" y="-964.499" font-family="Arial" font-size="10.00" fill="#000000">Position</text>
<text text-anchor="middle" x="555.4811" y="-953" font-family="Arial" font-size="10.00" fill="#000000">Interpolation</text>
<text text-anchor="middle" x="555.4811" y="-941.501" font-family="Arial" font-size="10.00" fill="#000000">Command</text>
</a>
</g>
</g>
<!-- baca.tools.SuiteCommand.SuiteCommand -->
<g id="node33" class="node">
<title>baca.tools.SuiteCommand.SuiteCommand</title>
<g id="a_node33"><a xlink:href="../api/baca/tools/SuiteCommand.html#baca.tools.SuiteCommand.SuiteCommand" xlink:title="Suite\nCommand" target="_top">
<path fill="#b3cde3" stroke="#b3cde3" stroke-width="2" d="M370.0535,-1010.498C370.0535,-1010.498 336.4614,-1010.498 336.4614,-1010.498 331.2954,-1010.498 326.1294,-1005.332 326.1294,-1000.166 326.1294,-1000.166 326.1294,-989.834 326.1294,-989.834 326.1294,-984.668 331.2954,-979.502 336.4614,-979.502 336.4614,-979.502 370.0535,-979.502 370.0535,-979.502 375.2195,-979.502 380.3855,-984.668 380.3855,-989.834 380.3855,-989.834 380.3855,-1000.166 380.3855,-1000.166 380.3855,-1005.332 375.2195,-1010.498 370.0535,-1010.498"/>
<text text-anchor="middle" x="353.2574" y="-998.499" font-family="Arial" font-size="10.00" fill="#000000">Suite</text>
<text text-anchor="middle" x="353.2574" y="-987" font-family="Arial" font-size="10.00" fill="#000000">Command</text>
</a>
</g>
</g>
<!-- baca.tools.TextSpannerCommand.TextSpannerCommand -->
<g id="node34" class="node">
<title>baca.tools.TextSpannerCommand.TextSpannerCommand</title>
<g id="a_node34"><a xlink:href="../api/baca/tools/TextSpannerCommand.html#baca.tools.TextSpannerCommand.TextSpannerCommand" xlink:title="Text\nSpanner\nCommand" target="_top">
<path fill="#b3cde3" stroke="#b3cde3" stroke-width="2" d="M468.7991,-1030.5C468.7991,-1030.5 438.5429,-1030.5 438.5429,-1030.5 432.5429,-1030.5 426.5429,-1024.5 426.5429,-1018.5 426.5429,-1018.5 426.5429,-999.5 426.5429,-999.5 426.5429,-993.5 432.5429,-987.5 438.5429,-987.5 438.5429,-987.5 468.7991,-987.5 468.7991,-987.5 474.7991,-987.5 480.7991,-993.5 480.7991,-999.5 480.7991,-999.5 480.7991,-1018.5 480.7991,-1018.5 480.7991,-1024.5 474.7991,-1030.5 468.7991,-1030.5"/>
<text text-anchor="middle" x="453.671" y="-1018.2485" font-family="Arial" font-size="10.00" fill="#000000">Text</text>
<text text-anchor="middle" x="453.671" y="-1006.7495" font-family="Arial" font-size="10.00" fill="#000000">Spanner</text>
<text text-anchor="middle" x="453.671" y="-995.2505" font-family="Arial" font-size="10.00" fill="#000000">Command</text>
</a>
</g>
</g>
<!-- baca.tools.TieCorrectionCommand.TieCorrectionCommand -->
<g id="node35" class="node">
<title>baca.tools.TieCorrectionCommand.TieCorrectionCommand</title>
<g id="a_node35"><a xlink:href="../api/baca/tools/TieCorrectionCommand.html#baca.tools.TieCorrectionCommand.TieCorrectionCommand" xlink:title="Tie\nCorrection\nCommand" target="_top">
<path fill="#b3cde3" stroke="#b3cde3" stroke-width="2" d="M570.6092,-1070.5C570.6092,-1070.5 540.353,-1070.5 540.353,-1070.5 534.353,-1070.5 528.353,-1064.5 528.353,-1058.5 528.353,-1058.5 528.353,-1039.5 528.353,-1039.5 528.353,-1033.5 534.353,-1027.5 540.353,-1027.5 540.353,-1027.5 570.6092,-1027.5 570.6092,-1027.5 576.6092,-1027.5 582.6092,-1033.5 582.6092,-1039.5 582.6092,-1039.5 582.6092,-1058.5 582.6092,-1058.5 582.6092,-1064.5 576.6092,-1070.5 570.6092,-1070.5"/>
<text text-anchor="middle" x="555.4811" y="-1058.2485" font-family="Arial" font-size="10.00" fill="#000000">Tie</text>
<text text-anchor="middle" x="555.4811" y="-1046.7495" font-family="Arial" font-size="10.00" fill="#000000">Correction</text>
<text text-anchor="middle" x="555.4811" y="-1035.2505" font-family="Arial" font-size="10.00" fill="#000000">Command</text>
</a>
</g>
</g>
<!-- baca.tools.VoltaCommand.VoltaCommand -->
<g id="node36" class="node">
<title>baca.tools.VoltaCommand.VoltaCommand</title>
<g id="a_node36"><a xlink:href="../api/baca/tools/VoltaCommand.html#baca.tools.VoltaCommand.VoltaCommand" xlink:title="Volta\nCommand" target="_top">
<path fill="#b3cde3" stroke="#b3cde3" stroke-width="2" d="M370.0535,-1098.498C370.0535,-1098.498 336.4614,-1098.498 336.4614,-1098.498 331.2954,-1098.498 326.1294,-1093.332 326.1294,-1088.166 326.1294,-1088.166 326.1294,-1077.834 326.1294,-1077.834 326.1294,-1072.668 331.2954,-1067.502 336.4614,-1067.502 336.4614,-1067.502 370.0535,-1067.502 370.0535,-1067.502 375.2195,-1067.502 380.3855,-1072.668 380.3855,-1077.834 380.3855,-1077.834 380.3855,-1088.166 380.3855,-1088.166 380.3855,-1093.332 375.2195,-1098.498 370.0535,-1098.498"/>
<text text-anchor="middle" x="353.2574" y="-1086.499" font-family="Arial" font-size="10.00" fill="#000000">Volta</text>
<text text-anchor="middle" x="353.2574" y="-1075" font-family="Arial" font-size="10.00" fill="#000000">Command</text>
</a>
</g>
</g>
<!-- baca.tools.InstrumentChangeCommand.InstrumentChangeCommand -->
<g id="node37" class="node">
<title>baca.tools.InstrumentChangeCommand.InstrumentChangeCommand</title>
<g id="a_node37"><a xlink:href="../api/baca/tools/InstrumentChangeCommand.html#baca.tools.InstrumentChangeCommand.InstrumentChangeCommand" xlink:title="Instrument\nChange\nCommand" target="_top">
<path fill="#b3cde3" stroke="#b3cde3" stroke-width="2" d="M571.2228,-360.5C571.2228,-360.5 539.7393,-360.5 539.7393,-360.5 533.7393,-360.5 527.7393,-354.5 527.7393,-348.5 527.7393,-348.5 527.7393,-329.5 527.7393,-329.5 527.7393,-323.5 533.7393,-317.5 539.7393,-317.5 539.7393,-317.5 571.2228,-317.5 571.2228,-317.5 577.2228,-317.5 583.2228,-323.5 583.2228,-329.5 583.2228,-329.5 583.2228,-348.5 583.2228,-348.5 583.2228,-354.5 577.2228,-360.5 571.2228,-360.5"/>
<text text-anchor="middle" x="555.4811" y="-348.2485" font-family="Arial" font-size="10.00" fill="#000000">Instrument</text>
<text text-anchor="middle" x="555.4811" y="-336.7495" font-family="Arial" font-size="10.00" fill="#000000">Change</text>
<text text-anchor="middle" x="555.4811" y="-325.2505" font-family="Arial" font-size="10.00" fill="#000000">Command</text>
</a>
</g>
</g>
<!-- builtins.object -->
<g id="node38" class="node">
<title>builtins.object</title>
<g id="a_node38"><a xlink:href="https://docs.python.org/3.6/library/functions.html#object" xlink:title="object" target="_top">
<path fill="#ccebc5" stroke="#ccebc5" stroke-width="2" d="M43.8579,-549.0056C43.8579,-549.0056 22.8267,-549.0056 22.8267,-549.0056 19.4915,-549.0056 16.1563,-545.6704 16.1563,-542.3352 16.1563,-542.3352 16.1563,-535.6648 16.1563,-535.6648 16.1563,-532.3296 19.4915,-528.9944 22.8267,-528.9944 22.8267,-528.9944 43.8579,-528.9944 43.8579,-528.9944 47.1931,-528.9944 50.5283,-532.3296 50.5283,-535.6648 50.5283,-535.6648 50.5283,-542.3352 50.5283,-542.3352 50.5283,-545.6704 47.1931,-549.0056 43.8579,-549.0056"/>
<text text-anchor="middle" x="33.3423" y="-536.7495" font-family="Arial" font-size="10.00" fill="#000000">object</text>
</a>
</g>
</g>
</g>
</svg>
