<?xml version="1.0" encoding="UTF-8" standalone="no"?>
<!DOCTYPE svg PUBLIC "-//W3C//DTD SVG 1.1//EN"
 "http://www.w3.org/Graphics/SVG/1.1/DTD/svg11.dtd">
<!-- Generated by graphviz version 2.40.1 (20161225.0304)
 -->
<!-- Title: InheritanceGraph Pages: 1 -->
<svg width="329pt" height="90pt"
 viewBox="0.00 0.00 329.01 90.00" xmlns="http://www.w3.org/2000/svg" xmlns:xlink="http://www.w3.org/1999/xlink">
<g id="graph0" class="graph" transform="scale(1 1) rotate(0) translate(4 86)">
<title>InheritanceGraph</title>
<g id="clust1" class="cluster">
<title>cluster_abjad.tools.abctools</title>
<path fill="transparent" stroke="#bcd2ee" stroke-width="2" stroke-dasharray="5,2" d="M90.6846,-8C90.6846,-8 170.5859,-8 170.5859,-8 176.5859,-8 182.5859,-14 182.5859,-20 182.5859,-20 182.5859,-62 182.5859,-62 182.5859,-68 176.5859,-74 170.5859,-74 170.5859,-74 90.6846,-74 90.6846,-74 84.6846,-74 78.6846,-68 78.6846,-62 78.6846,-62 78.6846,-20 78.6846,-20 78.6846,-14 84.6846,-8 90.6846,-8"/>
<text text-anchor="middle" x="130.6353" y="-62" font-family="Arial" font-size="10.00" fill="#000000">abjad.tools.abctools</text>
</g>
<g id="clust2" class="cluster">
<title>cluster_baca.tools</title>
<path fill="transparent" stroke="#bcd2ee" stroke-width="2" stroke-dasharray="5,2" d="M214.5859,-8C214.5859,-8 301.0078,-8 301.0078,-8 307.0078,-8 313.0078,-14 313.0078,-20 313.0078,-20 313.0078,-62 313.0078,-62 313.0078,-68 307.0078,-74 301.0078,-74 301.0078,-74 214.5859,-74 214.5859,-74 208.5859,-74 202.5859,-68 202.5859,-62 202.5859,-62 202.5859,-20 202.5859,-20 202.5859,-14 208.5859,-8 214.5859,-8"/>
<text text-anchor="middle" x="257.7969" y="-62" font-family="Arial" font-size="10.00" fill="#000000">baca.tools</text>
</g>
<g id="clust3" class="cluster">
<title>cluster_builtins</title>
<path fill="transparent" stroke="#bcd2ee" stroke-width="2" stroke-dasharray="5,2" d="M20,-13C20,-13 46.6846,-13 46.6846,-13 52.6846,-13 58.6846,-19 58.6846,-25 58.6846,-25 58.6846,-56 58.6846,-56 58.6846,-62 52.6846,-68 46.6846,-68 46.6846,-68 20,-68 20,-68 14,-68 8,-62 8,-56 8,-56 8,-25 8,-25 8,-19 14,-13 20,-13"/>
<text text-anchor="middle" x="33.3423" y="-56" font-family="Arial" font-size="10.00" fill="#000000">builtins</text>
</g>
<!-- abjad.tools.abctools.AbjadObject.AbjadObject&#45;&gt;baca.tools.Tree.Tree -->
<g id="edge2" class="edge">
<title>abjad.tools.abctools.AbjadObject.AbjadObject&#45;&gt;baca.tools.Tree.Tree</title>
<path fill="none" stroke="#778899" d="M148.8145,-31C163.5061,-31 184.0998,-31 200.1247,-31"/>
<polygon fill="#778899" stroke="#778899" points="200.3602,-34.5001 210.3602,-31 200.3602,-27.5001 200.3602,-34.5001"/>
</g>
<!-- baca.tools.Tree.Tree&#45;&gt;baca.tools.PitchTree.PitchTree -->
<g id="edge1" class="edge">
<title>baca.tools.Tree.Tree&#45;&gt;baca.tools.PitchTree.PitchTree</title>
<path fill="none" stroke="#778899" d="M238.831,-31C246.2877,-31 255.6646,-31 264.3414,-31"/>
<polygon fill="#778899" stroke="#778899" points="264.4019,-34.5001 274.4018,-31 264.4018,-27.5001 264.4019,-34.5001"/>
</g>
<!-- builtins.object&#45;&gt;abjad.tools.abctools.AbjadObject.AbjadObject -->
<g id="edge3" class="edge">
<title>builtins.object&#45;&gt;abjad.tools.abctools.AbjadObject.AbjadObject</title>
<path fill="none" stroke="#778899" d="M50.6469,-31C64.7425,-31 84.9402,-31 101.4481,-31"/>
<polygon fill="#778899" stroke="#778899" points="101.6622,-34.5001 111.6621,-31 101.6621,-27.5001 101.6622,-34.5001"/>
</g>
<!-- abjad.tools.abctools.AbjadObject.AbjadObject -->
<g id="node1" class="node">
<title>abjad.tools.abctools.AbjadObject.AbjadObject</title>
<path fill="#fbb4ae" stroke="#fbb4ae" stroke-width="2" d="M138.2047,-46.498C138.2047,-46.498 122.0658,-46.498 122.0658,-46.498 116.8998,-46.498 111.7338,-41.332 111.7338,-36.166 111.7338,-36.166 111.7338,-25.834 111.7338,-25.834 111.7338,-20.668 116.8998,-15.502 122.0658,-15.502 122.0658,-15.502 138.2047,-15.502 138.2047,-15.502 143.3707,-15.502 148.5368,-20.668 148.5368,-25.834 148.5368,-25.834 148.5368,-36.166 148.5368,-36.166 148.5368,-41.332 143.3707,-46.498 138.2047,-46.498"/>
<text text-anchor="middle" x="130.1353" y="-34.499" font-family="Arial" font-size="10.00" fill="#000000">Abjad</text>
<text text-anchor="middle" x="130.1353" y="-23" font-family="Arial" font-size="10.00" fill="#000000">Object</text>
</g>
<!-- baca.tools.PitchTree.PitchTree -->
<g id="node2" class="node">
<title>baca.tools.PitchTree.PitchTree</title>
<g id="a_node2"><a xlink:href="../api/baca/tools/PitchTree.html#baca.tools.PitchTree.PitchTree" xlink:title="Pitch\nTree" target="_top">
<path fill="#b3cde3" stroke="#b3cde3" stroke-width="2" d="M294.9695,-46.498C294.9695,-46.498 284.8146,-46.498 284.8146,-46.498 279.7372,-46.498 274.6598,-41.4206 274.6598,-36.3432 274.6598,-36.3432 274.6598,-25.6568 274.6598,-25.6568 274.6598,-20.5794 279.7372,-15.502 284.8146,-15.502 284.8146,-15.502 294.9695,-15.502 294.9695,-15.502 300.047,-15.502 305.1244,-20.5794 305.1244,-25.6568 305.1244,-25.6568 305.1244,-36.3432 305.1244,-36.3432 305.1244,-41.4206 300.047,-46.498 294.9695,-46.498"/>
<text text-anchor="middle" x="289.8921" y="-34.499" font-family="Arial" font-size="10.00" fill="#000000">Pitch</text>
<text text-anchor="middle" x="289.8921" y="-23" font-family="Arial" font-size="10.00" fill="#000000">Tree</text>
</a>
</g>
</g>
<!-- baca.tools.Tree.Tree -->
<g id="node3" class="node">
<title>baca.tools.Tree.Tree</title>
<g id="a_node3"><a xlink:href="../api/baca/tools/Tree.html#baca.tools.Tree.Tree" xlink:title="Tree" target="_top">
<path fill="#000000" stroke="#000000" stroke-width="2" d="M232.2018,-41.0056C232.2018,-41.0056 217.1605,-41.0056 217.1605,-41.0056 213.8253,-41.0056 210.4901,-37.6704 210.4901,-34.3352 210.4901,-34.3352 210.4901,-27.6648 210.4901,-27.6648 210.4901,-24.3296 213.8253,-20.9944 217.1605,-20.9944 217.1605,-20.9944 232.2018,-20.9944 232.2018,-20.9944 235.537,-20.9944 238.8722,-24.3296 238.8722,-27.6648 238.8722,-27.6648 238.8722,-34.3352 238.8722,-34.3352 238.8722,-37.6704 235.537,-41.0056 232.2018,-41.0056"/>
<text text-anchor="middle" x="224.6812" y="-28.7495" font-family="Arial" font-size="10.00" fill="#ffffff">Tree</text>
</a>
</g>
</g>
<!-- builtins.object -->
<g id="node4" class="node">
<title>builtins.object</title>
<g id="a_node4"><a xlink:href="https://docs.python.org/3.6/library/functions.html#object" xlink:title="object" target="_top">
<path fill="#ccebc5" stroke="#ccebc5" stroke-width="2" d="M43.8579,-41.0056C43.8579,-41.0056 22.8267,-41.0056 22.8267,-41.0056 19.4915,-41.0056 16.1563,-37.6704 16.1563,-34.3352 16.1563,-34.3352 16.1563,-27.6648 16.1563,-27.6648 16.1563,-24.3296 19.4915,-20.9944 22.8267,-20.9944 22.8267,-20.9944 43.8579,-20.9944 43.8579,-20.9944 47.1931,-20.9944 50.5283,-24.3296 50.5283,-27.6648 50.5283,-27.6648 50.5283,-34.3352 50.5283,-34.3352 50.5283,-37.6704 47.1931,-41.0056 43.8579,-41.0056"/>
<text text-anchor="middle" x="33.3423" y="-28.7495" font-family="Arial" font-size="10.00" fill="#000000">object</text>
</a>
</g>
</g>
</g>
</svg>
