<?xml version="1.0" encoding="UTF-8" standalone="no"?>
<!DOCTYPE svg PUBLIC "-//W3C//DTD SVG 1.1//EN"
 "http://www.w3.org/Graphics/SVG/1.1/DTD/svg11.dtd">
<!-- Generated by graphviz version 2.40.1 (20161225.0304)
 -->
<!-- Title: InheritanceGraph Pages: 1 -->
<svg width="775pt" height="266pt"
 viewBox="0.00 0.00 774.66 266.00" xmlns="http://www.w3.org/2000/svg" xmlns:xlink="http://www.w3.org/1999/xlink">
<g id="graph0" class="graph" transform="scale(1 1) rotate(0) translate(4 262)">
<title>InheritanceGraph</title>
<g id="clust1" class="cluster">
<title>cluster_abjad.tools.abctools</title>
<path fill="transparent" stroke="#bcd2ee" stroke-width="2" stroke-dasharray="5,2" d="M90.5504,-18C90.5504,-18 170.4518,-18 170.4518,-18 176.4518,-18 182.4518,-24 182.4518,-30 182.4518,-30 182.4518,-72 182.4518,-72 182.4518,-78 176.4518,-84 170.4518,-84 170.4518,-84 90.5504,-84 90.5504,-84 84.5504,-84 78.5504,-78 78.5504,-72 78.5504,-72 78.5504,-30 78.5504,-30 78.5504,-24 84.5504,-18 90.5504,-18"/>
<text text-anchor="middle" x="130.5011" y="-72" font-family="Arial" font-size="10.00" fill="#000000">abjad.tools.abctools</text>
</g>
<g id="clust2" class="cluster">
<title>cluster_abjad.tools.datastructuretools</title>
<path fill="transparent" stroke="#bcd2ee" stroke-width="2" stroke-dasharray="5,2" d="M337.2381,-8C337.2381,-8 474.6903,-8 474.6903,-8 480.6903,-8 486.6903,-14 486.6903,-20 486.6903,-20 486.6903,-75 486.6903,-75 486.6903,-81 480.6903,-87 474.6903,-87 474.6903,-87 337.2381,-87 337.2381,-87 331.2381,-87 325.2381,-81 325.2381,-75 325.2381,-75 325.2381,-20 325.2381,-20 325.2381,-14 331.2381,-8 337.2381,-8"/>
<text text-anchor="middle" x="405.9642" y="-75" font-family="Arial" font-size="10.00" fill="#000000">abjad.tools.datastructuretools</text>
</g>
<g id="clust3" class="cluster">
<title>cluster_abjad.tools.pitchtools</title>
<path fill="transparent" stroke="#bcd2ee" stroke-width="2" stroke-dasharray="5,2" d="M518.6903,-18C518.6903,-18 662.6315,-18 662.6315,-18 668.6315,-18 674.6315,-24 674.6315,-30 674.6315,-30 674.6315,-72 674.6315,-72 674.6315,-78 668.6315,-84 662.6315,-84 662.6315,-84 518.6903,-84 518.6903,-84 512.6903,-84 506.6903,-78 506.6903,-72 506.6903,-72 506.6903,-30 506.6903,-30 506.6903,-24 512.6903,-18 518.6903,-18"/>
<text text-anchor="middle" x="590.6609" y="-72" font-family="Arial" font-size="10.00" fill="#000000">abjad.tools.pitchtools</text>
</g>
<g id="clust4" class="cluster">
<title>cluster_baca.tools</title>
<path fill="transparent" stroke="#bcd2ee" stroke-width="2" stroke-dasharray="5,2" d="M706.6315,-18C706.6315,-18 746.6559,-18 746.6559,-18 752.6559,-18 758.6559,-24 758.6559,-30 758.6559,-30 758.6559,-72 758.6559,-72 758.6559,-78 752.6559,-84 746.6559,-84 746.6559,-84 706.6315,-84 706.6315,-84 700.6315,-84 694.6315,-78 694.6315,-72 694.6315,-72 694.6315,-30 694.6315,-30 694.6315,-24 700.6315,-18 706.6315,-18"/>
<text text-anchor="middle" x="726.6437" y="-72" font-family="Arial" font-size="10.00" fill="#000000">baca.tools</text>
</g>
<g id="clust5" class="cluster">
<title>cluster_builtins</title>
<path fill="transparent" stroke="#bcd2ee" stroke-width="2" stroke-dasharray="5,2" d="M20,-122C20,-122 46.6846,-122 46.6846,-122 52.6846,-122 58.6846,-128 58.6846,-134 58.6846,-134 58.6846,-165 58.6846,-165 58.6846,-171 52.6846,-177 46.6846,-177 46.6846,-177 20,-177 20,-177 14,-177 8,-171 8,-165 8,-165 8,-134 8,-134 8,-128 14,-122 20,-122"/>
<text text-anchor="middle" x="33.3423" y="-165" font-family="Arial" font-size="10.00" fill="#000000">builtins</text>
</g>
<g id="clust6" class="cluster">
<title>cluster_collections.abc</title>
<path fill="transparent" stroke="#bcd2ee" stroke-width="2" stroke-dasharray="5,2" d="M97.6846,-95C97.6846,-95 403.4491,-95 403.4491,-95 409.4491,-95 415.4491,-101 415.4491,-107 415.4491,-107 415.4491,-238 415.4491,-238 415.4491,-244 409.4491,-250 403.4491,-250 403.4491,-250 97.6846,-250 97.6846,-250 91.6846,-250 85.6846,-244 85.6846,-238 85.6846,-238 85.6846,-107 85.6846,-107 85.6846,-101 91.6846,-95 97.6846,-95"/>
<text text-anchor="middle" x="250.5668" y="-238" font-family="Arial" font-size="10.00" fill="#000000">collections.abc</text>
</g>
<!-- abjad.tools.abctools.AbjadObject.AbjadObject&#45;&gt;abjad.tools.datastructuretools.TypedCollection.TypedCollection -->
<g id="edge9" class="edge">
<title>abjad.tools.abctools.AbjadObject.AbjadObject&#45;&gt;abjad.tools.datastructuretools.TypedCollection.TypedCollection</title>
<path fill="none" stroke="#778899" d="M148.4307,-40.7696C185.3644,-40.3078 269.4593,-39.2564 322.7534,-38.59"/>
<polygon fill="#778899" stroke="#778899" points="323.023,-42.087 332.9785,-38.4622 322.9355,-35.0876 323.023,-42.087"/>
</g>
<!-- abjad.tools.datastructuretools.TypedCollection.TypedCollection&#45;&gt;abjad.tools.datastructuretools.TypedTuple.TypedTuple -->
<g id="edge1" class="edge">
<title>abjad.tools.datastructuretools.TypedCollection.TypedCollection&#45;&gt;abjad.tools.datastructuretools.TypedTuple.TypedTuple</title>
<path fill="none" stroke="#778899" d="M406.7462,-39.2116C415.6374,-39.5043 424.9911,-39.8122 433.3833,-40.0885"/>
<polygon fill="#778899" stroke="#778899" points="433.2821,-43.587 443.3919,-40.418 433.5125,-36.5908 433.2821,-43.587"/>
</g>
<!-- abjad.tools.datastructuretools.TypedTuple.TypedTuple&#45;&gt;abjad.tools.pitchtools.Segment.Segment -->
<g id="edge10" class="edge">
<title>abjad.tools.datastructuretools.TypedTuple.TypedTuple&#45;&gt;abjad.tools.pitchtools.Segment.Segment</title>
<path fill="none" stroke="#778899" d="M478.7926,-41C486.2736,-41 495.3503,-41 504.4506,-41"/>
<polygon fill="#778899" stroke="#778899" points="504.6513,-44.5001 514.6513,-41 504.6513,-37.5001 504.6513,-44.5001"/>
</g>
<!-- abjad.tools.pitchtools.PitchSegment.PitchSegment&#45;&gt;baca.tools.PitchSegment.PitchSegment -->
<g id="edge11" class="edge">
<title>abjad.tools.pitchtools.PitchSegment.PitchSegment&#45;&gt;baca.tools.PitchSegment.PitchSegment</title>
<path fill="none" stroke="#778899" d="M666.9227,-41C674.8479,-41 683.8023,-41 692.3202,-41"/>
<polygon fill="#778899" stroke="#778899" points="692.395,-44.5001 702.395,-41 692.395,-37.5001 692.395,-44.5001"/>
</g>
<!-- abjad.tools.pitchtools.Segment.Segment&#45;&gt;abjad.tools.pitchtools.PitchSegment.PitchSegment -->
<g id="edge2" class="edge">
<title>abjad.tools.pitchtools.Segment.Segment&#45;&gt;abjad.tools.pitchtools.PitchSegment.PitchSegment</title>
<path fill="none" stroke="#778899" d="M582.8401,-41C591.1791,-41 600.1001,-41 608.4387,-41"/>
<polygon fill="#778899" stroke="#778899" points="608.6016,-44.5001 618.6016,-41 608.6015,-37.5001 608.6016,-44.5001"/>
</g>
<!-- builtins.object&#45;&gt;abjad.tools.abctools.AbjadObject.AbjadObject -->
<g id="edge12" class="edge">
<title>builtins.object&#45;&gt;abjad.tools.abctools.AbjadObject.AbjadObject</title>
<path fill="none" stroke="#778899" d="M42.194,-130.0917C51.1979,-120.0884 65.6263,-104.2637 78.5504,-91 87.4249,-81.8924 97.404,-72.0969 106.1952,-63.6106"/>
<polygon fill="#778899" stroke="#778899" points="108.7691,-65.9914 113.5574,-56.5402 103.9204,-60.9425 108.7691,-65.9914"/>
</g>
<!-- builtins.object&#45;&gt;collections.abc.Container -->
<g id="edge13" class="edge">
<title>builtins.object&#45;&gt;collections.abc.Container</title>
<path fill="none" stroke="#778899" d="M50.623,-144.1119C61.3543,-146.6655 75.6276,-150.0618 89.1096,-153.2699"/>
<polygon fill="#778899" stroke="#778899" points="88.6549,-156.7593 99.1935,-155.6693 90.2753,-149.9494 88.6549,-156.7593"/>
</g>
<!-- builtins.object&#45;&gt;collections.abc.Iterable -->
<g id="edge14" class="edge">
<title>builtins.object&#45;&gt;collections.abc.Iterable</title>
<path fill="none" stroke="#778899" d="M41.1264,-149.8649C49.5069,-159.9782 63.6536,-175.6496 78.5504,-186 84.273,-189.9761 90.7935,-193.5199 97.2252,-196.5643"/>
<polygon fill="#778899" stroke="#778899" points="95.9202,-199.8142 106.4813,-200.6595 98.7525,-193.4127 95.9202,-199.8142"/>
</g>
<!-- builtins.object&#45;&gt;collections.abc.Sized -->
<g id="edge15" class="edge">
<title>builtins.object&#45;&gt;collections.abc.Sized</title>
<path fill="none" stroke="#778899" d="M50.623,-135.8881C63.8081,-132.7507 82.34,-128.341 98.1819,-124.5714"/>
<polygon fill="#778899" stroke="#778899" points="99.2024,-127.9264 108.1206,-122.2065 97.582,-121.1165 99.2024,-127.9264"/>
</g>
<!-- collections.abc.Collection&#45;&gt;collections.abc.Sequence -->
<g id="edge3" class="edge">
<title>collections.abc.Collection&#45;&gt;collections.abc.Sequence</title>
<path fill="none" stroke="#778899" d="M294.2374,-163C303.0888,-163 312.6708,-163 321.9459,-163"/>
<polygon fill="#778899" stroke="#778899" points="322.2322,-166.5001 332.2322,-163 322.2321,-159.5001 322.2322,-166.5001"/>
</g>
<!-- collections.abc.Container&#45;&gt;collections.abc.Collection -->
<g id="edge4" class="edge">
<title>collections.abc.Container&#45;&gt;collections.abc.Collection</title>
<path fill="none" stroke="#778899" d="M166.5026,-163C180.1087,-163 195.7528,-163 210.1836,-163"/>
<polygon fill="#778899" stroke="#778899" points="210.4306,-166.5001 220.4306,-163 210.4305,-159.5001 210.4306,-166.5001"/>
</g>
<!-- collections.abc.Iterable&#45;&gt;collections.abc.Collection -->
<g id="edge5" class="edge">
<title>collections.abc.Iterable&#45;&gt;collections.abc.Collection</title>
<path fill="none" stroke="#778899" d="M153.3642,-200.5629C172.2983,-193.7252 199.3102,-183.9704 221.0618,-176.1153"/>
<polygon fill="#778899" stroke="#778899" points="222.4211,-179.3457 230.6377,-172.6571 220.0434,-172.7619 222.4211,-179.3457"/>
</g>
<!-- collections.abc.Iterable&#45;&gt;collections.abc.Reversible -->
<g id="edge6" class="edge">
<title>collections.abc.Iterable&#45;&gt;collections.abc.Reversible</title>
<path fill="none" stroke="#778899" d="M159.5444,-209C173.7723,-209 191.228,-209 207.4365,-209"/>
<polygon fill="#778899" stroke="#778899" points="207.8613,-212.5001 217.8612,-209 207.8612,-205.5001 207.8613,-212.5001"/>
</g>
<!-- collections.abc.Reversible&#45;&gt;collections.abc.Sequence -->
<g id="edge7" class="edge">
<title>collections.abc.Reversible&#45;&gt;collections.abc.Sequence</title>
<path fill="none" stroke="#778899" d="M282.922,-198.5619C298.3217,-192.2688 318.1504,-184.1658 334.9898,-177.2844"/>
<polygon fill="#778899" stroke="#778899" points="336.5701,-180.4196 344.503,-173.3968 333.9221,-173.9398 336.5701,-180.4196"/>
</g>
<!-- collections.abc.Sequence&#45;&gt;abjad.tools.datastructuretools.TypedTuple.TypedTuple -->
<g id="edge16" class="edge">
<title>collections.abc.Sequence&#45;&gt;abjad.tools.datastructuretools.TypedTuple.TypedTuple</title>
<path fill="none" stroke="#778899" d="M380.045,-149.4777C395.2162,-129.1661 424.1157,-90.4749 442.9829,-65.2151"/>
<polygon fill="#778899" stroke="#778899" points="446.019,-66.999 449.1991,-56.8926 440.4107,-62.81 446.019,-66.999"/>
</g>
<!-- collections.abc.Sized&#45;&gt;collections.abc.Collection -->
<g id="edge8" class="edge">
<title>collections.abc.Sized&#45;&gt;collections.abc.Collection</title>
<path fill="none" stroke="#778899" d="M150.1846,-124.2888C169.2129,-131.1605 198.1659,-141.6164 221.187,-149.9299"/>
<polygon fill="#778899" stroke="#778899" points="220.0495,-153.2403 230.6438,-153.3451 222.4271,-146.6565 220.0495,-153.2403"/>
</g>
<!-- abjad.tools.abctools.AbjadObject.AbjadObject -->
<g id="node1" class="node">
<title>abjad.tools.abctools.AbjadObject.AbjadObject</title>
<path fill="#fbb4ae" stroke="#fbb4ae" stroke-width="2" d="M138.0706,-56.498C138.0706,-56.498 121.9317,-56.498 121.9317,-56.498 116.7656,-56.498 111.5996,-51.332 111.5996,-46.166 111.5996,-46.166 111.5996,-35.834 111.5996,-35.834 111.5996,-30.668 116.7656,-25.502 121.9317,-25.502 121.9317,-25.502 138.0706,-25.502 138.0706,-25.502 143.2366,-25.502 148.4026,-30.668 148.4026,-35.834 148.4026,-35.834 148.4026,-46.166 148.4026,-46.166 148.4026,-51.332 143.2366,-56.498 138.0706,-56.498"/>
<text text-anchor="middle" x="130.0011" y="-44.499" font-family="Arial" font-size="10.00" fill="#000000">Abjad</text>
<text text-anchor="middle" x="130.0011" y="-33" font-family="Arial" font-size="10.00" fill="#000000">Object</text>
</g>
<!-- abjad.tools.datastructuretools.TypedCollection.TypedCollection -->
<g id="node2" class="node">
<title>abjad.tools.datastructuretools.TypedCollection.TypedCollection</title>
<ellipse fill="none" stroke="#b3cde3" stroke-width="2" cx="369.9448" cy="-38" rx="36.9146" ry="21.8382"/>
<text text-anchor="middle" x="369.9448" y="-41.499" font-family="Arial" font-size="10.00" fill="#000000">Typed</text>
<text text-anchor="middle" x="369.9448" y="-30" font-family="Arial" font-size="10.00" fill="#000000">Collection</text>
</g>
<!-- abjad.tools.datastructuretools.TypedTuple.TypedTuple -->
<g id="node3" class="node">
<title>abjad.tools.datastructuretools.TypedTuple.TypedTuple</title>
<path fill="#b3cde3" stroke="#b3cde3" stroke-width="2" d="M468.4797,-56.498C468.4797,-56.498 453.6597,-56.498 453.6597,-56.498 448.4937,-56.498 443.3277,-51.332 443.3277,-46.166 443.3277,-46.166 443.3277,-35.834 443.3277,-35.834 443.3277,-30.668 448.4937,-25.502 453.6597,-25.502 453.6597,-25.502 468.4797,-25.502 468.4797,-25.502 473.6458,-25.502 478.8118,-30.668 478.8118,-35.834 478.8118,-35.834 478.8118,-46.166 478.8118,-46.166 478.8118,-51.332 473.6458,-56.498 468.4797,-56.498"/>
<text text-anchor="middle" x="461.0697" y="-44.499" font-family="Arial" font-size="10.00" fill="#000000">Typed</text>
<text text-anchor="middle" x="461.0697" y="-33" font-family="Arial" font-size="10.00" fill="#000000">Tuple</text>
</g>
<!-- abjad.tools.pitchtools.PitchSegment.PitchSegment -->
<g id="node4" class="node">
<title>abjad.tools.pitchtools.PitchSegment.PitchSegment</title>
<path fill="#ccebc5" stroke="#ccebc5" stroke-width="2" d="M656.3117,-56.498C656.3117,-56.498 628.9269,-56.498 628.9269,-56.498 623.7609,-56.498 618.5949,-51.332 618.5949,-46.166 618.5949,-46.166 618.5949,-35.834 618.5949,-35.834 618.5949,-30.668 623.7609,-25.502 628.9269,-25.502 628.9269,-25.502 656.3117,-25.502 656.3117,-25.502 661.4777,-25.502 666.6437,-30.668 666.6437,-35.834 666.6437,-35.834 666.6437,-46.166 666.6437,-46.166 666.6437,-51.332 661.4777,-56.498 656.3117,-56.498"/>
<text text-anchor="middle" x="642.6193" y="-44.499" font-family="Arial" font-size="10.00" fill="#000000">Pitch</text>
<text text-anchor="middle" x="642.6193" y="-33" font-family="Arial" font-size="10.00" fill="#000000">Segment</text>
</g>
<!-- abjad.tools.pitchtools.Segment.Segment -->
<g id="node5" class="node">
<title>abjad.tools.pitchtools.Segment.Segment</title>
<ellipse fill="none" stroke="#ccebc5" stroke-width="2" cx="548.6487" cy="-41" rx="33.9168" ry="13.579"/>
<text text-anchor="middle" x="548.6487" y="-38.7495" font-family="Arial" font-size="10.00" fill="#000000">Segment</text>
</g>
<!-- baca.tools.PitchSegment.PitchSegment -->
<g id="node6" class="node">
<title>baca.tools.PitchSegment.PitchSegment</title>
<g id="a_node6"><a xlink:href="../api/baca/tools/PitchSegment.html#baca.tools.PitchSegment.PitchSegment" xlink:title="Pitch\nSegment" target="_top">
<path fill="#000000" stroke="#000000" stroke-width="2" d="M740.3361,-56.498C740.3361,-56.498 712.9513,-56.498 712.9513,-56.498 707.7853,-56.498 702.6193,-51.332 702.6193,-46.166 702.6193,-46.166 702.6193,-35.834 702.6193,-35.834 702.6193,-30.668 707.7853,-25.502 712.9513,-25.502 712.9513,-25.502 740.3361,-25.502 740.3361,-25.502 745.5021,-25.502 750.6682,-30.668 750.6682,-35.834 750.6682,-35.834 750.6682,-46.166 750.6682,-46.166 750.6682,-51.332 745.5021,-56.498 740.3361,-56.498"/>
<text text-anchor="middle" x="726.6437" y="-44.499" font-family="Arial" font-size="10.00" fill="#ffffff">Pitch</text>
<text text-anchor="middle" x="726.6437" y="-33" font-family="Arial" font-size="10.00" fill="#ffffff">Segment</text>
</a>
</g>
</g>
<!-- builtins.object -->
<g id="node7" class="node">
<title>builtins.object</title>
<g id="a_node7"><a xlink:href="https://docs.python.org/3.6/library/functions.html#object" xlink:title="object" target="_top">
<path fill="#fed9a6" stroke="#fed9a6" stroke-width="2" d="M43.8579,-150.0056C43.8579,-150.0056 22.8267,-150.0056 22.8267,-150.0056 19.4915,-150.0056 16.1563,-146.6704 16.1563,-143.3352 16.1563,-143.3352 16.1563,-136.6648 16.1563,-136.6648 16.1563,-133.3296 19.4915,-129.9944 22.8267,-129.9944 22.8267,-129.9944 43.8579,-129.9944 43.8579,-129.9944 47.1931,-129.9944 50.5283,-133.3296 50.5283,-136.6648 50.5283,-136.6648 50.5283,-143.3352 50.5283,-143.3352 50.5283,-146.6704 47.1931,-150.0056 43.8579,-150.0056"/>
<text text-anchor="middle" x="33.3423" y="-137.7495" font-family="Arial" font-size="10.00" fill="#000000">object</text>
</a>
</g>
</g>
<!-- collections.abc.Collection -->
<g id="node8" class="node">
<title>collections.abc.Collection</title>
<g id="a_node8"><a xlink:href="https://docs.python.org/3.6/library/collections.abc.html#collections.abc.Collection" xlink:title="Collection" target="_top">
<ellipse fill="none" stroke="#ffffcc" stroke-width="2" cx="257.3791" cy="-163" rx="36.9146" ry="13.579"/>
<text text-anchor="middle" x="257.3791" y="-160.7495" font-family="Arial" font-size="10.00" fill="#000000">Collection</text>
</a>
</g>
</g>
<!-- collections.abc.Container -->
<g id="node9" class="node">
<title>collections.abc.Container</title>
<g id="a_node9"><a xlink:href="https://docs.python.org/3.6/library/collections.abc.html#collections.abc.Container" xlink:title="Container" target="_top">
<ellipse fill="none" stroke="#ffffcc" stroke-width="2" cx="130.0011" cy="-163" rx="36.134" ry="13.579"/>
<text text-anchor="middle" x="130.0011" y="-160.7495" font-family="Arial" font-size="10.00" fill="#000000">Container</text>
</a>
</g>
</g>
<!-- collections.abc.Iterable -->
<g id="node10" class="node">
<title>collections.abc.Iterable</title>
<g id="a_node10"><a xlink:href="https://docs.python.org/3.6/library/collections.abc.html#collections.abc.Iterable" xlink:title="Iterable" target="_top">
<ellipse fill="none" stroke="#ffffcc" stroke-width="2" cx="130.0011" cy="-209" rx="29.4861" ry="13.579"/>
<text text-anchor="middle" x="130.0011" y="-206.7495" font-family="Arial" font-size="10.00" fill="#000000">Iterable</text>
</a>
</g>
</g>
<!-- collections.abc.Reversible -->
<g id="node11" class="node">
<title>collections.abc.Reversible</title>
<g id="a_node11"><a xlink:href="https://docs.python.org/3.6/library/collections.abc.html#collections.abc.Reversible" xlink:title="Reversible" target="_top">
<ellipse fill="none" stroke="#ffffcc" stroke-width="2" cx="257.3791" cy="-209" rx="39.123" ry="13.579"/>
<text text-anchor="middle" x="257.3791" y="-206.7495" font-family="Arial" font-size="10.00" fill="#000000">Reversible</text>
</a>
</g>
</g>
<!-- collections.abc.Sequence -->
<g id="node12" class="node">
<title>collections.abc.Sequence</title>
<g id="a_node12"><a xlink:href="https://docs.python.org/3.6/library/collections.abc.html#collections.abc.Sequence" xlink:title="Sequence" target="_top">
<ellipse fill="none" stroke="#ffffcc" stroke-width="2" cx="369.9448" cy="-163" rx="37.5086" ry="13.579"/>
<text text-anchor="middle" x="369.9448" y="-160.7495" font-family="Arial" font-size="10.00" fill="#000000">Sequence</text>
</a>
</g>
</g>
<!-- collections.abc.Sized -->
<g id="node13" class="node">
<title>collections.abc.Sized</title>
<g id="a_node13"><a xlink:href="https://docs.python.org/3.6/library/collections.abc.html#collections.abc.Sized" xlink:title="Sized" target="_top">
<ellipse fill="none" stroke="#ffffcc" stroke-width="2" cx="130.0011" cy="-117" rx="23.1908" ry="13.579"/>
<text text-anchor="middle" x="130.0011" y="-114.7495" font-family="Arial" font-size="10.00" fill="#000000">Sized</text>
</a>
</g>
</g>
</g>
</svg>
