<?xml version="1.0" encoding="UTF-8" standalone="no"?>
<!DOCTYPE svg PUBLIC "-//W3C//DTD SVG 1.1//EN"
 "http://www.w3.org/Graphics/SVG/1.1/DTD/svg11.dtd">
<!-- Generated by graphviz version 2.40.1 (20161225.0304)
 -->
<!-- Title: InheritanceGraph Pages: 1 -->
<svg width="766pt" height="153pt"
 viewBox="0.00 0.00 765.58 153.00" xmlns="http://www.w3.org/2000/svg" xmlns:xlink="http://www.w3.org/1999/xlink">
<g id="graph0" class="graph" transform="scale(1 1) rotate(0) translate(4 149)">
<title>InheritanceGraph</title>
<g id="clust1" class="cluster">
<title>cluster_abjad.tools.abctools</title>
<path fill="transparent" stroke="#bcd2ee" stroke-width="2" stroke-dasharray="5,2" d="M448.577,-8C448.577,-8 528.4784,-8 528.4784,-8 534.4784,-8 540.4784,-14 540.4784,-20 540.4784,-20 540.4784,-62 540.4784,-62 540.4784,-68 534.4784,-74 528.4784,-74 528.4784,-74 448.577,-74 448.577,-74 442.577,-74 436.577,-68 436.577,-62 436.577,-62 436.577,-20 436.577,-20 436.577,-14 442.577,-8 448.577,-8"/>
<text text-anchor="middle" x="488.5277" y="-62" font-family="Arial" font-size="10.00" fill="#000000">abjad.tools.abctools</text>
</g>
<g id="clust2" class="cluster">
<title>cluster_abjad.tools.mathtools</title>
<path fill="transparent" stroke="#bcd2ee" stroke-width="2" stroke-dasharray="5,2" d="M572.0892,-39C572.0892,-39 658.5716,-39 658.5716,-39 664.5716,-39 670.5716,-45 670.5716,-51 670.5716,-51 670.5716,-93 670.5716,-93 670.5716,-99 664.5716,-105 658.5716,-105 658.5716,-105 572.0892,-105 572.0892,-105 566.0892,-105 560.0892,-99 560.0892,-93 560.0892,-93 560.0892,-51 560.0892,-51 560.0892,-45 566.0892,-39 572.0892,-39"/>
<text text-anchor="middle" x="615.3304" y="-93" font-family="Arial" font-size="10.00" fill="#000000">abjad.tools.mathtools</text>
</g>
<g id="clust3" class="cluster">
<title>cluster_baca</title>
<path fill="transparent" stroke="#bcd2ee" stroke-width="2" stroke-dasharray="5,2" d="M702.5716,-44C702.5716,-44 737.5814,-44 737.5814,-44 743.5814,-44 749.5814,-50 749.5814,-56 749.5814,-56 749.5814,-87 749.5814,-87 749.5814,-93 743.5814,-99 737.5814,-99 737.5814,-99 702.5716,-99 702.5716,-99 696.5716,-99 690.5716,-93 690.5716,-87 690.5716,-87 690.5716,-56 690.5716,-56 690.5716,-50 696.5716,-44 702.5716,-44"/>
<text text-anchor="middle" x="720.0765" y="-87" font-family="Arial" font-size="10.00" fill="#000000">baca</text>
</g>
<g id="clust4" class="cluster">
<title>cluster_builtins</title>
<path fill="transparent" stroke="#bcd2ee" stroke-width="2" stroke-dasharray="5,2" d="M20,-45C20,-45 46.6846,-45 46.6846,-45 52.6846,-45 58.6846,-51 58.6846,-57 58.6846,-57 58.6846,-88 58.6846,-88 58.6846,-94 52.6846,-100 46.6846,-100 46.6846,-100 20,-100 20,-100 14,-100 8,-94 8,-88 8,-88 8,-57 8,-57 8,-51 14,-45 20,-45"/>
<text text-anchor="middle" x="33.3423" y="-88" font-family="Arial" font-size="10.00" fill="#000000">builtins</text>
</g>
<g id="clust5" class="cluster">
<title>cluster_fractions</title>
<path fill="transparent" stroke="#bcd2ee" stroke-width="2" stroke-dasharray="5,2" d="M469.9662,-82C469.9662,-82 506.0892,-82 506.0892,-82 512.0892,-82 518.0892,-88 518.0892,-94 518.0892,-94 518.0892,-125 518.0892,-125 518.0892,-131 512.0892,-137 506.0892,-137 506.0892,-137 469.9662,-137 469.9662,-137 463.9662,-137 457.9662,-131 457.9662,-125 457.9662,-125 457.9662,-94 457.9662,-94 457.9662,-88 463.9662,-82 469.9662,-82"/>
<text text-anchor="middle" x="488.0277" y="-125" font-family="Arial" font-size="10.00" fill="#000000">fractions</text>
</g>
<g id="clust6" class="cluster">
<title>cluster_numbers</title>
<path fill="transparent" stroke="#bcd2ee" stroke-width="2" stroke-dasharray="5,2" d="M90.6846,-62C90.6846,-62 404.9662,-62 404.9662,-62 410.9662,-62 416.9662,-68 416.9662,-74 416.9662,-74 416.9662,-113 416.9662,-113 416.9662,-119 410.9662,-125 404.9662,-125 404.9662,-125 90.6846,-125 90.6846,-125 84.6846,-125 78.6846,-119 78.6846,-113 78.6846,-113 78.6846,-74 78.6846,-74 78.6846,-68 84.6846,-62 90.6846,-62"/>
<text text-anchor="middle" x="247.8254" y="-113" font-family="Arial" font-size="10.00" fill="#000000">numbers</text>
</g>
<!-- abjad.tools.abctools.AbjadObject.AbjadObject&#45;&gt;abjad.tools.mathtools.NonreducedFraction.NonreducedFraction -->
<g id="edge4" class="edge">
<title>abjad.tools.abctools.AbjadObject.AbjadObject&#45;&gt;abjad.tools.mathtools.NonreducedFraction.NonreducedFraction</title>
<path fill="none" stroke="#778899" d="M506.5386,-35.5077C524.1992,-39.8083 551.4117,-46.4349 574.2018,-51.9846"/>
<polygon fill="#778899" stroke="#778899" points="573.4393,-55.4011 583.9835,-54.3666 575.0956,-48.5999 573.4393,-55.4011"/>
</g>
<!-- abjad.tools.mathtools.NonreducedFraction.NonreducedFraction&#45;&gt;baca.Division.Division -->
<g id="edge5" class="edge">
<title>abjad.tools.mathtools.NonreducedFraction.NonreducedFraction&#45;&gt;baca.Division.Division</title>
<path fill="none" stroke="#778899" d="M646.7577,-62C659.8814,-62 675.106,-62 688.2697,-62"/>
<polygon fill="#778899" stroke="#778899" points="688.3055,-65.5001 698.3055,-62 688.3055,-58.5001 688.3055,-65.5001"/>
</g>
<!-- builtins.object&#45;&gt;abjad.tools.abctools.AbjadObject.AbjadObject -->
<g id="edge6" class="edge">
<title>builtins.object&#45;&gt;abjad.tools.abctools.AbjadObject.AbjadObject</title>
<path fill="none" stroke="#778899" d="M50.7468,-59.3421C80.9392,-53.3254 145.0454,-42 199.8089,-42 199.8089,-42 199.8089,-42 289.5662,-42 350.1278,-42 420.9256,-36.8303 459.4624,-33.579"/>
<polygon fill="#778899" stroke="#778899" points="459.7786,-37.0648 469.441,-32.7188 459.1773,-30.0907 459.7786,-37.0648"/>
</g>
<!-- builtins.object&#45;&gt;numbers.Number -->
<g id="edge7" class="edge">
<title>builtins.object&#45;&gt;numbers.Number</title>
<path fill="none" stroke="#778899" d="M50.7664,-67.4067C58.5767,-69.382 68.0362,-71.7744 77.0168,-74.0457"/>
<polygon fill="#778899" stroke="#778899" points="76.2862,-77.4711 86.8392,-76.5299 78.0026,-70.6848 76.2862,-77.4711"/>
</g>
<!-- fractions.Fraction&#45;&gt;abjad.tools.mathtools.NonreducedFraction.NonreducedFraction -->
<g id="edge8" class="edge">
<title>fractions.Fraction&#45;&gt;abjad.tools.mathtools.NonreducedFraction.NonreducedFraction</title>
<path fill="none" stroke="#778899" d="M510.2021,-93.3809C527.7903,-88.1308 552.8621,-80.6469 574.11,-74.3043"/>
<polygon fill="#778899" stroke="#778899" points="575.2915,-77.6044 583.8725,-71.3902 573.2892,-70.8968 575.2915,-77.6044"/>
</g>
<!-- numbers.Complex&#45;&gt;numbers.Real -->
<g id="edge1" class="edge">
<title>numbers.Complex&#45;&gt;numbers.Real</title>
<path fill="none" stroke="#778899" d="M233.4866,-84C241.9508,-84 250.983,-84 259.2707,-84"/>
<polygon fill="#778899" stroke="#778899" points="259.2717,-87.5001 269.2716,-84 259.2716,-80.5001 259.2717,-87.5001"/>
</g>
<!-- numbers.Number&#45;&gt;numbers.Complex -->
<g id="edge2" class="edge">
<title>numbers.Number&#45;&gt;numbers.Complex</title>
<path fill="none" stroke="#778899" d="M130.1143,-82.474C137.9337,-82.6452 147.0665,-82.8452 156.097,-83.0429"/>
<polygon fill="#778899" stroke="#778899" points="156.0995,-86.5437 166.1738,-83.2635 156.2528,-79.5454 156.0995,-86.5437"/>
</g>
<!-- numbers.Rational&#45;&gt;fractions.Fraction -->
<g id="edge9" class="edge">
<title>numbers.Rational&#45;&gt;fractions.Fraction</title>
<path fill="none" stroke="#778899" d="M407.6048,-88.3721C422.5793,-90.5372 440.6648,-93.152 455.8897,-95.3533"/>
<polygon fill="#778899" stroke="#778899" points="455.5016,-98.8335 465.8996,-96.8006 456.5034,-91.9056 455.5016,-98.8335"/>
</g>
<!-- numbers.Real&#45;&gt;numbers.Rational -->
<g id="edge3" class="edge">
<title>numbers.Real&#45;&gt;numbers.Rational</title>
<path fill="none" stroke="#778899" d="M309.9299,-84C317.6592,-84 326.7706,-84 335.7538,-84"/>
<polygon fill="#778899" stroke="#778899" points="335.7613,-87.5001 345.7613,-84 335.7612,-80.5001 335.7613,-87.5001"/>
</g>
<!-- abjad.tools.abctools.AbjadObject.AbjadObject -->
<g id="node1" class="node">
<title>abjad.tools.abctools.AbjadObject.AbjadObject</title>
<path fill="#fbb4ae" stroke="#fbb4ae" stroke-width="2" d="M496.0972,-46.498C496.0972,-46.498 479.9582,-46.498 479.9582,-46.498 474.7922,-46.498 469.6262,-41.332 469.6262,-36.166 469.6262,-36.166 469.6262,-25.834 469.6262,-25.834 469.6262,-20.668 474.7922,-15.502 479.9582,-15.502 479.9582,-15.502 496.0972,-15.502 496.0972,-15.502 501.2632,-15.502 506.4292,-20.668 506.4292,-25.834 506.4292,-25.834 506.4292,-36.166 506.4292,-36.166 506.4292,-41.332 501.2632,-46.498 496.0972,-46.498"/>
<text text-anchor="middle" x="488.0277" y="-34.499" font-family="Arial" font-size="10.00" fill="#000000">Abjad</text>
<text text-anchor="middle" x="488.0277" y="-23" font-family="Arial" font-size="10.00" fill="#000000">Object</text>
</g>
<!-- abjad.tools.mathtools.NonreducedFraction.NonreducedFraction -->
<g id="node2" class="node">
<title>abjad.tools.mathtools.NonreducedFraction.NonreducedFraction</title>
<path fill="#b3cde3" stroke="#b3cde3" stroke-width="2" d="M636.4827,-77.498C636.4827,-77.498 594.1782,-77.498 594.1782,-77.498 589.0121,-77.498 583.8461,-72.332 583.8461,-67.166 583.8461,-67.166 583.8461,-56.834 583.8461,-56.834 583.8461,-51.668 589.0121,-46.502 594.1782,-46.502 594.1782,-46.502 636.4827,-46.502 636.4827,-46.502 641.6487,-46.502 646.8147,-51.668 646.8147,-56.834 646.8147,-56.834 646.8147,-67.166 646.8147,-67.166 646.8147,-72.332 641.6487,-77.498 636.4827,-77.498"/>
<text text-anchor="middle" x="615.3304" y="-65.499" font-family="Arial" font-size="10.00" fill="#000000">Nonreduced</text>
<text text-anchor="middle" x="615.3304" y="-54" font-family="Arial" font-size="10.00" fill="#000000">Fraction</text>
</g>
<!-- baca.Division.Division -->
<g id="node3" class="node">
<title>baca.Division.Division</title>
<g id="a_node3"><a xlink:href="../api/baca/Division.html#baca.Division.Division" xlink:title="Division" target="_top">
<path fill="#000000" stroke="#000000" stroke-width="2" d="M734.9159,-72.0056C734.9159,-72.0056 705.2371,-72.0056 705.2371,-72.0056 701.9019,-72.0056 698.5667,-68.6704 698.5667,-65.3352 698.5667,-65.3352 698.5667,-58.6648 698.5667,-58.6648 698.5667,-55.3296 701.9019,-51.9944 705.2371,-51.9944 705.2371,-51.9944 734.9159,-51.9944 734.9159,-51.9944 738.2511,-51.9944 741.5863,-55.3296 741.5863,-58.6648 741.5863,-58.6648 741.5863,-65.3352 741.5863,-65.3352 741.5863,-68.6704 738.2511,-72.0056 734.9159,-72.0056"/>
<text text-anchor="middle" x="720.0765" y="-59.7495" font-family="Arial" font-size="10.00" fill="#ffffff">Division</text>
</a>
</g>
</g>
<!-- builtins.object -->
<g id="node4" class="node">
<title>builtins.object</title>
<g id="a_node4"><a xlink:href="https://docs.python.org/3.6/library/functions.html#object" xlink:title="object" target="_top">
<path fill="#decbe4" stroke="#decbe4" stroke-width="2" d="M43.8579,-73.0056C43.8579,-73.0056 22.8267,-73.0056 22.8267,-73.0056 19.4915,-73.0056 16.1563,-69.6704 16.1563,-66.3352 16.1563,-66.3352 16.1563,-59.6648 16.1563,-59.6648 16.1563,-56.3296 19.4915,-52.9944 22.8267,-52.9944 22.8267,-52.9944 43.8579,-52.9944 43.8579,-52.9944 47.1931,-52.9944 50.5283,-56.3296 50.5283,-59.6648 50.5283,-59.6648 50.5283,-66.3352 50.5283,-66.3352 50.5283,-69.6704 47.1931,-73.0056 43.8579,-73.0056"/>
<text text-anchor="middle" x="33.3423" y="-60.7495" font-family="Arial" font-size="10.00" fill="#000000">object</text>
</a>
</g>
</g>
<!-- fractions.Fraction -->
<g id="node5" class="node">
<title>fractions.Fraction</title>
<g id="a_node5"><a xlink:href="https://docs.python.org/3.6/library/fractions.html#fractions.Fraction" xlink:title="Fraction" target="_top">
<path fill="#fed9a6" stroke="#fed9a6" stroke-width="2" d="M503.4805,-110.0056C503.4805,-110.0056 472.5749,-110.0056 472.5749,-110.0056 469.2397,-110.0056 465.9045,-106.6704 465.9045,-103.3352 465.9045,-103.3352 465.9045,-96.6648 465.9045,-96.6648 465.9045,-93.3296 469.2397,-89.9944 472.5749,-89.9944 472.5749,-89.9944 503.4805,-89.9944 503.4805,-89.9944 506.8157,-89.9944 510.1509,-93.3296 510.1509,-96.6648 510.1509,-96.6648 510.1509,-103.3352 510.1509,-103.3352 510.1509,-106.6704 506.8157,-110.0056 503.4805,-110.0056"/>
<text text-anchor="middle" x="488.0277" y="-97.7495" font-family="Arial" font-size="10.00" fill="#000000">Fraction</text>
</a>
</g>
</g>
<!-- numbers.Complex -->
<g id="node6" class="node">
<title>numbers.Complex</title>
<g id="a_node6"><a xlink:href="https://docs.python.org/3.6/library/numbers.html#numbers.Complex" xlink:title="Complex" target="_top">
<ellipse fill="none" stroke="#ffffcc" stroke-width="2" cx="199.8089" cy="-84" rx="33.6159" ry="13.579"/>
<text text-anchor="middle" x="199.8089" y="-81.7495" font-family="Arial" font-size="10.00" fill="#000000">Complex</text>
</a>
</g>
</g>
<!-- numbers.Number -->
<g id="node7" class="node">
<title>numbers.Number</title>
<g id="a_node7"><a xlink:href="https://docs.python.org/3.6/library/numbers.html#numbers.Number" xlink:title="Number" target="_top">
<path fill="#ffffcc" stroke="#ffffcc" stroke-width="2" d="M123.3659,-92.0056C123.3659,-92.0056 93.5696,-92.0056 93.5696,-92.0056 90.2344,-92.0056 86.8992,-88.6704 86.8992,-85.3352 86.8992,-85.3352 86.8992,-78.6648 86.8992,-78.6648 86.8992,-75.3296 90.2344,-71.9944 93.5696,-71.9944 93.5696,-71.9944 123.3659,-71.9944 123.3659,-71.9944 126.7011,-71.9944 130.0363,-75.3296 130.0363,-78.6648 130.0363,-78.6648 130.0363,-85.3352 130.0363,-85.3352 130.0363,-88.6704 126.7011,-92.0056 123.3659,-92.0056"/>
<text text-anchor="middle" x="108.4678" y="-79.7495" font-family="Arial" font-size="10.00" fill="#000000">Number</text>
</a>
</g>
</g>
<!-- numbers.Rational -->
<g id="node8" class="node">
<title>numbers.Rational</title>
<g id="a_node8"><a xlink:href="https://docs.python.org/3.6/library/numbers.html#numbers.Rational" xlink:title="Rational" target="_top">
<ellipse fill="none" stroke="#ffffcc" stroke-width="2" cx="377.3659" cy="-84" rx="31.7007" ry="13.579"/>
<text text-anchor="middle" x="377.3659" y="-81.7495" font-family="Arial" font-size="10.00" fill="#000000">Rational</text>
</a>
</g>
</g>
<!-- numbers.Real -->
<g id="node9" class="node">
<title>numbers.Real</title>
<g id="a_node9"><a xlink:href="https://docs.python.org/3.6/library/numbers.html#numbers.Real" xlink:title="Real" target="_top">
<ellipse fill="none" stroke="#ffffcc" stroke-width="2" cx="289.5662" cy="-84" rx="20.401" ry="13.579"/>
<text text-anchor="middle" x="289.5662" y="-81.7495" font-family="Arial" font-size="10.00" fill="#000000">Real</text>
</a>
</g>
</g>
</g>
</svg>
