<?xml version="1.0" encoding="UTF-8" standalone="no"?>
<!DOCTYPE svg PUBLIC "-//W3C//DTD SVG 1.1//EN"
 "http://www.w3.org/Graphics/SVG/1.1/DTD/svg11.dtd">
<!-- Generated by graphviz version 2.40.1 (20161225.0304)
 -->
<!-- Title: InheritanceGraph Pages: 1 -->
<svg width="555pt" height="125pt"
 viewBox="0.00 0.00 555.46 125.00" xmlns="http://www.w3.org/2000/svg" xmlns:xlink="http://www.w3.org/1999/xlink">
<g id="graph0" class="graph" transform="scale(1 1) rotate(0) translate(4 121)">
<title>InheritanceGraph</title>
<g id="clust1" class="cluster">
<title>cluster_abjad.tools.abctools</title>
<path fill="transparent" stroke="#bcd2ee" stroke-width="2" stroke-dasharray="5,2" d="M90.6846,-20C90.6846,-20 192.4873,-20 192.4873,-20 198.4873,-20 204.4873,-26 204.4873,-32 204.4873,-32 204.4873,-86 204.4873,-86 204.4873,-92 198.4873,-98 192.4873,-98 192.4873,-98 90.6846,-98 90.6846,-98 84.6846,-98 78.6846,-92 78.6846,-86 78.6846,-86 78.6846,-32 78.6846,-32 78.6846,-26 84.6846,-20 90.6846,-20"/>
<text text-anchor="middle" x="141.5859" y="-86" font-family="Arial" font-size="10.00" fill="#000000">abjad.tools.abctools</text>
</g>
<g id="clust2" class="cluster">
<title>cluster_abjad.tools.segmenttools</title>
<path fill="transparent" stroke="#bcd2ee" stroke-width="2" stroke-dasharray="5,2" d="M236.4873,-19C236.4873,-19 338.1844,-19 338.1844,-19 344.1844,-19 350.1844,-25 350.1844,-31 350.1844,-31 350.1844,-86 350.1844,-86 350.1844,-92 344.1844,-98 338.1844,-98 338.1844,-98 236.4873,-98 236.4873,-98 230.4873,-98 224.4873,-92 224.4873,-86 224.4873,-86 224.4873,-31 224.4873,-31 224.4873,-25 230.4873,-19 236.4873,-19"/>
<text text-anchor="middle" x="287.3358" y="-86" font-family="Arial" font-size="10.00" fill="#000000">abjad.tools.segmenttools</text>
</g>
<g id="clust3" class="cluster">
<title>cluster_baca</title>
<path fill="transparent" stroke="#bcd2ee" stroke-width="2" stroke-dasharray="5,2" d="M382.1844,-8C382.1844,-8 527.4576,-8 527.4576,-8 533.4576,-8 539.4576,-14 539.4576,-20 539.4576,-20 539.4576,-97 539.4576,-97 539.4576,-103 533.4576,-109 527.4576,-109 527.4576,-109 382.1844,-109 382.1844,-109 376.1844,-109 370.1844,-103 370.1844,-97 370.1844,-97 370.1844,-20 370.1844,-20 370.1844,-14 376.1844,-8 382.1844,-8"/>
<text text-anchor="middle" x="454.821" y="-97" font-family="Arial" font-size="10.00" fill="#000000">baca</text>
</g>
<g id="clust4" class="cluster">
<title>cluster_builtins</title>
<path fill="transparent" stroke="#bcd2ee" stroke-width="2" stroke-dasharray="5,2" d="M20,-31C20,-31 46.6846,-31 46.6846,-31 52.6846,-31 58.6846,-37 58.6846,-43 58.6846,-43 58.6846,-74 58.6846,-74 58.6846,-80 52.6846,-86 46.6846,-86 46.6846,-86 20,-86 20,-86 14,-86 8,-80 8,-74 8,-74 8,-43 8,-43 8,-37 14,-31 20,-31"/>
<text text-anchor="middle" x="33.3423" y="-74" font-family="Arial" font-size="10.00" fill="#000000">builtins</text>
</g>
<!-- abjad.tools.abctools.AbjadObject.AbjadObject&#45;&gt;abjad.tools.abctools.AbjadValueObject.AbjadValueObject -->
<g id="edge1" class="edge">
<title>abjad.tools.abctools.AbjadObject.AbjadObject&#45;&gt;abjad.tools.abctools.AbjadValueObject.AbjadValueObject</title>
<path fill="none" stroke="#778899" d="M123.9092,-49C131.7073,-49 140.9297,-49 149.5315,-49"/>
<polygon fill="#778899" stroke="#778899" points="149.5787,-52.5001 159.5787,-49 149.5787,-45.5001 149.5787,-52.5001"/>
</g>
<!-- abjad.tools.abctools.AbjadValueObject.AbjadValueObject&#45;&gt;abjad.tools.segmenttools.ScoreTemplate.ScoreTemplate -->
<g id="edge3" class="edge">
<title>abjad.tools.abctools.AbjadValueObject.AbjadValueObject&#45;&gt;abjad.tools.segmenttools.ScoreTemplate.ScoreTemplate</title>
<path fill="none" stroke="#778899" d="M196.4929,-49C209.0256,-49 226.1652,-49 242.1487,-49"/>
<polygon fill="#778899" stroke="#778899" points="242.4251,-52.5001 252.4251,-49 242.4251,-45.5001 242.4251,-52.5001"/>
</g>
<!-- abjad.tools.segmenttools.ScoreTemplate.ScoreTemplate&#45;&gt;baca.ScoreTemplate.ScoreTemplate -->
<g id="edge4" class="edge">
<title>abjad.tools.segmenttools.ScoreTemplate.ScoreTemplate&#45;&gt;baca.ScoreTemplate.ScoreTemplate</title>
<path fill="none" stroke="#778899" d="M321.5159,-49C335.804,-49 352.5413,-49 367.7393,-49"/>
<polygon fill="#778899" stroke="#778899" points="367.9661,-52.5001 377.9661,-49 367.9661,-45.5001 367.9661,-52.5001"/>
</g>
<!-- baca.ScoreTemplate.ScoreTemplate&#45;&gt;baca.TwoVoiceStaffScoreTemplate.TwoVoiceStaffScoreTemplate -->
<g id="edge2" class="edge">
<title>baca.ScoreTemplate.ScoreTemplate&#45;&gt;baca.TwoVoiceStaffScoreTemplate.TwoVoiceStaffScoreTemplate</title>
<path fill="none" stroke="#778899" d="M446.9666,-49C455.3647,-49 464.349,-49 472.7466,-49"/>
<polygon fill="#778899" stroke="#778899" points="472.9816,-52.5001 482.9816,-49 472.9815,-45.5001 472.9816,-52.5001"/>
</g>
<!-- builtins.object&#45;&gt;abjad.tools.abctools.AbjadObject.AbjadObject -->
<g id="edge5" class="edge">
<title>builtins.object&#45;&gt;abjad.tools.abctools.AbjadObject.AbjadObject</title>
<path fill="none" stroke="#778899" d="M50.7214,-49C58.4511,-49 67.7584,-49 76.4724,-49"/>
<polygon fill="#778899" stroke="#778899" points="76.6614,-52.5001 86.6614,-49 76.6613,-45.5001 76.6614,-52.5001"/>
</g>
<!-- abjad.tools.abctools.AbjadObject.AbjadObject -->
<g id="node1" class="node">
<title>abjad.tools.abctools.AbjadObject.AbjadObject</title>
<path fill="#fbb4ae" stroke="#fbb4ae" stroke-width="2" d="M113.2047,-64.498C113.2047,-64.498 97.0658,-64.498 97.0658,-64.498 91.8998,-64.498 86.7338,-59.332 86.7338,-54.166 86.7338,-54.166 86.7338,-43.834 86.7338,-43.834 86.7338,-38.668 91.8998,-33.502 97.0658,-33.502 97.0658,-33.502 113.2047,-33.502 113.2047,-33.502 118.3707,-33.502 123.5368,-38.668 123.5368,-43.834 123.5368,-43.834 123.5368,-54.166 123.5368,-54.166 123.5368,-59.332 118.3707,-64.498 113.2047,-64.498"/>
<text text-anchor="middle" x="105.1353" y="-52.499" font-family="Arial" font-size="10.00" fill="#000000">Abjad</text>
<text text-anchor="middle" x="105.1353" y="-41" font-family="Arial" font-size="10.00" fill="#000000">Object</text>
</g>
<!-- abjad.tools.abctools.AbjadValueObject.AbjadValueObject -->
<g id="node2" class="node">
<title>abjad.tools.abctools.AbjadValueObject.AbjadValueObject</title>
<path fill="#fbb4ae" stroke="#fbb4ae" stroke-width="2" d="M184.4381,-70.5C184.4381,-70.5 171.6351,-70.5 171.6351,-70.5 165.6351,-70.5 159.6351,-64.5 159.6351,-58.5 159.6351,-58.5 159.6351,-39.5 159.6351,-39.5 159.6351,-33.5 165.6351,-27.5 171.6351,-27.5 171.6351,-27.5 184.4381,-27.5 184.4381,-27.5 190.4381,-27.5 196.4381,-33.5 196.4381,-39.5 196.4381,-39.5 196.4381,-58.5 196.4381,-58.5 196.4381,-64.5 190.4381,-70.5 184.4381,-70.5"/>
<text text-anchor="middle" x="178.0366" y="-58.2485" font-family="Arial" font-size="10.00" fill="#000000">Abjad</text>
<text text-anchor="middle" x="178.0366" y="-46.7495" font-family="Arial" font-size="10.00" fill="#000000">Value</text>
<text text-anchor="middle" x="178.0366" y="-35.2505" font-family="Arial" font-size="10.00" fill="#000000">Object</text>
</g>
<!-- abjad.tools.segmenttools.ScoreTemplate.ScoreTemplate -->
<g id="node3" class="node">
<title>abjad.tools.segmenttools.ScoreTemplate.ScoreTemplate</title>
<ellipse fill="none" stroke="#b3cde3" stroke-width="2" cx="286.8358" cy="-49" rx="34.1977" ry="21.8382"/>
<text text-anchor="middle" x="286.8358" y="-52.499" font-family="Arial" font-size="10.00" fill="#000000">Score</text>
<text text-anchor="middle" x="286.8358" y="-41" font-family="Arial" font-size="10.00" fill="#000000">Template</text>
</g>
<!-- baca.ScoreTemplate.ScoreTemplate -->
<g id="node4" class="node">
<title>baca.ScoreTemplate.ScoreTemplate</title>
<g id="a_node4"><a xlink:href="../api/baca/ScoreTemplate.html#baca.ScoreTemplate.ScoreTemplate" xlink:title="Score\nTemplate" target="_top">
<ellipse fill="none" stroke="#ccebc5" stroke-width="2" cx="412.5329" cy="-49" rx="34.1977" ry="21.8382"/>
<text text-anchor="middle" x="412.5329" y="-52.499" font-family="Arial" font-size="10.00" fill="#000000">Score</text>
<text text-anchor="middle" x="412.5329" y="-41" font-family="Arial" font-size="10.00" fill="#000000">Template</text>
</a>
</g>
</g>
<!-- baca.TwoVoiceStaffScoreTemplate.TwoVoiceStaffScoreTemplate -->
<g id="node5" class="node">
<title>baca.TwoVoiceStaffScoreTemplate.TwoVoiceStaffScoreTemplate</title>
<g id="a_node5"><a xlink:href="../api/baca/TwoVoiceStaffScoreTemplate.html#baca.TwoVoiceStaffScoreTemplate.TwoVoiceStaffScoreTemplate" xlink:title="Two\nVoice\nStaff\nScore\nTemplate" target="_top">
<path fill="#000000" stroke="#000000" stroke-width="2" d="M519.2476,-81.997C519.2476,-81.997 495.0915,-81.997 495.0915,-81.997 489.0915,-81.997 483.0915,-75.997 483.0915,-69.997 483.0915,-69.997 483.0915,-28.003 483.0915,-28.003 483.0915,-22.003 489.0915,-16.003 495.0915,-16.003 495.0915,-16.003 519.2476,-16.003 519.2476,-16.003 525.2476,-16.003 531.2476,-22.003 531.2476,-28.003 531.2476,-28.003 531.2476,-69.997 531.2476,-69.997 531.2476,-75.997 525.2476,-81.997 519.2476,-81.997"/>
<text text-anchor="middle" x="507.1696" y="-69.7476" font-family="Arial" font-size="10.00" fill="#ffffff">Two</text>
<text text-anchor="middle" x="507.1696" y="-58.2485" font-family="Arial" font-size="10.00" fill="#ffffff">Voice</text>
<text text-anchor="middle" x="507.1696" y="-46.7495" font-family="Arial" font-size="10.00" fill="#ffffff">Staff</text>
<text text-anchor="middle" x="507.1696" y="-35.2505" font-family="Arial" font-size="10.00" fill="#ffffff">Score</text>
<text text-anchor="middle" x="507.1696" y="-23.7515" font-family="Arial" font-size="10.00" fill="#ffffff">Template</text>
</a>
</g>
</g>
<!-- builtins.object -->
<g id="node6" class="node">
<title>builtins.object</title>
<g id="a_node6"><a xlink:href="https://docs.python.org/3.6/library/functions.html#object" xlink:title="object" target="_top">
<path fill="#decbe4" stroke="#decbe4" stroke-width="2" d="M43.8579,-59.0056C43.8579,-59.0056 22.8267,-59.0056 22.8267,-59.0056 19.4915,-59.0056 16.1563,-55.6704 16.1563,-52.3352 16.1563,-52.3352 16.1563,-45.6648 16.1563,-45.6648 16.1563,-42.3296 19.4915,-38.9944 22.8267,-38.9944 22.8267,-38.9944 43.8579,-38.9944 43.8579,-38.9944 47.1931,-38.9944 50.5283,-42.3296 50.5283,-45.6648 50.5283,-45.6648 50.5283,-52.3352 50.5283,-52.3352 50.5283,-55.6704 47.1931,-59.0056 43.8579,-59.0056"/>
<text text-anchor="middle" x="33.3423" y="-46.7495" font-family="Arial" font-size="10.00" fill="#000000">object</text>
</a>
</g>
</g>
</g>
</svg>
