<?xml version="1.0" encoding="UTF-8" standalone="no"?>
<!DOCTYPE svg PUBLIC "-//W3C//DTD SVG 1.1//EN"
 "http://www.w3.org/Graphics/SVG/1.1/DTD/svg11.dtd">
<!-- Generated by graphviz version 2.40.1 (20161225.0304)
 -->
<!-- Title: InheritanceGraph Pages: 1 -->
<svg width="276pt" height="90pt"
 viewBox="0.00 0.00 276.15 90.00" xmlns="http://www.w3.org/2000/svg" xmlns:xlink="http://www.w3.org/1999/xlink">
<g id="graph0" class="graph" transform="scale(1 1) rotate(0) translate(4 86)">
<title>InheritanceGraph</title>
<g id="clust1" class="cluster">
<title>cluster_abjad.tools.abctools</title>
<path fill="transparent" stroke="#bcd2ee" stroke-width="2" stroke-dasharray="5,2" d="M90.6846,-8C90.6846,-8 170.5859,-8 170.5859,-8 176.5859,-8 182.5859,-14 182.5859,-20 182.5859,-20 182.5859,-62 182.5859,-62 182.5859,-68 176.5859,-74 170.5859,-74 170.5859,-74 90.6846,-74 90.6846,-74 84.6846,-74 78.6846,-68 78.6846,-62 78.6846,-62 78.6846,-20 78.6846,-20 78.6846,-14 84.6846,-8 90.6846,-8"/>
<text text-anchor="middle" x="130.6353" y="-62" font-family="Arial" font-size="10.00" fill="#000000">abjad.tools.abctools</text>
</g>
<g id="clust2" class="cluster">
<title>cluster_baca.tools</title>
<path fill="transparent" stroke="#bcd2ee" stroke-width="2" stroke-dasharray="5,2" d="M214.5859,-8C214.5859,-8 252.1523,-8 252.1523,-8 258.1523,-8 264.1523,-14 264.1523,-20 264.1523,-20 264.1523,-62 264.1523,-62 264.1523,-68 258.1523,-74 252.1523,-74 252.1523,-74 214.5859,-74 214.5859,-74 208.5859,-74 202.5859,-68 202.5859,-62 202.5859,-62 202.5859,-20 202.5859,-20 202.5859,-14 208.5859,-8 214.5859,-8"/>
<text text-anchor="middle" x="233.3691" y="-62" font-family="Arial" font-size="10.00" fill="#000000">baca.tools</text>
</g>
<g id="clust3" class="cluster">
<title>cluster_builtins</title>
<path fill="transparent" stroke="#bcd2ee" stroke-width="2" stroke-dasharray="5,2" d="M20,-13C20,-13 46.6846,-13 46.6846,-13 52.6846,-13 58.6846,-19 58.6846,-25 58.6846,-25 58.6846,-56 58.6846,-56 58.6846,-62 52.6846,-68 46.6846,-68 46.6846,-68 20,-68 20,-68 14,-68 8,-62 8,-56 8,-56 8,-25 8,-25 8,-19 14,-13 20,-13"/>
<text text-anchor="middle" x="33.3423" y="-56" font-family="Arial" font-size="10.00" fill="#000000">builtins</text>
</g>
<!-- abjad.tools.abctools.AbjadObject.AbjadObject&#45;&gt;baca.tools.LibraryGM.LibraryGM -->
<g id="edge1" class="edge">
<title>abjad.tools.abctools.AbjadObject.AbjadObject&#45;&gt;baca.tools.LibraryGM.LibraryGM</title>
<path fill="none" stroke="#778899" d="M148.9782,-31C164.2328,-31 185.9885,-31 203.5221,-31"/>
<polygon fill="#778899" stroke="#778899" points="203.7977,-34.5001 213.7977,-31 203.7977,-27.5001 203.7977,-34.5001"/>
</g>
<!-- builtins.object&#45;&gt;abjad.tools.abctools.AbjadObject.AbjadObject -->
<g id="edge2" class="edge">
<title>builtins.object&#45;&gt;abjad.tools.abctools.AbjadObject.AbjadObject</title>
<path fill="none" stroke="#778899" d="M50.6469,-31C64.7425,-31 84.9402,-31 101.4481,-31"/>
<polygon fill="#778899" stroke="#778899" points="101.6622,-34.5001 111.6621,-31 101.6621,-27.5001 101.6622,-34.5001"/>
</g>
<!-- abjad.tools.abctools.AbjadObject.AbjadObject -->
<g id="node1" class="node">
<title>abjad.tools.abctools.AbjadObject.AbjadObject</title>
<path fill="#fbb4ae" stroke="#fbb4ae" stroke-width="2" d="M138.2047,-46.498C138.2047,-46.498 122.0658,-46.498 122.0658,-46.498 116.8998,-46.498 111.7338,-41.332 111.7338,-36.166 111.7338,-36.166 111.7338,-25.834 111.7338,-25.834 111.7338,-20.668 116.8998,-15.502 122.0658,-15.502 122.0658,-15.502 138.2047,-15.502 138.2047,-15.502 143.3707,-15.502 148.5368,-20.668 148.5368,-25.834 148.5368,-25.834 148.5368,-36.166 148.5368,-36.166 148.5368,-41.332 143.3707,-46.498 138.2047,-46.498"/>
<text text-anchor="middle" x="130.1353" y="-34.499" font-family="Arial" font-size="10.00" fill="#000000">Abjad</text>
<text text-anchor="middle" x="130.1353" y="-23" font-family="Arial" font-size="10.00" fill="#000000">Object</text>
</g>
<!-- baca.tools.LibraryGM.LibraryGM -->
<g id="node2" class="node">
<title>baca.tools.LibraryGM.LibraryGM</title>
<g id="a_node2"><a xlink:href="../api/baca/tools/LibraryGM.html#baca.tools.LibraryGM.LibraryGM" xlink:title="Library\nGM" target="_top">
<path fill="#000000" stroke="#000000" stroke-width="2" d="M241.6059,-46.498C241.6059,-46.498 224.1324,-46.498 224.1324,-46.498 218.9663,-46.498 213.8003,-41.332 213.8003,-36.166 213.8003,-36.166 213.8003,-25.834 213.8003,-25.834 213.8003,-20.668 218.9663,-15.502 224.1324,-15.502 224.1324,-15.502 241.6059,-15.502 241.6059,-15.502 246.7719,-15.502 251.938,-20.668 251.938,-25.834 251.938,-25.834 251.938,-36.166 251.938,-36.166 251.938,-41.332 246.7719,-46.498 241.6059,-46.498"/>
<text text-anchor="middle" x="232.8691" y="-34.499" font-family="Arial" font-size="10.00" fill="#ffffff">Library</text>
<text text-anchor="middle" x="232.8691" y="-23" font-family="Arial" font-size="10.00" fill="#ffffff">GM</text>
</a>
</g>
</g>
<!-- builtins.object -->
<g id="node3" class="node">
<title>builtins.object</title>
<g id="a_node3"><a xlink:href="https://docs.python.org/3.6/library/functions.html#object" xlink:title="object" target="_top">
<path fill="#ccebc5" stroke="#ccebc5" stroke-width="2" d="M43.8579,-41.0056C43.8579,-41.0056 22.8267,-41.0056 22.8267,-41.0056 19.4915,-41.0056 16.1563,-37.6704 16.1563,-34.3352 16.1563,-34.3352 16.1563,-27.6648 16.1563,-27.6648 16.1563,-24.3296 19.4915,-20.9944 22.8267,-20.9944 22.8267,-20.9944 43.8579,-20.9944 43.8579,-20.9944 47.1931,-20.9944 50.5283,-24.3296 50.5283,-27.6648 50.5283,-27.6648 50.5283,-34.3352 50.5283,-34.3352 50.5283,-37.6704 47.1931,-41.0056 43.8579,-41.0056"/>
<text text-anchor="middle" x="33.3423" y="-28.7495" font-family="Arial" font-size="10.00" fill="#000000">object</text>
</a>
</g>
</g>
</g>
</svg>
