<?xml version="1.0" encoding="UTF-8" standalone="no"?>
<!DOCTYPE svg PUBLIC "-//W3C//DTD SVG 1.1//EN"
 "http://www.w3.org/Graphics/SVG/1.1/DTD/svg11.dtd">
<!-- Generated by graphviz version 2.40.1 (20161225.0304)
 -->
<!-- Title: InheritanceGraph Pages: 1 -->
<svg width="555pt" height="341pt"
 viewBox="0.00 0.00 555.46 341.00" xmlns="http://www.w3.org/2000/svg" xmlns:xlink="http://www.w3.org/1999/xlink">
<g id="graph0" class="graph" transform="scale(1 1) rotate(0) translate(4 337)">
<title>InheritanceGraph</title>
<g id="clust1" class="cluster">
<title>cluster_abjad.tools.abctools</title>
<path fill="transparent" stroke="#bcd2ee" stroke-width="2" stroke-dasharray="5,2" d="M90.6846,-125C90.6846,-125 192.4873,-125 192.4873,-125 198.4873,-125 204.4873,-131 204.4873,-137 204.4873,-137 204.4873,-191 204.4873,-191 204.4873,-197 198.4873,-203 192.4873,-203 192.4873,-203 90.6846,-203 90.6846,-203 84.6846,-203 78.6846,-197 78.6846,-191 78.6846,-191 78.6846,-137 78.6846,-137 78.6846,-131 84.6846,-125 90.6846,-125"/>
<text text-anchor="middle" x="141.5859" y="-191" font-family="Arial" font-size="10.00" fill="#000000">abjad.tools.abctools</text>
</g>
<g id="clust2" class="cluster">
<title>cluster_abjad.tools.segmenttools</title>
<path fill="transparent" stroke="#bcd2ee" stroke-width="2" stroke-dasharray="5,2" d="M236.4873,-124C236.4873,-124 338.1844,-124 338.1844,-124 344.1844,-124 350.1844,-130 350.1844,-136 350.1844,-136 350.1844,-191 350.1844,-191 350.1844,-197 344.1844,-203 338.1844,-203 338.1844,-203 236.4873,-203 236.4873,-203 230.4873,-203 224.4873,-197 224.4873,-191 224.4873,-191 224.4873,-136 224.4873,-136 224.4873,-130 230.4873,-124 236.4873,-124"/>
<text text-anchor="middle" x="287.3358" y="-191" font-family="Arial" font-size="10.00" fill="#000000">abjad.tools.segmenttools</text>
</g>
<g id="clust3" class="cluster">
<title>cluster_baca</title>
<path fill="transparent" stroke="#bcd2ee" stroke-width="2" stroke-dasharray="5,2" d="M382.1844,-8C382.1844,-8 527.4576,-8 527.4576,-8 533.4576,-8 539.4576,-14 539.4576,-20 539.4576,-20 539.4576,-313 539.4576,-313 539.4576,-319 533.4576,-325 527.4576,-325 527.4576,-325 382.1844,-325 382.1844,-325 376.1844,-325 370.1844,-319 370.1844,-313 370.1844,-313 370.1844,-20 370.1844,-20 370.1844,-14 376.1844,-8 382.1844,-8"/>
<text text-anchor="middle" x="454.821" y="-313" font-family="Arial" font-size="10.00" fill="#000000">baca</text>
</g>
<g id="clust4" class="cluster">
<title>cluster_builtins</title>
<path fill="transparent" stroke="#bcd2ee" stroke-width="2" stroke-dasharray="5,2" d="M20,-136C20,-136 46.6846,-136 46.6846,-136 52.6846,-136 58.6846,-142 58.6846,-148 58.6846,-148 58.6846,-179 58.6846,-179 58.6846,-185 52.6846,-191 46.6846,-191 46.6846,-191 20,-191 20,-191 14,-191 8,-185 8,-179 8,-179 8,-148 8,-148 8,-142 14,-136 20,-136"/>
<text text-anchor="middle" x="33.3423" y="-179" font-family="Arial" font-size="10.00" fill="#000000">builtins</text>
</g>
<!-- abjad.tools.abctools.AbjadObject.AbjadObject&#45;&gt;abjad.tools.abctools.AbjadValueObject.AbjadValueObject -->
<g id="edge1" class="edge">
<title>abjad.tools.abctools.AbjadObject.AbjadObject&#45;&gt;abjad.tools.abctools.AbjadValueObject.AbjadValueObject</title>
<path fill="none" stroke="#778899" d="M123.9092,-154C131.7073,-154 140.9297,-154 149.5315,-154"/>
<polygon fill="#778899" stroke="#778899" points="149.5787,-157.5001 159.5787,-154 149.5787,-150.5001 149.5787,-157.5001"/>
</g>
<!-- abjad.tools.abctools.AbjadValueObject.AbjadValueObject&#45;&gt;abjad.tools.segmenttools.ScoreTemplate.ScoreTemplate -->
<g id="edge6" class="edge">
<title>abjad.tools.abctools.AbjadValueObject.AbjadValueObject&#45;&gt;abjad.tools.segmenttools.ScoreTemplate.ScoreTemplate</title>
<path fill="none" stroke="#778899" d="M196.4929,-154C209.0256,-154 226.1652,-154 242.1487,-154"/>
<polygon fill="#778899" stroke="#778899" points="242.4251,-157.5001 252.4251,-154 242.4251,-150.5001 242.4251,-157.5001"/>
</g>
<!-- abjad.tools.segmenttools.ScoreTemplate.ScoreTemplate&#45;&gt;baca.ScoreTemplate.ScoreTemplate -->
<g id="edge7" class="edge">
<title>abjad.tools.segmenttools.ScoreTemplate.ScoreTemplate&#45;&gt;baca.ScoreTemplate.ScoreTemplate</title>
<path fill="none" stroke="#778899" d="M321.5159,-154C335.804,-154 352.5413,-154 367.7393,-154"/>
<polygon fill="#778899" stroke="#778899" points="367.9661,-157.5001 377.9661,-154 367.9661,-150.5001 367.9661,-157.5001"/>
</g>
<!-- baca.ScoreTemplate.ScoreTemplate&#45;&gt;baca.SingleStaffScoreTemplate.SingleStaffScoreTemplate -->
<g id="edge2" class="edge">
<title>baca.ScoreTemplate.ScoreTemplate&#45;&gt;baca.SingleStaffScoreTemplate.SingleStaffScoreTemplate</title>
<path fill="none" stroke="#778899" d="M429.0174,-134.6653C442.3626,-119.0126 461.5033,-96.5623 477.5018,-77.7975"/>
<polygon fill="#778899" stroke="#778899" points="480.3153,-79.8922 484.1398,-70.0117 474.9885,-75.3507 480.3153,-79.8922"/>
</g>
<!-- baca.ScoreTemplate.ScoreTemplate&#45;&gt;baca.StringTrioScoreTemplate.StringTrioScoreTemplate -->
<g id="edge3" class="edge">
<title>baca.ScoreTemplate.ScoreTemplate&#45;&gt;baca.StringTrioScoreTemplate.StringTrioScoreTemplate</title>
<path fill="none" stroke="#778899" d="M441.4413,-142.0868C451.5959,-137.9021 463.0906,-133.165 473.5957,-128.8359"/>
<polygon fill="#778899" stroke="#778899" points="474.986,-132.0485 482.8981,-125.0023 472.3189,-125.5766 474.986,-132.0485"/>
</g>
<!-- baca.ScoreTemplate.ScoreTemplate&#45;&gt;baca.TwoVoiceStaffScoreTemplate.TwoVoiceStaffScoreTemplate -->
<g id="edge4" class="edge">
<title>baca.ScoreTemplate.ScoreTemplate&#45;&gt;baca.TwoVoiceStaffScoreTemplate.TwoVoiceStaffScoreTemplate</title>
<path fill="none" stroke="#778899" d="M441.4413,-165.9132C451.5959,-170.0979 463.0906,-174.835 473.5957,-179.1641"/>
<polygon fill="#778899" stroke="#778899" points="472.3189,-182.4234 482.8981,-182.9977 474.986,-175.9515 472.3189,-182.4234"/>
</g>
<!-- baca.ScoreTemplate.ScoreTemplate&#45;&gt;baca.ViolinSoloScoreTemplate.ViolinSoloScoreTemplate -->
<g id="edge5" class="edge">
<title>baca.ScoreTemplate.ScoreTemplate&#45;&gt;baca.ViolinSoloScoreTemplate.ViolinSoloScoreTemplate</title>
<path fill="none" stroke="#778899" d="M428.373,-173.5832C442.1229,-190.5823 462.3628,-215.605 478.8863,-236.0332"/>
<polygon fill="#778899" stroke="#778899" points="476.236,-238.3221 485.2462,-243.896 481.6785,-233.9199 476.236,-238.3221"/>
</g>
<!-- builtins.object&#45;&gt;abjad.tools.abctools.AbjadObject.AbjadObject -->
<g id="edge8" class="edge">
<title>builtins.object&#45;&gt;abjad.tools.abctools.AbjadObject.AbjadObject</title>
<path fill="none" stroke="#778899" d="M50.7214,-154C58.4511,-154 67.7584,-154 76.4724,-154"/>
<polygon fill="#778899" stroke="#778899" points="76.6614,-157.5001 86.6614,-154 76.6613,-150.5001 76.6614,-157.5001"/>
</g>
<!-- abjad.tools.abctools.AbjadObject.AbjadObject -->
<g id="node1" class="node">
<title>abjad.tools.abctools.AbjadObject.AbjadObject</title>
<path fill="#fbb4ae" stroke="#fbb4ae" stroke-width="2" d="M113.2047,-169.498C113.2047,-169.498 97.0658,-169.498 97.0658,-169.498 91.8998,-169.498 86.7338,-164.332 86.7338,-159.166 86.7338,-159.166 86.7338,-148.834 86.7338,-148.834 86.7338,-143.668 91.8998,-138.502 97.0658,-138.502 97.0658,-138.502 113.2047,-138.502 113.2047,-138.502 118.3707,-138.502 123.5368,-143.668 123.5368,-148.834 123.5368,-148.834 123.5368,-159.166 123.5368,-159.166 123.5368,-164.332 118.3707,-169.498 113.2047,-169.498"/>
<text text-anchor="middle" x="105.1353" y="-157.499" font-family="Arial" font-size="10.00" fill="#000000">Abjad</text>
<text text-anchor="middle" x="105.1353" y="-146" font-family="Arial" font-size="10.00" fill="#000000">Object</text>
</g>
<!-- abjad.tools.abctools.AbjadValueObject.AbjadValueObject -->
<g id="node2" class="node">
<title>abjad.tools.abctools.AbjadValueObject.AbjadValueObject</title>
<path fill="#fbb4ae" stroke="#fbb4ae" stroke-width="2" d="M184.4381,-175.5C184.4381,-175.5 171.6351,-175.5 171.6351,-175.5 165.6351,-175.5 159.6351,-169.5 159.6351,-163.5 159.6351,-163.5 159.6351,-144.5 159.6351,-144.5 159.6351,-138.5 165.6351,-132.5 171.6351,-132.5 171.6351,-132.5 184.4381,-132.5 184.4381,-132.5 190.4381,-132.5 196.4381,-138.5 196.4381,-144.5 196.4381,-144.5 196.4381,-163.5 196.4381,-163.5 196.4381,-169.5 190.4381,-175.5 184.4381,-175.5"/>
<text text-anchor="middle" x="178.0366" y="-163.2485" font-family="Arial" font-size="10.00" fill="#000000">Abjad</text>
<text text-anchor="middle" x="178.0366" y="-151.7495" font-family="Arial" font-size="10.00" fill="#000000">Value</text>
<text text-anchor="middle" x="178.0366" y="-140.2505" font-family="Arial" font-size="10.00" fill="#000000">Object</text>
</g>
<!-- abjad.tools.segmenttools.ScoreTemplate.ScoreTemplate -->
<g id="node3" class="node">
<title>abjad.tools.segmenttools.ScoreTemplate.ScoreTemplate</title>
<ellipse fill="none" stroke="#b3cde3" stroke-width="2" cx="286.8358" cy="-154" rx="34.1977" ry="21.8382"/>
<text text-anchor="middle" x="286.8358" y="-157.499" font-family="Arial" font-size="10.00" fill="#000000">Score</text>
<text text-anchor="middle" x="286.8358" y="-146" font-family="Arial" font-size="10.00" fill="#000000">Template</text>
</g>
<!-- baca.ScoreTemplate.ScoreTemplate -->
<g id="node4" class="node">
<title>baca.ScoreTemplate.ScoreTemplate</title>
<g id="a_node4"><a xlink:href="../api/baca/ScoreTemplate.html#baca.ScoreTemplate.ScoreTemplate" xlink:title="Score\nTemplate" target="_top">
<ellipse fill="#000000" stroke="#000000" stroke-width="2" cx="412.5329" cy="-154" rx="34.1977" ry="21.8382"/>
<text text-anchor="middle" x="412.5329" y="-157.499" font-family="Arial" font-size="10.00" fill="#ffffff">Score</text>
<text text-anchor="middle" x="412.5329" y="-146" font-family="Arial" font-size="10.00" fill="#ffffff">Template</text>
</a>
</g>
</g>
<!-- baca.SingleStaffScoreTemplate.SingleStaffScoreTemplate -->
<g id="node5" class="node">
<title>baca.SingleStaffScoreTemplate.SingleStaffScoreTemplate</title>
<g id="a_node5"><a xlink:href="../api/baca/SingleStaffScoreTemplate.html#baca.SingleStaffScoreTemplate.SingleStaffScoreTemplate" xlink:title="Single\nStaff\nScore\nTemplate" target="_top">
<path fill="#ccebc5" stroke="#ccebc5" stroke-width="2" d="M519.2476,-69.9961C519.2476,-69.9961 495.0915,-69.9961 495.0915,-69.9961 489.0915,-69.9961 483.0915,-63.9961 483.0915,-57.9961 483.0915,-57.9961 483.0915,-28.0039 483.0915,-28.0039 483.0915,-22.0039 489.0915,-16.0039 495.0915,-16.0039 495.0915,-16.0039 519.2476,-16.0039 519.2476,-16.0039 525.2476,-16.0039 531.2476,-22.0039 531.2476,-28.0039 531.2476,-28.0039 531.2476,-57.9961 531.2476,-57.9961 531.2476,-63.9961 525.2476,-69.9961 519.2476,-69.9961"/>
<text text-anchor="middle" x="507.1696" y="-57.998" font-family="Arial" font-size="10.00" fill="#000000">Single</text>
<text text-anchor="middle" x="507.1696" y="-46.499" font-family="Arial" font-size="10.00" fill="#000000">Staff</text>
<text text-anchor="middle" x="507.1696" y="-35" font-family="Arial" font-size="10.00" fill="#000000">Score</text>
<text text-anchor="middle" x="507.1696" y="-23.501" font-family="Arial" font-size="10.00" fill="#000000">Template</text>
</a>
</g>
</g>
<!-- baca.StringTrioScoreTemplate.StringTrioScoreTemplate -->
<g id="node6" class="node">
<title>baca.StringTrioScoreTemplate.StringTrioScoreTemplate</title>
<g id="a_node6"><a xlink:href="../api/baca/StringTrioScoreTemplate.html#baca.StringTrioScoreTemplate.StringTrioScoreTemplate" xlink:title="String\nTrio\nScore\nTemplate" target="_top">
<path fill="#ccebc5" stroke="#ccebc5" stroke-width="2" d="M519.2476,-141.9961C519.2476,-141.9961 495.0915,-141.9961 495.0915,-141.9961 489.0915,-141.9961 483.0915,-135.9961 483.0915,-129.9961 483.0915,-129.9961 483.0915,-100.0039 483.0915,-100.0039 483.0915,-94.0039 489.0915,-88.0039 495.0915,-88.0039 495.0915,-88.0039 519.2476,-88.0039 519.2476,-88.0039 525.2476,-88.0039 531.2476,-94.0039 531.2476,-100.0039 531.2476,-100.0039 531.2476,-129.9961 531.2476,-129.9961 531.2476,-135.9961 525.2476,-141.9961 519.2476,-141.9961"/>
<text text-anchor="middle" x="507.1696" y="-129.998" font-family="Arial" font-size="10.00" fill="#000000">String</text>
<text text-anchor="middle" x="507.1696" y="-118.499" font-family="Arial" font-size="10.00" fill="#000000">Trio</text>
<text text-anchor="middle" x="507.1696" y="-107" font-family="Arial" font-size="10.00" fill="#000000">Score</text>
<text text-anchor="middle" x="507.1696" y="-95.501" font-family="Arial" font-size="10.00" fill="#000000">Template</text>
</a>
</g>
</g>
<!-- baca.TwoVoiceStaffScoreTemplate.TwoVoiceStaffScoreTemplate -->
<g id="node7" class="node">
<title>baca.TwoVoiceStaffScoreTemplate.TwoVoiceStaffScoreTemplate</title>
<g id="a_node7"><a xlink:href="../api/baca/TwoVoiceStaffScoreTemplate.html#baca.TwoVoiceStaffScoreTemplate.TwoVoiceStaffScoreTemplate" xlink:title="Two\nVoice\nStaff\nScore\nTemplate" target="_top">
<path fill="#ccebc5" stroke="#ccebc5" stroke-width="2" d="M519.2476,-225.997C519.2476,-225.997 495.0915,-225.997 495.0915,-225.997 489.0915,-225.997 483.0915,-219.997 483.0915,-213.997 483.0915,-213.997 483.0915,-172.003 483.0915,-172.003 483.0915,-166.003 489.0915,-160.003 495.0915,-160.003 495.0915,-160.003 519.2476,-160.003 519.2476,-160.003 525.2476,-160.003 531.2476,-166.003 531.2476,-172.003 531.2476,-172.003 531.2476,-213.997 531.2476,-213.997 531.2476,-219.997 525.2476,-225.997 519.2476,-225.997"/>
<text text-anchor="middle" x="507.1696" y="-213.7476" font-family="Arial" font-size="10.00" fill="#000000">Two</text>
<text text-anchor="middle" x="507.1696" y="-202.2485" font-family="Arial" font-size="10.00" fill="#000000">Voice</text>
<text text-anchor="middle" x="507.1696" y="-190.7495" font-family="Arial" font-size="10.00" fill="#000000">Staff</text>
<text text-anchor="middle" x="507.1696" y="-179.2505" font-family="Arial" font-size="10.00" fill="#000000">Score</text>
<text text-anchor="middle" x="507.1696" y="-167.7515" font-family="Arial" font-size="10.00" fill="#000000">Template</text>
</a>
</g>
</g>
<!-- baca.ViolinSoloScoreTemplate.ViolinSoloScoreTemplate -->
<g id="node8" class="node">
<title>baca.ViolinSoloScoreTemplate.ViolinSoloScoreTemplate</title>
<g id="a_node8"><a xlink:href="../api/baca/ViolinSoloScoreTemplate.html#baca.ViolinSoloScoreTemplate.ViolinSoloScoreTemplate" xlink:title="Violin\nSolo\nScore\nTemplate" target="_top">
<path fill="#ccebc5" stroke="#ccebc5" stroke-width="2" d="M519.2476,-297.9961C519.2476,-297.9961 495.0915,-297.9961 495.0915,-297.9961 489.0915,-297.9961 483.0915,-291.9961 483.0915,-285.9961 483.0915,-285.9961 483.0915,-256.0039 483.0915,-256.0039 483.0915,-250.0039 489.0915,-244.0039 495.0915,-244.0039 495.0915,-244.0039 519.2476,-244.0039 519.2476,-244.0039 525.2476,-244.0039 531.2476,-250.0039 531.2476,-256.0039 531.2476,-256.0039 531.2476,-285.9961 531.2476,-285.9961 531.2476,-291.9961 525.2476,-297.9961 519.2476,-297.9961"/>
<text text-anchor="middle" x="507.1696" y="-285.998" font-family="Arial" font-size="10.00" fill="#000000">Violin</text>
<text text-anchor="middle" x="507.1696" y="-274.499" font-family="Arial" font-size="10.00" fill="#000000">Solo</text>
<text text-anchor="middle" x="507.1696" y="-263" font-family="Arial" font-size="10.00" fill="#000000">Score</text>
<text text-anchor="middle" x="507.1696" y="-251.501" font-family="Arial" font-size="10.00" fill="#000000">Template</text>
</a>
</g>
</g>
<!-- builtins.object -->
<g id="node9" class="node">
<title>builtins.object</title>
<g id="a_node9"><a xlink:href="https://docs.python.org/3.6/library/functions.html#object" xlink:title="object" target="_top">
<path fill="#decbe4" stroke="#decbe4" stroke-width="2" d="M43.8579,-164.0056C43.8579,-164.0056 22.8267,-164.0056 22.8267,-164.0056 19.4915,-164.0056 16.1563,-160.6704 16.1563,-157.3352 16.1563,-157.3352 16.1563,-150.6648 16.1563,-150.6648 16.1563,-147.3296 19.4915,-143.9944 22.8267,-143.9944 22.8267,-143.9944 43.8579,-143.9944 43.8579,-143.9944 47.1931,-143.9944 50.5283,-147.3296 50.5283,-150.6648 50.5283,-150.6648 50.5283,-157.3352 50.5283,-157.3352 50.5283,-160.6704 47.1931,-164.0056 43.8579,-164.0056"/>
<text text-anchor="middle" x="33.3423" y="-151.7495" font-family="Arial" font-size="10.00" fill="#000000">object</text>
</a>
</g>
</g>
</g>
</svg>
