<?xml version="1.0" encoding="UTF-8" standalone="no"?>
<!DOCTYPE svg PUBLIC "-//W3C//DTD SVG 1.1//EN"
 "http://www.w3.org/Graphics/SVG/1.1/DTD/svg11.dtd">
<!-- Generated by graphviz version 2.40.1 (20161225.0304)
 -->
<!-- Title: InheritanceGraph Pages: 1 -->
<svg width="441pt" height="113pt"
 viewBox="0.00 0.00 441.39 113.00" xmlns="http://www.w3.org/2000/svg" xmlns:xlink="http://www.w3.org/1999/xlink">
<g id="graph0" class="graph" transform="scale(1 1) rotate(0) translate(4 109)">
<title>InheritanceGraph</title>
<g id="clust1" class="cluster">
<title>cluster_abjad.rhythmmakertools</title>
<path fill="transparent" stroke="#bcd2ee" stroke-width="2" stroke-dasharray="5,2" d="M236.4873,-20C236.4873,-20 334.9404,-20 334.9404,-20 340.9404,-20 346.9404,-26 346.9404,-32 346.9404,-32 346.9404,-74 346.9404,-74 346.9404,-80 340.9404,-86 334.9404,-86 334.9404,-86 236.4873,-86 236.4873,-86 230.4873,-86 224.4873,-80 224.4873,-74 224.4873,-74 224.4873,-32 224.4873,-32 224.4873,-26 230.4873,-20 236.4873,-20"/>
<text text-anchor="middle" x="285.7139" y="-74" font-family="Arial" font-size="10.00" fill="#000000">abjad.rhythmmakertools</text>
</g>
<g id="clust2" class="cluster">
<title>cluster_abjad.tools.abctools</title>
<path fill="transparent" stroke="#bcd2ee" stroke-width="2" stroke-dasharray="5,2" d="M90.6846,-14C90.6846,-14 192.4873,-14 192.4873,-14 198.4873,-14 204.4873,-20 204.4873,-26 204.4873,-26 204.4873,-80 204.4873,-80 204.4873,-86 198.4873,-92 192.4873,-92 192.4873,-92 90.6846,-92 90.6846,-92 84.6846,-92 78.6846,-86 78.6846,-80 78.6846,-80 78.6846,-26 78.6846,-26 78.6846,-20 84.6846,-14 90.6846,-14"/>
<text text-anchor="middle" x="141.5859" y="-80" font-family="Arial" font-size="10.00" fill="#000000">abjad.tools.abctools</text>
</g>
<g id="clust4" class="cluster">
<title>cluster_builtins</title>
<path fill="transparent" stroke="#bcd2ee" stroke-width="2" stroke-dasharray="5,2" d="M20,-25C20,-25 46.6846,-25 46.6846,-25 52.6846,-25 58.6846,-31 58.6846,-37 58.6846,-37 58.6846,-68 58.6846,-68 58.6846,-74 52.6846,-80 46.6846,-80 46.6846,-80 20,-80 20,-80 14,-80 8,-74 8,-68 8,-68 8,-37 8,-37 8,-31 14,-25 20,-25"/>
<text text-anchor="middle" x="33.3423" y="-68" font-family="Arial" font-size="10.00" fill="#000000">builtins</text>
</g>
<g id="clust3" class="cluster">
<title>cluster_baca</title>
<path fill="transparent" stroke="#bcd2ee" stroke-width="2" stroke-dasharray="5,2" d="M378.9404,-8C378.9404,-8 413.3936,-8 413.3936,-8 419.3936,-8 425.3936,-14 425.3936,-20 425.3936,-20 425.3936,-85 425.3936,-85 425.3936,-91 419.3936,-97 413.3936,-97 413.3936,-97 378.9404,-97 378.9404,-97 372.9404,-97 366.9404,-91 366.9404,-85 366.9404,-85 366.9404,-20 366.9404,-20 366.9404,-14 372.9404,-8 378.9404,-8"/>
<text text-anchor="middle" x="396.167" y="-85" font-family="Arial" font-size="10.00" fill="#000000">baca</text>
</g>
<!-- abjad.rhythmmakertools.RhythmMaker.RhythmMaker&#45;&gt;baca.PitchFirstRhythmMaker.PitchFirstRhythmMaker -->
<g id="edge2" class="edge">
<title>abjad.rhythmmakertools.RhythmMaker.RhythmMaker&#45;&gt;baca.PitchFirstRhythmMaker.PitchFirstRhythmMaker</title>
<path fill="none" stroke="#778899" d="M307.0103,-43C323.4366,-43 346.4014,-43 364.9098,-43"/>
<polygon fill="#778899" stroke="#778899" points="364.9359,-46.5001 374.9359,-43 364.9359,-39.5001 364.9359,-46.5001"/>
</g>
<!-- abjad.tools.abctools.AbjadObject.AbjadObject&#45;&gt;abjad.tools.abctools.AbjadValueObject.AbjadValueObject -->
<g id="edge1" class="edge">
<title>abjad.tools.abctools.AbjadObject.AbjadObject&#45;&gt;abjad.tools.abctools.AbjadValueObject.AbjadValueObject</title>
<path fill="none" stroke="#778899" d="M123.9092,-43C131.7073,-43 140.9297,-43 149.5315,-43"/>
<polygon fill="#778899" stroke="#778899" points="149.5787,-46.5001 159.5787,-43 149.5787,-39.5001 149.5787,-46.5001"/>
</g>
<!-- abjad.tools.abctools.AbjadValueObject.AbjadValueObject&#45;&gt;abjad.rhythmmakertools.RhythmMaker.RhythmMaker -->
<g id="edge3" class="edge">
<title>abjad.tools.abctools.AbjadValueObject.AbjadValueObject&#45;&gt;abjad.rhythmmakertools.RhythmMaker.RhythmMaker</title>
<path fill="none" stroke="#778899" d="M196.7926,-43C212.5811,-43 235.4993,-43 254.1142,-43"/>
<polygon fill="#778899" stroke="#778899" points="254.2149,-46.5001 264.2148,-43 254.2148,-39.5001 254.2149,-46.5001"/>
</g>
<!-- builtins.object&#45;&gt;abjad.tools.abctools.AbjadObject.AbjadObject -->
<g id="edge4" class="edge">
<title>builtins.object&#45;&gt;abjad.tools.abctools.AbjadObject.AbjadObject</title>
<path fill="none" stroke="#778899" d="M50.7214,-43C58.4511,-43 67.7584,-43 76.4724,-43"/>
<polygon fill="#778899" stroke="#778899" points="76.6614,-46.5001 86.6614,-43 76.6613,-39.5001 76.6614,-46.5001"/>
</g>
<!-- abjad.rhythmmakertools.RhythmMaker.RhythmMaker -->
<g id="node1" class="node">
<title>abjad.rhythmmakertools.RhythmMaker.RhythmMaker</title>
<path fill="#fbb4ae" stroke="#fbb4ae" stroke-width="2" d="M296.8374,-58.498C296.8374,-58.498 274.5903,-58.498 274.5903,-58.498 269.4243,-58.498 264.2583,-53.332 264.2583,-48.166 264.2583,-48.166 264.2583,-37.834 264.2583,-37.834 264.2583,-32.668 269.4243,-27.502 274.5903,-27.502 274.5903,-27.502 296.8374,-27.502 296.8374,-27.502 302.0034,-27.502 307.1694,-32.668 307.1694,-37.834 307.1694,-37.834 307.1694,-48.166 307.1694,-48.166 307.1694,-53.332 302.0034,-58.498 296.8374,-58.498"/>
<text text-anchor="middle" x="285.7139" y="-46.499" font-family="Arial" font-size="10.00" fill="#000000">Rhythm</text>
<text text-anchor="middle" x="285.7139" y="-35" font-family="Arial" font-size="10.00" fill="#000000">Maker</text>
</g>
<!-- abjad.tools.abctools.AbjadObject.AbjadObject -->
<g id="node2" class="node">
<title>abjad.tools.abctools.AbjadObject.AbjadObject</title>
<path fill="#b3cde3" stroke="#b3cde3" stroke-width="2" d="M113.2047,-58.498C113.2047,-58.498 97.0658,-58.498 97.0658,-58.498 91.8998,-58.498 86.7338,-53.332 86.7338,-48.166 86.7338,-48.166 86.7338,-37.834 86.7338,-37.834 86.7338,-32.668 91.8998,-27.502 97.0658,-27.502 97.0658,-27.502 113.2047,-27.502 113.2047,-27.502 118.3707,-27.502 123.5368,-32.668 123.5368,-37.834 123.5368,-37.834 123.5368,-48.166 123.5368,-48.166 123.5368,-53.332 118.3707,-58.498 113.2047,-58.498"/>
<text text-anchor="middle" x="105.1353" y="-46.499" font-family="Arial" font-size="10.00" fill="#000000">Abjad</text>
<text text-anchor="middle" x="105.1353" y="-35" font-family="Arial" font-size="10.00" fill="#000000">Object</text>
</g>
<!-- abjad.tools.abctools.AbjadValueObject.AbjadValueObject -->
<g id="node3" class="node">
<title>abjad.tools.abctools.AbjadValueObject.AbjadValueObject</title>
<path fill="#b3cde3" stroke="#b3cde3" stroke-width="2" d="M184.4381,-64.5C184.4381,-64.5 171.6351,-64.5 171.6351,-64.5 165.6351,-64.5 159.6351,-58.5 159.6351,-52.5 159.6351,-52.5 159.6351,-33.5 159.6351,-33.5 159.6351,-27.5 165.6351,-21.5 171.6351,-21.5 171.6351,-21.5 184.4381,-21.5 184.4381,-21.5 190.4381,-21.5 196.4381,-27.5 196.4381,-33.5 196.4381,-33.5 196.4381,-52.5 196.4381,-52.5 196.4381,-58.5 190.4381,-64.5 184.4381,-64.5"/>
<text text-anchor="middle" x="178.0366" y="-52.2485" font-family="Arial" font-size="10.00" fill="#000000">Abjad</text>
<text text-anchor="middle" x="178.0366" y="-40.7495" font-family="Arial" font-size="10.00" fill="#000000">Value</text>
<text text-anchor="middle" x="178.0366" y="-29.2505" font-family="Arial" font-size="10.00" fill="#000000">Object</text>
</g>
<!-- baca.PitchFirstRhythmMaker.PitchFirstRhythmMaker -->
<g id="node4" class="node">
<title>baca.PitchFirstRhythmMaker.PitchFirstRhythmMaker</title>
<g id="a_node4"><a xlink:href="../api/baca/PitchFirstRhythmMaker.html#baca.PitchFirstRhythmMaker.PitchFirstRhythmMaker" xlink:title="Pitch\nFirst\nRhythm\nMaker" target="_top">
<path fill="#000000" stroke="#000000" stroke-width="2" d="M405.6226,-69.9961C405.6226,-69.9961 386.7114,-69.9961 386.7114,-69.9961 380.7114,-69.9961 374.7114,-63.9961 374.7114,-57.9961 374.7114,-57.9961 374.7114,-28.0039 374.7114,-28.0039 374.7114,-22.0039 380.7114,-16.0039 386.7114,-16.0039 386.7114,-16.0039 405.6226,-16.0039 405.6226,-16.0039 411.6226,-16.0039 417.6226,-22.0039 417.6226,-28.0039 417.6226,-28.0039 417.6226,-57.9961 417.6226,-57.9961 417.6226,-63.9961 411.6226,-69.9961 405.6226,-69.9961"/>
<text text-anchor="middle" x="396.167" y="-57.998" font-family="Arial" font-size="10.00" fill="#ffffff">Pitch</text>
<text text-anchor="middle" x="396.167" y="-46.499" font-family="Arial" font-size="10.00" fill="#ffffff">First</text>
<text text-anchor="middle" x="396.167" y="-35" font-family="Arial" font-size="10.00" fill="#ffffff">Rhythm</text>
<text text-anchor="middle" x="396.167" y="-23.501" font-family="Arial" font-size="10.00" fill="#ffffff">Maker</text>
</a>
</g>
</g>
<!-- builtins.object -->
<g id="node5" class="node">
<title>builtins.object</title>
<g id="a_node5"><a xlink:href="https://docs.python.org/3.6/library/functions.html#object" xlink:title="object" target="_top">
<path fill="#decbe4" stroke="#decbe4" stroke-width="2" d="M43.8579,-53.0056C43.8579,-53.0056 22.8267,-53.0056 22.8267,-53.0056 19.4915,-53.0056 16.1563,-49.6704 16.1563,-46.3352 16.1563,-46.3352 16.1563,-39.6648 16.1563,-39.6648 16.1563,-36.3296 19.4915,-32.9944 22.8267,-32.9944 22.8267,-32.9944 43.8579,-32.9944 43.8579,-32.9944 47.1931,-32.9944 50.5283,-36.3296 50.5283,-39.6648 50.5283,-39.6648 50.5283,-46.3352 50.5283,-46.3352 50.5283,-49.6704 47.1931,-53.0056 43.8579,-53.0056"/>
<text text-anchor="middle" x="33.3423" y="-40.7495" font-family="Arial" font-size="10.00" fill="#000000">object</text>
</a>
</g>
</g>
</g>
</svg>
