<?xml version="1.0" encoding="UTF-8" standalone="no"?>
<!DOCTYPE svg PUBLIC "-//W3C//DTD SVG 1.1//EN"
 "http://www.w3.org/Graphics/SVG/1.1/DTD/svg11.dtd">
<!-- Generated by graphviz version 2.40.1 (20161225.0304)
 -->
<!-- Title: InheritanceGraph Pages: 1 -->
<svg width="670pt" height="253pt"
 viewBox="0.00 0.00 670.36 253.00" xmlns="http://www.w3.org/2000/svg" xmlns:xlink="http://www.w3.org/1999/xlink">
<g id="graph0" class="graph" transform="scale(1 1) rotate(0) translate(4 249)">
<title>InheritanceGraph</title>
<g id="clust1" class="cluster">
<title>cluster_abjad.tools.abctools</title>
<path fill="transparent" stroke="#bcd2ee" stroke-width="2" stroke-dasharray="5,2" d="M90.5504,-8C90.5504,-8 170.4518,-8 170.4518,-8 176.4518,-8 182.4518,-14 182.4518,-20 182.4518,-20 182.4518,-62 182.4518,-62 182.4518,-68 176.4518,-74 170.4518,-74 170.4518,-74 90.5504,-74 90.5504,-74 84.5504,-74 78.5504,-68 78.5504,-62 78.5504,-62 78.5504,-20 78.5504,-20 78.5504,-14 84.5504,-8 90.5504,-8"/>
<text text-anchor="middle" x="130.5011" y="-62" font-family="Arial" font-size="10.00" fill="#000000">abjad.tools.abctools</text>
</g>
<g id="clust2" class="cluster">
<title>cluster_abjad.tools.datastructuretools</title>
<path fill="transparent" stroke="#bcd2ee" stroke-width="2" stroke-dasharray="5,2" d="M447.4491,-67C447.4491,-67 569.1142,-67 569.1142,-67 575.1142,-67 581.1142,-73 581.1142,-79 581.1142,-79 581.1142,-121 581.1142,-121 581.1142,-127 575.1142,-133 569.1142,-133 569.1142,-133 447.4491,-133 447.4491,-133 441.4491,-133 435.4491,-127 435.4491,-121 435.4491,-121 435.4491,-79 435.4491,-79 435.4491,-73 441.4491,-67 447.4491,-67"/>
<text text-anchor="middle" x="508.2816" y="-121" font-family="Arial" font-size="10.00" fill="#000000">abjad.tools.datastructuretools</text>
</g>
<g id="clust3" class="cluster">
<title>cluster_baca.tools</title>
<path fill="transparent" stroke="#bcd2ee" stroke-width="2" stroke-dasharray="5,2" d="M613.1142,-72C613.1142,-72 650.3603,-72 650.3603,-72 656.3603,-72 662.3603,-78 662.3603,-84 662.3603,-84 662.3603,-115 662.3603,-115 662.3603,-121 656.3603,-127 650.3603,-127 650.3603,-127 613.1142,-127 613.1142,-127 607.1142,-127 601.1142,-121 601.1142,-115 601.1142,-115 601.1142,-84 601.1142,-84 601.1142,-78 607.1142,-72 613.1142,-72"/>
<text text-anchor="middle" x="631.7372" y="-115" font-family="Arial" font-size="10.00" fill="#000000">baca.tools</text>
</g>
<g id="clust4" class="cluster">
<title>cluster_builtins</title>
<path fill="transparent" stroke="#bcd2ee" stroke-width="2" stroke-dasharray="5,2" d="M20,-109C20,-109 46.6846,-109 46.6846,-109 52.6846,-109 58.6846,-115 58.6846,-121 58.6846,-121 58.6846,-152 58.6846,-152 58.6846,-158 52.6846,-164 46.6846,-164 46.6846,-164 20,-164 20,-164 14,-164 8,-158 8,-152 8,-152 8,-121 8,-121 8,-115 14,-109 20,-109"/>
<text text-anchor="middle" x="33.3423" y="-152" font-family="Arial" font-size="10.00" fill="#000000">builtins</text>
</g>
<g id="clust5" class="cluster">
<title>cluster_collections.abc</title>
<path fill="transparent" stroke="#bcd2ee" stroke-width="2" stroke-dasharray="5,2" d="M97.6846,-82C97.6846,-82 403.4491,-82 403.4491,-82 409.4491,-82 415.4491,-88 415.4491,-94 415.4491,-94 415.4491,-225 415.4491,-225 415.4491,-231 409.4491,-237 403.4491,-237 403.4491,-237 97.6846,-237 97.6846,-237 91.6846,-237 85.6846,-231 85.6846,-225 85.6846,-225 85.6846,-94 85.6846,-94 85.6846,-88 91.6846,-82 97.6846,-82"/>
<text text-anchor="middle" x="250.5668" y="-225" font-family="Arial" font-size="10.00" fill="#000000">collections.abc</text>
</g>
<!-- abjad.tools.abctools.AbjadObject.AbjadObject&#45;&gt;abjad.tools.datastructuretools.CyclicTuple.CyclicTuple -->
<g id="edge7" class="edge">
<title>abjad.tools.abctools.AbjadObject.AbjadObject&#45;&gt;abjad.tools.datastructuretools.CyclicTuple.CyclicTuple</title>
<path fill="none" stroke="#778899" d="M148.478,-33.8856C209.7717,-43.4582 406.6482,-74.2055 479.9432,-85.6523"/>
<polygon fill="#778899" stroke="#778899" points="479.7985,-89.1721 490.2189,-87.2571 480.8787,-82.2559 479.7985,-89.1721"/>
</g>
<!-- abjad.tools.datastructuretools.CyclicTuple.CyclicTuple&#45;&gt;baca.tools.Loop.Loop -->
<g id="edge8" class="edge">
<title>abjad.tools.datastructuretools.CyclicTuple.CyclicTuple&#45;&gt;baca.tools.Loop.Loop</title>
<path fill="none" stroke="#778899" d="M525.208,-90C546.1884,-90 581.6002,-90 605.6745,-90"/>
<polygon fill="#778899" stroke="#778899" points="605.8453,-93.5001 615.8453,-90 605.8452,-86.5001 605.8453,-93.5001"/>
</g>
<!-- builtins.object&#45;&gt;abjad.tools.abctools.AbjadObject.AbjadObject -->
<g id="edge9" class="edge">
<title>builtins.object&#45;&gt;abjad.tools.abctools.AbjadObject.AbjadObject</title>
<path fill="none" stroke="#778899" d="M42.1083,-117.0069C51.0454,-106.9376 65.423,-91.0626 78.5504,-78 86.7391,-69.8517 95.977,-61.2433 104.3423,-53.6515"/>
<polygon fill="#778899" stroke="#778899" points="106.9394,-56.0229 112.0324,-46.7325 102.2574,-50.8191 106.9394,-56.0229"/>
</g>
<!-- builtins.object&#45;&gt;collections.abc.Container -->
<g id="edge10" class="edge">
<title>builtins.object&#45;&gt;collections.abc.Container</title>
<path fill="none" stroke="#778899" d="M50.623,-131.1119C61.3543,-133.6655 75.6276,-137.0618 89.1096,-140.2699"/>
<polygon fill="#778899" stroke="#778899" points="88.6549,-143.7593 99.1935,-142.6693 90.2753,-136.9494 88.6549,-143.7593"/>
</g>
<!-- builtins.object&#45;&gt;collections.abc.Iterable -->
<g id="edge11" class="edge">
<title>builtins.object&#45;&gt;collections.abc.Iterable</title>
<path fill="none" stroke="#778899" d="M41.1264,-136.8649C49.5069,-146.9782 63.6536,-162.6496 78.5504,-173 84.273,-176.9761 90.7935,-180.5199 97.2252,-183.5643"/>
<polygon fill="#778899" stroke="#778899" points="95.9202,-186.8142 106.4813,-187.6595 98.7525,-180.4127 95.9202,-186.8142"/>
</g>
<!-- builtins.object&#45;&gt;collections.abc.Sized -->
<g id="edge12" class="edge">
<title>builtins.object&#45;&gt;collections.abc.Sized</title>
<path fill="none" stroke="#778899" d="M50.623,-122.8881C63.8081,-119.7507 82.34,-115.341 98.1819,-111.5714"/>
<polygon fill="#778899" stroke="#778899" points="99.2024,-114.9264 108.1206,-109.2065 97.582,-108.1165 99.2024,-114.9264"/>
</g>
<!-- collections.abc.Collection&#45;&gt;collections.abc.Sequence -->
<g id="edge1" class="edge">
<title>collections.abc.Collection&#45;&gt;collections.abc.Sequence</title>
<path fill="none" stroke="#778899" d="M294.2374,-150C303.0888,-150 312.6708,-150 321.9459,-150"/>
<polygon fill="#778899" stroke="#778899" points="322.2322,-153.5001 332.2322,-150 322.2321,-146.5001 322.2322,-153.5001"/>
</g>
<!-- collections.abc.Container&#45;&gt;collections.abc.Collection -->
<g id="edge2" class="edge">
<title>collections.abc.Container&#45;&gt;collections.abc.Collection</title>
<path fill="none" stroke="#778899" d="M166.5026,-150C180.1087,-150 195.7528,-150 210.1836,-150"/>
<polygon fill="#778899" stroke="#778899" points="210.4306,-153.5001 220.4306,-150 210.4305,-146.5001 210.4306,-153.5001"/>
</g>
<!-- collections.abc.Iterable&#45;&gt;collections.abc.Collection -->
<g id="edge3" class="edge">
<title>collections.abc.Iterable&#45;&gt;collections.abc.Collection</title>
<path fill="none" stroke="#778899" d="M153.3642,-187.5629C172.2983,-180.7252 199.3102,-170.9704 221.0618,-163.1153"/>
<polygon fill="#778899" stroke="#778899" points="222.4211,-166.3457 230.6377,-159.6571 220.0434,-159.7619 222.4211,-166.3457"/>
</g>
<!-- collections.abc.Iterable&#45;&gt;collections.abc.Reversible -->
<g id="edge4" class="edge">
<title>collections.abc.Iterable&#45;&gt;collections.abc.Reversible</title>
<path fill="none" stroke="#778899" d="M159.5444,-196C173.7723,-196 191.228,-196 207.4365,-196"/>
<polygon fill="#778899" stroke="#778899" points="207.8613,-199.5001 217.8612,-196 207.8612,-192.5001 207.8613,-199.5001"/>
</g>
<!-- collections.abc.Reversible&#45;&gt;collections.abc.Sequence -->
<g id="edge5" class="edge">
<title>collections.abc.Reversible&#45;&gt;collections.abc.Sequence</title>
<path fill="none" stroke="#778899" d="M282.922,-185.5619C298.3217,-179.2688 318.1504,-171.1658 334.9898,-164.2844"/>
<polygon fill="#778899" stroke="#778899" points="336.5701,-167.4196 344.503,-160.3968 333.9221,-160.9398 336.5701,-167.4196"/>
</g>
<!-- collections.abc.Sequence&#45;&gt;abjad.tools.datastructuretools.CyclicTuple.CyclicTuple -->
<g id="edge13" class="edge">
<title>collections.abc.Sequence&#45;&gt;abjad.tools.datastructuretools.CyclicTuple.CyclicTuple</title>
<path fill="none" stroke="#778899" d="M394.27,-139.4113C418.5594,-128.8382 455.7995,-112.6277 480.9392,-101.6844"/>
<polygon fill="#778899" stroke="#778899" points="482.4804,-104.8309 490.2524,-97.6304 479.6865,-98.4126 482.4804,-104.8309"/>
</g>
<!-- collections.abc.Sized&#45;&gt;collections.abc.Collection -->
<g id="edge6" class="edge">
<title>collections.abc.Sized&#45;&gt;collections.abc.Collection</title>
<path fill="none" stroke="#778899" d="M150.1846,-111.2888C169.2129,-118.1605 198.1659,-128.6164 221.187,-136.9299"/>
<polygon fill="#778899" stroke="#778899" points="220.0495,-140.2403 230.6438,-140.3451 222.4271,-133.6565 220.0495,-140.2403"/>
</g>
<!-- abjad.tools.abctools.AbjadObject.AbjadObject -->
<g id="node1" class="node">
<title>abjad.tools.abctools.AbjadObject.AbjadObject</title>
<path fill="#fbb4ae" stroke="#fbb4ae" stroke-width="2" d="M138.0706,-46.498C138.0706,-46.498 121.9317,-46.498 121.9317,-46.498 116.7656,-46.498 111.5996,-41.332 111.5996,-36.166 111.5996,-36.166 111.5996,-25.834 111.5996,-25.834 111.5996,-20.668 116.7656,-15.502 121.9317,-15.502 121.9317,-15.502 138.0706,-15.502 138.0706,-15.502 143.2366,-15.502 148.4026,-20.668 148.4026,-25.834 148.4026,-25.834 148.4026,-36.166 148.4026,-36.166 148.4026,-41.332 143.2366,-46.498 138.0706,-46.498"/>
<text text-anchor="middle" x="130.0011" y="-34.499" font-family="Arial" font-size="10.00" fill="#000000">Abjad</text>
<text text-anchor="middle" x="130.0011" y="-23" font-family="Arial" font-size="10.00" fill="#000000">Object</text>
</g>
<!-- abjad.tools.datastructuretools.CyclicTuple.CyclicTuple -->
<g id="node2" class="node">
<title>abjad.tools.datastructuretools.CyclicTuple.CyclicTuple</title>
<path fill="#b3cde3" stroke="#b3cde3" stroke-width="2" d="M514.6163,-105.498C514.6163,-105.498 500.947,-105.498 500.947,-105.498 495.781,-105.498 490.615,-100.332 490.615,-95.166 490.615,-95.166 490.615,-84.834 490.615,-84.834 490.615,-79.668 495.781,-74.502 500.947,-74.502 500.947,-74.502 514.6163,-74.502 514.6163,-74.502 519.7823,-74.502 524.9483,-79.668 524.9483,-84.834 524.9483,-84.834 524.9483,-95.166 524.9483,-95.166 524.9483,-100.332 519.7823,-105.498 514.6163,-105.498"/>
<text text-anchor="middle" x="507.7816" y="-93.499" font-family="Arial" font-size="10.00" fill="#000000">Cyclic</text>
<text text-anchor="middle" x="507.7816" y="-82" font-family="Arial" font-size="10.00" fill="#000000">Tuple</text>
</g>
<!-- baca.tools.Loop.Loop -->
<g id="node3" class="node">
<title>baca.tools.Loop.Loop</title>
<g id="a_node3"><a xlink:href="../api/baca/tools/Loop.html#baca.tools.Loop.Loop" xlink:title="Loop" target="_top">
<path fill="#000000" stroke="#000000" stroke-width="2" d="M639.8139,-100.0056C639.8139,-100.0056 622.6605,-100.0056 622.6605,-100.0056 619.3253,-100.0056 615.9901,-96.6704 615.9901,-93.3352 615.9901,-93.3352 615.9901,-86.6648 615.9901,-86.6648 615.9901,-83.3296 619.3253,-79.9944 622.6605,-79.9944 622.6605,-79.9944 639.8139,-79.9944 639.8139,-79.9944 643.1491,-79.9944 646.4843,-83.3296 646.4843,-86.6648 646.4843,-86.6648 646.4843,-93.3352 646.4843,-93.3352 646.4843,-96.6704 643.1491,-100.0056 639.8139,-100.0056"/>
<text text-anchor="middle" x="631.2372" y="-87.7495" font-family="Arial" font-size="10.00" fill="#ffffff">Loop</text>
</a>
</g>
</g>
<!-- builtins.object -->
<g id="node4" class="node">
<title>builtins.object</title>
<g id="a_node4"><a xlink:href="https://docs.python.org/3.6/library/functions.html#object" xlink:title="object" target="_top">
<path fill="#decbe4" stroke="#decbe4" stroke-width="2" d="M43.8579,-137.0056C43.8579,-137.0056 22.8267,-137.0056 22.8267,-137.0056 19.4915,-137.0056 16.1563,-133.6704 16.1563,-130.3352 16.1563,-130.3352 16.1563,-123.6648 16.1563,-123.6648 16.1563,-120.3296 19.4915,-116.9944 22.8267,-116.9944 22.8267,-116.9944 43.8579,-116.9944 43.8579,-116.9944 47.1931,-116.9944 50.5283,-120.3296 50.5283,-123.6648 50.5283,-123.6648 50.5283,-130.3352 50.5283,-130.3352 50.5283,-133.6704 47.1931,-137.0056 43.8579,-137.0056"/>
<text text-anchor="middle" x="33.3423" y="-124.7495" font-family="Arial" font-size="10.00" fill="#000000">object</text>
</a>
</g>
</g>
<!-- collections.abc.Collection -->
<g id="node5" class="node">
<title>collections.abc.Collection</title>
<g id="a_node5"><a xlink:href="https://docs.python.org/3.6/library/collections.abc.html#collections.abc.Collection" xlink:title="Collection" target="_top">
<ellipse fill="none" stroke="#fed9a6" stroke-width="2" cx="257.3791" cy="-150" rx="36.9146" ry="13.579"/>
<text text-anchor="middle" x="257.3791" y="-147.7495" font-family="Arial" font-size="10.00" fill="#000000">Collection</text>
</a>
</g>
</g>
<!-- collections.abc.Container -->
<g id="node6" class="node">
<title>collections.abc.Container</title>
<g id="a_node6"><a xlink:href="https://docs.python.org/3.6/library/collections.abc.html#collections.abc.Container" xlink:title="Container" target="_top">
<ellipse fill="none" stroke="#fed9a6" stroke-width="2" cx="130.0011" cy="-150" rx="36.134" ry="13.579"/>
<text text-anchor="middle" x="130.0011" y="-147.7495" font-family="Arial" font-size="10.00" fill="#000000">Container</text>
</a>
</g>
</g>
<!-- collections.abc.Iterable -->
<g id="node7" class="node">
<title>collections.abc.Iterable</title>
<g id="a_node7"><a xlink:href="https://docs.python.org/3.6/library/collections.abc.html#collections.abc.Iterable" xlink:title="Iterable" target="_top">
<ellipse fill="none" stroke="#fed9a6" stroke-width="2" cx="130.0011" cy="-196" rx="29.4861" ry="13.579"/>
<text text-anchor="middle" x="130.0011" y="-193.7495" font-family="Arial" font-size="10.00" fill="#000000">Iterable</text>
</a>
</g>
</g>
<!-- collections.abc.Reversible -->
<g id="node8" class="node">
<title>collections.abc.Reversible</title>
<g id="a_node8"><a xlink:href="https://docs.python.org/3.6/library/collections.abc.html#collections.abc.Reversible" xlink:title="Reversible" target="_top">
<ellipse fill="none" stroke="#fed9a6" stroke-width="2" cx="257.3791" cy="-196" rx="39.123" ry="13.579"/>
<text text-anchor="middle" x="257.3791" y="-193.7495" font-family="Arial" font-size="10.00" fill="#000000">Reversible</text>
</a>
</g>
</g>
<!-- collections.abc.Sequence -->
<g id="node9" class="node">
<title>collections.abc.Sequence</title>
<g id="a_node9"><a xlink:href="https://docs.python.org/3.6/library/collections.abc.html#collections.abc.Sequence" xlink:title="Sequence" target="_top">
<ellipse fill="none" stroke="#fed9a6" stroke-width="2" cx="369.9448" cy="-150" rx="37.5086" ry="13.579"/>
<text text-anchor="middle" x="369.9448" y="-147.7495" font-family="Arial" font-size="10.00" fill="#000000">Sequence</text>
</a>
</g>
</g>
<!-- collections.abc.Sized -->
<g id="node10" class="node">
<title>collections.abc.Sized</title>
<g id="a_node10"><a xlink:href="https://docs.python.org/3.6/library/collections.abc.html#collections.abc.Sized" xlink:title="Sized" target="_top">
<ellipse fill="none" stroke="#fed9a6" stroke-width="2" cx="130.0011" cy="-104" rx="23.1908" ry="13.579"/>
<text text-anchor="middle" x="130.0011" y="-101.7495" font-family="Arial" font-size="10.00" fill="#000000">Sized</text>
</a>
</g>
</g>
</g>
</svg>
