<?xml version="1.0" encoding="UTF-8" standalone="no"?>
<!DOCTYPE svg PUBLIC "-//W3C//DTD SVG 1.1//EN"
 "http://www.w3.org/Graphics/SVG/1.1/DTD/svg11.dtd">
<!-- Generated by graphviz version 2.40.1 (20161225.0304)
 -->
<!-- Title: InheritanceGraph Pages: 1 -->
<svg width="278pt" height="113pt"
 viewBox="0.00 0.00 277.50 113.00" xmlns="http://www.w3.org/2000/svg" xmlns:xlink="http://www.w3.org/1999/xlink">
<g id="graph0" class="graph" transform="scale(1 1) rotate(0) translate(4 109)">
<title>InheritanceGraph</title>
<g id="clust1" class="cluster">
<title>cluster_abjad.tools.abctools</title>
<path fill="transparent" stroke="#bcd2ee" stroke-width="2" stroke-dasharray="5,2" d="M90.6846,-20C90.6846,-20 170.5859,-20 170.5859,-20 176.5859,-20 182.5859,-26 182.5859,-32 182.5859,-32 182.5859,-74 182.5859,-74 182.5859,-80 176.5859,-86 170.5859,-86 170.5859,-86 90.6846,-86 90.6846,-86 84.6846,-86 78.6846,-80 78.6846,-74 78.6846,-74 78.6846,-32 78.6846,-32 78.6846,-26 84.6846,-20 90.6846,-20"/>
<text text-anchor="middle" x="130.6353" y="-74" font-family="Arial" font-size="10.00" fill="#000000">abjad.tools.abctools</text>
</g>
<g id="clust2" class="cluster">
<title>cluster_baca.tools</title>
<path fill="transparent" stroke="#bcd2ee" stroke-width="2" stroke-dasharray="5,2" d="M214.5859,-8C214.5859,-8 251.502,-8 251.502,-8 257.502,-8 263.502,-14 263.502,-20 263.502,-20 263.502,-85 263.502,-85 263.502,-91 257.502,-97 251.502,-97 251.502,-97 214.5859,-97 214.5859,-97 208.5859,-97 202.5859,-91 202.5859,-85 202.5859,-85 202.5859,-20 202.5859,-20 202.5859,-14 208.5859,-8 214.5859,-8"/>
<text text-anchor="middle" x="233.0439" y="-85" font-family="Arial" font-size="10.00" fill="#000000">baca.tools</text>
</g>
<g id="clust3" class="cluster">
<title>cluster_builtins</title>
<path fill="transparent" stroke="#bcd2ee" stroke-width="2" stroke-dasharray="5,2" d="M20,-25C20,-25 46.6846,-25 46.6846,-25 52.6846,-25 58.6846,-31 58.6846,-37 58.6846,-37 58.6846,-68 58.6846,-68 58.6846,-74 52.6846,-80 46.6846,-80 46.6846,-80 20,-80 20,-80 14,-80 8,-74 8,-68 8,-68 8,-37 8,-37 8,-31 14,-25 20,-25"/>
<text text-anchor="middle" x="33.3423" y="-68" font-family="Arial" font-size="10.00" fill="#000000">builtins</text>
</g>
<!-- abjad.tools.abctools.AbjadObject.AbjadObject&#45;&gt;baca.tools.ZaggedPitchClassMaker.ZaggedPitchClassMaker -->
<g id="edge1" class="edge">
<title>abjad.tools.abctools.AbjadObject.AbjadObject&#45;&gt;baca.tools.ZaggedPitchClassMaker.ZaggedPitchClassMaker</title>
<path fill="none" stroke="#778899" d="M148.9186,-43C163.5511,-43 184.1842,-43 201.2937,-43"/>
<polygon fill="#778899" stroke="#778899" points="201.4063,-46.5001 211.4063,-43 201.4063,-39.5001 201.4063,-46.5001"/>
</g>
<!-- builtins.object&#45;&gt;abjad.tools.abctools.AbjadObject.AbjadObject -->
<g id="edge2" class="edge">
<title>builtins.object&#45;&gt;abjad.tools.abctools.AbjadObject.AbjadObject</title>
<path fill="none" stroke="#778899" d="M50.6469,-43C64.7425,-43 84.9402,-43 101.4481,-43"/>
<polygon fill="#778899" stroke="#778899" points="101.6622,-46.5001 111.6621,-43 101.6621,-39.5001 101.6622,-46.5001"/>
</g>
<!-- abjad.tools.abctools.AbjadObject.AbjadObject -->
<g id="node1" class="node">
<title>abjad.tools.abctools.AbjadObject.AbjadObject</title>
<path fill="#fbb4ae" stroke="#fbb4ae" stroke-width="2" d="M138.2047,-58.498C138.2047,-58.498 122.0658,-58.498 122.0658,-58.498 116.8998,-58.498 111.7338,-53.332 111.7338,-48.166 111.7338,-48.166 111.7338,-37.834 111.7338,-37.834 111.7338,-32.668 116.8998,-27.502 122.0658,-27.502 122.0658,-27.502 138.2047,-27.502 138.2047,-27.502 143.3707,-27.502 148.5368,-32.668 148.5368,-37.834 148.5368,-37.834 148.5368,-48.166 148.5368,-48.166 148.5368,-53.332 143.3707,-58.498 138.2047,-58.498"/>
<text text-anchor="middle" x="130.1353" y="-46.499" font-family="Arial" font-size="10.00" fill="#000000">Abjad</text>
<text text-anchor="middle" x="130.1353" y="-35" font-family="Arial" font-size="10.00" fill="#000000">Object</text>
</g>
<!-- baca.tools.ZaggedPitchClassMaker.ZaggedPitchClassMaker -->
<g id="node2" class="node">
<title>baca.tools.ZaggedPitchClassMaker.ZaggedPitchClassMaker</title>
<g id="a_node2"><a xlink:href="../api/baca/tools/ZaggedPitchClassMaker.html#baca.tools.ZaggedPitchClassMaker.ZaggedPitchClassMaker" xlink:title="Zagged\nPitch\nClass\nMaker" target="_top">
<path fill="#000000" stroke="#000000" stroke-width="2" d="M241.46,-69.9961C241.46,-69.9961 223.6278,-69.9961 223.6278,-69.9961 217.6278,-69.9961 211.6278,-63.9961 211.6278,-57.9961 211.6278,-57.9961 211.6278,-28.0039 211.6278,-28.0039 211.6278,-22.0039 217.6278,-16.0039 223.6278,-16.0039 223.6278,-16.0039 241.46,-16.0039 241.46,-16.0039 247.46,-16.0039 253.46,-22.0039 253.46,-28.0039 253.46,-28.0039 253.46,-57.9961 253.46,-57.9961 253.46,-63.9961 247.46,-69.9961 241.46,-69.9961"/>
<text text-anchor="middle" x="232.5439" y="-57.998" font-family="Arial" font-size="10.00" fill="#ffffff">Zagged</text>
<text text-anchor="middle" x="232.5439" y="-46.499" font-family="Arial" font-size="10.00" fill="#ffffff">Pitch</text>
<text text-anchor="middle" x="232.5439" y="-35" font-family="Arial" font-size="10.00" fill="#ffffff">Class</text>
<text text-anchor="middle" x="232.5439" y="-23.501" font-family="Arial" font-size="10.00" fill="#ffffff">Maker</text>
</a>
</g>
</g>
<!-- builtins.object -->
<g id="node3" class="node">
<title>builtins.object</title>
<g id="a_node3"><a xlink:href="https://docs.python.org/3.6/library/functions.html#object" xlink:title="object" target="_top">
<path fill="#ccebc5" stroke="#ccebc5" stroke-width="2" d="M43.8579,-53.0056C43.8579,-53.0056 22.8267,-53.0056 22.8267,-53.0056 19.4915,-53.0056 16.1563,-49.6704 16.1563,-46.3352 16.1563,-46.3352 16.1563,-39.6648 16.1563,-39.6648 16.1563,-36.3296 19.4915,-32.9944 22.8267,-32.9944 22.8267,-32.9944 43.8579,-32.9944 43.8579,-32.9944 47.1931,-32.9944 50.5283,-36.3296 50.5283,-39.6648 50.5283,-39.6648 50.5283,-46.3352 50.5283,-46.3352 50.5283,-49.6704 47.1931,-53.0056 43.8579,-53.0056"/>
<text text-anchor="middle" x="33.3423" y="-40.7495" font-family="Arial" font-size="10.00" fill="#000000">object</text>
</a>
</g>
</g>
</g>
</svg>
