<?xml version="1.0" encoding="UTF-8" standalone="no"?>
<!DOCTYPE svg PUBLIC "-//W3C//DTD SVG 1.1//EN"
 "http://www.w3.org/Graphics/SVG/1.1/DTD/svg11.dtd">
<!-- Generated by graphviz version 2.40.1 (20161225.0304)
 -->
<!-- Title: InheritanceGraph Pages: 1 -->
<svg width="496pt" height="265pt"
 viewBox="0.00 0.00 496.36 265.00" xmlns="http://www.w3.org/2000/svg" xmlns:xlink="http://www.w3.org/1999/xlink">
<g id="graph0" class="graph" transform="scale(1 1) rotate(0) translate(4 261)">
<title>InheritanceGraph</title>
<g id="clust1" class="cluster">
<title>cluster_abjad.tools.abctools</title>
<path fill="transparent" stroke="#bcd2ee" stroke-width="2" stroke-dasharray="5,2" d="M108.5504,-171C108.5504,-171 248.8298,-171 248.8298,-171 254.8298,-171 260.8298,-177 260.8298,-183 260.8298,-183 260.8298,-237 260.8298,-237 260.8298,-243 254.8298,-249 248.8298,-249 248.8298,-249 108.5504,-249 108.5504,-249 102.5504,-249 96.5504,-243 96.5504,-237 96.5504,-237 96.5504,-183 96.5504,-183 96.5504,-177 102.5504,-171 108.5504,-171"/>
<text text-anchor="middle" x="178.6901" y="-237" font-family="Arial" font-size="10.00" fill="#000000">abjad.tools.abctools</text>
</g>
<g id="clust2" class="cluster">
<title>cluster_baca.tools</title>
<path fill="transparent" stroke="#bcd2ee" stroke-width="2" stroke-dasharray="5,2" d="M424.4491,-128C424.4491,-128 468.3603,-128 468.3603,-128 474.3603,-128 480.3603,-134 480.3603,-140 480.3603,-140 480.3603,-182 480.3603,-182 480.3603,-188 474.3603,-194 468.3603,-194 468.3603,-194 424.4491,-194 424.4491,-194 418.4491,-194 412.4491,-188 412.4491,-182 412.4491,-182 412.4491,-140 412.4491,-140 412.4491,-134 418.4491,-128 424.4491,-128"/>
<text text-anchor="middle" x="446.4047" y="-182" font-family="Arial" font-size="10.00" fill="#000000">baca.tools</text>
</g>
<g id="clust3" class="cluster">
<title>cluster_builtins</title>
<path fill="transparent" stroke="#bcd2ee" stroke-width="2" stroke-dasharray="5,2" d="M20,-81C20,-81 46.6846,-81 46.6846,-81 52.6846,-81 58.6846,-87 58.6846,-93 58.6846,-93 58.6846,-124 58.6846,-124 58.6846,-130 52.6846,-136 46.6846,-136 46.6846,-136 20,-136 20,-136 14,-136 8,-130 8,-124 8,-124 8,-93 8,-93 8,-87 14,-81 20,-81"/>
<text text-anchor="middle" x="33.3423" y="-124" font-family="Arial" font-size="10.00" fill="#000000">builtins</text>
</g>
<g id="clust4" class="cluster">
<title>cluster_collections.abc</title>
<path fill="transparent" stroke="#bcd2ee" stroke-width="2" stroke-dasharray="5,2" d="M90.6846,-8C90.6846,-8 380.4491,-8 380.4491,-8 386.4491,-8 392.4491,-14 392.4491,-20 392.4491,-20 392.4491,-151 392.4491,-151 392.4491,-157 386.4491,-163 380.4491,-163 380.4491,-163 90.6846,-163 90.6846,-163 84.6846,-163 78.6846,-157 78.6846,-151 78.6846,-151 78.6846,-20 78.6846,-20 78.6846,-14 84.6846,-8 90.6846,-8"/>
<text text-anchor="middle" x="235.5668" y="-151" font-family="Arial" font-size="10.00" fill="#000000">collections.abc</text>
</g>
<!-- abjad.tools.abctools.AbjadObject.AbjadObject&#45;&gt;abjad.tools.abctools.AbjadValueObject.AbjadValueObject -->
<g id="edge1" class="edge">
<title>abjad.tools.abctools.AbjadObject.AbjadObject&#45;&gt;abjad.tools.abctools.AbjadValueObject.AbjadValueObject</title>
<path fill="none" stroke="#778899" d="M141.6433,-197.5021C159.0709,-197.9716 185.3574,-198.6796 205.4989,-199.2221"/>
<polygon fill="#778899" stroke="#778899" points="205.5855,-202.7256 215.6761,-199.4962 205.774,-195.7281 205.5855,-202.7256"/>
</g>
<!-- abjad.tools.abctools.AbjadValueObject.AbjadValueObject&#45;&gt;baca.tools.CollectionList.CollectionList -->
<g id="edge8" class="edge">
<title>abjad.tools.abctools.AbjadValueObject.AbjadValueObject&#45;&gt;baca.tools.CollectionList.CollectionList</title>
<path fill="none" stroke="#778899" d="M252.9873,-196.6307C282.6553,-191.1433 342.432,-179.6142 392.4491,-167 398.3362,-165.5153 404.5444,-163.8086 410.5709,-162.0752"/>
<polygon fill="#778899" stroke="#778899" points="411.8477,-165.348 420.4529,-159.1673 409.8716,-158.6327 411.8477,-165.348"/>
</g>
<!-- builtins.object&#45;&gt;abjad.tools.abctools.AbjadObject.AbjadObject -->
<g id="edge9" class="edge">
<title>builtins.object&#45;&gt;abjad.tools.abctools.AbjadObject.AbjadObject</title>
<path fill="none" stroke="#778899" d="M38.4487,-109.1001C45.9184,-123.2037 60.8877,-149.0782 78.6846,-167 83.7869,-172.1381 89.89,-176.9283 95.9116,-181.1061"/>
<polygon fill="#778899" stroke="#778899" points="94.2653,-184.2116 104.5496,-186.7582 98.0981,-178.3541 94.2653,-184.2116"/>
</g>
<!-- builtins.object&#45;&gt;collections.abc.Container -->
<g id="edge10" class="edge">
<title>builtins.object&#45;&gt;collections.abc.Container</title>
<path fill="none" stroke="#778899" d="M50.6294,-94.5654C59.839,-92.2028 71.5807,-89.1908 82.9136,-86.2836"/>
<polygon fill="#778899" stroke="#778899" points="83.877,-89.6498 92.6936,-83.7747 82.1375,-82.8694 83.877,-89.6498"/>
</g>
<!-- builtins.object&#45;&gt;collections.abc.Iterable -->
<g id="edge11" class="edge">
<title>builtins.object&#45;&gt;collections.abc.Iterable</title>
<path fill="none" stroke="#778899" d="M50.6294,-103.4346C61.0691,-106.1127 74.7623,-109.6254 87.4255,-112.8739"/>
<polygon fill="#778899" stroke="#778899" points="86.7224,-116.3068 97.2785,-115.4014 88.4618,-109.5263 86.7224,-116.3068"/>
</g>
<!-- builtins.object&#45;&gt;collections.abc.Sized -->
<g id="edge12" class="edge">
<title>builtins.object&#45;&gt;collections.abc.Sized</title>
<path fill="none" stroke="#778899" d="M41.5981,-88.9392C50.1447,-78.9579 64.2472,-63.6522 78.6846,-53 83.6893,-49.3074 89.3698,-45.878 94.9542,-42.8542"/>
<polygon fill="#778899" stroke="#778899" points="96.8093,-45.837 104.1253,-38.1737 93.6272,-39.602 96.8093,-45.837"/>
</g>
<!-- collections.abc.Collection&#45;&gt;collections.abc.Sequence -->
<g id="edge2" class="edge">
<title>collections.abc.Collection&#45;&gt;collections.abc.Sequence</title>
<path fill="none" stroke="#778899" d="M259.3611,-86.2089C274.8464,-92.537 294.967,-100.7592 312.0174,-107.7269"/>
<polygon fill="#778899" stroke="#778899" points="311.0625,-111.1176 321.6435,-111.6606 313.7106,-104.6378 311.0625,-111.1176"/>
</g>
<!-- collections.abc.Container&#45;&gt;collections.abc.Collection -->
<g id="edge3" class="edge">
<title>collections.abc.Container&#45;&gt;collections.abc.Collection</title>
<path fill="none" stroke="#778899" d="M159.4705,-76C168.3207,-76 177.9091,-76 187.1764,-76"/>
<polygon fill="#778899" stroke="#778899" points="187.4466,-79.5001 197.4466,-76 187.4465,-72.5001 187.4466,-79.5001"/>
</g>
<!-- collections.abc.Iterable&#45;&gt;collections.abc.Collection -->
<g id="edge4" class="edge">
<title>collections.abc.Iterable&#45;&gt;collections.abc.Collection</title>
<path fill="none" stroke="#778899" d="M145.0058,-112.9119C160.6251,-106.461 181.9072,-97.6713 199.7854,-90.2875"/>
<polygon fill="#778899" stroke="#778899" points="201.4033,-93.4061 209.31,-86.3538 198.7312,-86.9362 201.4033,-93.4061"/>
</g>
<!-- collections.abc.Iterable&#45;&gt;collections.abc.Reversible -->
<g id="edge5" class="edge">
<title>collections.abc.Iterable&#45;&gt;collections.abc.Reversible</title>
<path fill="none" stroke="#778899" d="M152.2644,-122C162.331,-122 173.8973,-122 185.1115,-122"/>
<polygon fill="#778899" stroke="#778899" points="185.2583,-125.5001 195.2582,-122 185.2582,-118.5001 185.2583,-125.5001"/>
</g>
<!-- collections.abc.Reversible&#45;&gt;collections.abc.Sequence -->
<g id="edge6" class="edge">
<title>collections.abc.Reversible&#45;&gt;collections.abc.Sequence</title>
<path fill="none" stroke="#778899" d="M273.7492,-122C281.9525,-122 290.6843,-122 299.1535,-122"/>
<polygon fill="#778899" stroke="#778899" points="299.3007,-125.5001 309.3007,-122 299.3007,-118.5001 299.3007,-125.5001"/>
</g>
<!-- collections.abc.Sequence&#45;&gt;baca.tools.CollectionList.CollectionList -->
<g id="edge13" class="edge">
<title>collections.abc.Sequence&#45;&gt;baca.tools.CollectionList.CollectionList</title>
<path fill="none" stroke="#778899" d="M376.5168,-130.6224C387.214,-133.7415 399.4092,-137.2973 410.5851,-140.5559"/>
<polygon fill="#778899" stroke="#778899" points="409.9099,-144.0047 420.4899,-143.4439 411.8694,-137.2845 409.9099,-144.0047"/>
</g>
<!-- collections.abc.Sized&#45;&gt;collections.abc.Collection -->
<g id="edge7" class="edge">
<title>collections.abc.Sized&#45;&gt;collections.abc.Collection</title>
<path fill="none" stroke="#778899" d="M142.1477,-37.9077C158.1098,-44.5002 181.2433,-54.0545 200.3483,-61.945"/>
<polygon fill="#778899" stroke="#778899" points="199.0538,-65.1971 209.6327,-65.7795 201.726,-58.7272 199.0538,-65.1971"/>
</g>
<!-- abjad.tools.abctools.AbjadObject.AbjadObject -->
<g id="node1" class="node">
<title>abjad.tools.abctools.AbjadObject.AbjadObject</title>
<path fill="#fbb4ae" stroke="#fbb4ae" stroke-width="2" d="M131.0706,-212.498C131.0706,-212.498 114.9317,-212.498 114.9317,-212.498 109.7656,-212.498 104.5996,-207.332 104.5996,-202.166 104.5996,-202.166 104.5996,-191.834 104.5996,-191.834 104.5996,-186.668 109.7656,-181.502 114.9317,-181.502 114.9317,-181.502 131.0706,-181.502 131.0706,-181.502 136.2366,-181.502 141.4026,-186.668 141.4026,-191.834 141.4026,-191.834 141.4026,-202.166 141.4026,-202.166 141.4026,-207.332 136.2366,-212.498 131.0706,-212.498"/>
<text text-anchor="middle" x="123.0011" y="-200.499" font-family="Arial" font-size="10.00" fill="#000000">Abjad</text>
<text text-anchor="middle" x="123.0011" y="-189" font-family="Arial" font-size="10.00" fill="#000000">Object</text>
</g>
<!-- abjad.tools.abctools.AbjadValueObject.AbjadValueObject -->
<g id="node2" class="node">
<title>abjad.tools.abctools.AbjadValueObject.AbjadValueObject</title>
<path fill="#fbb4ae" stroke="#fbb4ae" stroke-width="2" d="M240.7806,-221.5C240.7806,-221.5 227.9776,-221.5 227.9776,-221.5 221.9776,-221.5 215.9776,-215.5 215.9776,-209.5 215.9776,-209.5 215.9776,-190.5 215.9776,-190.5 215.9776,-184.5 221.9776,-178.5 227.9776,-178.5 227.9776,-178.5 240.7806,-178.5 240.7806,-178.5 246.7806,-178.5 252.7806,-184.5 252.7806,-190.5 252.7806,-190.5 252.7806,-209.5 252.7806,-209.5 252.7806,-215.5 246.7806,-221.5 240.7806,-221.5"/>
<text text-anchor="middle" x="234.3791" y="-209.2485" font-family="Arial" font-size="10.00" fill="#000000">Abjad</text>
<text text-anchor="middle" x="234.3791" y="-197.7495" font-family="Arial" font-size="10.00" fill="#000000">Value</text>
<text text-anchor="middle" x="234.3791" y="-186.2505" font-family="Arial" font-size="10.00" fill="#000000">Object</text>
</g>
<!-- baca.tools.CollectionList.CollectionList -->
<g id="node3" class="node">
<title>baca.tools.CollectionList.CollectionList</title>
<g id="a_node3"><a xlink:href="../api/baca/tools/CollectionList.html#baca.tools.CollectionList.CollectionList" xlink:title="Collection\nList" target="_top">
<path fill="#000000" stroke="#000000" stroke-width="2" d="M461.9839,-166.498C461.9839,-166.498 430.8255,-166.498 430.8255,-166.498 425.6595,-166.498 420.4935,-161.332 420.4935,-156.166 420.4935,-156.166 420.4935,-145.834 420.4935,-145.834 420.4935,-140.668 425.6595,-135.502 430.8255,-135.502 430.8255,-135.502 461.9839,-135.502 461.9839,-135.502 467.1499,-135.502 472.3159,-140.668 472.3159,-145.834 472.3159,-145.834 472.3159,-156.166 472.3159,-156.166 472.3159,-161.332 467.1499,-166.498 461.9839,-166.498"/>
<text text-anchor="middle" x="446.4047" y="-154.499" font-family="Arial" font-size="10.00" fill="#ffffff">Collection</text>
<text text-anchor="middle" x="446.4047" y="-143" font-family="Arial" font-size="10.00" fill="#ffffff">List</text>
</a>
</g>
</g>
<!-- builtins.object -->
<g id="node4" class="node">
<title>builtins.object</title>
<g id="a_node4"><a xlink:href="https://docs.python.org/3.6/library/functions.html#object" xlink:title="object" target="_top">
<path fill="#ccebc5" stroke="#ccebc5" stroke-width="2" d="M43.8579,-109.0056C43.8579,-109.0056 22.8267,-109.0056 22.8267,-109.0056 19.4915,-109.0056 16.1563,-105.6704 16.1563,-102.3352 16.1563,-102.3352 16.1563,-95.6648 16.1563,-95.6648 16.1563,-92.3296 19.4915,-88.9944 22.8267,-88.9944 22.8267,-88.9944 43.8579,-88.9944 43.8579,-88.9944 47.1931,-88.9944 50.5283,-92.3296 50.5283,-95.6648 50.5283,-95.6648 50.5283,-102.3352 50.5283,-102.3352 50.5283,-105.6704 47.1931,-109.0056 43.8579,-109.0056"/>
<text text-anchor="middle" x="33.3423" y="-96.7495" font-family="Arial" font-size="10.00" fill="#000000">object</text>
</a>
</g>
</g>
<!-- collections.abc.Collection -->
<g id="node5" class="node">
<title>collections.abc.Collection</title>
<g id="a_node5"><a xlink:href="https://docs.python.org/3.6/library/collections.abc.html#collections.abc.Collection" xlink:title="Collection" target="_top">
<ellipse fill="none" stroke="#decbe4" stroke-width="2" cx="234.3791" cy="-76" rx="36.9146" ry="13.579"/>
<text text-anchor="middle" x="234.3791" y="-73.7495" font-family="Arial" font-size="10.00" fill="#000000">Collection</text>
</a>
</g>
</g>
<!-- collections.abc.Container -->
<g id="node6" class="node">
<title>collections.abc.Container</title>
<g id="a_node6"><a xlink:href="https://docs.python.org/3.6/library/collections.abc.html#collections.abc.Container" xlink:title="Container" target="_top">
<ellipse fill="none" stroke="#decbe4" stroke-width="2" cx="123.0011" cy="-76" rx="36.134" ry="13.579"/>
<text text-anchor="middle" x="123.0011" y="-73.7495" font-family="Arial" font-size="10.00" fill="#000000">Container</text>
</a>
</g>
</g>
<!-- collections.abc.Iterable -->
<g id="node7" class="node">
<title>collections.abc.Iterable</title>
<g id="a_node7"><a xlink:href="https://docs.python.org/3.6/library/collections.abc.html#collections.abc.Iterable" xlink:title="Iterable" target="_top">
<ellipse fill="none" stroke="#decbe4" stroke-width="2" cx="123.0011" cy="-122" rx="29.4861" ry="13.579"/>
<text text-anchor="middle" x="123.0011" y="-119.7495" font-family="Arial" font-size="10.00" fill="#000000">Iterable</text>
</a>
</g>
</g>
<!-- collections.abc.Reversible -->
<g id="node8" class="node">
<title>collections.abc.Reversible</title>
<g id="a_node8"><a xlink:href="https://docs.python.org/3.6/library/collections.abc.html#collections.abc.Reversible" xlink:title="Reversible" target="_top">
<ellipse fill="none" stroke="#decbe4" stroke-width="2" cx="234.3791" cy="-122" rx="39.123" ry="13.579"/>
<text text-anchor="middle" x="234.3791" y="-119.7495" font-family="Arial" font-size="10.00" fill="#000000">Reversible</text>
</a>
</g>
</g>
<!-- collections.abc.Sequence -->
<g id="node9" class="node">
<title>collections.abc.Sequence</title>
<g id="a_node9"><a xlink:href="https://docs.python.org/3.6/library/collections.abc.html#collections.abc.Sequence" xlink:title="Sequence" target="_top">
<ellipse fill="none" stroke="#decbe4" stroke-width="2" cx="346.9448" cy="-122" rx="37.5086" ry="13.579"/>
<text text-anchor="middle" x="346.9448" y="-119.7495" font-family="Arial" font-size="10.00" fill="#000000">Sequence</text>
</a>
</g>
</g>
<!-- collections.abc.Sized -->
<g id="node10" class="node">
<title>collections.abc.Sized</title>
<g id="a_node10"><a xlink:href="https://docs.python.org/3.6/library/collections.abc.html#collections.abc.Sized" xlink:title="Sized" target="_top">
<ellipse fill="none" stroke="#decbe4" stroke-width="2" cx="123.0011" cy="-30" rx="23.1908" ry="13.579"/>
<text text-anchor="middle" x="123.0011" y="-27.7495" font-family="Arial" font-size="10.00" fill="#000000">Sized</text>
</a>
</g>
</g>
</g>
</svg>
