<?xml version="1.0" encoding="UTF-8" standalone="no"?>
<!DOCTYPE svg PUBLIC "-//W3C//DTD SVG 1.1//EN"
 "http://www.w3.org/Graphics/SVG/1.1/DTD/svg11.dtd">
<!-- Generated by graphviz version 2.40.1 (20161225.0304)
 -->
<!-- Title: InheritanceGraph Pages: 1 -->
<svg width="429pt" height="90pt"
 viewBox="0.00 0.00 428.63 90.00" xmlns="http://www.w3.org/2000/svg" xmlns:xlink="http://www.w3.org/1999/xlink">
<g id="graph0" class="graph" transform="scale(1 1) rotate(0) translate(4 86)">
<title>InheritanceGraph</title>
<g id="clust1" class="cluster">
<title>cluster_abjad.tools.abctools</title>
<path fill="transparent" stroke="#bcd2ee" stroke-width="2" stroke-dasharray="5,2" d="M90.6846,-8C90.6846,-8 170.5859,-8 170.5859,-8 176.5859,-8 182.5859,-14 182.5859,-20 182.5859,-20 182.5859,-62 182.5859,-62 182.5859,-68 176.5859,-74 170.5859,-74 170.5859,-74 90.6846,-74 90.6846,-74 84.6846,-74 78.6846,-68 78.6846,-62 78.6846,-62 78.6846,-20 78.6846,-20 78.6846,-14 84.6846,-8 90.6846,-8"/>
<text text-anchor="middle" x="130.6353" y="-62" font-family="Arial" font-size="10.00" fill="#000000">abjad.tools.abctools</text>
</g>
<g id="clust2" class="cluster">
<title>cluster_abjad.tools.segmenttools</title>
<path fill="transparent" stroke="#bcd2ee" stroke-width="2" stroke-dasharray="5,2" d="M214.5859,-8C214.5859,-8 316.6104,-8 316.6104,-8 322.6104,-8 328.6104,-14 328.6104,-20 328.6104,-20 328.6104,-62 328.6104,-62 328.6104,-68 322.6104,-74 316.6104,-74 316.6104,-74 214.5859,-74 214.5859,-74 208.5859,-74 202.5859,-68 202.5859,-62 202.5859,-62 202.5859,-20 202.5859,-20 202.5859,-14 208.5859,-8 214.5859,-8"/>
<text text-anchor="middle" x="265.5981" y="-62" font-family="Arial" font-size="10.00" fill="#000000">abjad.tools.segmenttools</text>
</g>
<g id="clust3" class="cluster">
<title>cluster_baca</title>
<path fill="transparent" stroke="#bcd2ee" stroke-width="2" stroke-dasharray="5,2" d="M360.6104,-8C360.6104,-8 400.6348,-8 400.6348,-8 406.6348,-8 412.6348,-14 412.6348,-20 412.6348,-20 412.6348,-62 412.6348,-62 412.6348,-68 406.6348,-74 400.6348,-74 400.6348,-74 360.6104,-74 360.6104,-74 354.6104,-74 348.6104,-68 348.6104,-62 348.6104,-62 348.6104,-20 348.6104,-20 348.6104,-14 354.6104,-8 360.6104,-8"/>
<text text-anchor="middle" x="380.6226" y="-62" font-family="Arial" font-size="10.00" fill="#000000">baca</text>
</g>
<g id="clust4" class="cluster">
<title>cluster_builtins</title>
<path fill="transparent" stroke="#bcd2ee" stroke-width="2" stroke-dasharray="5,2" d="M20,-13C20,-13 46.6846,-13 46.6846,-13 52.6846,-13 58.6846,-19 58.6846,-25 58.6846,-25 58.6846,-56 58.6846,-56 58.6846,-62 52.6846,-68 46.6846,-68 46.6846,-68 20,-68 20,-68 14,-68 8,-62 8,-56 8,-56 8,-25 8,-25 8,-19 14,-13 20,-13"/>
<text text-anchor="middle" x="33.3423" y="-56" font-family="Arial" font-size="10.00" fill="#000000">builtins</text>
</g>
<!-- abjad.tools.abctools.AbjadObject.AbjadObject&#45;&gt;abjad.tools.segmenttools.SegmentMaker.SegmentMaker -->
<g id="edge1" class="edge">
<title>abjad.tools.abctools.AbjadObject.AbjadObject&#45;&gt;abjad.tools.segmenttools.SegmentMaker.SegmentMaker</title>
<path fill="none" stroke="#778899" d="M148.6868,-31C169.8306,-31 204.8473,-31 231.0565,-31"/>
<polygon fill="#778899" stroke="#778899" points="231.3288,-34.5001 241.3288,-31 231.3288,-27.5001 231.3288,-34.5001"/>
</g>
<!-- abjad.tools.segmenttools.SegmentMaker.SegmentMaker&#45;&gt;baca.SegmentMaker.SegmentMaker -->
<g id="edge2" class="edge">
<title>abjad.tools.segmenttools.SegmentMaker.SegmentMaker&#45;&gt;baca.SegmentMaker.SegmentMaker</title>
<path fill="none" stroke="#778899" d="M289.711,-31C306.1215,-31 328.0841,-31 346.3113,-31"/>
<polygon fill="#778899" stroke="#778899" points="346.5415,-34.5001 356.5414,-31 346.5414,-27.5001 346.5415,-34.5001"/>
</g>
<!-- builtins.object&#45;&gt;abjad.tools.abctools.AbjadObject.AbjadObject -->
<g id="edge3" class="edge">
<title>builtins.object&#45;&gt;abjad.tools.abctools.AbjadObject.AbjadObject</title>
<path fill="none" stroke="#778899" d="M50.6469,-31C64.7425,-31 84.9402,-31 101.4481,-31"/>
<polygon fill="#778899" stroke="#778899" points="101.6622,-34.5001 111.6621,-31 101.6621,-27.5001 101.6622,-34.5001"/>
</g>
<!-- abjad.tools.abctools.AbjadObject.AbjadObject -->
<g id="node1" class="node">
<title>abjad.tools.abctools.AbjadObject.AbjadObject</title>
<path fill="#fbb4ae" stroke="#fbb4ae" stroke-width="2" d="M138.2047,-46.498C138.2047,-46.498 122.0658,-46.498 122.0658,-46.498 116.8998,-46.498 111.7338,-41.332 111.7338,-36.166 111.7338,-36.166 111.7338,-25.834 111.7338,-25.834 111.7338,-20.668 116.8998,-15.502 122.0658,-15.502 122.0658,-15.502 138.2047,-15.502 138.2047,-15.502 143.3707,-15.502 148.5368,-20.668 148.5368,-25.834 148.5368,-25.834 148.5368,-36.166 148.5368,-36.166 148.5368,-41.332 143.3707,-46.498 138.2047,-46.498"/>
<text text-anchor="middle" x="130.1353" y="-34.499" font-family="Arial" font-size="10.00" fill="#000000">Abjad</text>
<text text-anchor="middle" x="130.1353" y="-23" font-family="Arial" font-size="10.00" fill="#000000">Object</text>
</g>
<!-- abjad.tools.segmenttools.SegmentMaker.SegmentMaker -->
<g id="node2" class="node">
<title>abjad.tools.segmenttools.SegmentMaker.SegmentMaker</title>
<path fill="#b3cde3" stroke="#b3cde3" stroke-width="2" d="M279.2905,-46.498C279.2905,-46.498 251.9058,-46.498 251.9058,-46.498 246.7397,-46.498 241.5737,-41.332 241.5737,-36.166 241.5737,-36.166 241.5737,-25.834 241.5737,-25.834 241.5737,-20.668 246.7397,-15.502 251.9058,-15.502 251.9058,-15.502 279.2905,-15.502 279.2905,-15.502 284.4565,-15.502 289.6226,-20.668 289.6226,-25.834 289.6226,-25.834 289.6226,-36.166 289.6226,-36.166 289.6226,-41.332 284.4565,-46.498 279.2905,-46.498"/>
<text text-anchor="middle" x="265.5981" y="-34.499" font-family="Arial" font-size="10.00" fill="#000000">Segment</text>
<text text-anchor="middle" x="265.5981" y="-23" font-family="Arial" font-size="10.00" fill="#000000">Maker</text>
</g>
<!-- baca.SegmentMaker.SegmentMaker -->
<g id="node3" class="node">
<title>baca.SegmentMaker.SegmentMaker</title>
<g id="a_node3"><a xlink:href="../api/baca/SegmentMaker.html#baca.SegmentMaker.SegmentMaker" xlink:title="Segment\nMaker" target="_top">
<path fill="#000000" stroke="#000000" stroke-width="2" d="M394.3149,-46.498C394.3149,-46.498 366.9302,-46.498 366.9302,-46.498 361.7642,-46.498 356.5981,-41.332 356.5981,-36.166 356.5981,-36.166 356.5981,-25.834 356.5981,-25.834 356.5981,-20.668 361.7642,-15.502 366.9302,-15.502 366.9302,-15.502 394.3149,-15.502 394.3149,-15.502 399.481,-15.502 404.647,-20.668 404.647,-25.834 404.647,-25.834 404.647,-36.166 404.647,-36.166 404.647,-41.332 399.481,-46.498 394.3149,-46.498"/>
<text text-anchor="middle" x="380.6226" y="-34.499" font-family="Arial" font-size="10.00" fill="#ffffff">Segment</text>
<text text-anchor="middle" x="380.6226" y="-23" font-family="Arial" font-size="10.00" fill="#ffffff">Maker</text>
</a>
</g>
</g>
<!-- builtins.object -->
<g id="node4" class="node">
<title>builtins.object</title>
<g id="a_node4"><a xlink:href="https://docs.python.org/3.6/library/functions.html#object" xlink:title="object" target="_top">
<path fill="#decbe4" stroke="#decbe4" stroke-width="2" d="M43.8579,-41.0056C43.8579,-41.0056 22.8267,-41.0056 22.8267,-41.0056 19.4915,-41.0056 16.1563,-37.6704 16.1563,-34.3352 16.1563,-34.3352 16.1563,-27.6648 16.1563,-27.6648 16.1563,-24.3296 19.4915,-20.9944 22.8267,-20.9944 22.8267,-20.9944 43.8579,-20.9944 43.8579,-20.9944 47.1931,-20.9944 50.5283,-24.3296 50.5283,-27.6648 50.5283,-27.6648 50.5283,-34.3352 50.5283,-34.3352 50.5283,-37.6704 47.1931,-41.0056 43.8579,-41.0056"/>
<text text-anchor="middle" x="33.3423" y="-28.7495" font-family="Arial" font-size="10.00" fill="#000000">object</text>
</a>
</g>
</g>
</g>
</svg>
