<?xml version="1.0" encoding="UTF-8" standalone="no"?>
<!DOCTYPE svg PUBLIC "-//W3C//DTD SVG 1.1//EN"
 "http://www.w3.org/Graphics/SVG/1.1/DTD/svg11.dtd">
<!-- Generated by graphviz version 2.40.1 (20161225.0304)
 -->
<!-- Title: InheritanceGraph Pages: 1 -->
<svg width="401pt" height="102pt"
 viewBox="0.00 0.00 401.26 102.00" xmlns="http://www.w3.org/2000/svg" xmlns:xlink="http://www.w3.org/1999/xlink">
<g id="graph0" class="graph" transform="scale(1 1) rotate(0) translate(4 98)">
<title>InheritanceGraph</title>
<g id="clust1" class="cluster">
<title>cluster_abjad.tools.abctools</title>
<path fill="transparent" stroke="#bcd2ee" stroke-width="2" stroke-dasharray="5,2" d="M90.6846,-14C90.6846,-14 170.5859,-14 170.5859,-14 176.5859,-14 182.5859,-20 182.5859,-26 182.5859,-26 182.5859,-68 182.5859,-68 182.5859,-74 176.5859,-80 170.5859,-80 170.5859,-80 90.6846,-80 90.6846,-80 84.6846,-80 78.6846,-74 78.6846,-68 78.6846,-68 78.6846,-26 78.6846,-26 78.6846,-20 84.6846,-14 90.6846,-14"/>
<text text-anchor="middle" x="130.6353" y="-68" font-family="Arial" font-size="10.00" fill="#000000">abjad.tools.abctools</text>
</g>
<g id="clust2" class="cluster">
<title>cluster_baca</title>
<path fill="transparent" stroke="#bcd2ee" stroke-width="2" stroke-dasharray="5,2" d="M214.5859,-8C214.5859,-8 373.2623,-8 373.2623,-8 379.2623,-8 385.2623,-14 385.2623,-20 385.2623,-20 385.2623,-74 385.2623,-74 385.2623,-80 379.2623,-86 373.2623,-86 373.2623,-86 214.5859,-86 214.5859,-86 208.5859,-86 202.5859,-80 202.5859,-74 202.5859,-74 202.5859,-20 202.5859,-20 202.5859,-14 208.5859,-8 214.5859,-8"/>
<text text-anchor="middle" x="293.9241" y="-74" font-family="Arial" font-size="10.00" fill="#000000">baca</text>
</g>
<g id="clust3" class="cluster">
<title>cluster_builtins</title>
<path fill="transparent" stroke="#bcd2ee" stroke-width="2" stroke-dasharray="5,2" d="M20,-19C20,-19 46.6846,-19 46.6846,-19 52.6846,-19 58.6846,-25 58.6846,-31 58.6846,-31 58.6846,-62 58.6846,-62 58.6846,-68 52.6846,-74 46.6846,-74 46.6846,-74 20,-74 20,-74 14,-74 8,-68 8,-62 8,-62 8,-31 8,-31 8,-25 14,-19 20,-19"/>
<text text-anchor="middle" x="33.3423" y="-62" font-family="Arial" font-size="10.00" fill="#000000">builtins</text>
</g>
<!-- abjad.tools.abctools.AbjadObject.AbjadObject&#45;&gt;baca.Command.Command -->
<g id="edge2" class="edge">
<title>abjad.tools.abctools.AbjadObject.AbjadObject&#45;&gt;baca.Command.Command</title>
<path fill="none" stroke="#778899" d="M148.686,-37C162.4887,-37 181.9969,-37 200.1353,-37"/>
<polygon fill="#778899" stroke="#778899" points="200.3136,-40.5001 210.3136,-37 200.3136,-33.5001 200.3136,-40.5001"/>
</g>
<!-- baca.Command.Command&#45;&gt;baca.MicrotoneDeviationCommand.MicrotoneDeviationCommand -->
<g id="edge1" class="edge">
<title>baca.Command.Command&#45;&gt;baca.MicrotoneDeviationCommand.MicrotoneDeviationCommand</title>
<path fill="none" stroke="#778899" d="M287.1718,-37C295.5266,-37 304.3589,-37 312.6823,-37"/>
<polygon fill="#778899" stroke="#778899" points="312.8791,-40.5001 322.8791,-37 312.8791,-33.5001 312.8791,-40.5001"/>
</g>
<!-- builtins.object&#45;&gt;abjad.tools.abctools.AbjadObject.AbjadObject -->
<g id="edge3" class="edge">
<title>builtins.object&#45;&gt;abjad.tools.abctools.AbjadObject.AbjadObject</title>
<path fill="none" stroke="#778899" d="M50.6469,-37C64.7425,-37 84.9402,-37 101.4481,-37"/>
<polygon fill="#778899" stroke="#778899" points="101.6622,-40.5001 111.6621,-37 101.6621,-33.5001 101.6622,-40.5001"/>
</g>
<!-- abjad.tools.abctools.AbjadObject.AbjadObject -->
<g id="node1" class="node">
<title>abjad.tools.abctools.AbjadObject.AbjadObject</title>
<path fill="#fbb4ae" stroke="#fbb4ae" stroke-width="2" d="M138.2047,-52.498C138.2047,-52.498 122.0658,-52.498 122.0658,-52.498 116.8998,-52.498 111.7338,-47.332 111.7338,-42.166 111.7338,-42.166 111.7338,-31.834 111.7338,-31.834 111.7338,-26.668 116.8998,-21.502 122.0658,-21.502 122.0658,-21.502 138.2047,-21.502 138.2047,-21.502 143.3707,-21.502 148.5368,-26.668 148.5368,-31.834 148.5368,-31.834 148.5368,-42.166 148.5368,-42.166 148.5368,-47.332 143.3707,-52.498 138.2047,-52.498"/>
<text text-anchor="middle" x="130.1353" y="-40.499" font-family="Arial" font-size="10.00" fill="#000000">Abjad</text>
<text text-anchor="middle" x="130.1353" y="-29" font-family="Arial" font-size="10.00" fill="#000000">Object</text>
</g>
<!-- baca.Command.Command -->
<g id="node2" class="node">
<title>baca.Command.Command</title>
<g id="a_node2"><a xlink:href="../api/baca/Command.html#baca.Command.Command" xlink:title="Command" target="_top">
<ellipse fill="none" stroke="#b3cde3" stroke-width="2" cx="248.8602" cy="-37" rx="38.0498" ry="13.579"/>
<text text-anchor="middle" x="248.8602" y="-34.7495" font-family="Arial" font-size="10.00" fill="#000000">Command</text>
</a>
</g>
</g>
<!-- baca.MicrotoneDeviationCommand.MicrotoneDeviationCommand -->
<g id="node3" class="node">
<title>baca.MicrotoneDeviationCommand.MicrotoneDeviationCommand</title>
<g id="a_node3"><a xlink:href="../api/baca/MicrotoneDeviationCommand.html#baca.MicrotoneDeviationCommand.MicrotoneDeviationCommand" xlink:title="Microtone\nDeviation\nCommand" target="_top">
<path fill="#000000" stroke="#000000" stroke-width="2" d="M365.3264,-58.5C365.3264,-58.5 335.0703,-58.5 335.0703,-58.5 329.0703,-58.5 323.0703,-52.5 323.0703,-46.5 323.0703,-46.5 323.0703,-27.5 323.0703,-27.5 323.0703,-21.5 329.0703,-15.5 335.0703,-15.5 335.0703,-15.5 365.3264,-15.5 365.3264,-15.5 371.3264,-15.5 377.3264,-21.5 377.3264,-27.5 377.3264,-27.5 377.3264,-46.5 377.3264,-46.5 377.3264,-52.5 371.3264,-58.5 365.3264,-58.5"/>
<text text-anchor="middle" x="350.1984" y="-46.2485" font-family="Arial" font-size="10.00" fill="#ffffff">Microtone</text>
<text text-anchor="middle" x="350.1984" y="-34.7495" font-family="Arial" font-size="10.00" fill="#ffffff">Deviation</text>
<text text-anchor="middle" x="350.1984" y="-23.2505" font-family="Arial" font-size="10.00" fill="#ffffff">Command</text>
</a>
</g>
</g>
<!-- builtins.object -->
<g id="node4" class="node">
<title>builtins.object</title>
<g id="a_node4"><a xlink:href="https://docs.python.org/3.6/library/functions.html#object" xlink:title="object" target="_top">
<path fill="#ccebc5" stroke="#ccebc5" stroke-width="2" d="M43.8579,-47.0056C43.8579,-47.0056 22.8267,-47.0056 22.8267,-47.0056 19.4915,-47.0056 16.1563,-43.6704 16.1563,-40.3352 16.1563,-40.3352 16.1563,-33.6648 16.1563,-33.6648 16.1563,-30.3296 19.4915,-26.9944 22.8267,-26.9944 22.8267,-26.9944 43.8579,-26.9944 43.8579,-26.9944 47.1931,-26.9944 50.5283,-30.3296 50.5283,-33.6648 50.5283,-33.6648 50.5283,-40.3352 50.5283,-40.3352 50.5283,-43.6704 47.1931,-47.0056 43.8579,-47.0056"/>
<text text-anchor="middle" x="33.3423" y="-34.7495" font-family="Arial" font-size="10.00" fill="#000000">object</text>
</a>
</g>
</g>
</g>
</svg>
