<?xml version="1.0" encoding="UTF-8" standalone="no"?>
<!DOCTYPE svg PUBLIC "-//W3C//DTD SVG 1.1//EN"
 "http://www.w3.org/Graphics/SVG/1.1/DTD/svg11.dtd">
<!-- Generated by graphviz version 2.40.1 (20161225.0304)
 -->
<!-- Title: InheritanceGraph Pages: 1 -->
<svg width="454pt" height="90pt"
 viewBox="0.00 0.00 453.60 90.00" xmlns="http://www.w3.org/2000/svg" xmlns:xlink="http://www.w3.org/1999/xlink">
<g id="graph0" class="graph" transform="scale(1 1) rotate(0) translate(4 86)">
<title>InheritanceGraph</title>
<g id="clust1" class="cluster">
<title>cluster_abjad.tools.abctools</title>
<path fill="transparent" stroke="#bcd2ee" stroke-width="2" stroke-dasharray="5,2" d="M90.6846,-8C90.6846,-8 170.5859,-8 170.5859,-8 176.5859,-8 182.5859,-14 182.5859,-20 182.5859,-20 182.5859,-62 182.5859,-62 182.5859,-68 176.5859,-74 170.5859,-74 170.5859,-74 90.6846,-74 90.6846,-74 84.6846,-74 78.6846,-68 78.6846,-62 78.6846,-62 78.6846,-20 78.6846,-20 78.6846,-14 84.6846,-8 90.6846,-8"/>
<text text-anchor="middle" x="130.6353" y="-62" font-family="Arial" font-size="10.00" fill="#000000">abjad.tools.abctools</text>
</g>
<g id="clust2" class="cluster">
<title>cluster_abjad.tools.systemtools</title>
<path fill="transparent" stroke="#bcd2ee" stroke-width="2" stroke-dasharray="5,2" d="M214.5859,-8C214.5859,-8 310.0947,-8 310.0947,-8 316.0947,-8 322.0947,-14 322.0947,-20 322.0947,-20 322.0947,-62 322.0947,-62 322.0947,-68 316.0947,-74 310.0947,-74 310.0947,-74 214.5859,-74 214.5859,-74 208.5859,-74 202.5859,-68 202.5859,-62 202.5859,-62 202.5859,-20 202.5859,-20 202.5859,-14 208.5859,-8 214.5859,-8"/>
<text text-anchor="middle" x="262.3403" y="-62" font-family="Arial" font-size="10.00" fill="#000000">abjad.tools.systemtools</text>
</g>
<g id="clust3" class="cluster">
<title>cluster_baca.tools</title>
<path fill="transparent" stroke="#bcd2ee" stroke-width="2" stroke-dasharray="5,2" d="M354.0947,-8C354.0947,-8 425.6035,-8 425.6035,-8 431.6035,-8 437.6035,-14 437.6035,-20 437.6035,-20 437.6035,-62 437.6035,-62 437.6035,-68 431.6035,-74 425.6035,-74 425.6035,-74 354.0947,-74 354.0947,-74 348.0947,-74 342.0947,-68 342.0947,-62 342.0947,-62 342.0947,-20 342.0947,-20 342.0947,-14 348.0947,-8 354.0947,-8"/>
<text text-anchor="middle" x="389.8491" y="-62" font-family="Arial" font-size="10.00" fill="#000000">baca.tools</text>
</g>
<g id="clust4" class="cluster">
<title>cluster_builtins</title>
<path fill="transparent" stroke="#bcd2ee" stroke-width="2" stroke-dasharray="5,2" d="M20,-13C20,-13 46.6846,-13 46.6846,-13 52.6846,-13 58.6846,-19 58.6846,-25 58.6846,-25 58.6846,-56 58.6846,-56 58.6846,-62 52.6846,-68 46.6846,-68 46.6846,-68 20,-68 20,-68 14,-68 8,-62 8,-56 8,-56 8,-25 8,-25 8,-19 14,-13 20,-13"/>
<text text-anchor="middle" x="33.3423" y="-56" font-family="Arial" font-size="10.00" fill="#000000">builtins</text>
</g>
<!-- abjad.tools.abctools.AbjadObject.AbjadObject&#45;&gt;abjad.tools.systemtools.WellformednessManager.WellformednessManager -->
<g id="edge1" class="edge">
<title>abjad.tools.abctools.AbjadObject.AbjadObject&#45;&gt;abjad.tools.systemtools.WellformednessManager.WellformednessManager</title>
<path fill="none" stroke="#778899" d="M148.7966,-31C165.4002,-31 190.4439,-31 212.7902,-31"/>
<polygon fill="#778899" stroke="#778899" points="212.8277,-34.5001 222.8277,-31 212.8276,-27.5001 212.8277,-34.5001"/>
</g>
<!-- abjad.tools.systemtools.WellformednessManager.WellformednessManager&#45;&gt;baca.tools.WellformednessManager.WellformednessManager -->
<g id="edge2" class="edge">
<title>abjad.tools.systemtools.WellformednessManager.WellformednessManager&#45;&gt;baca.tools.WellformednessManager.WellformednessManager</title>
<path fill="none" stroke="#778899" d="M301.986,-31C313.98,-31 327.309,-31 339.886,-31"/>
<polygon fill="#778899" stroke="#778899" points="340.228,-34.5001 350.228,-31 340.228,-27.5001 340.228,-34.5001"/>
</g>
<!-- builtins.object&#45;&gt;abjad.tools.abctools.AbjadObject.AbjadObject -->
<g id="edge3" class="edge">
<title>builtins.object&#45;&gt;abjad.tools.abctools.AbjadObject.AbjadObject</title>
<path fill="none" stroke="#778899" d="M50.6469,-31C64.7425,-31 84.9402,-31 101.4481,-31"/>
<polygon fill="#778899" stroke="#778899" points="101.6622,-34.5001 111.6621,-31 101.6621,-27.5001 101.6622,-34.5001"/>
</g>
<!-- abjad.tools.abctools.AbjadObject.AbjadObject -->
<g id="node1" class="node">
<title>abjad.tools.abctools.AbjadObject.AbjadObject</title>
<path fill="#fbb4ae" stroke="#fbb4ae" stroke-width="2" d="M138.2047,-46.498C138.2047,-46.498 122.0658,-46.498 122.0658,-46.498 116.8998,-46.498 111.7338,-41.332 111.7338,-36.166 111.7338,-36.166 111.7338,-25.834 111.7338,-25.834 111.7338,-20.668 116.8998,-15.502 122.0658,-15.502 122.0658,-15.502 138.2047,-15.502 138.2047,-15.502 143.3707,-15.502 148.5368,-20.668 148.5368,-25.834 148.5368,-25.834 148.5368,-36.166 148.5368,-36.166 148.5368,-41.332 143.3707,-46.498 138.2047,-46.498"/>
<text text-anchor="middle" x="130.1353" y="-34.499" font-family="Arial" font-size="10.00" fill="#000000">Abjad</text>
<text text-anchor="middle" x="130.1353" y="-23" font-family="Arial" font-size="10.00" fill="#000000">Object</text>
</g>
<!-- abjad.tools.systemtools.WellformednessManager.WellformednessManager -->
<g id="node2" class="node">
<title>abjad.tools.systemtools.WellformednessManager.WellformednessManager</title>
<path fill="#b3cde3" stroke="#b3cde3" stroke-width="2" d="M291.5186,-46.498C291.5186,-46.498 233.1621,-46.498 233.1621,-46.498 227.9961,-46.498 222.83,-41.332 222.83,-36.166 222.83,-36.166 222.83,-25.834 222.83,-25.834 222.83,-20.668 227.9961,-15.502 233.1621,-15.502 233.1621,-15.502 291.5186,-15.502 291.5186,-15.502 296.6846,-15.502 301.8506,-20.668 301.8506,-25.834 301.8506,-25.834 301.8506,-36.166 301.8506,-36.166 301.8506,-41.332 296.6846,-46.498 291.5186,-46.498"/>
<text text-anchor="middle" x="262.3403" y="-34.499" font-family="Arial" font-size="10.00" fill="#000000">Wellformedness</text>
<text text-anchor="middle" x="262.3403" y="-23" font-family="Arial" font-size="10.00" fill="#000000">Manager</text>
</g>
<!-- baca.tools.WellformednessManager.WellformednessManager -->
<g id="node3" class="node">
<title>baca.tools.WellformednessManager.WellformednessManager</title>
<g id="a_node3"><a xlink:href="../api/baca/tools/WellformednessManager.html#baca.tools.WellformednessManager.WellformednessManager" xlink:title="Wellformedness\nManager" target="_top">
<path fill="#000000" stroke="#000000" stroke-width="2" d="M419.0274,-46.498C419.0274,-46.498 360.6709,-46.498 360.6709,-46.498 355.5048,-46.498 350.3388,-41.332 350.3388,-36.166 350.3388,-36.166 350.3388,-25.834 350.3388,-25.834 350.3388,-20.668 355.5048,-15.502 360.6709,-15.502 360.6709,-15.502 419.0274,-15.502 419.0274,-15.502 424.1934,-15.502 429.3594,-20.668 429.3594,-25.834 429.3594,-25.834 429.3594,-36.166 429.3594,-36.166 429.3594,-41.332 424.1934,-46.498 419.0274,-46.498"/>
<text text-anchor="middle" x="389.8491" y="-34.499" font-family="Arial" font-size="10.00" fill="#ffffff">Wellformedness</text>
<text text-anchor="middle" x="389.8491" y="-23" font-family="Arial" font-size="10.00" fill="#ffffff">Manager</text>
</a>
</g>
</g>
<!-- builtins.object -->
<g id="node4" class="node">
<title>builtins.object</title>
<g id="a_node4"><a xlink:href="https://docs.python.org/3.6/library/functions.html#object" xlink:title="object" target="_top">
<path fill="#decbe4" stroke="#decbe4" stroke-width="2" d="M43.8579,-41.0056C43.8579,-41.0056 22.8267,-41.0056 22.8267,-41.0056 19.4915,-41.0056 16.1563,-37.6704 16.1563,-34.3352 16.1563,-34.3352 16.1563,-27.6648 16.1563,-27.6648 16.1563,-24.3296 19.4915,-20.9944 22.8267,-20.9944 22.8267,-20.9944 43.8579,-20.9944 43.8579,-20.9944 47.1931,-20.9944 50.5283,-24.3296 50.5283,-27.6648 50.5283,-27.6648 50.5283,-34.3352 50.5283,-34.3352 50.5283,-37.6704 47.1931,-41.0056 43.8579,-41.0056"/>
<text text-anchor="middle" x="33.3423" y="-28.7495" font-family="Arial" font-size="10.00" fill="#000000">object</text>
</a>
</g>
</g>
</g>
</svg>
